<svg width="108" height="34" xmlns="http://www.w3.org/2000/svg"><path d="M40.313 18.242c0-5.022 3.277-9.012 8.334-9.012 2.992 0 4.701 1.176 6.09 2.92l-1.28 1.14c-1.248-1.708-2.815-2.385-4.703-2.385-4.025 0-6.482 3.206-6.482 7.337 0 4.132 2.458 7.373 6.482 7.373 1.888 0 3.455-.713 4.701-2.422l1.281 1.14c-1.39 1.78-3.098 2.956-6.09 2.956-5.056-.001-8.333-4.026-8.333-9.047zm18.556 5.306V3.106h1.852v20.158c0 1.39.57 2.35 1.78 2.35.82 0 1.532-.39 1.924-.819l.712 1.425c-.677.64-1.496 1.068-2.92 1.068-2.243 0-3.348-1.389-3.348-3.74zm8.618-18.021c0-.783.676-1.39 1.425-1.39.783 0 1.424.606 1.424 1.39a1.428 1.428 0 01-1.424 1.425c-.748 0-1.425-.641-1.425-1.425zm.5 21.333V9.658h1.851V26.86h-1.852zm9.469-2.777v9.33h-1.852V9.66h1.852v2.707c1.21-1.745 3.419-3.134 5.983-3.134 4.595 0 7.693 3.49 7.693 9.01 0 5.485-3.098 9.047-7.693 9.047-2.42-.001-4.593-1.248-5.983-3.206zm11.682-5.841c0-4.167-2.172-7.337-6.018-7.337-2.385 0-4.665 1.424-5.664 3.062v8.512c.997 1.638 3.276 3.134 5.663 3.134 3.847.001 6.019-3.204 6.019-7.371zm5.165 6.304l1.104-1.354c1.105 1.39 3.135 2.529 5.556 2.529 2.885 0 4.595-1.496 4.595-3.49 0-4.702-10.863-2.03-10.863-8.227 0-2.636 2.244-4.773 6.126-4.773 2.956 0 4.915 1.14 6.161 2.529l-1.032 1.317c-.998-1.354-2.85-2.28-5.129-2.28-2.67 0-4.274 1.353-4.274 3.134 0 4.31 10.827 1.674 10.827 8.298 0 2.778-2.136 5.057-6.446 5.057-2.779.002-4.916-.816-6.625-2.74zM29.38 9.602a9.192 9.192 0 109.191 9.192 9.192 9.192 0 00-9.192-9.192zm-.014 14.548a5.33 5.33 0 11-.001-10.66 5.33 5.33 0 01.001 10.661z"/><path d="M31.445 18.482c-.144-.158-1.932-1.727-2.551-2.002-.286-.126-.51-.005-.617.3a2.16 2.16 0 00-.079.387c-.052.412-.073 1.023-.07 1.627-.003.604.018 1.215.07 1.627.015.131.041.26.08.387.105.304.33.426.616.3.619-.275 2.407-1.844 2.551-2.002.083-.09.148-.189.142-.312.007-.123-.06-.223-.142-.312zM9.71 9.654a9.15 9.15 0 00-5.315 1.691V.945a.432.432 0 00-.43-.431H.949a.432.432 0 00-.43.43v17.902a9.192 9.192 0 1018.384 0A9.193 9.193 0 009.71 9.655zm-.013 14.548a5.33 5.33 0 01-5.33-5.33l.028-.546a5.33 5.33 0 115.302 5.877z"/><path d="M9.77 9.653c-1.98 0-3.864.576-5.38 1.691l.021 6.895c.388-2.755 2.625-4.695 5.345-4.696"/></svg>