<svg width="352" height="331" xmlns="http://www.w3.org/2000/svg"><g fill="none"><path d="M351.03 127.22H199.36a.5.5 0 01-.5-.5V22.17a.5.5 0 01.5-.5h151.67a.5.5 0 01.5.5v104.55a.5.5 0 01-.5.5zm-151.17-1h150.67V22.67H199.86v103.55z" fill="#263238"/><path d="M336.25 37.24a3.88 3.88 0 110-7.76 3.88 3.88 0 010 7.76zm0-6.76a2.88 2.88 0 100 5.76 2.88 2.88 0 000-5.76zm-8.74 2.88a3.38 3.38 0 11-6.76 0 3.38 3.38 0 016.76 0zm-12.12 0a3.38 3.38 0 11-6.76 0 3.38 3.38 0 016.76 0z" fill="#263238"/><path fill="#BCCDFF" d="M209.99 45.23h131.18v72.9H209.99z"/><path d="M282.5 104.81h-.15c-14.455-.316-25.998-12.145-25.96-26.604.039-14.458 11.643-26.226 26.1-26.466h.16c14.658.041 26.506 11.957 26.465 26.615-.041 14.658-11.957 26.506-26.615 26.465v-.01zm0-52.08c-13.908.234-25.071 11.556-25.11 25.466-.038 13.91 11.063 25.293 24.97 25.604h.15c14.105.039 25.571-11.365 25.61-25.47.039-14.105-11.365-25.571-25.47-25.61l-.15.01z" fill="#FFF"/><path fill="#FFF" d="M277.06 66.56l-.14 24.32 17.83-12.15z"/><g transform="translate(32)"><path d="M199.67 311.47c-1.08-19.23-1.82-32.55-1.82-32.55-68.74 16.65-105.94-10.08-105.94-10.08s-3 18.93-6.82 42.63h114.58z" fill="#263238"/><path d="M199.67 311.97H85.09a.49.49 0 01-.38-.18.51.51 0 01-.11-.4c3.81-23.7 6.82-42.63 6.82-42.63a.51.51 0 01.3-.38.49.49 0 01.48.05c.38.27 37.83 26.4 105.53 10a.49.49 0 01.61.46s.74 13.31 1.83 32.54a.512.512 0 01-.5.53v.01zm-114-1h113.5c-.93-16.58-1.61-28.66-1.76-31.42-62.89 15-99.78-6.46-105.1-9.86-.62 3.73-3.31 20.64-6.63 41.28h-.01z" fill="#263238"/><g opacity=".6"><path d="M199.67 311.47c-1.08-19.23-1.82-32.55-1.82-32.55-68.74 16.65-105.94-10.08-105.94-10.08s-3 18.93-6.82 42.63h114.58z" fill="#FFF"/><path d="M199.67 311.97H85.09a.49.49 0 01-.38-.18.51.51 0 01-.11-.4c3.81-23.7 6.82-42.63 6.82-42.63a.51.51 0 01.3-.38.49.49 0 01.48.05c.38.27 37.83 26.4 105.53 10a.49.49 0 01.61.46s.74 13.31 1.83 32.54a.512.512 0 01-.5.53v.01zm-114-1h113.5c-.93-16.58-1.61-28.66-1.76-31.42-62.89 15-99.78-6.46-105.1-9.86-.62 3.73-3.31 20.64-6.63 41.28h-.01z" fill="#263238"/></g><path d="M2.78 123.38c-.1 3.11-2.11 5.91-2.18 9-.06 2.9 1.58 5.54 2.14 8.38.6 3.06 0 6.2.39 9.27a22.17 22.17 0 001.61 5.75 8.75 8.75 0 002.76 3.67c2 1.48 4.85 1.42 7.26 1.42a11.07 11.07 0 007-2 15.5 15.5 0 003.64-4.92 10.69 10.69 0 001.71-4.81 7.48 7.48 0 00-.6-2.83c-2-4.91-7-8.41-7.84-13.63-.36-2.23.1-4.5.3-6.74.2-2.24.07-4.69-1.29-6.5-2.25-3-7.52-3.63-11-3.62-5.08.01-3.77 3.85-3.9 7.56z" fill="#FFF"/><path d="M14.17 161.38c-2.34 0-4.93-.07-6.91-1.51a9.24 9.24 0 01-2.93-3.88 22.48 22.48 0 01-1.64-5.88 27.41 27.41 0 01-.14-4.33 23.69 23.69 0 00-.25-4.91 22.66 22.66 0 00-1-3.2 11.4 11.4 0 01-.06-10 14.24 14.24 0 001.06-4.31v-2c-.07-1.92-.14-3.73 1-4.89a4.59 4.59 0 013.44-1.13c3.22 0 8.91.47 11.42 3.82 1.22 1.62 1.66 3.79 1.39 6.84-.05.56-.11 1.12-.18 1.67a18 18 0 00-.13 4.95c.46 2.85 2.22 5.16 4.09 7.6a25.87 25.87 0 013.72 5.92 8 8 0 01.64 3 11.11 11.11 0 01-1.77 5 16.4 16.4 0 01-3.77 5.08 11.44 11.44 0 01-7.31 2.12h-.67v.04zm-10.84-38a15.4 15.4 0 01-1.11 4.61 10.4 10.4 0 00.06 9.32c.416 1.09.75 2.21 1 3.35a23.85 23.85 0 01.27 5.12 26.55 26.55 0 00.13 4.18 21.6 21.6 0 001.57 5.61 8.17 8.17 0 002.6 3.47c1.82 1.32 4.4 1.32 6.67 1.32h.29a10.45 10.45 0 006.69-1.91 15.25 15.25 0 003.51-4.78 10.3 10.3 0 001.65-4.57 7 7 0 00-.57-2.64 24.75 24.75 0 00-3.59-5.69c-1.85-2.43-3.77-5-4.28-8a19 19 0 01.13-5.22c.06-.55.13-1.1.17-1.65.25-2.79-.13-4.74-1.19-6.15-2.33-3.11-8.21-3.39-10.62-3.42a3.71 3.71 0 00-2.72.82c-.81.85-.76 2.38-.69 4.16 0 .69.06 1.4 0 2.11l.03-.04z" fill="#263238"/><path d="M9.27 160.32l3.34 26.51s18.88-4.64 24.45-12.09l-10.71-23.56" fill="#FFF"/><path d="M12.61 187.33a.5.5 0 01-.5-.44l-3.34-26.51a.5.5 0 01.43-.56.49.49 0 01.56.44l3.27 25.94c3.09-.82 18.38-5.14 23.45-11.53l-10.59-23.28a.52.52 0 01.25-.67.5.5 0 01.66.25l10.72 23.56a.52.52 0 01-.06.51c-5.61 7.5-24 12.08-24.74 12.27l-.11.02z" fill="#263238"/><path d="M43.7 176.57l6 13.4 61.74-36.3 11.73-15.65 8.08 19.65-16.5 38.64a311 311 0 01-40.51 24 213.73 213.73 0 01-20.65 9.18c-6.73 2.52-13.74 4.24-20.68 6.09a2.1 2.1 0 01-1.46 0c-.31-.16-.44-.54-.72-.77-5.08-4.09-17.82-40.55-19.13-52.16l32.1-6.08z" fill="#193DA1"/><path d="M209.78 123.5l28.56 40.61a31.58 31.58 0 011.63 33.76c-11 19.4-28.59 49-37.76 57.56 0 0 4.28 8.76 3.63 12-.65 3.24-6.69 3.9-6.69 3.9l9.29 15.94s-50.39 44.55-121.27-13.32l14.75-51.7-7.81-5.58 31.33-104.65 32.2-3.46 9.79 25.92 10.57-12.5 10.61 12.5 21.17-10.98z" fill="#193DA1"/><path d="M207.64 183.86a.49.49 0 01-.47-.34.51.51 0 01.31-.64c8.68-3 16.75-4.31 27.85-4.67a.52.52 0 01.52.49.5.5 0 01-.49.51c-11 .36-19 1.7-27.56 4.62a.41.41 0 01-.16.03zm-26.27 96.49a.51.51 0 01-.4-.81 47.93 47.93 0 0119.23-15 .5.5 0 01.39.92 46.81 46.81 0 00-18.82 14.65.51.51 0 01-.4.24zM44.82 210.67a.71.71 0 01-.2 0 .52.52 0 01-.27-.66 65.45 65.45 0 004.66-17.86.503.503 0 011 .11 67 67 0 01-4.73 18.14.51.51 0 01-.46.27zm11-5.78h-.06a.5.5 0 01-.44-.55 17.42 17.42 0 00-2.92-11.67.51.51 0 01.12-.7.5.5 0 01.7.13 18.46 18.46 0 013.1 12.39.51.51 0 01-.5.4zm58.49-25.68a.51.51 0 01-.17 0 .49.49 0 01-.3-.63c1.32-3.79 10-24.74 13.15-32.23a.5.5 0 11.92.39c-3.11 7.28-11.84 28.48-13.13 32.17a.5.5 0 01-.47.3zM178 234.84a.5.5 0 01-.49-.37l-3.34-12.5-52.39-31a.5.5 0 01.51-.86l52.56 31.09a.5.5 0 01.23.3l2.42 9v-10.69a.52.52 0 01.11-.32L200 191.88a.51.51 0 01.71-.07.49.49 0 01.07.7l-22.28 27.47v14.36a.51.51 0 01-.44.5H178zm2.46 34.5a.54.54 0 01-.25-.06l-60.76-34a.5.5 0 01-.2-.68.51.51 0 01.69-.19l60.49 33.81 14.31-10.18a.51.51 0 01.7.11.5.5 0 01-.12.7l-14.57 10.37a.52.52 0 01-.29.12z" fill="#FFF"/><ellipse fill="#434656" cx="69.41" cy="117.1" rx="56.86" ry="57.94"/><circle fill="#8BAAFF" cx="73.21" cy="113.48" r="54.87"/><path d="M73.17 168.84c-30.576-.017-55.351-24.814-55.34-55.39.011-30.576 24.804-55.356 55.38-55.35 30.576.006 55.36 24.794 55.36 55.37-.033 30.578-24.822 55.353-55.4 55.37zm0-109.73c-30.025.017-54.353 24.368-54.34 54.393.013 30.025 24.362 54.356 54.387 54.347 30.025-.01 54.359-24.355 54.353-54.38-.039-30.022-24.378-54.343-54.4-54.36z" fill="#263238"/><path fill="#FFF" d="M51.5 92.46l17.04 48.02 34.4-38.1zm66.52 7.89a.51.51 0 01-.49-.39 43.25 43.25 0 00-23.47-29.13.503.503 0 11.43-.91 44.29 44.29 0 0124 29.81.5.5 0 01-.37.6l-.1.02zm-28.6-31.46a.45.45 0 01-.16 0 43.3 43.3 0 00-9.83-2.11.502.502 0 11.1-1 44 44 0 0110 2.16.506.506 0 11-.16 1l.05-.05z"/><path d="M113.38 187.34s-10.55 21.91-18.49 24.3l-11.88-15.17-10-12.78-2.55-3.15-.06-.1-10.69-19.29-1.2-2.17-.36-1.58-.85-3.72-.06-.27.15-.45 2-5.57 3.57-4.1v-.15l1.29-6.58.14-.71 3.4-2.1v-.05c-.24-.64-2.75-7.79-.79-11.95a4.66 4.66 0 012-2.2 5.46 5.46 0 011.25-.52 2 2 0 01.32-.46c.31-.35.85-.62 1.48.27.293.442.522.924.68 1.43.11.27.22.59.33.94 0 .16.09.32.14.49.05.17.11.36.17.55.12.4.25.8.38 1.2 1.84 5.72 5.28 15.44 5.54 16.14l8.31 2.74 1 .32.49 1.34 2.9 7.94.19.52.09.64 1.84 15.22.07.07 15.69 15.49 3.51 3.47z" fill="#FFF"/><path d="M114.31 188.56a.49.49 0 01-.34-.14c-14.06-13.14-20.19-19.69-20.25-19.75a.51.51 0 01-.13-.29l-.94-9.63a55.7 55.7 0 00-2.16-10.4 11.88 11.88 0 00-3-5.41c-1.63-1.53-3.69-1.91-5.88-2.32-.81-.15-1.65-.3-2.47-.52a.49.49 0 01-.35-.61.5.5 0 01.61-.36c.78.21 1.6.36 2.4.51 2.23.41 4.53.84 6.38 2.58a12.87 12.87 0 013.25 5.84 57 57 0 012.21 10.61l.93 9.46c.9.95 7.1 7.44 20.08 19.58a.5.5 0 01-.34.87v-.02z" fill="#263238"/><path d="M82.57 148.48a.51.51 0 01-.46-.31c-1.06-2.59-2.14-5.33-3.29-8.38-.41-1.05-.8-2.12-1.2-3.18-1.63-4.39-3-8.82-4.35-13-.13-.39-.26-.8-.38-1.2l-.05-.14c0-.15-.09-.29-.12-.43l-.52-1.6c0-.08-.05-.15-.07-.23a2.32 2.32 0 00-.43-.8l-.05-.06a.81.81 0 00-.92-.11 2.52 2.52 0 00-.58.28 5.32 5.32 0 00-.81.6 6.18 6.18 0 00-1.53 2.11l-.1.22c-1.09 2.66-.49 5.9 0 8.27.19 1 .39 2 .61 3.08a.09.09 0 000 .05c1 4.63 2.27 9.11 3.39 12.88a.5.5 0 01-.95.29c-1.13-3.79-2.42-8.29-3.42-13-.23-1-.44-2.07-.63-3.11-.46-2.49-1.1-5.9.1-8.83l.11-.25a7.34 7.34 0 011.78-2.45 6.29 6.29 0 011-.71 3.79 3.79 0 01.8-.37c.228-.081.468-.125.71-.13a1.75 1.75 0 011.27.53l.06.08c.277.341.487.731.62 1.15l.59 1.84c0 .15.08.28.12.41v.14c.12.4.25.8.38 1.19 1.31 4.16 2.71 8.58 4.34 12.94.39 1.07.79 2.13 1.19 3.18 1.15 3 2.22 5.77 3.28 8.35a.5.5 0 01-.28.65.412.412 0 01-.21.05z" fill="#263238"/><path d="M64.17 150.3a.51.51 0 01-.48-.36 30.16 30.16 0 01-1.22-6.8 12.53 12.53 0 011.29-6.73l.08-.15a5.71 5.71 0 013.44-2.34.518.518 0 01.27 1 4.73 4.73 0 00-2.86 1.91l-.07.13a11.58 11.58 0 00-1.15 6.17 28.85 28.85 0 001.19 6.57.51.51 0 01-.35.62l-.14-.02z" fill="#263238"/><path d="M94.11 210.35a.511.511 0 01-.39-.18l-23.65-29.32-.06-.09a191.35 191.35 0 01-10.76-19.42c-.66-1.43-1.18-2.67-1.58-3.79a24.73 24.73 0 01-.93-3 .66.66 0 010-.14c0-.27 0-.54.06-.82.06-.28 0-.49.1-.74a16.83 16.83 0 012-5.73 12.49 12.49 0 013.74-4.27.5.5 0 01.69.15.49.49 0 01-.15.69 11.76 11.76 0 00-3.41 3.93 15.68 15.68 0 00-1.91 5.4 5.94 5.94 0 00-.09.69 5.52 5.52 0 00-.06.68c.234.957.528 1.9.88 2.82.4 1.09.9 2.31 1.55 3.71a193 193 0 0010.65 19.23.58.58 0 01.07.11l23.62 29.28a.5.5 0 01-.07.7.5.5 0 01-.3.11z" fill="#263238"/><path d="M118.17 185.16a48.55 48.55 0 01-5.1 10.26c-7.56 11.93-18.77 24.6-18.77 24.6-7.15-6.53-17.06-21.66-17.06-21.66 4.91-3 12.77-11.73 17.19-17.32 4.24-5.37 7.31-9.94 7.31-9.94l16.43 14.06z" fill="#FFF"/><path d="M94.28 220.52a.51.51 0 01-.34-.13c-7.11-6.5-17-21.6-17.14-21.76a.47.47 0 01-.07-.38.52.52 0 01.22-.32c5-3.06 12.93-12 17.07-17.2 4.14-5.2 7.25-9.86 7.28-9.9a.51.51 0 01.35-.22.5.5 0 01.39.11l16.44 14.06a.52.52 0 01.15.55 49.62 49.62 0 01-5.16 10.34c-7.49 11.83-18.71 24.54-18.82 24.66a.51.51 0 01-.35.17l-.02.02zm-16.37-22c1.63 2.44 10 14.84 16.33 20.79 1.93-2.21 11.67-13.54 18.39-24.15a48.61 48.61 0 004.94-9.83l-15.75-13.47c-.9 1.3-3.58 5.16-7 9.5-4.08 5.13-11.81 13.79-16.91 17.15v.01z" fill="#263238"/><path d="M118.17 185.16c-1.18 3.46-5.32 9.38-7.44 12.71l-17.48-15.2c4.25-5.37 8.47-11.52 8.47-11.52l16.45 14.01z" fill="#000" opacity=".1"/><path d="M2.72 120.13c-.11-1.5-.14-3.28.36-3.89a5.83 5.83 0 011.91-1.36c6.85-3.57 13.71-7.14 20.79-10.26.62-.27 1.4-.53 1.95-.12a1.7 1.7 0 01.44 1.61 9.32 9.32 0 01-2.51 4.8 22.7 22.7 0 01-6.16 4.91 20.13 20.13 0 00-2.3 1.32 21 21 0 00-2.6 2.48 22.49 22.49 0 01-2 1.79" fill="#FFF"/><path d="M12.61 121.91a.47.47 0 01-.39-.19.49.49 0 01.08-.7 21.43 21.43 0 001.94-1.75c.213-.213.413-.423.6-.63a15.73 15.73 0 012.07-1.91 14.17 14.17 0 011.79-1.05l.56-.3a21.91 21.91 0 006-4.81 8.65 8.65 0 002.4-4.52c0-.26.07-.9-.26-1.15-.33-.25-1 0-1.44.18-7.06 3.11-14 6.74-20.76 10.25a5.14 5.14 0 00-1.75 1.22c-.17.21-.43 1-.25 3.55a.501.501 0 01-1 .07c-.16-2.33 0-3.64.47-4.25a6.33 6.33 0 012.07-1.48c6.75-3.52 13.72-7.15 20.81-10.27a2.41 2.41 0 012.46-.07 2.15 2.15 0 01.64 2.07 9.59 9.59 0 01-2.64 5.07 23.18 23.18 0 01-6.29 5l-.57.3a10.64 10.64 0 00-3.6 2.77c-.2.22-.41.43-.61.64a23.57 23.57 0 01-2 1.83.511.511 0 01-.33.13z" fill="#263238"/><path d="M8.67 120.2a10 10 0 011.52-.61c5-1.51 10.45-1.15 15.5-2.57 2.55-.72 5-1.9 7.7-1.88.8 0 1.89.33 1.8 1.33-.09 1-.78 1.4-1.31 2a21.22 21.22 0 01-1.88 2 16.45 16.45 0 01-4.71 2.9 40.24 40.24 0 01-7.8 1.85c-2.56.49-5 1.28-7.51 2-.62.18-1.25.34-1.89.47" fill="#FFF"/><path d="M10.09 128.21a.51.51 0 01-.49-.4.5.5 0 01.39-.59c.56-.11 1.15-.26 1.85-.46l1.52-.44a61.2 61.2 0 016-1.57l1.71-.31a28.36 28.36 0 006-1.51 16.1 16.1 0 004.57-2.81c.48-.441.927-.916 1.34-1.42l.5-.57c.1-.12.22-.24.33-.35a2.45 2.45 0 00.85-1.36.56.56 0 00-.12-.41 1.74 1.74 0 00-1.19-.37 16.88 16.88 0 00-5.41 1.18c-.71.24-1.43.48-2.15.68a45.58 45.58 0 01-7.64 1.25 42.39 42.39 0 00-7.84 1.32c-.5.15-.985.344-1.45.58a.5.5 0 11-.45-.89 10.24 10.24 0 011.61-.65 43.53 43.53 0 018-1.36 45 45 0 007.48-1.21c.71-.2 1.4-.43 2.1-.67a18 18 0 015.74-1.23 2.68 2.68 0 011.92.7c.287.318.422.745.37 1.17a3.24 3.24 0 01-1.12 2l-.31.32-.48.56a15.69 15.69 0 01-1.44 1.52 17 17 0 01-4.85 3 30.06 30.06 0 01-6.21 1.56l-1.69.31c-2 .39-4 1-5.94 1.55l-1.52.44c-.72.21-1.35.36-1.93.48l-.05-.04z" fill="#263238"/><path d="M7.71 127.23a8.79 8.79 0 013.48-1.71 26 26 0 017.27 0 72.06 72.06 0 0012.72-.11 5.48 5.48 0 012.06 0c3.93 1.11-1.37 4.93-2.85 5.57-5.83 2.53-12.73 2.65-19 2.5" fill="#FFF"/><path d="M14.52 134.1H11.4a.5.5 0 01-.49-.51.51.51 0 01.51-.49c6.43.16 13.16 0 18.77-2.46 1.19-.51 4-2.67 4-3.83 0-.34-.37-.61-1.05-.8a5.12 5.12 0 00-1.84 0 72.61 72.61 0 01-12.85.12l-1-.08a22 22 0 00-6.18 0A8.44 8.44 0 008 127.66a.5.5 0 01-.7-.09.5.5 0 01.08-.7 9.29 9.29 0 013.69-1.8 23 23 0 016.47-.06l.94.08a72 72 0 0012.63-.11 5.87 5.87 0 012.25.07c1.41.4 1.75 1.14 1.78 1.69.14 2-3.74 4.46-4.58 4.82-4.85 2.11-10.48 2.54-16.04 2.54z" fill="#263238"/><path d="M15.02 133.88s8.32 11 2.26 21.49" fill="#FFF"/><path d="M17.28 155.87a.54.54 0 01-.25-.06.52.52 0 01-.19-.69c5.83-10.11-2.14-20.83-2.22-20.93a.503.503 0 11.8-.61c.08.11 8.45 11.34 2.29 22a.5.5 0 01-.43.29z" fill="#263238"/><path d="M46.39 180.52s-3.29 5.35-13.72 9.51a70.05 70.05 0 01-20.06 4.4l-3.06-21.5s6.7 1.21 16.45-2.93a51.72 51.72 0 0010.32-5.93l10.07 16.45z" fill="#FFF"/><path d="M12.61 194.93a.49.49 0 01-.49-.43L9.06 173a.49.49 0 01.14-.43.54.54 0 01.44-.13c.06 0 6.68 1.12 16.17-2.9a51.26 51.26 0 0010.21-5.87.52.52 0 01.4-.09.55.55 0 01.33.23l10.06 16.45a.51.51 0 010 .53c-.14.22-3.49 5.53-13.95 9.7a71.14 71.14 0 01-20.21 4.44h-.04zm-2.44-21.42l2.9 20.38a69.82 69.82 0 0019.45-4.32c8.86-3.54 12.51-8 13.3-9.06l-9.65-15.71a51.94 51.94 0 01-10 5.66c-8.1 3.45-14.08 3.21-16 3.05z" fill="#263238"/><path d="M46.39 180.52s-3.29 5.35-13.72 9.51l-6.67-20a51.72 51.72 0 0010.32-5.93l10.07 16.42z" fill="#000" opacity=".1"/><path d="M199.75 68.51s2.44 1.22 4.87-2.92 4.55-15.48-.8-16.45c-7.23-3.52-9.67 1.59-9.67 1.59l-4.39-15.83s-1.21-14.62-10.47-13.4c-9.26 1.22-14.62 11.45-14.62 11.45l-25.09 1-.73 14.13s-4.14-2.92-5.36.73c-1.22 3.65-1.22 15.84 9 19.73 0 0 4 18.15 16.26 28.08l6 .35-1.33 14.21a24 24 0 0014.13 12.42c10.24 3.17 19.7-16.76 19.7-16.76s.24-24.7 2.5-38.33z" fill="#FFF"/><path d="M146.98 36.17c4.51 2.69 9.33 5 14.52 5.88 5.19.88 10.8 0 15-3.11a38.91 38.91 0 001 10.34c.92 3.25 2.89 6.35 5.9 7.87.32 4 .7 8 1 12.08.27 3.39.42 7.78-.92 10.91a21.77 21.77 0 01-7.15 9.38c-3.3 2.45-6 3.35-10.84 6.53-.35.23-.18 1.06.11.76a24 24 0 0012.74-5.06s8.27 16.09 8.49 28.38l10.45-13.32s-.62-28.41 2.95-38.48c0 0 5.14.19 6.48-9.41 1.34-9.6-4.47-10.5-4.47-10.5s-19.88-29.27-24.79-26.59c-4.91 2.68-30.47 14.34-30.47 14.34z" fill="#D9E3FF"/><path d="M146.98 36.17c4.51 2.69 9.33 5 14.52 5.88 5.19.88 10.8 0 15-3.11a38.91 38.91 0 001 10.34c.92 3.25 2.89 6.35 5.9 7.87.32 4 .7 8 1 12.08.27 3.39.42 7.78-.92 10.91a21.77 21.77 0 01-7.15 9.38c-3.3 2.45-6 3.35-10.84 6.53-.35.23-.18 1.06.11.76a24 24 0 0012.74-5.06s8.27 16.09 8.49 28.38l10.45-13.32s-.62-28.41 2.95-38.48c0 0 5.14.19 6.48-9.41 1.34-9.6-4.47-10.5-4.47-10.5s-19.88-29.27-24.79-26.59c-4.91 2.68-30.47 14.34-30.47 14.34z" fill="#FFF" opacity=".5"/><path d="M141.71 67.96h-.12c-4.67-1.09-7.89-4.61-9-9.93-1.06-4.87-.11-10.18 1.37-11.33a2.21 2.21 0 011.81-.44c2.23.38 4.42 3.73 4.51 3.87a.502.502 0 11-.84.55c-.56-.87-2.35-3.18-3.84-3.44a1.27 1.27 0 00-1 .25c-1 .76-2.06 5.53-1 10.33.76 3.48 2.81 7.89 8.3 9.17a.5.5 0 01.37.6.49.49 0 01-.56.37z" fill="#263238"/><path d="M209.39 126.26a.66.66 0 010 .09 66.74 66.74 0 01-7.25 8.13c-.4.39-.82.77-1.23 1.14a85.93 85.93 0 01-18.31 12.9l-.15.09-4.43-26.64a61.8 61.8 0 0016.67-14.06l.32-.34c.69-.76 1.87-1.84 2.23-2.4 1.22-1.89 1-1.08 1-1.08l-.8-3.79-.42-1.93.45.21c11.95 8.67 12.19 26.14 11.92 27.68z" fill="#FFF"/><path d="M182.43 149.13a.46.46 0 01-.22-.06.48.48 0 01-.27-.36l-4.44-26.64a.54.54 0 01.14-.43.7.7 0 01.25-.15 102.29 102.29 0 0015.84-13.26l1.12-1.2a51.37 51.37 0 004.16-4.78.502.502 0 11.82.58 52.9 52.9 0 01-4.25 4.88l-1.12 1.2a104 104 0 01-15.91 13.34l4.25 25.57a159.57 159.57 0 0017.77-12.56c.42-.34.83-.7 1.23-1.05 3.59-3.14 6-5.85 7.12-8.08.41-1.64-1.18-18.27-11.34-27a.5.5 0 11.65-.76c10.68 9.14 12.1 26.19 11.65 28v.13c-1.23 2.41-3.7 5.23-7.38 8.45-.4.36-.83.72-1.25 1.07a162.24 162.24 0 01-18.37 12.94.88.88 0 01-.18.1.46.46 0 01-.27.07z" fill="#263238"/><path d="M178 121.99l-11.77 26.68s-12.4-16.6-12.76-30.41c1.8-7.45 3.74-11.6 11.43-16.11l-.87 5.37s1.42 12.69 13.97 14.47z" fill="#FFF"/><path d="M166.23 149.13a.49.49 0 01-.41-.22c-.11-.16-11.47-16.89-12.84-30.64a.33.33 0 010-.14c2.54-13.72 11.07-16 11.43-16.08a.51.51 0 01.61.37.49.49 0 01-.36.6c-.09 0-8.25 2.24-10.68 15.22 1.21 11.84 10 26 12.17 29.35l11.23-25.42a59.65 59.65 0 01-14.62-16.07.5.5 0 01.16-.69.51.51 0 01.69.16 57.61 57.61 0 0014.67 16 .51.51 0 01.18.62l-11.77 26.63a.5.5 0 01-.41.3l-.05.01z" fill="#263238"/><path d="M209.39 126.14v.1c-1.29 2.52-4 5.4-7.23 8.22v-.08c-1.52-13.17-8-25.8-8-25.8l3.88-4.5-.51-5.61c10.42 9.62 12.13 26.13 11.86 27.67z" fill="#000" opacity=".12"/><path d="M164.17 107.75h-.14a.5.5 0 01-.35-.61 28.69 28.69 0 00.61-10.12.5.5 0 01.99-.13 29.27 29.27 0 01-.63 10.51.5.5 0 01-.48.35zm33.54-2.59a.5.5 0 01-.5-.47c-1.11-23.07 2.5-36.37 2.54-36.5a.52.52 0 01.62-.35.5.5 0 01.34.62c0 .13-3.6 13.29-2.51 36.18a.49.49 0 01-.47.52h-.02zM160 71.29a7.88 7.88 0 01-1.79-.25c-1.65-.39-3.63-1.06-4.31-2.84a4.56 4.56 0 01.89-4.19c.35-.49.74-.94 1.12-1.38a12.17 12.17 0 001.33-1.69c1.59-2.58 1.14-5.86.49-9.27a.51.51 0 01.4-.59.5.5 0 01.58.4c.66 3.47 1.16 7.1-.62 10a13.71 13.71 0 01-1.42 1.83c-.38.414-.737.848-1.07 1.3a3.78 3.78 0 00-.76 3.25c.51 1.34 2.19 1.89 3.6 2.22a3.74 3.74 0 002.74-.06.5.5 0 01.53.85 3.24 3.24 0 01-1.71.42zm-6.48-17.87c.09 1.87-.66 3.42-1.67 3.46-1.01.04-1.89-1.43-2-3.3-.11-1.87.66-3.42 1.67-3.47 1.01-.05 1.92 1.44 2 3.31zm20.56-.49c.09 1.87-.66 3.42-1.67 3.46-1.01.04-1.89-1.43-2-3.3-.11-1.87.66-3.42 1.67-3.47 1.01-.05 1.92 1.44 2 3.31zm-9.38 25.74a12.3 12.3 0 01-5.36-1.1.5.5 0 01-.13-.7.49.49 0 01.69-.13 12.73 12.73 0 007.25.69 10.47 10.47 0 006.81-4.8.52.52 0 01.7-.15.51.51 0 01.14.7 11.39 11.39 0 01-7.48 5.23 12.71 12.71 0 01-2.62.26zm.36-35.74a.5.5 0 01-.3-.9c4.37-3.21 7.36-3.33 11.86-.49a.51.51 0 01.16.69.5.5 0 01-.69.15c-4.17-2.63-6.68-2.52-10.73.45a.49.49 0 01-.3.1zm-18.4 1.79a.52.52 0 01-.33-.12.49.49 0 01-.06-.7 7.13 7.13 0 019.22-1.22.51.51 0 01.12.7.5.5 0 01-.69.12 6.1 6.1 0 00-7.88 1 .49.49 0 01-.38.22z" fill="#263238"/><path d="M161.75 97.26a21.2 21.2 0 01-3.06-.18.5.5 0 01-.23-.09c-.27-.22-6.75-5.28-11.93-15.79-8.82-17.87-7.13-43.7-7.11-44a.501.501 0 011 .07c0 .26-1.69 25.82 7 43.45a47.89 47.89 0 0011.55 15.35 30.9 30.9 0 0010.43-.78c6.47-1.57 12.6-6.64 16.62-10.61a.49.49 0 01.7 0 .48.48 0 010 .7c-4.1 4.06-10.39 9.24-17.08 10.88a33.89 33.89 0 01-7.89 1z" fill="#263238"/><path d="M186.37 85.58a.54.54 0 01-.25-.06.51.51 0 01-.19-.69c4.95-8.86 6-14.53 6.05-14.58a.508.508 0 011 .18c-.05.23-1.13 5.87-6.17 14.89a.49.49 0 01-.44.26zm13.3-16.73c-2.84 0-3.81-1.71-3.86-1.8a.501.501 0 01.88-.48c0 .08 1.17 1.95 4.91 1 2.32-.58 5.05-6.93 5.13-11.93 0-1.92-.33-5.27-3-6-6.2-1.75-9.46 7.37-9.49 7.46a.51.51 0 01-.64.31.5.5 0 01-.3-.64c0-.1 3.6-10.09 10.7-8.1 2.48.7 3.82 3.19 3.77 7-.08 5.15-2.81 12.11-5.89 12.88a8.78 8.78 0 01-2.21.3z" fill="#263238"/><path d="M195.17 54.9c-.76 1.61-3.72.19-4.81-1.22a4.17 4.17 0 010-5c-2.31-.67-4.91-1.71-5.91-3.9a7.36 7.36 0 01-.43-3.49c.21-3.21 1-6.41.67-9.61-.33-3.2-2.31-6.55-5.48-7.14 0 0-11 19.69-31.75 11.74 0 0-9.25 4.42-13.46-3.15-4.21-7.57 1.47-15.57 13.25-20.62 0 0-7.36-.21-7.15-4 .21-3.79 18.07-4.84 30.7-2.07 0 0-1.49-6.63 14.08-4.74 15.57 1.89 20.61 6.28 22.52 17.15 11.41 6.22-1.41 31.86-1.41 31.86s-6.03-6.04-10.82 4.19z" fill="#263238"/><path d="M138.34 33.49a16.23 16.23 0 00-1.17 13.58l3.21 5-.5-17-1.54-1.58zm68.07-12.62a.4.4 0 01-.15 0 .5.5 0 01-.32-.63c4.24-13-4.81-19-5.2-19.29a.51.51 0 01-.14-.7.5.5 0 01.69-.14c.1.06 10.08 6.74 5.6 20.44a.5.5 0 01-.48.32z" fill="#263238"/><path d="M143.92 30.95a13.38 13.38 0 01-8.34-2.64.5.5 0 11.61-.78c3.1 2.42 7.77 3.07 12.51 1.74 4.1-1.16 7.82-3.53 11.41-5.82l.48-.31c4-2.55 8-4.92 12.36-5.87a20.61 20.61 0 0115.66 3c2.23 1.48 3.41 3.14 3.49 4.92a.502.502 0 01-.48.52.47.47 0 01-.52-.47c-.07-1.45-1.09-2.84-3-4.14a19.88 19.88 0 00-14.9-2.81c-4.24.91-8 3.14-12 5.73l-.48.31c-3.66 2.33-7.44 4.74-11.68 5.94a18.72 18.72 0 01-5.12.68z" fill="#FFF"/><path d="M195.74 19.43a.5.5 0 01-.48-.37 12.47 12.47 0 00-7.93-7.89c-3.45-1.23-7.61-1.39-12.72-.49-2 .35-4 .83-5.92 1.29-2.25.53-4.58 1.09-6.92 1.45-3.48.55-8.16.53-10.61-2.65a.5.5 0 11.79-.61c2.15 2.79 6.45 2.78 9.67 2.27 2.29-.36 4.61-.91 6.84-1.44 1.95-.46 4-.94 6-1.29 5.29-.94 9.61-.76 13.22.53a13.45 13.45 0 018.56 8.56.51.51 0 01-.35.62l-.15.02z" fill="#FFF"/></g><g transform="translate(0 294)"><path d="M341.77 23.24H3.43A3.44 3.44 0 010 19.81a3.43 3.43 0 013.43-3.43h338.34a3.43 3.43 0 013.43 3.43 3.44 3.44 0 01-3.43 3.43z" fill="#263238"/><path d="M339.89 20.31h-336a.5.5 0 110-1h336a.5.5 0 010 1z" fill="#FFF"/><circle fill="#FFF" transform="rotate(-47.27 23.608 18.344)" cx="23.608" cy="18.344" r="12.98"/><path d="M23.61 31.82a13.48 13.48 0 1113.48-13.48c-.006 7.443-6.037 13.474-13.48 13.48zm0-26c-6.893 0-12.48 5.587-12.48 12.48 0 6.893 5.587 12.48 12.48 12.48 6.893 0 12.48-5.587 12.48-12.48-.033-6.872-5.608-12.43-12.48-12.44v-.04z" fill="#263238"/><path d="M30.47 18.34a6.86 6.86 0 11-13.72 0 6.86 6.86 0 0113.72 0z" fill="#193DA1"/><path d="M23.61 25.67a7.36 7.36 0 117.36-7.36 7.37 7.37 0 01-7.36 7.36zm0-13.72a6.36 6.36 0 106.36 6.36 6.37 6.37 0 00-6.36-6.33v-.03z" fill="#263238"/></g></g></svg>