<svg viewBox="0 0 352 331" fill="none" xmlns="http://www.w3.org/2000/svg">
<g id="lp-illustration v2">
<g id="Graphics">
<g id="Background_details">
<path id="Shape" fill-rule="evenodd" clip-rule="evenodd" d="M199.36 127.192H351.03C351.306 127.192 351.53 126.968 351.53 126.692V22.1421C351.53 21.8659 351.306 21.6421 351.03 21.6421H199.36C199.084 21.6421 198.86 21.8659 198.86 22.1421V126.692C198.86 126.968 199.084 127.192 199.36 127.192ZM350.53 126.192H199.86V22.6421H350.53V126.192Z" fill="#263238"/>
<path id="Shape_2" fill-rule="evenodd" clip-rule="evenodd" d="M332.37 33.3321C332.37 35.475 334.107 37.2121 336.25 37.2121C338.392 37.2121 340.13 35.475 340.13 33.3321C340.13 31.1893 338.392 29.4521 336.25 29.4521C334.107 29.4521 332.37 31.1893 332.37 33.3321ZM333.37 33.3321C333.37 31.7416 334.659 30.4521 336.25 30.4521C337.84 30.4521 339.13 31.7416 339.13 33.3321C339.13 34.9227 337.84 36.2121 336.25 36.2121C334.659 36.2121 333.37 34.9227 333.37 33.3321Z" fill="#263238"/>
<path id="Path" d="M327.51 33.3321C327.51 35.1989 325.997 36.7121 324.13 36.7121C322.263 36.7121 320.75 35.1989 320.75 33.3321C320.75 31.4654 322.263 29.9521 324.13 29.9521C325.997 29.9521 327.51 31.4654 327.51 33.3321Z" fill="#263238"/>
<path id="Path_2" d="M315.39 33.3321C315.39 35.1989 313.877 36.7121 312.01 36.7121C310.143 36.7121 308.63 35.1989 308.63 33.3321C308.63 31.4654 310.143 29.9521 312.01 29.9521C313.877 29.9521 315.39 31.4654 315.39 33.3321Z" fill="#263238"/>
<rect id="Rectangle" x="209.99" y="45.2021" width="131.18" height="72.9" fill="#BCCDFF"/>
<path id="Shape_3" fill-rule="evenodd" clip-rule="evenodd" d="M282.35 104.782H282.5V104.792C297.157 104.834 309.073 92.9848 309.115 78.3272C309.156 63.6695 297.307 51.7536 282.65 51.7122H282.49C268.033 51.9521 256.428 63.7198 256.39 78.1785C256.352 92.6371 267.895 104.466 282.35 104.782ZM257.39 78.1685C257.428 64.2583 268.591 52.9366 282.5 52.7022L282.65 52.6922C296.755 52.7308 308.158 64.1968 308.12 78.3022C308.081 92.4075 296.615 103.811 282.51 103.772H282.36C268.453 103.461 257.352 92.0788 257.39 78.1685Z" fill="white"/>
<path id="Path_3" d="M277.06 66.532L276.92 90.852L294.75 78.702L277.06 66.532Z" fill="white"/>
</g>
</g>
<g id="Character">
<g id="Character-2">
<path id="Path_4" d="M231.67 311.442C230.59 292.212 229.85 278.892 229.85 278.892C161.11 295.542 123.91 268.812 123.91 268.812C123.91 268.812 120.91 287.742 117.09 311.442H231.67Z" fill="#001550"/>
<path id="Shape_4" fill-rule="evenodd" clip-rule="evenodd" d="M117.09 311.942H231.67V311.932C231.807 311.93 231.937 311.872 232.031 311.772C232.125 311.672 232.175 311.539 232.17 311.402C231.08 292.172 230.34 278.862 230.34 278.862C230.337 278.711 230.263 278.57 230.14 278.482C230.022 278.396 229.872 278.366 229.73 278.402C162.03 294.802 124.58 268.672 124.2 268.402C124.06 268.302 123.878 268.283 123.72 268.352C123.562 268.42 123.45 268.563 123.42 268.732C123.42 268.732 120.41 287.662 116.6 311.362C116.578 311.505 116.618 311.65 116.71 311.762C116.803 311.876 116.943 311.942 117.09 311.942ZM231.17 310.942H117.68C119.156 301.765 120.508 293.325 121.608 286.453C122.983 277.87 123.966 271.734 124.31 269.662C129.63 273.062 166.52 294.522 229.41 279.522C229.519 281.518 229.904 288.39 230.461 298.314C230.674 302.111 230.913 306.354 231.17 310.942Z" fill="#001550"/>
<g id="Group" opacity="0.6">
<path id="Path_5" d="M231.67 311.442C230.59 292.212 229.85 278.892 229.85 278.892C161.11 295.542 123.91 268.812 123.91 268.812C123.91 268.812 120.91 287.742 117.09 311.442H231.67Z" fill="white"/>
<path id="Shape_5" fill-rule="evenodd" clip-rule="evenodd" d="M117.09 311.942H231.67V311.932C231.807 311.93 231.937 311.872 232.031 311.772C232.125 311.672 232.175 311.539 232.17 311.402C231.08 292.172 230.34 278.862 230.34 278.862C230.337 278.711 230.263 278.57 230.14 278.482C230.022 278.396 229.872 278.366 229.73 278.402C162.03 294.802 124.58 268.672 124.2 268.402C124.06 268.302 123.878 268.283 123.72 268.352C123.562 268.42 123.45 268.563 123.42 268.732C123.42 268.732 120.41 287.662 116.6 311.362C116.578 311.505 116.618 311.65 116.71 311.762C116.803 311.876 116.943 311.942 117.09 311.942ZM231.17 310.942H117.68C119.156 301.765 120.508 293.325 121.608 286.453C122.983 277.87 123.966 271.734 124.31 269.662C129.63 273.062 166.52 294.522 229.41 279.522C229.519 281.518 229.904 288.39 230.461 298.314C230.674 302.111 230.913 306.354 231.17 310.942Z" fill="#001550"/>
</g>
<path id="Path_6" d="M34.7797 123.352C34.6797 126.462 32.6697 129.262 32.5997 132.352C32.5397 135.252 34.1797 137.892 34.7397 140.732C35.3397 143.792 34.7397 146.932 35.1297 150.002C35.4047 151.983 35.9462 153.917 36.7397 155.752C37.3166 157.199 38.2694 158.466 39.4997 159.422C41.4997 160.902 44.3497 160.842 46.7597 160.842C49.2518 160.984 51.7186 160.279 53.7597 158.842C55.288 157.46 56.5255 155.788 57.3997 153.922C58.3498 152.48 58.9366 150.83 59.1097 149.112C59.0958 148.139 58.892 147.177 58.5097 146.282C56.5097 141.372 51.5097 137.872 50.6697 132.652C50.3097 130.422 50.7697 128.152 50.9697 125.912C51.1697 123.672 51.0397 121.222 49.6797 119.412C47.4297 116.412 42.1597 115.782 38.6797 115.792C33.5997 115.802 34.9097 119.642 34.7797 123.352Z" fill="white"/>
<path id="Shape_6" fill-rule="evenodd" clip-rule="evenodd" d="M39.26 159.842C41.24 161.282 43.83 161.352 46.17 161.352V161.312H46.84C49.4472 161.46 52.0267 160.712 54.15 159.192C55.7244 157.759 57.0049 156.034 57.92 154.112C58.905 152.613 59.5123 150.897 59.69 149.112C59.6722 148.08 59.4548 147.061 59.05 146.112C58.0836 143.979 56.8322 141.988 55.33 140.192C53.46 137.752 51.7 135.442 51.24 132.592C51.0551 130.944 51.0988 129.278 51.37 127.642C51.44 127.092 51.5 126.532 51.55 125.972C51.82 122.922 51.38 120.752 50.16 119.132C47.65 115.782 41.96 115.312 38.74 115.312C37.4869 115.201 36.2434 115.61 35.3 116.442C34.1638 117.598 34.2295 119.4 34.2993 121.313L34.3 121.332V123.332C34.1741 124.815 33.8164 126.27 33.24 127.642C31.7189 130.807 31.741 134.496 33.3 137.642C33.7119 138.682 34.0461 139.752 34.3 140.842C34.5534 142.466 34.6372 144.111 34.55 145.752C34.4823 147.197 34.5291 148.645 34.69 150.082C34.9667 152.107 35.5185 154.086 36.33 155.962C36.9428 157.494 37.9544 158.833 39.26 159.842ZM34.22 127.962C34.8257 126.492 35.2002 124.937 35.33 123.352L35.3 123.392C35.3401 122.917 35.3266 122.442 35.3132 121.973C35.3066 121.741 35.3 121.511 35.3 121.282C35.23 119.502 35.18 117.972 35.99 117.122C36.7519 116.499 37.7304 116.204 38.71 116.302C41.12 116.332 47 116.612 49.33 119.722C50.39 121.132 50.77 123.082 50.52 125.872C50.49 126.285 50.4431 126.697 50.3962 127.11C50.3806 127.247 50.365 127.385 50.35 127.522C50.0666 129.248 50.0229 131.004 50.22 132.742C50.73 135.742 52.65 138.312 54.5 140.742C55.9501 142.466 57.1579 144.381 58.09 146.432C58.4496 147.267 58.6432 148.163 58.66 149.072C58.4823 150.705 57.9165 152.272 57.01 153.642C56.164 155.45 54.9715 157.074 53.5 158.422C51.5536 159.804 49.1927 160.478 46.81 160.332H46.52C44.25 160.332 41.67 160.332 39.85 159.012C38.6866 158.111 37.7883 156.912 37.25 155.542C36.4757 153.751 35.9476 151.864 35.68 149.932C35.5268 148.544 35.4833 147.147 35.55 145.752C35.6442 144.041 35.5537 142.324 35.28 140.632C35.0301 139.492 34.6959 138.372 34.28 137.282C32.7911 134.359 32.7689 130.904 34.22 127.962Z" fill="#001550"/>
<path id="Path_7" d="M41.27 160.292L44.61 186.802C44.61 186.802 63.49 182.162 69.06 174.712L58.35 151.152" fill="white"/>
<path id="Path_8" d="M44.6098 187.302C44.5064 187.302 44.4054 187.27 44.3198 187.212C44.2032 187.131 44.1269 187.003 44.1098 186.862L40.7698 160.352C40.7344 160.079 40.9267 159.828 41.1998 159.792C41.3331 159.772 41.4687 159.808 41.5746 159.891C41.6806 159.975 41.7476 160.098 41.7598 160.232L45.0298 186.172C48.1198 185.352 63.4098 181.032 68.4798 174.642L57.8898 151.362C57.782 151.108 57.8918 150.814 58.1398 150.692C58.3911 150.579 58.6862 150.691 58.7998 150.942L69.5198 174.502C69.591 174.671 69.5682 174.864 69.4598 175.012C63.8498 182.512 45.4598 187.092 44.7198 187.282L44.6098 187.302Z" fill="#001550"/>
<path id="Path_9" d="M75.7001 176.542L81.7001 189.942L143.44 153.642L155.17 137.992L163.25 157.642L146.75 196.282C133.873 205.294 120.331 213.317 106.24 220.282C99.5235 223.704 92.6305 226.768 85.5901 229.462C78.8601 231.982 71.8501 233.702 64.9101 235.552C64.4391 235.727 63.9211 235.727 63.4501 235.552C63.1401 235.392 63.0101 235.012 62.7301 234.782C57.6501 230.692 44.9101 194.232 43.6001 182.622L75.7001 176.542Z" fill="#00217D"/>
<path id="Path_10" d="M241.78 123.472L270.34 164.082C277.366 174.073 278.001 187.22 271.97 197.842C260.97 217.242 243.38 246.842 234.21 255.402C234.21 255.402 238.49 264.162 237.84 267.402C237.19 270.642 231.15 271.302 231.15 271.302L240.44 287.242C240.44 287.242 190.05 331.792 119.17 273.922L133.92 222.222L126.11 216.642L157.44 111.992L189.64 108.532L199.43 134.452L210 121.952L220.61 134.452L241.78 123.472Z" fill="#00217D"/>
<path id="Path_11" d="M239.64 183.832C239.426 183.834 239.236 183.696 239.17 183.492C239.083 183.23 239.221 182.946 239.48 182.852C248.16 179.852 256.23 178.542 267.33 178.182C267.606 178.182 267.834 178.397 267.85 178.672C267.853 178.805 267.803 178.933 267.711 179.029C267.619 179.124 267.493 179.18 267.36 179.182C256.36 179.542 248.36 180.882 239.8 183.802C239.749 183.823 239.695 183.833 239.64 183.832Z" fill="white"/>
<path id="Path_12" d="M213.37 280.322C213.18 280.317 213.009 280.208 212.925 280.038C212.841 279.868 212.858 279.665 212.97 279.512C217.979 272.938 224.604 267.77 232.2 264.512C232.451 264.417 232.732 264.537 232.837 264.784C232.942 265.032 232.833 265.318 232.59 265.432C225.157 268.609 218.673 273.656 213.77 280.082C213.683 280.222 213.534 280.311 213.37 280.322Z" fill="white"/>
<path id="Path_13" d="M76.8202 210.642C76.7539 210.652 76.6865 210.652 76.6202 210.642C76.3698 210.528 76.2514 210.239 76.3502 209.982C78.7394 204.279 80.3084 198.266 81.0102 192.122C81.0406 191.846 81.2891 191.647 81.5652 191.677C81.8413 191.708 82.0406 191.956 82.0102 192.232C81.2914 198.471 79.6992 204.577 77.2802 210.372C77.1899 210.542 77.0121 210.646 76.8202 210.642Z" fill="white"/>
<path id="Path_14" d="M87.8198 204.862H87.7598C87.487 204.831 87.2905 204.585 87.3198 204.312C87.7631 200.199 86.728 196.062 84.3998 192.642C84.2441 192.415 84.2972 192.105 84.5198 191.942C84.6296 191.866 84.7654 191.836 84.897 191.861C85.0285 191.885 85.1448 191.961 85.2198 192.072C87.6944 195.702 88.7936 200.095 88.3198 204.462C88.268 204.696 88.0598 204.863 87.8198 204.862Z" fill="white"/>
<path id="Path_15" d="M146.31 179.182C146.254 179.192 146.196 179.192 146.14 179.182C146.016 179.139 145.915 179.048 145.858 178.93C145.802 178.811 145.795 178.675 145.84 178.552C147.16 174.762 155.84 153.812 158.99 146.322C159.055 146.151 159.208 146.029 159.39 146.004C159.571 145.979 159.752 146.056 159.86 146.203C159.969 146.351 159.988 146.546 159.91 146.712C156.8 153.992 148.07 175.192 146.78 178.882C146.699 179.068 146.513 179.187 146.31 179.182Z" fill="white"/>
<path id="Path_16" d="M210 234.812C209.771 234.815 209.57 234.663 209.51 234.442L206.17 221.942L153.78 190.942C153.548 190.799 153.473 190.496 153.612 190.261C153.752 190.027 154.053 189.947 154.29 190.082L206.85 221.172C206.963 221.238 207.046 221.346 207.08 221.472L209.5 230.472V219.782C209.5 219.666 209.539 219.553 209.61 219.462L232 191.852C232.178 191.639 232.494 191.608 232.71 191.782C232.814 191.864 232.88 191.985 232.893 192.117C232.906 192.249 232.866 192.381 232.78 192.482L210.5 219.952V234.312C210.498 234.565 210.31 234.777 210.06 234.812H210Z" fill="white"/>
<path id="Path_17" d="M212.46 269.312C212.373 269.313 212.287 269.292 212.21 269.252L151.45 235.252C151.333 235.189 151.246 235.081 151.209 234.954C151.171 234.826 151.186 234.689 151.25 234.572C151.39 234.331 151.697 234.246 151.94 234.382L212.43 268.192L226.74 258.012C226.965 257.854 227.274 257.903 227.44 258.122C227.518 258.231 227.549 258.366 227.526 258.497C227.503 258.629 227.429 258.746 227.32 258.822L212.75 269.192C212.668 269.261 212.567 269.303 212.46 269.312Z" fill="white"/>
<ellipse id="Oval" cx="101.41" cy="117.072" rx="56.86" ry="57.94" fill="#434656"/>
<circle id="Oval_2" cx="105.21" cy="113.452" r="54.87" fill="#8BAAFF"/>
<path id="Shape_7" fill-rule="evenodd" clip-rule="evenodd" d="M49.8301 113.422C49.819 143.998 74.594 168.795 105.17 168.812C135.748 168.795 160.537 144.02 160.57 113.442C160.57 82.8659 135.786 58.0775 105.21 58.072C74.634 58.0665 49.8411 82.8459 49.8301 113.422ZM50.8301 113.475C50.8172 83.4502 75.145 59.0986 105.17 59.082C135.192 59.0985 159.531 83.4202 159.57 113.442C159.576 143.467 135.242 167.813 105.217 167.822C75.1916 167.831 50.843 143.5 50.8301 113.475Z" fill="#001550"/>
<path id="Path_18" d="M83.5 92.4321L100.54 140.452L134.94 102.352L83.5 92.4321Z" fill="white"/>
<path id="Path_19" d="M145.38 187.312C145.38 187.312 134.83 209.222 126.89 211.612L115.01 196.442L105.01 183.662L102.46 180.512L102.4 180.412L91.7097 161.122L90.5097 158.952L90.1497 157.372L89.2997 153.652L89.2397 153.382L89.3897 152.932L91.3897 147.362L94.9597 143.262V143.112L96.2497 136.532L96.3897 135.822L99.7897 133.722C99.7897 133.722 99.7897 133.722 99.7897 133.672C99.5497 133.032 97.0397 125.882 98.9997 121.722C99.4083 120.79 100.111 120.017 101 119.522C101.393 119.298 101.813 119.123 102.25 119.002C102.334 118.835 102.442 118.68 102.57 118.542C102.88 118.192 103.42 117.922 104.05 118.812C104.343 119.254 104.572 119.736 104.73 120.242C104.84 120.512 104.95 120.832 105.06 121.182C105.06 121.342 105.15 121.502 105.2 121.672C105.25 121.842 105.31 122.032 105.37 122.222C105.49 122.622 105.62 123.022 105.75 123.422C107.59 129.142 111.03 138.862 111.29 139.562L119.6 142.302L120.6 142.622L121.09 143.962L123.99 151.902L124.18 152.422L124.27 153.062L126.11 168.282L126.18 168.352L141.87 183.842L145.38 187.312Z" fill="white"/>
<path id="Path_20" d="M146.31 188.532C146.183 188.531 146.061 188.481 145.97 188.392C131.91 175.252 125.78 168.702 125.72 168.642C125.647 168.562 125.601 168.46 125.59 168.352L124.65 158.722C124.263 155.194 123.54 151.712 122.49 148.322C121.985 146.285 120.95 144.419 119.49 142.912C117.86 141.382 115.8 141.002 113.61 140.592C112.8 140.442 111.96 140.292 111.14 140.072C111.012 140.039 110.902 139.956 110.836 139.841C110.77 139.726 110.753 139.589 110.79 139.462C110.823 139.333 110.906 139.223 111.02 139.155C111.135 139.088 111.271 139.069 111.4 139.102C112.18 139.312 113 139.462 113.8 139.612C116.03 140.022 118.33 140.452 120.18 142.192C121.759 143.818 122.88 145.833 123.43 148.032C124.502 151.49 125.242 155.043 125.64 158.642L126.57 168.102C127.47 169.052 133.67 175.542 146.65 187.682C146.803 187.821 146.855 188.041 146.779 188.234C146.704 188.427 146.517 188.554 146.31 188.552V188.532Z" fill="#001550"/>
<path id="Path_21" d="M114.57 148.452C114.369 148.448 114.189 148.327 114.11 148.142C113.05 145.552 111.97 142.812 110.82 139.762C110.41 138.712 110.02 137.642 109.62 136.582C107.99 132.192 106.62 127.762 105.27 123.582C105.14 123.192 105.01 122.782 104.89 122.382L104.84 122.242C104.84 122.092 104.75 121.952 104.72 121.812L104.2 120.212C104.2 120.132 104.15 120.062 104.13 119.982C104.041 119.69 103.895 119.418 103.7 119.182L103.65 119.122C103.397 118.896 103.03 118.852 102.73 119.012C102.526 119.08 102.331 119.174 102.15 119.292C101.862 119.466 101.59 119.667 101.34 119.892C100.686 120.479 100.164 121.198 99.8101 122.002L99.7101 122.222C98.6201 124.882 99.2201 128.122 99.7101 130.492C99.9001 131.492 100.1 132.492 100.32 133.572C100.315 133.588 100.315 133.606 100.32 133.622C101.32 138.252 102.59 142.732 103.71 146.502C103.756 146.752 103.607 146.996 103.364 147.07C103.121 147.144 102.862 147.024 102.76 146.792C101.63 143.002 100.34 138.502 99.3401 133.792C99.1101 132.792 98.9001 131.722 98.7101 130.682C98.2501 128.192 97.6101 124.782 98.8101 121.852L98.9201 121.602C99.3367 120.67 99.9429 119.836 100.7 119.152C101.009 118.883 101.344 118.645 101.7 118.442C101.951 118.288 102.22 118.164 102.5 118.072C102.728 117.991 102.968 117.947 103.21 117.942C103.688 117.938 104.147 118.129 104.48 118.472L104.54 118.552C104.817 118.893 105.027 119.283 105.16 119.702L105.75 121.542C105.75 121.692 105.83 121.822 105.87 121.952V122.092C105.99 122.492 106.12 122.892 106.25 123.282C107.56 127.442 108.96 131.862 110.59 136.222C110.98 137.292 111.38 138.352 111.78 139.402C112.93 142.402 114 145.172 115.06 147.752C115.109 147.875 115.107 148.013 115.055 148.135C115.002 148.257 114.903 148.353 114.78 148.402C114.716 148.437 114.643 148.454 114.57 148.452Z" fill="#001550"/>
<path id="Path_22" d="M96.1699 150.272C95.9488 150.269 95.7549 150.123 95.6899 149.912C95.0241 147.7 94.6148 145.418 94.4699 143.112C94.2662 140.792 94.7129 138.462 95.7599 136.382L95.8399 136.232C96.6515 135.047 97.8798 134.212 99.2799 133.892C99.5561 133.817 99.8404 133.981 99.9149 134.257C99.9895 134.533 99.8261 134.817 99.5499 134.892C98.3907 135.147 97.3698 135.829 96.6899 136.802L96.6199 136.932C95.6759 138.844 95.278 140.979 95.4699 143.102C95.611 145.331 96.0103 147.535 96.6599 149.672C96.7307 149.939 96.5754 150.214 96.3099 150.292L96.1699 150.272Z" fill="#001550"/>
<path id="Path_23" d="M126.11 210.322C125.96 210.322 125.817 210.257 125.72 210.142L102.07 180.822L102.01 180.732C98.0506 174.472 94.4578 167.988 91.2501 161.312C90.5901 159.882 90.0701 158.642 89.6701 157.522C89.2968 156.543 88.9862 155.541 88.7401 154.522C88.7351 154.475 88.7351 154.429 88.7401 154.382C88.7401 154.112 88.7401 153.842 88.8001 153.562C88.8601 153.282 88.8001 153.072 88.9001 152.822C89.214 150.807 89.8917 148.865 90.9001 147.092C91.8025 145.401 93.0822 143.939 94.6401 142.822C94.8721 142.673 95.1807 142.74 95.3301 142.972C95.4042 143.083 95.4301 143.219 95.4018 143.349C95.3735 143.479 95.2935 143.592 95.1801 143.662C93.7642 144.701 92.599 146.044 91.7701 147.592C90.8072 149.259 90.1598 151.09 89.8601 152.992C89.8166 153.22 89.7865 153.45 89.7701 153.682C89.736 153.907 89.716 154.134 89.7101 154.362C89.9444 155.319 90.2383 156.261 90.5901 157.182C90.9901 158.272 91.4901 159.492 92.1401 160.892C95.3218 167.499 98.8776 173.92 102.79 180.122C102.817 180.156 102.841 180.193 102.86 180.232L126.48 209.512C126.653 209.725 126.621 210.037 126.41 210.212C126.325 210.281 126.219 210.319 126.11 210.322Z" fill="#001550"/>
<path id="Path_24" d="M150.17 185.132C148.881 188.741 147.169 192.185 145.07 195.392C137.51 207.322 126.3 219.992 126.3 219.992C119.15 213.462 109.24 198.332 109.24 198.332C114.15 195.332 122.01 186.602 126.43 181.012C130.67 175.642 133.74 171.072 133.74 171.072L150.17 185.132Z" fill="white"/>
<path id="Shape_8" fill-rule="evenodd" clip-rule="evenodd" d="M125.94 220.362C126.033 220.446 126.154 220.492 126.28 220.492L126.3 220.472C126.434 220.464 126.56 220.403 126.65 220.302C126.76 220.182 137.98 207.472 145.47 195.642C147.587 192.408 149.319 188.938 150.63 185.302C150.694 185.105 150.635 184.889 150.48 184.752L134.04 170.692C133.931 170.602 133.79 170.562 133.65 170.582C133.507 170.603 133.38 170.683 133.3 170.802C133.298 170.805 133.283 170.826 133.256 170.866C132.866 171.444 129.894 175.837 126.02 180.702C121.88 185.902 113.95 194.842 108.95 197.902C108.838 197.976 108.759 198.091 108.73 198.222C108.698 198.353 108.723 198.491 108.8 198.602C108.814 198.618 108.921 198.777 109.109 199.056C110.849 201.635 119.526 214.498 125.94 220.362ZM126.24 219.282C119.91 213.332 111.54 200.932 109.91 198.492V198.482C115.01 195.122 122.74 186.462 126.82 181.332C130.24 176.992 132.92 173.132 133.82 171.832L149.57 185.302C148.301 188.755 146.643 192.053 144.63 195.132C137.91 205.742 128.17 217.072 126.24 219.282Z" fill="#001550"/>
<path id="Path_25" d="M34.7201 120.102C34.6101 118.602 34.5801 116.822 35.0801 116.212C35.6181 115.634 36.2679 115.171 36.9901 114.852C43.8401 111.282 50.7001 107.712 57.7801 104.592C58.4001 104.322 59.1801 104.062 59.7301 104.472C60.1483 104.895 60.3151 105.506 60.1701 106.082C59.8271 107.895 58.9535 109.566 57.6601 110.882C55.9086 112.865 53.8239 114.527 51.5001 115.792C50.7053 116.181 49.9369 116.622 49.2001 117.112C48.2642 117.863 47.3944 118.693 46.6001 119.592C45.9697 120.228 45.3018 120.826 44.6001 121.382" fill="white"/>
<path id="Path_26" d="M44.6098 121.882C44.4566 121.886 44.3111 121.815 44.2198 121.692C44.1354 121.589 44.0963 121.457 44.1114 121.325C44.1264 121.193 44.1944 121.073 44.2998 120.992C44.9815 120.449 45.6293 119.864 46.2398 119.242C46.4531 119.029 46.6531 118.819 46.8398 118.612C47.4713 117.915 48.1641 117.275 48.9098 116.702C49.48 116.309 50.0783 115.958 50.6998 115.652L51.2598 115.352C53.5277 114.115 55.559 112.486 57.2598 110.542C58.4974 109.312 59.334 107.736 59.6598 106.022C59.6598 105.762 59.7298 105.122 59.3998 104.872C59.0698 104.622 58.3998 104.872 57.9598 105.052C50.8998 108.162 43.9598 111.792 37.1998 115.302C36.5376 115.582 35.9414 115.997 35.4498 116.522C35.2798 116.732 35.0198 117.522 35.1998 120.072C35.2191 120.348 35.0109 120.588 34.7348 120.607C34.4587 120.626 34.2191 120.418 34.1998 120.142C34.0398 117.812 34.1998 116.502 34.6698 115.892C35.2525 115.264 35.9567 114.76 36.7398 114.412C43.4898 110.892 50.4598 107.262 57.5498 104.142C58.2952 103.67 59.2388 103.643 60.0098 104.072C60.5806 104.596 60.8252 105.387 60.6498 106.142C60.3056 108.061 59.3847 109.83 58.0098 111.212C56.2202 113.232 54.0916 114.924 51.7198 116.212L51.1498 116.512C49.7644 117.165 48.5364 118.11 47.5498 119.282C47.3498 119.502 47.1398 119.712 46.9398 119.922C46.3088 120.57 45.641 121.181 44.9398 121.752C44.8489 121.833 44.7318 121.88 44.6098 121.882Z" fill="#001550"/>
<path id="Path_27" d="M40.6699 120.172C41.1591 119.928 41.6674 119.723 42.1899 119.562C47.1899 118.052 52.6399 118.412 57.6899 116.992C60.2399 116.272 62.6899 115.092 65.3899 115.112C66.1899 115.112 67.2799 115.442 67.1899 116.442C67.0999 117.442 66.4099 117.842 65.8799 118.442C65.2971 119.149 64.6691 119.817 63.9999 120.442C62.6049 121.668 61.0124 122.648 59.2899 123.342C56.758 124.217 54.145 124.837 51.4899 125.192C48.9299 125.682 46.4899 126.472 43.9799 127.192C43.3599 127.372 42.7299 127.532 42.0899 127.662" fill="white"/>
<path id="Path_28" d="M42.0898 128.182C41.8536 128.178 41.6508 128.013 41.5998 127.782C41.5733 127.652 41.5995 127.517 41.6726 127.406C41.7458 127.296 41.8599 127.219 41.9898 127.192C42.5498 127.082 43.1398 126.932 43.8398 126.732L45.3598 126.292C47.332 125.668 49.3346 125.144 51.3598 124.722L53.0698 124.412C55.1189 124.129 57.1309 123.623 59.0698 122.902C60.7396 122.228 62.2844 121.278 63.6398 120.092C64.1192 119.651 64.5669 119.176 64.9798 118.672L65.4798 118.102C65.5798 117.982 65.6998 117.862 65.8098 117.752C66.2377 117.407 66.5371 116.928 66.6598 116.392C66.6756 116.245 66.6325 116.098 66.5398 115.982C66.2025 115.716 65.7786 115.584 65.3498 115.612C63.4939 115.705 61.6659 116.104 59.9398 116.792C59.2298 117.032 58.5098 117.272 57.7898 117.472C55.2832 118.105 52.7274 118.523 50.1498 118.722C47.5009 118.916 44.8761 119.358 42.3098 120.042C41.8102 120.192 41.325 120.386 40.8598 120.622C40.6993 120.719 40.4981 120.718 40.3388 120.619C40.1794 120.52 40.0887 120.341 40.1037 120.154C40.1186 119.967 40.2368 119.804 40.4098 119.732C40.9271 119.47 41.4657 119.253 42.0198 119.082C44.6383 118.381 47.3166 117.925 50.0198 117.722C52.5428 117.53 55.045 117.125 57.4998 116.512C58.2098 116.312 58.8998 116.082 59.5998 115.842C61.433 115.121 63.3721 114.705 65.3398 114.612C66.0472 114.583 66.7374 114.834 67.2598 115.312C67.5467 115.63 67.6816 116.057 67.6298 116.482C67.5127 117.263 67.1144 117.974 66.5098 118.482L66.1998 118.802L65.7198 119.362C65.2742 119.9 64.7932 120.408 64.2798 120.882C62.8436 122.148 61.2039 123.162 59.4298 123.882C57.4213 124.622 55.3395 125.145 53.2198 125.442L51.5298 125.752C49.5298 126.142 47.5298 126.752 45.5898 127.302L44.0698 127.742C43.3498 127.952 42.7198 128.102 42.1398 128.222L42.0898 128.182Z" fill="#001550"/>
<path id="Path_29" d="M39.71 127.202C40.7282 126.38 41.9171 125.796 43.19 125.492C45.6013 125.152 48.0486 125.152 50.46 125.492C54.6949 125.831 58.9515 125.794 63.18 125.382C63.8605 125.252 64.5595 125.252 65.24 125.382C69.17 126.492 63.87 130.312 62.39 130.952C56.56 133.482 49.66 133.602 43.39 133.452" fill="white"/>
<path id="Path_30" d="M46.5199 134.072C45.5199 134.072 44.4299 134.072 43.3999 134.072C43.2673 134.069 43.1411 134.014 43.0492 133.919C42.9573 133.823 42.9072 133.695 42.9099 133.562C42.9206 133.288 43.1458 133.072 43.4199 133.072C49.8499 133.232 56.5799 133.072 62.1899 130.612C63.3799 130.102 66.1899 127.942 66.1899 126.782C66.1899 126.442 65.8199 126.172 65.1399 125.982C64.5316 125.871 63.9082 125.871 63.2999 125.982C59.0285 126.402 54.7283 126.442 50.4499 126.102L49.4499 126.022C47.4001 125.731 45.3196 125.731 43.2699 126.022C42.0756 126.314 40.9596 126.864 39.9999 127.632C39.7816 127.8 39.4686 127.76 39.2999 127.542C39.1297 127.326 39.1654 127.014 39.3799 126.842C40.4602 125.974 41.721 125.359 43.0699 125.042C45.2129 124.717 47.3912 124.697 49.5399 124.982L50.4799 125.062C54.685 125.395 58.9112 125.359 63.1099 124.952C63.8574 124.83 64.6214 124.854 65.3599 125.022C66.7699 125.422 67.1099 126.162 67.1399 126.712C67.2799 128.712 63.3999 131.172 62.5599 131.532C57.7099 133.642 52.0799 134.072 46.5199 134.072Z" fill="#001550"/>
<path id="Path_31" d="M47.02 133.852C47.02 133.852 55.34 144.852 49.28 155.342L47.02 133.852Z" fill="white"/>
<path id="Path_32" d="M49.2801 155.842C49.1932 155.842 49.1074 155.822 49.0301 155.782C48.7934 155.639 48.7099 155.336 48.8401 155.092C54.6701 144.982 46.7001 134.262 46.6201 134.162C46.5111 134.019 46.4867 133.829 46.556 133.663C46.6252 133.497 46.7777 133.381 46.956 133.358C47.1342 133.335 47.3111 133.409 47.4201 133.552C47.5001 133.662 55.8701 144.892 49.7101 155.552C49.632 155.721 49.4663 155.833 49.2801 155.842Z" fill="#001550"/>
<path id="Path_33" d="M78.3898 180.492C78.3898 180.492 75.0998 185.842 64.6698 190.002C58.2356 192.446 51.4763 193.929 44.6098 194.402L41.5498 172.902C41.5498 172.902 48.2498 174.112 57.9998 169.972C61.6565 168.399 65.1195 166.409 68.3198 164.042L78.3898 180.492Z" fill="white"/>
<path id="Shape_9" fill-rule="evenodd" clip-rule="evenodd" d="M44.1199 194.472C44.1503 194.719 44.3611 194.904 44.6099 194.902H44.6499C51.5669 194.415 58.3756 192.919 64.8599 190.462C75.284 186.306 78.6468 181.018 78.8083 180.764L78.8099 180.762C78.9089 180.599 78.9089 180.395 78.8099 180.232L68.7499 163.782C68.6729 163.666 68.555 163.584 68.4199 163.552C68.2798 163.526 68.1353 163.558 68.0199 163.642C64.8534 165.984 61.4274 167.954 57.8099 169.512C48.6793 173.38 42.2054 172.489 41.6747 172.416C41.6538 172.414 41.6421 172.412 41.6399 172.412C41.4812 172.388 41.3199 172.435 41.1999 172.542C41.0859 172.654 41.0337 172.814 41.0599 172.972L44.1199 194.472ZM45.0699 193.862L42.1699 173.482C44.0899 173.642 50.0699 173.882 58.1699 170.432C61.7023 168.921 65.0561 167.023 68.1699 164.772L77.8199 180.482C77.0299 181.542 73.3799 186.002 64.5199 189.542C58.2764 191.904 51.7264 193.359 45.0699 193.862Z" fill="#001550"/>
<path id="Path_34" d="M231.75 68.482C231.75 68.482 234.19 69.702 236.62 65.562C239.05 61.422 241.17 50.082 235.82 49.112C228.59 45.592 226.15 50.702 226.15 50.702L221.76 34.872C221.76 34.872 220.55 20.252 211.29 21.472C202.03 22.692 196.67 32.922 196.67 32.922L171.58 33.922L170.85 48.052C170.85 48.052 166.71 45.132 165.49 48.782C164.27 52.432 164.27 64.622 174.49 68.512C174.49 68.512 178.49 86.662 190.75 96.592L196.75 96.942L195.42 111.152C198.243 117.042 203.346 121.527 209.55 123.572C219.79 126.742 229.25 106.812 229.25 106.812C229.25 106.812 229.49 82.112 231.75 68.482Z" fill="white"/>
<path id="Path_35" d="M178.98 36.1421C183.49 38.8321 188.31 41.1421 193.5 42.0221C198.69 42.9021 204.3 42.0221 208.5 38.9121C208.37 42.3879 208.706 45.8656 209.5 49.2521C210.42 52.5021 212.39 55.6021 215.4 57.1221C215.72 61.1221 216.1 65.1221 216.4 69.2021C216.67 72.5921 216.82 76.9821 215.48 80.1121C214.005 83.8371 211.531 87.0829 208.33 89.4921C205.03 91.9421 202.33 92.8421 197.49 96.0221C197.14 96.2521 197.31 97.0821 197.6 96.7821C202.248 96.3699 206.676 94.6115 210.34 91.7221C210.34 91.7221 218.61 107.812 218.83 120.102L229.28 106.782C229.28 106.782 228.66 78.3721 232.23 68.3021C232.23 68.3021 237.37 68.4921 238.71 58.8921C240.05 49.2921 234.24 48.3921 234.24 48.3921C234.24 48.3921 214.36 19.1221 209.45 21.8021C204.54 24.4821 178.98 36.1421 178.98 36.1421Z" fill="white"/>
<path id="Path_36" d="M173.71 67.932H173.59C168.92 66.842 165.7 63.322 164.59 58.002C163.53 53.132 164.48 47.822 165.96 46.672C166.469 46.2658 167.131 46.1048 167.77 46.232C170 46.612 172.19 49.962 172.28 50.102C172.432 50.334 172.367 50.6451 172.135 50.797C171.903 50.9489 171.592 50.884 171.44 50.652C170.88 49.782 169.09 47.472 167.6 47.212C167.246 47.1503 166.883 47.2411 166.6 47.462C165.6 48.222 164.54 52.992 165.6 57.792C166.36 61.272 168.41 65.682 173.9 66.962C174.167 67.0263 174.333 67.2943 174.27 67.562C174.21 67.8139 173.965 67.976 173.71 67.932Z" fill="#001550"/>
<path id="Path_37" d="M241.39 126.232C241.392 126.262 241.392 126.292 241.39 126.322C239.199 129.225 236.774 131.944 234.14 134.452C233.74 134.842 233.32 135.222 232.91 135.592C227.396 140.672 221.24 145.009 214.6 148.492L214.45 148.582L210.02 121.942C216.366 118.281 222.011 113.52 226.69 107.882L227.01 107.542C227.7 106.782 228.88 105.702 229.24 105.142C230.46 103.252 230.24 104.062 230.24 104.062L229.44 100.272L229.02 98.342L229.47 98.552C241.42 107.222 241.66 124.692 241.39 126.232Z" fill="white"/>
<path id="Path_38" d="M214.43 149.102C214.353 149.101 214.277 149.08 214.21 149.042C214.066 148.974 213.964 148.84 213.94 148.682L209.5 122.042C209.481 121.885 209.532 121.728 209.64 121.612C209.712 121.545 209.797 121.494 209.89 121.462C215.604 117.588 220.911 113.145 225.73 108.202L226.85 107.002C228.334 105.496 229.723 103.9 231.01 102.222C231.17 101.996 231.483 101.942 231.71 102.102C231.936 102.262 231.99 102.576 231.83 102.802C230.514 104.514 229.095 106.144 227.58 107.682L226.46 108.882C221.615 113.848 216.285 118.317 210.55 122.222L214.8 147.792C221.002 144.015 226.939 139.818 232.57 135.232C232.99 134.892 233.4 134.532 233.8 134.182C237.39 131.042 239.8 128.332 240.92 126.102C241.33 124.462 239.74 107.832 229.58 99.1022C229.444 98.9861 229.381 98.8064 229.413 98.6307C229.446 98.4551 229.57 98.3103 229.738 98.2507C229.907 98.1912 230.094 98.2261 230.23 98.3422C240.91 107.482 242.33 124.532 241.88 126.342C241.88 126.342 241.88 126.462 241.88 126.472C240.65 128.882 238.18 131.702 234.5 134.922C234.1 135.282 233.67 135.642 233.25 135.992C227.433 140.725 221.295 145.049 214.88 148.932C214.824 148.972 214.764 149.006 214.7 149.032C214.619 149.083 214.525 149.107 214.43 149.102Z" fill="#001550"/>
<path id="Path_39" d="M210 121.962L198.23 148.642C198.23 148.642 185.83 132.042 185.47 118.232C187.27 110.782 189.21 106.632 196.9 102.122L196.03 107.492C196.03 107.492 197.45 120.182 210 121.962Z" fill="white"/>
<path id="Path_40" d="M198.23 149.102C198.065 149.102 197.911 149.02 197.82 148.882C197.71 148.722 186.35 131.992 184.98 118.242C184.97 118.196 184.97 118.148 184.98 118.102C187.52 104.382 196.05 102.102 196.41 102.022C196.68 101.959 196.951 102.123 197.02 102.392C197.053 102.519 197.034 102.655 196.966 102.768C196.898 102.88 196.788 102.961 196.66 102.992C196.57 102.992 188.41 105.232 185.98 118.212C187.19 130.052 195.98 144.212 198.15 147.562L209.38 122.142C203.564 117.725 198.609 112.278 194.76 106.072C194.69 105.959 194.667 105.823 194.697 105.694C194.727 105.564 194.807 105.452 194.92 105.382C195.156 105.241 195.461 105.312 195.61 105.542C199.442 111.757 204.42 117.186 210.28 121.542C210.48 121.68 210.555 121.939 210.46 122.162L198.69 148.792C198.618 148.959 198.461 149.074 198.28 149.092L198.23 149.102Z" fill="#001550"/>
<path id="Path_41" d="M196.17 107.722H196.03C195.766 107.649 195.61 107.377 195.68 107.112C196.482 103.802 196.689 100.375 196.29 96.9922C196.254 96.7189 196.447 96.4685 196.72 96.4322C196.993 96.3967 197.244 96.589 197.28 96.8622C197.707 100.375 197.493 103.936 196.65 107.372C196.584 107.582 196.389 107.724 196.17 107.722Z" fill="#001550"/>
<path id="Path_42" d="M229.71 105.132C229.445 105.133 229.226 104.926 229.21 104.662C228.1 81.5921 231.71 68.2921 231.75 68.1621C231.832 67.9001 232.103 67.7468 232.37 67.8121C232.635 67.8895 232.787 68.167 232.71 68.4321C232.71 68.5621 229.11 81.7221 230.2 104.612C230.208 104.744 230.163 104.873 230.074 104.971C229.986 105.069 229.862 105.127 229.73 105.132H229.71Z" fill="#001550"/>
<path id="Path_43" d="M192 71.2622C191.396 71.2478 190.795 71.1639 190.21 71.0122C188.56 70.6222 186.58 69.9522 185.9 68.1722C185.481 66.7144 185.815 65.1439 186.79 63.9822C187.14 63.4922 187.53 63.0422 187.91 62.6022C188.402 62.0792 188.847 61.5137 189.24 60.9122C190.83 58.3322 190.38 55.0522 189.73 51.6422C189.681 51.3695 189.858 51.1076 190.13 51.0522C190.4 51.0035 190.659 51.1821 190.71 51.4522C191.37 54.9222 191.87 58.5522 190.09 61.4522C189.669 62.1011 189.194 62.7133 188.67 63.2822C188.29 63.696 187.933 64.13 187.6 64.5822C186.856 65.4889 186.575 66.6896 186.84 67.8322C187.35 69.1722 189.03 69.7222 190.44 70.0522C191.328 70.3796 192.307 70.3582 193.18 69.9922C193.332 69.8975 193.522 69.891 193.68 69.9752C193.838 70.0593 193.939 70.2213 193.945 70.4002C193.951 70.579 193.862 70.7475 193.71 70.8422C193.19 71.1374 192.598 71.2827 192 71.2622Z" fill="#001550"/>
<path id="Path_44" d="M185.52 53.392C185.61 55.262 184.86 56.812 183.85 56.852C182.84 56.892 181.96 55.422 181.85 53.552C181.74 51.682 182.51 50.132 183.52 50.082C184.53 50.032 185.44 51.522 185.52 53.392Z" fill="#001550"/>
<path id="Path_45" d="M206.08 52.902C206.17 54.772 205.42 56.322 204.41 56.362C203.4 56.402 202.52 54.932 202.41 53.062C202.3 51.192 203.07 49.642 204.08 49.592C205.09 49.542 206 51.032 206.08 52.902Z" fill="#001550"/>
<path id="Path_46" d="M196.7 78.642C194.853 78.6824 193.021 78.3064 191.34 77.542C191.229 77.467 191.153 77.3507 191.129 77.2192C191.104 77.0876 191.133 76.9517 191.21 76.842C191.283 76.7318 191.398 76.6558 191.527 76.6314C191.657 76.6069 191.792 76.6359 191.9 76.712C194.198 77.6431 196.718 77.8829 199.15 77.402C201.986 76.8129 204.452 75.0752 205.96 72.602C206.116 72.3737 206.424 72.3078 206.66 72.452C206.889 72.6083 206.952 72.9194 206.8 73.152C205.145 75.8617 202.433 77.7575 199.32 78.382C198.458 78.5591 197.58 78.6462 196.7 78.642Z" fill="#001550"/>
<path id="Path_47" d="M197.06 42.9022C196.903 42.9006 196.756 42.8269 196.66 42.7022C196.494 42.4813 196.539 42.1679 196.76 42.0022C201.13 38.7922 204.12 38.6722 208.62 41.5122C208.85 41.6616 208.921 41.9666 208.78 42.2022C208.631 42.4338 208.322 42.5009 208.09 42.3522C203.92 39.7222 201.41 39.8322 197.36 42.8022C197.274 42.8678 197.168 42.9029 197.06 42.9022Z" fill="#001550"/>
<path id="Path_48" d="M178.66 44.6921C178.539 44.6915 178.423 44.6491 178.33 44.5721C178.228 44.4882 178.163 44.3666 178.152 44.2347C178.141 44.1029 178.183 43.9721 178.27 43.8721C180.619 41.2411 184.538 40.7225 187.49 42.6521C187.713 42.8146 187.766 43.1246 187.61 43.3521C187.451 43.5734 187.144 43.6267 186.92 43.4721C184.406 41.8152 181.06 42.2399 179.04 44.4721C178.955 44.6012 178.814 44.6828 178.66 44.6921Z" fill="#001550"/>
<path id="Path_49" d="M193.75 97.2321C192.727 97.246 191.704 97.1858 190.69 97.0521C190.607 97.0418 190.528 97.0108 190.46 96.9621C190.19 96.7421 183.71 91.6821 178.53 81.1721C169.71 63.3021 171.4 37.4721 171.42 37.1721C171.439 36.8959 171.679 36.6877 171.955 36.7071C172.231 36.7264 172.439 36.9659 172.42 37.2421C172.42 37.5021 170.73 63.0621 179.42 80.6921C182.194 86.5363 186.123 91.758 190.97 96.0421C194.466 96.3766 197.993 96.1128 201.4 95.2621C207.87 93.6921 214 88.6221 218.02 84.6521C218.112 84.558 218.238 84.505 218.37 84.505C218.502 84.505 218.628 84.558 218.72 84.6521C218.817 84.7428 218.872 84.8695 218.872 85.0021C218.872 85.1346 218.817 85.2613 218.72 85.3521C214.62 89.4121 208.33 94.5921 201.64 96.2321C199.058 96.8739 196.41 97.2095 193.75 97.2321Z" fill="#001550"/>
<path id="Path_50" d="M218.37 85.552C218.283 85.5524 218.197 85.5318 218.12 85.492C217.879 85.3525 217.794 85.0453 217.93 84.802C222.88 75.942 223.93 70.272 223.98 70.222C224.012 70.0434 224.137 69.8955 224.308 69.834C224.479 69.7725 224.669 69.8068 224.808 69.924C224.947 70.0411 225.012 70.2234 224.98 70.402C224.93 70.632 223.85 76.272 218.81 85.292C218.724 85.4543 218.554 85.5547 218.37 85.552Z" fill="#001550"/>
<path id="Path_51" d="M231.67 68.822C228.83 68.822 227.86 67.112 227.81 67.022C227.677 66.779 227.767 66.4746 228.01 66.342C228.253 66.2095 228.557 66.299 228.69 66.542C228.69 66.622 229.86 68.492 233.6 67.542C235.92 66.962 238.65 60.612 238.73 55.612C238.73 53.692 238.4 50.342 235.73 49.612C229.53 47.862 226.27 56.982 226.24 57.072C226.146 57.3316 225.862 57.469 225.6 57.382C225.34 57.288 225.206 57.0016 225.3 56.742C225.3 56.642 228.9 46.652 236 48.642C238.48 49.342 239.82 51.832 239.77 55.642C239.69 60.792 236.96 67.752 233.88 68.522C233.159 68.7156 232.416 68.8164 231.67 68.822Z" fill="#001550"/>
<path id="Path_52" d="M227.17 54.872C226.41 56.482 223.45 55.062 222.36 53.652C221.25 52.1701 221.25 50.1338 222.36 48.652C220.05 47.982 217.45 46.942 216.45 44.752C216.027 43.6405 215.879 42.443 216.02 41.262C216.23 38.052 217.02 34.852 216.69 31.652C216.36 28.452 214.38 25.102 211.21 24.512C211.21 24.512 200.21 44.202 179.46 36.252C179.46 36.252 170.21 40.672 166 33.102C161.79 25.532 167.47 17.532 179.25 12.482C179.25 12.482 171.89 12.272 172.1 8.48197C172.31 4.69197 190.17 3.64197 202.8 6.41197C202.8 6.41197 201.31 -0.218026 216.88 1.67197C232.45 3.56197 237.49 7.95197 239.4 18.822C250.81 25.042 237.99 50.682 237.99 50.682C237.99 50.682 231.96 44.642 227.17 54.872Z" fill="#001550"/>
<path id="Path_53" d="M170.34 33.4622C167.976 37.5978 167.548 42.5631 169.17 47.0422L172.38 52.0422L171.88 35.0422L170.34 33.4622Z" fill="#001550"/>
<path id="Path_54" d="M238.41 20.8421C238.36 20.8515 238.309 20.8515 238.26 20.8421C237.998 20.7563 237.855 20.4744 237.94 20.2121C242.18 7.21207 233.13 1.21207 232.74 0.922073C232.511 0.765735 232.448 0.45462 232.6 0.222073C232.753 -0.00606424 233.06 -0.0685504 233.29 0.0820733C233.39 0.142073 243.37 6.82207 238.89 20.5221C238.814 20.7196 238.622 20.8478 238.41 20.8421Z" fill="#001550"/>
</g>
</g>
<g id="Progess_Bar">
<g id="Progress_Bar">
<path id="Path_55" d="M341.77 317.212H3.43C1.53794 317.207 0.00549222 315.674 0 313.782C0 311.888 1.53566 310.352 3.43 310.352H341.77C343.664 310.352 345.2 311.888 345.2 313.782C345.195 315.674 343.662 317.207 341.77 317.212Z" fill="#001550"/>
<path id="Path_56" d="M339.89 314.282H3.89014C3.61399 314.282 3.39014 314.058 3.39014 313.782C3.39014 313.506 3.61399 313.282 3.89014 313.282H339.89C340.166 313.282 340.39 313.506 340.39 313.782C340.39 314.058 340.166 314.282 339.89 314.282Z" fill="white"/>
<circle id="Oval_3" cx="23.6082" cy="312.316" r="12.98" transform="rotate(-47.27 23.6082 312.316)" fill="white"/>
<g id="Shape_10">
<path fill-rule="evenodd" clip-rule="evenodd" d="M11.1559 317.471C13.2423 322.508 18.1576 325.792 23.6098 325.792C31.0523 325.787 37.0843 319.755 37.0898 312.312C37.0898 306.86 33.8055 301.945 28.7684 299.858C23.7312 297.772 17.9332 298.925 14.078 302.78C10.2227 306.636 9.06944 312.434 11.1559 317.471ZM11.1298 312.272C11.1298 305.38 16.7173 299.792 23.6098 299.792V299.832C30.4822 299.843 36.0568 305.4 36.0898 312.272C36.0898 319.165 30.5023 324.752 23.6098 324.752C16.7173 324.752 11.1298 319.165 11.1298 312.272Z" fill="#001550"/>
<path d="M23.6098 325.792V326.292H23.6102L23.6098 325.792ZM11.1559 317.471L11.6178 317.279L11.1559 317.471ZM37.0898 312.312L37.5898 312.313V312.312H37.0898ZM28.7684 299.858L28.9597 299.396L28.7684 299.858ZM14.078 302.78L14.4315 303.134L14.078 302.78ZM23.6098 299.792H24.1098V299.292H23.6098V299.792ZM23.6098 299.832H23.1098V300.331L23.609 300.332L23.6098 299.832ZM36.0898 312.272H36.5898L36.5898 312.27L36.0898 312.272ZM23.6098 325.292C18.3599 325.292 13.6269 322.13 11.6178 317.279L10.694 317.662C12.8578 322.886 17.9554 326.292 23.6098 326.292V325.292ZM36.5898 312.312C36.5845 319.478 30.7761 325.287 23.6094 325.292L23.6102 326.292C31.3285 326.286 37.5841 320.031 37.5898 312.313L36.5898 312.312ZM28.577 300.32C33.4273 302.329 36.5898 307.062 36.5898 312.312H37.5898C37.5898 306.658 34.1837 301.56 28.9597 299.396L28.577 300.32ZM14.4315 303.134C18.1438 299.422 23.7267 298.311 28.577 300.32L28.9597 299.396C23.7357 297.233 17.7227 298.429 13.7244 302.427L14.4315 303.134ZM11.6178 317.279C9.60877 312.429 10.7193 306.846 14.4315 303.134L13.7244 302.427C9.72618 306.425 8.53011 312.438 10.694 317.662L11.6178 317.279ZM23.6098 299.292C16.4411 299.292 10.6298 305.104 10.6298 312.272H11.6298C11.6298 305.656 16.9934 300.292 23.6098 300.292V299.292ZM24.1098 299.832V299.792H23.1098V299.832H24.1098ZM36.5898 312.27C36.5555 305.123 30.7579 299.344 23.6106 299.332L23.609 300.332C30.2065 300.343 35.5581 305.677 35.5898 312.275L36.5898 312.27ZM23.6098 325.252C30.7784 325.252 36.5898 319.441 36.5898 312.272H35.5898C35.5898 318.889 30.2262 324.252 23.6098 324.252V325.252ZM10.6298 312.272C10.6298 319.441 16.4411 325.252 23.6098 325.252V324.252C16.9934 324.252 11.6298 318.889 11.6298 312.272H10.6298Z" fill="#001550"/>
</g>
<path id="Path_57" d="M30.47 312.312C30.47 316.101 27.3987 319.172 23.61 319.172C19.8213 319.172 16.75 316.101 16.75 312.312C16.75 308.523 19.8213 305.452 23.61 305.452C25.4294 305.452 27.1743 306.175 28.4608 307.461C29.7473 308.748 30.47 310.493 30.47 312.312Z" fill="#001550"/>
<path id="Shape_11" fill-rule="evenodd" clip-rule="evenodd" d="M16.25 312.282C16.25 316.347 19.5452 319.642 23.61 319.642C27.6725 319.637 30.9645 316.345 30.97 312.282C30.97 308.217 27.6748 304.922 23.61 304.922C19.5452 304.922 16.25 308.217 16.25 312.282ZM17.25 312.282C17.25 308.77 20.0975 305.922 23.61 305.922V305.952C27.1086 305.958 29.948 308.784 29.97 312.282C29.97 315.795 27.1225 318.642 23.61 318.642C20.0975 318.642 17.25 315.795 17.25 312.282Z" fill="#001550"/>
</g>
</g>
</g>
</svg>
