<?xml version="1.0" encoding="UTF-8"?>
<svg width="352px" height="331px" viewBox="0 0 352 331" version="1.1" xmlns="http://www.w3.org/2000/svg" xmlns:xlink="http://www.w3.org/1999/xlink">
    <title>6E811AA3-DE86-4640-B74B-A9C353DF1742</title>
    <g id="Publishers" stroke="none" stroke-width="1" fill="none" fill-rule="evenodd">
        <g id="Homepage" transform="translate(-782.000000, -197.000000)" fill-rule="nonzero">
            <g id="lp-illustration-v2" transform="translate(782.000000, 197.000000)">
                <g id="Background_details" transform="translate(198.000000, 21.000000)">
                    <path d="M153.03,106.22 L1.36,106.22 C1.08385763,106.22 0.86,105.996142 0.86,105.72 L0.86,1.17 C0.86,0.893857625 1.08385763,0.67 1.36,0.67 L153.03,0.67 C153.306142,0.67 153.53,0.893857625 153.53,1.17 L153.53,105.72 C153.53,105.996142 153.306142,106.22 153.03,106.22 Z M1.86,105.22 L152.53,105.22 L152.53,1.67 L1.86,1.67 L1.86,105.22 Z" id="Shape" fill="#263238"></path>
                    <path d="M138.25,16.24 C136.107135,16.24 134.37,14.5028648 134.37,12.36 C134.37,10.2171352 136.107135,8.48 138.25,8.48 C140.392865,8.48 142.13,10.2171352 142.13,12.36 C142.13,14.5028648 140.392865,16.24 138.25,16.24 Z M138.25,9.48 C136.65942,9.48 135.37,10.7694199 135.37,12.36 C135.37,13.9505801 136.65942,15.24 138.25,15.24 C139.84058,15.24 141.13,13.9505801 141.13,12.36 C141.13,10.7694199 139.84058,9.48 138.25,9.48 L138.25,9.48 Z" id="Shape" fill="#263238"></path>
                    <path d="M129.51,12.36 C129.51,14.2267225 127.996722,15.74 126.13,15.74 C124.263278,15.74 122.75,14.2267225 122.75,12.36 C122.75,10.4932775 124.263278,8.98 126.13,8.98 C127.996722,8.98 129.51,10.4932775 129.51,12.36 Z" id="Path" fill="#263238"></path>
                    <path d="M117.39,12.36 C117.39,14.2267225 115.876722,15.74 114.01,15.74 C112.143278,15.74 110.63,14.2267225 110.63,12.36 C110.63,10.4932775 112.143278,8.98 114.01,8.98 C115.876722,8.98 117.39,10.4932775 117.39,12.36 Z" id="Path" fill="#263238"></path>
                    <rect id="Rectangle" fill="#BCCDFF" x="11.99" y="24.23" width="131.18" height="72.9"></rect>
                    <path d="M84.5,83.81 L84.35,83.81 C69.8947487,83.4938229 58.3523158,71.6649918 58.3903638,57.2063334 C58.4286004,42.747675 70.0332818,30.9799066 84.49,30.74 L84.65,30.74 C99.3076373,30.7814214 111.156421,42.6973627 111.115108,57.355 C111.073579,72.0126373 99.1576373,83.8614214 84.5,83.8201083 L84.5,83.81 Z M84.5,31.73 C70.5916893,31.9644558 59.4287015,43.2861241 59.3904709,57.1963585 C59.3524362,71.106593 70.4531837,82.4892936 84.36,82.800098 L84.51,82.800098 C98.6153522,82.8386595 110.081339,71.4353522 110.120097,57.33 C110.158659,43.2246478 98.7553522,31.7586604 84.65,31.72 L84.5,31.73 Z" id="Shape" fill="#FFFFFF"></path>
                    <polygon id="Path" fill="#FFFFFF" points="79.06 45.56 78.92 69.88 96.75 57.73"></polygon>
                </g>
                <g id="Character-2" transform="translate(32.000000, 0.000000)">
                    <path d="M199.67,311.47 C198.59,292.24 197.85,278.92 197.85,278.92 C129.11,295.57 91.91,268.84 91.91,268.84 C91.91,268.84 88.91,287.77 85.09,311.47 L199.67,311.47 Z" id="Path" fill="#263238"></path>
                    <path d="M199.67,311.97 L85.09,311.97 C84.9427187,311.97 84.8031779,311.90406 84.71,311.79 C84.6183113,311.678277 84.5783318,311.532897 84.6,311.39 C88.41,287.69 91.42,268.76 91.42,268.76 C91.4496719,268.590915 91.5624184,268.448103 91.72,268.38 C91.8776848,268.311258 92.059868,268.330235 92.2,268.43 C92.58,268.7 130.03,294.83 197.73,278.43 C197.871757,278.394158 198.022115,278.423496 198.14,278.51 C198.262768,278.598121 198.336869,278.738912 198.34,278.89 C198.34,278.89 199.08,292.2 200.170396,311.43 C200.1754,311.566973 200.125433,311.700352 200.031367,311.800063 C199.9373,311.899773 199.807055,311.957419 199.67,311.96 L199.67,311.97 Z M85.67,310.97 L199.17,310.97 C198.24,294.39 197.56,282.31 197.41,279.55 C134.52,294.55 97.63,273.09 92.31,269.69 C91.69,273.42 89,290.33 85.68,310.97 L85.67,310.97 Z" id="Shape" fill="#263238"></path>
                    <g id="Group" opacity="0.6" transform="translate(84.000000, 268.000000)">
                        <path d="M115.67,43.47 C114.59,24.24 113.85,10.92 113.85,10.92 C45.11,27.57 7.91,0.84 7.91,0.84 C7.91,0.84 4.91,19.77 1.09,43.47 L115.67,43.47 Z" id="Path" fill="#FFFFFF"></path>
                        <path d="M115.67,43.9700003 L1.09,43.9700003 C0.942718726,43.9700003 0.803177918,43.90406 0.71,43.79 C0.618311293,43.6782766 0.57833179,43.5328966 0.6,43.39 C4.41,19.69 7.42,0.76 7.42,0.76 C7.44967188,0.590915471 7.56241842,0.448103188 7.72,0.38 C7.87768478,0.311257898 8.05986801,0.330235318 8.2,0.43 C8.58,0.7 46.03,26.83 113.73,10.43 C113.871757,10.394158 114.022115,10.423496 114.14,10.51 C114.262768,10.598121 114.336869,10.7389123 114.34,10.89 C114.34,10.89 115.08,24.2 116.170396,43.43 C116.1754,43.5669726 116.125433,43.7003525 116.031367,43.8000629 C115.9373,43.8997733 115.807055,43.9574186 115.67,43.96 L115.67,43.9700003 Z M1.67,42.97 L115.17,42.97 C114.24,26.39 113.56,14.31 113.41,11.55 C50.52,26.55 13.63,5.09 8.31,1.69 C7.69,5.42 5,22.33 1.68,42.97 L1.67,42.97 Z" id="Shape" fill="#263238"></path>
                    </g>
                    <path d="M2.78,123.38 C2.68,126.49 0.67,129.29 0.6,132.38 C0.54,135.28 2.18,137.92 2.74,140.76 C3.34,143.82 2.74,146.96 3.13,150.03 C3.40491794,152.010499 3.94649554,153.944705 4.74,155.78 C5.31686641,157.227231 6.2696789,158.494195 7.5,159.45 C9.5,160.93 12.35,160.87 14.76,160.87 C17.2520857,161.011592 19.7188817,160.306794 21.76,158.87 C23.288267,157.488221 24.5257181,155.815622 25.4,153.95 C26.3500826,152.508291 26.9368112,150.857902 27.11,149.14 C27.0960615,148.166611 26.8922505,147.205302 26.51,146.31 C24.51,141.4 19.51,137.9 18.67,132.68 C18.31,130.45 18.77,128.18 18.97,125.94 C19.17,123.7 19.04,121.25 17.68,119.44 C15.43,116.44 10.16,115.81 6.68,115.819884 C1.6,115.83 2.91,119.67 2.78,123.38 Z" id="Path" fill="#FFFFFF"></path>
                    <path d="M14.17,161.38 C11.83,161.38 9.24,161.31 7.26,159.87 C5.95447293,158.861423 4.9427808,157.521708 4.33,155.99 C3.51852019,154.113686 2.96676771,152.135451 2.69,150.11 C2.52916541,148.672621 2.48235256,147.224766 2.55,145.78 C2.63717966,144.139092 2.55339526,142.493567 2.3,140.87 C2.04614039,139.780104 1.71189246,138.710511 1.3,137.67 C-0.258965207,134.523784 -0.281099737,130.834696 1.24,127.67 C1.81643346,126.297567 2.17411047,124.843239 2.3,123.36 L2.3,123.36 C2.3,122.68 2.3,121.99 2.3,121.36 C2.23,119.44 2.16,117.63 3.3,116.47 C4.24337664,115.637862 5.48693446,115.229368 6.74,115.34 C9.96,115.34 15.65,115.81 18.16,119.16 C19.38,120.78 19.82,122.95 19.55,126 C19.5,126.56 19.44,127.12 19.37,127.67 C19.0988366,129.306132 19.0550895,130.97189 19.24,132.62 C19.7,135.47 21.46,137.78 23.33,140.22 C24.8321774,142.015905 26.0836036,144.007422 27.05,146.14 C27.4548502,147.089355 27.6721779,148.108079 27.69,149.14 C27.5123309,150.925125 26.905025,152.640679 25.92,154.14 C25.0049276,156.061954 23.724443,157.787382 22.15,159.22 C20.0267226,160.740288 17.4472144,161.488381 14.84,161.34 L14.17,161.34 L14.17,161.38 Z M3.33,123.38 C3.20021178,124.964756 2.82577425,126.519852 2.22,127.99 C0.768910581,130.932245 0.791149445,134.386682 2.28,137.31 C2.69590866,138.400336 3.03016358,139.52009 3.28,140.66 C3.55371539,142.352007 3.64423831,144.06859 3.55,145.78 C3.48335984,147.174584 3.52682799,148.572252 3.68,149.96 C3.94760466,151.892316 4.47574008,153.779475 5.25,155.57 C5.78831101,156.939732 6.68661558,158.138623 7.85,159.04 C9.67,160.36 12.25,160.36 14.52,160.36 L14.81,160.36 C17.1927001,160.506147 19.5536166,159.832104 21.5,158.45 C22.9715142,157.101699 24.1640586,155.477665 25.01,153.67 C25.9165668,152.300043 26.4823062,150.733117 26.66,149.1 C26.6431778,148.191342 26.4495748,147.294655 26.09,146.46 C25.1579016,144.40877 23.9500784,142.49442 22.5,140.77 C20.65,138.34 18.73,135.77 18.22,132.77 C18.0228922,131.032309 18.0666386,129.275725 18.35,127.55 C18.41,127 18.48,126.45 18.52,125.9 C18.77,123.11 18.39,121.16 17.33,119.75 C15,116.64 9.12,116.36 6.71,116.33 C5.73044807,116.231619 4.75195799,116.526605 3.99,117.15 C3.18,118 3.23,119.53 3.3,121.31 C3.3,122 3.36,122.71 3.3,123.42 L3.33,123.38 Z" id="Shape" fill="#263238"></path>
                    <path d="M9.27,160.32 L12.61,186.83 C12.61,186.83 31.49,182.19 37.06,174.74 L26.35,151.18" id="Path" fill="#FFFFFF"></path>
                    <path d="M12.61,187.33 C12.5065321,187.32952 12.4055598,187.298184 12.32,187.24 C12.2033995,187.158518 12.1270255,187.031227 12.11,186.89 L8.77,160.38 C8.73453362,160.106735 8.9268428,159.856286 9.2,159.82 C9.3332747,159.80019 9.46882577,159.836135 9.57477342,159.919379 C9.68072108,160.002624 9.74771531,160.125822 9.76,160.26 L13.03,186.2 C16.12,185.38 31.41,181.06 36.48,174.67 L25.89,151.39 C25.7821693,151.135714 25.8919525,150.841495 26.14,150.72 C26.3913066,150.607348 26.6863937,150.719123 26.8,150.97 L37.52,174.53 C37.5911902,174.698707 37.5684002,174.892422 37.46,175.04 C31.85,182.54 13.46,187.12 12.72,187.31 L12.61,187.33 Z" id="Path" fill="#263238"></path>
                    <path d="M43.7,176.57 L49.7,189.97 L111.44,153.67 L123.17,138.02 L131.25,157.67 L114.75,196.31 C101.872541,205.322183 88.3304059,213.345171 74.24,220.31 C67.5233694,223.732015 60.6304034,226.796297 53.59,229.49 C46.86,232.01 39.85,233.73 32.91,235.58 C32.438997,235.75462 31.921003,235.75462 31.45,235.58 C31.14,235.42 31.01,235.04 30.73,234.81 C25.65,230.72 12.91,194.26 11.6,182.65 L43.7,176.57 Z" id="Path" fill="#193DA1"></path>
                    <path d="M209.78,123.5 L238.34,164.11 C245.366454,174.101149 246.00123,187.2484 239.97,197.87 C228.97,217.27 211.38,246.87 202.21,255.43 C202.21,255.43 206.49,264.19 205.84,267.43 C205.19,270.67 199.15,271.33 199.15,271.33 L208.44,287.27 C208.44,287.27 158.05,331.82 87.17,273.95 L101.92,222.25 L94.11,216.67 L125.44,112.02 L157.64,108.56 L167.43,134.48 L178,121.98 L188.61,134.48 L209.78,123.5 Z" id="Path" fill="#193DA1"></path>
                    <path d="M207.64,183.860043 C207.425872,183.861538 207.235546,183.723855 207.17,183.52 C207.083037,183.257923 207.220448,182.974234 207.48,182.88 C216.16,179.88 224.23,178.57 235.33,178.209999 C235.605869,178.209541 235.834085,178.42459 235.850102,178.7 C235.852679,178.832616 235.802553,178.960862 235.710654,179.056511 C235.618756,179.15216 235.492617,179.207374 235.36,179.209999 C224.36,179.57 216.36,180.91 207.8,183.83 C207.749208,183.850594 207.694802,183.860795 207.64,183.860043 L207.64,183.860043 Z" id="Path" fill="#FFFFFF"></path>
                    <path d="M181.37,280.35 C181.180407,280.345417 181.009015,280.236011 180.925042,280.065967 C180.84107,279.895923 180.858387,279.693326 180.97,279.54 C185.979412,272.965549 192.603863,267.79827 200.2,264.54 C200.45118,264.444821 200.732681,264.565107 200.837516,264.812412 C200.942352,265.059716 200.833059,265.345665 200.59,265.46 C193.156988,268.636475 186.673204,273.683629 181.77,280.11 C181.683209,280.249863 181.534251,280.339238 181.37,280.35 Z" id="Path" fill="#FFFFFF"></path>
                    <path d="M44.82,210.67 C44.7536673,210.679437 44.6863327,210.679437 44.62,210.67 C44.3695726,210.556069 44.2512293,210.266785 44.35,210.01 C46.739216,204.306689 48.3081474,198.293575 49.01,192.15 C49.0403757,191.873858 49.2888576,191.674624 49.565,191.705 C49.8411424,191.735376 50.0403757,191.983858 50.01,192.26 C49.2912301,198.498452 47.6989814,204.604877 45.28,210.4 C45.1897004,210.5694 45.0119277,210.673745 44.82,210.67 L44.82,210.67 Z" id="Path" fill="#FFFFFF"></path>
                    <path d="M55.82,204.890004 L55.76,204.890004 C55.4871795,204.858609 55.2907379,204.613057 55.32,204.34 C55.7633248,200.226676 54.7282298,196.089841 52.4,192.67 C52.2442674,192.442577 52.2974117,192.132568 52.52,191.97 C52.6297737,191.893493 52.7656322,191.864177 52.897187,191.888609 C53.0287418,191.91304 53.1450154,191.989181 53.22,192.1 C55.69464,195.729589 56.7938053,200.122705 56.32,204.49 C56.2682303,204.724383 56.0600301,204.890943 55.82,204.890004 L55.82,204.890004 Z" id="Path" fill="#FFFFFF"></path>
                    <path d="M114.31,179.21 C114.253732,179.219511 114.196268,179.219511 114.14,179.21 C114.016106,179.167008 113.914615,179.076148 113.858234,178.957746 C113.801852,178.839344 113.795284,178.703282 113.84,178.58 C115.16,174.79 123.84,153.84 126.99,146.35 C127.054935,146.178636 127.208411,146.056525 127.389984,146.031758 C127.571557,146.006992 127.752131,146.083539 127.860587,146.231253 C127.969044,146.378967 127.988004,146.574176 127.91,146.74 C124.8,154.02 116.07,175.22 114.78,178.91 C114.69881,179.096181 114.513058,179.214746 114.31,179.21 L114.31,179.21 Z" id="Path" fill="#FFFFFF"></path>
                    <path d="M178,234.840052 C177.771256,234.843286 177.569456,234.690907 177.51,234.47 L174.17,221.97 L121.78,190.97 C121.547831,190.826826 121.473253,190.523993 121.612384,190.289379 C121.751516,190.054765 122.053011,189.974953 122.29,190.11 L174.85,221.2 C174.962971,221.266049 175.045546,221.373755 175.08,221.5 L177.5,230.5 L177.5,219.81 C177.499965,219.694053 177.538683,219.58142 177.61,219.49 L200,191.88 C200.178249,191.667467 200.493678,191.636368 200.71,191.81 C200.813867,191.89236 200.879933,192.013288 200.893123,192.145188 C200.906313,192.277087 200.865501,192.408703 200.78,192.51 L178.5,219.98 L178.5,234.34 C178.497435,234.592648 178.310272,234.805334 178.06,234.840052 L178,234.840052 Z" id="Path" fill="#FFFFFF"></path>
                    <path d="M180.46,269.340006 C180.373051,269.340419 180.287287,269.319836 180.21,269.28 L119.45,235.28 C119.333066,235.216582 119.246224,235.109181 119.208689,234.981562 C119.171154,234.853943 119.186021,234.716628 119.25,234.6 C119.389493,234.358829 119.696712,234.274232 119.94,234.41 L180.43,268.22 L194.74,258.04 C194.96487,257.882121 195.274392,257.93076 195.44,258.15 C195.517495,258.258546 195.548413,258.393554 195.525878,258.525008 C195.503343,258.656461 195.429224,258.773463 195.32,258.85 L180.75,269.22 C180.668,269.288913 180.566719,269.330823 180.46,269.340006 Z" id="Path" fill="#FFFFFF"></path>
                    <ellipse id="Oval" fill="#434656" cx="69.41" cy="117.1" rx="56.86" ry="57.94"></ellipse>
                    <circle id="Oval" fill="#8BAAFF" cx="73.21" cy="113.48" r="54.87"></circle>
                    <path d="M73.17,168.84 C42.5939041,168.823434 17.8189608,144.026109 17.8299999,113.450011 C17.8410464,82.8739125 42.6338947,58.0944899 73.2099946,58.1000081 C103.786094,58.1055282 128.57,82.8938996 128.57,113.47 C128.536905,144.048 103.748014,168.823468 73.17,168.84 L73.17,168.84 Z M73.17,59.11 C43.1448874,59.1265676 18.8171216,83.4782085 18.8300008,113.503323 C18.8428903,143.528437 43.1915466,167.85919 73.2166624,167.849992 C103.241778,167.840788 127.575518,143.495117 127.570001,113.47 C127.531395,83.4481901 103.19183,59.1265222 73.17,59.11 L73.17,59.11 Z" id="Shape" fill="#263238"></path>
                    <polygon id="Path" fill="#FFFFFF" points="51.5 92.46 68.54 140.48 102.94 102.38"></polygon>
                    <path d="M118.02,100.35 C117.786683,100.347397 117.584887,100.186784 117.53,99.96 C114.52773,87.1938616 105.89517,76.4794829 94.06,70.83 C93.8087104,70.7112588 93.7012588,70.4112896 93.82,70.16 C93.9387412,69.9087104 94.2387104,69.8012588 94.49,69.92 C106.591788,75.7091368 115.417493,86.671398 118.49,99.73 C118.552602,99.9977105 118.387317,100.26574 118.12,100.33 L118.02,100.35 Z" id="Path" fill="#FFFFFF"></path>
                    <path d="M89.42,68.89 C89.3670949,68.8995576 89.3129051,68.8995576 89.26,68.89 C86.0763804,67.8073546 82.7774818,67.0992492 79.43,66.78 C79.2513672,66.7621367 79.0958336,66.6503309 79.0219873,66.4866987 C78.9481409,66.3230666 78.9672008,66.1324676 79.0719873,65.9866987 C79.1767737,65.8409298 79.3513672,65.7621367 79.53,65.78 C82.9359833,66.1087087 86.2919964,66.8336076 89.53,67.94 C89.8061424,67.9841828 89.9941828,68.2438576 89.95,68.52 C89.9058172,68.7961424 89.6461424,68.9841828 89.37,68.94 L89.42,68.89 Z" id="Path" fill="#FFFFFF"></path>
                    <path d="M113.38,187.34 C113.38,187.34 102.83,209.25 94.89,211.64 L83.01,196.47 L73.01,183.69 L70.46,180.54 L70.46,180.54 L70.4,180.44 L59.71,161.15 L58.51,158.98 L58.15,157.4 L57.3,153.68 L57.24,153.41 L57.39,152.96 L59.39,147.39 L62.96,143.29 L62.96,143.14 L64.25,136.56 L64.39,135.85 L67.79,133.75 C67.79,133.75 67.79,133.75 67.79,133.7 C67.55,133.06 65.04,125.91 67,121.75 C67.4085631,120.817958 68.1109976,120.04528 69,119.55 C69.3934803,119.32548 69.813374,119.150804 70.25,119.03 C70.3345513,118.86241 70.4422751,118.707557 70.57,118.57 C70.88,118.22 71.42,117.95 72.05,118.84 L72.05,118.84 C72.3429011,119.282252 72.5718315,119.763679 72.73,120.27 C72.84,120.54 72.95,120.86 73.06,121.21 C73.06,121.37 73.15,121.53 73.2,121.7 C73.25,121.87 73.31,122.06 73.37,122.25 C73.49,122.65 73.62,123.05 73.75,123.45 C75.59,129.17 79.03,138.89 79.29,139.59 L87.6,142.33 L88.6,142.65 L89.09,143.99 L91.99,151.93 L92.18,152.45 L92.27,153.09 L94.11,168.31 L94.18,168.38 L109.87,183.87 L113.38,187.34 Z" id="Path" fill="#FFFFFF"></path>
                    <path d="M114.31,188.56 C114.18279,188.559237 114.060863,188.509032 113.97,188.42 C99.91,175.28 93.78,168.73 93.72,168.67 C93.6468852,168.589647 93.6013398,168.488045 93.59,168.38 L92.65,158.75 C92.2629438,155.22244 91.5396559,151.739943 90.49,148.35 C89.9852984,146.313382 88.9502052,144.446764 87.49,142.94 C85.86,141.41 83.8,141.03 81.61,140.62 C80.8,140.47 79.96,140.32 79.14,140.1 C79.0115984,140.067283 78.9019205,139.983959 78.8359772,139.869029 C78.7700339,139.7541 78.7534474,139.617363 78.79,139.49 C78.8229505,139.361247 78.9058053,139.250909 79.0202622,139.183361 C79.1347191,139.115813 79.2713594,139.096612 79.4,139.13 C80.18,139.34 81,139.49 81.8,139.64 C84.03,140.05 86.33,140.48 88.18,142.22 C89.7587047,143.846505 90.879842,145.861102 91.43,148.06 C92.5019806,151.518447 93.2419914,155.071168 93.64,158.67 L94.57,168.13 C95.47,169.08 101.67,175.57 114.65,187.71 C114.803378,187.849398 114.854854,188.06897 114.779412,188.262012 C114.703971,188.455053 114.517254,188.581539 114.31,188.580014 L114.31,188.56 Z" id="Path" fill="#263238"></path>
                    <path d="M82.57,148.480219 C82.3689638,148.476379 82.1888179,148.354977 82.11,148.17 C81.05,145.58 79.97,142.84 78.82,139.79 L78.82,139.79 L78.82,139.79 C78.41,138.74 78.02,137.67 77.62,136.61 C75.99,132.22 74.62,127.79 73.27,123.61 C73.14,123.22 73.01,122.81 72.89,122.41 L72.84,122.27 C72.84,122.12 72.75,121.98 72.72,121.84 L72.2,120.24 C72.2,120.16 72.15,120.09 72.13,120.01 C72.0407741,119.717608 71.8946409,119.445732 71.7,119.21 L71.65,119.15 C71.3966509,118.92424 71.0294327,118.880334 70.73,119.04 C70.5254865,119.108142 70.3305616,119.202244 70.15,119.32 C69.8616182,119.493912 69.590401,119.694814 69.34,119.92 C68.6858016,120.50657 68.1642035,121.225898 67.81,122.03 L67.71,122.25 C66.62,124.91 67.22,128.15 67.71,130.52 C67.9,131.52 68.1,132.52 68.32,133.6 L68.32,133.6 C68.3152774,133.616332 68.3152774,133.633668 68.32,133.65 C69.32,138.28 70.59,142.76 71.71,146.53 C71.7554938,146.77964 71.6067779,147.023772 71.3640828,147.097857 C71.1213877,147.171943 70.8616818,147.052487 70.76,146.82 C69.63,143.03 68.34,138.53 67.34,133.82 L67.34,133.82 C67.11,132.82 66.9,131.75 66.71,130.71 C66.25,128.22 65.61,124.81 66.81,121.88 L66.92,121.63 C67.3365805,120.698482 67.9428147,119.864058 68.7,119.18 C69.0094099,118.911324 69.3443349,118.673528 69.7,118.47 C69.9513688,118.315972 70.2198506,118.191799 70.5,118.1 C70.7281285,118.01874 70.9678795,117.974842 71.21,117.969933 C71.6879478,117.96582 72.1468077,118.157313 72.48,118.5 L72.54,118.58 C72.8168158,118.921154 73.027125,119.311243 73.16,119.73 L73.75,121.57 C73.75,121.72 73.83,121.85 73.87,121.98 L73.87,122.12 C73.99,122.52 74.12,122.92 74.25,123.31 C75.56,127.47 76.96,131.89 78.59,136.25 C78.98,137.32 79.38,138.38 79.78,139.43 L79.78,139.43 C80.93,142.43 82,145.2 83.06,147.78 C83.1091896,147.903315 83.1073155,148.041131 83.0547908,148.163064 C83.0022661,148.284996 82.9034038,148.381032 82.78,148.43 C82.7157231,148.465126 82.6432096,148.482391 82.57,148.480219 L82.57,148.480219 Z" id="Path" fill="#263238"></path>
                    <path d="M64.17,150.3 C63.9488691,150.296765 63.7550218,150.15138 63.69,149.94 C63.0242128,147.727546 62.6148612,145.445914 62.47,143.14 C62.266303,140.820381 62.7130097,138.489888 63.76,136.41 L63.84,136.26 C64.6515893,135.075147 65.8798621,134.239636 67.28,133.92 C67.5561424,133.845442 67.8404416,134.008858 67.915,134.285 C67.9895584,134.561142 67.8261424,134.845442 67.55,134.92 C66.3907808,135.175256 65.3699062,135.857029 64.69,136.83 L64.62,136.96 C63.6760013,138.871591 63.2780504,141.006684 63.47,143.13 C63.6110544,145.358675 64.0103948,147.563437 64.66,149.7 C64.7307556,149.967383 64.5754861,150.242431 64.31,150.32 L64.17,150.3 Z" id="Path" fill="#263238"></path>
                    <path d="M94.11,210.350001 C93.9598404,210.350001 93.817162,210.284488 93.72,210.17 L70.07,180.85 L70.01,180.76 C66.0505006,174.500372 62.4577883,168.016127 59.25,161.34 C58.59,159.91 58.07,158.67 57.67,157.55 C57.2967463,156.570716 56.98612,155.568696 56.74,154.55 C56.7350365,154.503465 56.7350365,154.456535 56.74,154.41 C56.74,154.14 56.74,153.87 56.8,153.59 C56.86,153.31 56.8,153.1 56.9,152.85 C57.2139338,150.834585 57.8916167,148.893024 58.9,147.12 C59.8024277,145.428491 61.0821392,143.96743 62.64,142.85 C62.8720337,142.701294 63.1806451,142.768384 63.33,143 C63.40417,143.110655 63.4300905,143.246739 63.4017921,143.376911 C63.3734937,143.507084 63.2934158,143.620124 63.18,143.69 C61.7641537,144.728956 60.5989708,146.071821 59.77,147.62 C58.8071789,149.28746 58.1597117,151.117996 57.86,153.02 C57.8165425,153.248044 57.7864909,153.478439 57.77,153.71 C57.7359901,153.935212 57.7159518,154.162313 57.71,154.39 C57.944332,155.347406 58.2382376,156.289239 58.59,157.21 C58.99,158.3 59.49,159.52 60.14,160.92 C63.32178,167.527126 66.877546,173.947537 70.79,180.15 C70.8173936,180.183919 70.8408753,180.220819 70.86,180.26 L94.48,209.54 C94.6525195,209.753065 94.6212944,210.065316 94.41,210.24 C94.3247233,210.308493 94.2193397,210.347134 94.11,210.350001 Z" id="Path" fill="#263238"></path>
                    <path d="M118.17,185.16 C116.880928,188.769312 115.16901,192.213289 113.07,195.42 C105.51,207.35 94.3,220.02 94.3,220.02 C87.15,213.49 77.24,198.36 77.24,198.36 C82.15,195.36 90.01,186.63 94.43,181.04 C98.67,175.67 101.74,171.1 101.74,171.1 L118.17,185.16 Z" id="Path" fill="#FFFFFF"></path>
                    <path d="M94.28,220.52 C94.1545342,220.52 94.0334843,220.47368 93.94,220.39 C86.83,213.89 76.94,198.79 76.8,198.63 C76.7232708,198.519225 76.6977797,198.380845 76.73,198.25 C76.7592588,198.118926 76.8380951,198.004255 76.95,197.93 C81.95,194.87 89.88,185.93 94.02,180.73 C98.16,175.53 101.27,170.87 101.3,170.83 C101.380382,170.71055 101.50751,170.630642 101.65,170.61 C101.789698,170.589985 101.931349,170.629938 102.04,170.72 L118.48,184.78 C118.634996,184.917147 118.693906,185.133152 118.63,185.33 C117.318587,188.965872 115.586847,192.436066 113.47,195.67 C105.98,207.5 94.76,220.21 94.65,220.33 C94.560384,220.430694 94.4345484,220.491814 94.3,220.5 L94.28,220.52 Z M77.91,198.52 C79.54,200.96 87.91,213.36 94.24,219.31 C96.17,217.1 105.91,205.77 112.63,195.16 C114.643345,192.080829 116.300623,188.783047 117.57,185.33 L101.82,171.86 C100.92,173.16 98.24,177.02 94.82,181.36 C90.74,186.49 83.01,195.15 77.91,198.51 L77.91,198.52 Z" id="Shape" fill="#263238"></path>
                    <path d="M118.17,185.16 C116.99,188.62 112.85,194.54 110.73,197.87 L93.25,182.67 C97.5,177.3 101.72,171.15 101.72,171.15 L118.17,185.16 Z" id="Path" fill="#000000" opacity="0.1"></path>
                    <path d="M2.72,120.13 C2.61,118.63 2.58,116.85 3.08,116.24 C3.61799504,115.661996 4.26780134,115.199306 4.99,114.88 C11.84,111.31 18.7,107.74 25.78,104.62 C26.4,104.35 27.18,104.09 27.73,104.5 C28.1481505,104.922779 28.3150049,105.533315 28.17,106.11 C27.8269856,107.923207 26.9534179,109.593775 25.66,110.91 C23.9085088,112.893159 21.8237922,114.55484 19.5,115.82 C18.7051531,116.208968 17.9368196,116.649924 17.2,117.14 C16.2640736,117.890869 15.3942238,118.720572 14.6,119.62 C13.9695639,120.255951 13.3017082,120.853682 12.6,121.41" id="Path" fill="#FFFFFF"></path>
                    <path d="M12.61,121.910164 C12.4567979,121.914039 12.3112478,121.84313 12.22,121.72 C12.1356092,121.617432 12.0964724,121.484999 12.111554,121.353035 C12.1266356,121.221071 12.1946434,121.100883 12.3,121.02 C12.981657,120.476666 13.6295274,119.892247 14.24,119.27 C14.4533333,119.056667 14.6533333,118.846667 14.84,118.64 C15.4714975,117.942715 16.1642739,117.303487 16.91,116.73 C17.480201,116.33672 18.0784717,115.985779 18.7,115.68 L19.26,115.38 C21.5279301,114.142931 23.5592106,112.514521 25.26,110.57 C26.4975895,109.339893 27.3342137,107.764251 27.66,106.05 C27.66,105.79 27.73,105.15 27.4,104.9 C27.07,104.65 26.4,104.9 25.96,105.08 C18.9,108.19 11.96,111.82 5.2,115.33 C4.53776651,115.609807 3.94159498,116.025424 3.45,116.55 C3.28,116.76 3.02,117.55 3.2,120.1 C3.21932997,120.376142 3.01114237,120.61567 2.735,120.635 C2.45885763,120.65433 2.21932997,120.446142 2.2,120.17 C2.04,117.84 2.2,116.53 2.67,115.92 C3.25270404,115.291633 3.95693128,114.788127 4.74,114.44 C11.49,110.92 18.46,107.29 25.55,104.17 C26.2953877,103.698195 27.2389895,103.671345 28.01,104.1 C28.5808291,104.624216 28.8253481,105.415082 28.65,106.17 C28.3058356,108.08907 27.3849163,109.857653 26.01,111.24 C24.2203921,113.260126 22.0917511,114.95221 19.72,116.24 L19.15,116.54 C17.7646008,117.193436 16.5366216,118.138297 15.55,119.31 C15.35,119.53 15.14,119.74 14.94,119.95 C14.3089938,120.597865 13.641223,121.208875 12.94,121.78 C12.8490963,121.86142 12.7320107,121.907544 12.61,121.910164 L12.61,121.910164 Z" id="Path" fill="#263238"></path>
                    <path d="M8.67,120.2 C9.15913503,119.955447 9.66750633,119.75143 10.19,119.59 C15.19,118.08 20.64,118.44 25.69,117.02 C28.24,116.3 30.69,115.12 33.39,115.14 C34.19,115.14 35.28,115.47 35.19,116.47 C35.1,117.47 34.41,117.87 33.88,118.47 C33.2971532,119.176541 32.669173,119.844605 32,120.47 C30.6049358,121.69558 29.0124287,122.676105 27.29,123.37 C24.7580588,124.244754 22.1450963,124.864495 19.49,125.22 C16.93,125.71 14.49,126.5 11.98,127.22 C11.36,127.4 10.73,127.56 10.09,127.69" id="Path" fill="#FFFFFF"></path>
                    <path d="M10.09,128.21 C9.85372189,128.206289 9.65093909,128.040752 9.6,127.81 C9.57345073,127.680041 9.59962876,127.544859 9.67277244,127.434206 C9.74591611,127.323552 9.86003065,127.246497 9.99,127.22 C10.55,127.11 11.14,126.96 11.84,126.76 L13.36,126.32 C15.3321803,125.695598 17.334751,125.171592 19.36,124.75 L21.07,124.44 C23.1190835,124.156988 25.1310536,123.650643 27.07,122.93 C28.7397676,122.255512 30.2845422,121.305661 31.64,120.12 C32.1193059,119.678567 32.5670706,119.20407 32.98,118.7 L33.48,118.13 C33.58,118.01 33.7,117.89 33.81,117.78 C34.237888,117.434867 34.5372693,116.955857 34.66,116.42 C34.675748,116.272846 34.6326051,116.125441 34.54,116.01 C34.202618,115.743978 33.7787432,115.612185 33.35,115.64 C31.4940077,115.732859 29.6660865,116.131556 27.94,116.82 C27.23,117.06 26.51,117.3 25.79,117.5 C23.2833902,118.132575 20.7275071,118.550749 18.15,118.75 C15.5010848,118.943419 12.8762099,119.385362 10.31,120.07 C9.81038044,120.219829 9.32512367,120.413931 8.86,120.65 C8.69940962,120.74663 8.49826473,120.745336 8.33893083,120.646648 C8.17959693,120.54796 8.08883447,120.368452 8.10380916,120.18163 C8.11878386,119.994808 8.23698068,119.832049 8.41,119.76 C8.92729712,119.498144 9.46589935,119.280696 10.02,119.11 C12.6385025,118.408556 15.3168036,117.953245 18.02,117.75 C20.5429169,117.557675 23.0451183,117.152907 25.5,116.54 C26.21,116.34 26.9,116.11 27.6,115.87 C29.4331358,115.148664 31.3722508,114.73314 33.34,114.64 C34.0473349,114.610582 34.7375765,114.862233 35.26,115.34 C35.5468199,115.658089 35.6817736,116.084834 35.63,116.51 C35.5128458,117.29087 35.1145674,118.002081 34.51,118.51 L34.2,118.83 L33.72,119.39 C33.27438,119.928165 32.7933091,120.435962 32.28,120.91 C30.8437943,122.175965 29.2040607,123.190234 27.43,123.91 C25.4214428,124.649606 23.3396359,125.172572 21.22,125.47 L19.53,125.78 C17.53,126.17 15.53,126.78 13.59,127.33 L12.07,127.77 C11.35,127.98 10.72,128.13 10.14,128.25 L10.09,128.21 Z" id="Path" fill="#263238"></path>
                    <path d="M7.71,127.23 C8.72825241,126.408068 9.91717524,125.823855 11.19,125.52 C13.6013744,125.179527 16.0486256,125.179527 18.46,125.52 C22.6949525,125.858372 26.9515328,125.821562 31.18,125.41 C31.8604926,125.279776 32.5595074,125.279776 33.24,125.41 C37.17,126.52 31.87,130.34 30.39,130.98 C24.56,133.51 17.66,133.63 11.39,133.48" id="Path" fill="#FFFFFF"></path>
                    <path d="M14.52,134.1 C13.52,134.1 12.43,134.1 11.4,134.1 C11.2673831,134.097374 11.1412441,134.04216 11.0493457,133.946511 C10.9574472,133.850862 10.9073211,133.722616 10.91,133.59 C10.9207464,133.316175 11.1459639,133.099789 11.42,133.1 C17.85,133.26 24.58,133.1 30.19,130.64 C31.38,130.13 34.19,127.97 34.19,126.81 C34.19,126.47 33.82,126.2 33.14,126.01 C32.531699,125.898887 31.908301,125.898887 31.3,126.01 C27.0286314,126.4297 22.7284617,126.469857 18.45,126.13 L17.45,126.05 C15.4002611,125.759222 13.3197389,125.759222 11.27,126.05 C10.075746,126.34209 8.95972527,126.891569 8,127.66 C7.78169951,127.8279 7.46872837,127.787661 7.3,127.57 C7.12982156,127.354315 7.16554591,127.041727 7.38,126.87 C8.46036633,126.002314 9.72115161,125.387297 11.07,125.07 C13.2130653,124.745232 15.3912802,124.725032 17.54,125.01 L18.48,125.09 C22.6850938,125.423383 26.9113508,125.386575 31.11,124.98 C31.8574926,124.857959 32.6215393,124.88173 33.36,125.05 C34.77,125.45 35.11,126.19 35.14,126.74 C35.28,128.74 31.4,131.2 30.56,131.56 C25.71,133.67 20.08,134.1 14.52,134.1 Z" id="Path" fill="#263238"></path>
                    <path d="M15.02,133.88 C15.02,133.88 23.34,144.88 17.28,155.37" id="Path" fill="#FFFFFF"></path>
                    <path d="M17.28,155.870006 C17.1930514,155.870419 17.1072875,155.849836 17.03,155.81 C16.7932912,155.667094 16.7098125,155.363935 16.84,155.12 C22.67,145.01 14.7,134.29 14.62,134.19 C14.511034,134.047094 14.4865848,133.85691 14.5558623,133.69109 C14.6251397,133.525269 14.7776188,133.409004 14.9558623,133.38609 C15.1341057,133.363176 15.311034,133.437094 15.42,133.58 C15.5,133.69 23.87,144.92 17.71,155.58 C17.6319276,155.749261 17.466184,155.861042 17.28,155.870006 Z" id="Path" fill="#263238"></path>
                    <path d="M46.39,180.52 C46.39,180.52 43.1,185.87 32.67,190.03 C26.2358073,192.474205 19.4765172,193.956801 12.61,194.43 L9.55,172.93 C9.55,172.93 16.25,174.14 26,170 C29.6567421,168.427065 33.1196672,166.437225 36.32,164.07 L46.39,180.52 Z" id="Path" fill="#FFFFFF"></path>
                    <path d="M12.61,194.930014 C12.3611792,194.931872 12.1504617,194.746956 12.12,194.5 L9.06,173 C9.03378151,172.842415 9.08602847,172.681942 9.2,172.57 C9.32005119,172.463417 9.48130092,172.415775 9.64,172.44 C9.7,172.44 16.32,173.56 25.81,169.54 C29.427552,167.982093 32.853491,166.01243 36.02,163.67 C36.1353802,163.586484 36.2799677,163.553951 36.42,163.58 C36.555095,163.612249 36.6729866,163.694416 36.75,163.81 L46.81,180.26 C46.9090047,180.422796 46.9090047,180.627204 46.81,180.79 C46.67,181.01 43.32,186.32 32.86,190.49 C26.3757243,192.947049 19.567053,194.442868 12.65,194.930014 L12.61,194.930014 Z M10.17,173.51 L13.07,193.89 C19.7265135,193.38721 26.2765207,191.932401 32.52,189.57 C41.38,186.03 45.03,181.57 45.82,180.51 L36.17,164.8 C33.0562616,167.050711 29.7024098,168.948991 26.17,170.46 C18.07,173.91 12.09,173.67 10.17,173.51 Z" id="Shape" fill="#263238"></path>
                    <path d="M46.39,180.52 C46.39,180.52 43.1,185.87 32.67,190.03 L26,170.03 C29.6567421,168.457065 33.1196672,166.467225 36.32,164.1 L46.39,180.52 Z" id="Path" fill="#000000" opacity="0.1"></path>
                    <path d="M199.75,68.51 C199.75,68.51 202.19,69.73 204.62,65.59 C207.05,61.45 209.17,50.11 203.82,49.14 C196.59,45.62 194.15,50.73 194.15,50.73 L189.76,34.9 C189.76,34.9 188.55,20.28 179.29,21.5 C170.03,22.72 164.67,32.95 164.67,32.95 L139.58,33.95 L138.85,48.08 C138.85,48.08 134.71,45.16 133.49,48.81 C132.27,52.46 132.27,64.65 142.49,68.54 C142.49,68.54 146.49,86.69 158.75,96.62 L164.75,96.97 L163.42,111.18 C166.243542,117.070395 171.346064,121.555415 177.55,123.6 C187.79,126.77 197.25,106.84 197.25,106.84 C197.25,106.84 197.49,82.14 199.75,68.51 Z" id="Path" fill="#FFFFFF"></path>
                    <path d="M146.98,36.17 C151.49,38.86 156.31,41.17 161.5,42.05 C166.69,42.93 172.3,42.05 176.5,38.94 C176.369669,42.4158705 176.705999,45.8935233 177.5,49.28 C178.42,52.53 180.39,55.63 183.4,57.15 C183.72,61.15 184.1,65.15 184.4,69.23 C184.67,72.62 184.82,77.01 183.48,80.14 C182.005174,83.8650123 179.531034,87.1108072 176.33,89.52 C173.03,91.97 170.33,92.87 165.49,96.05 C165.14,96.28 165.31,97.11 165.6,96.81 C170.248287,96.3977768 174.675573,94.6393725 178.34,91.75 C178.34,91.75 186.61,107.84 186.83,120.13 L197.28,106.81 C197.28,106.81 196.66,78.4 200.23,68.33 C200.23,68.33 205.37,68.52 206.71,58.92 C208.05,49.32 202.24,48.42 202.24,48.42 C202.24,48.42 182.36,19.15 177.45,21.83 C172.54,24.51 146.98,36.17 146.98,36.17 Z" id="Path" fill="#D9E3FF"></path>
                    <path d="M146.98,36.17 C151.49,38.86 156.31,41.17 161.5,42.05 C166.69,42.93 172.3,42.05 176.5,38.94 C176.369669,42.4158705 176.705999,45.8935233 177.5,49.28 C178.42,52.53 180.39,55.63 183.4,57.15 C183.72,61.15 184.1,65.15 184.4,69.23 C184.67,72.62 184.82,77.01 183.48,80.14 C182.005174,83.8650123 179.531034,87.1108072 176.33,89.52 C173.03,91.97 170.33,92.87 165.49,96.05 C165.14,96.28 165.31,97.11 165.6,96.81 C170.248287,96.3977768 174.675573,94.6393725 178.34,91.75 C178.34,91.75 186.61,107.84 186.83,120.13 L197.28,106.81 C197.28,106.81 196.66,78.4 200.23,68.33 C200.23,68.33 205.37,68.52 206.71,58.92 C208.05,49.32 202.24,48.42 202.24,48.42 C202.24,48.42 182.36,19.15 177.45,21.83 C172.54,24.51 146.98,36.17 146.98,36.17 Z" id="Path" fill="#FFFFFF" opacity="0.5"></path>
                    <path d="M141.71,67.96 L141.59,67.96 C136.92,66.87 133.7,63.35 132.59,58.03 C131.53,53.16 132.48,47.85 133.96,46.7 C134.469036,46.2938162 135.131307,46.1328221 135.77,46.26 C138,46.64 140.19,49.99 140.28,50.13 C140.431878,50.3619596 140.36696,50.6731217 140.135,50.825 C139.90304,50.9768783 139.591878,50.9119596 139.44,50.68 C138.88,49.81 137.09,47.5 135.6,47.24 C135.246314,47.178233 134.883009,47.2690591 134.6,47.49 C133.6,48.25 132.54,53.02 133.6,57.82 C134.36,61.3 136.41,65.71 141.9,66.99 C142.167317,67.0542604 142.332602,67.3222895 142.27,67.59 C142.210365,67.841888 141.965094,68.0039419 141.71,67.96 Z" id="Path" fill="#263238"></path>
                    <path d="M209.39,126.26 C209.392048,126.289965 209.392048,126.320035 209.39,126.35 C207.198899,129.253023 204.774158,131.972077 202.14,134.48 L202.14,134.48 C201.74,134.87 201.32,135.25 200.91,135.62 C195.395609,140.700417 189.239998,145.037248 182.6,148.52 L182.45,148.61 L178.02,121.97 L178.02,121.97 C184.366175,118.30854 190.010704,113.547767 194.69,107.91 L195.01,107.57 C195.7,106.81 196.88,105.73 197.24,105.17 C198.46,103.28 198.24,104.09 198.24,104.09 L197.44,100.3 L197.02,98.37 L197.47,98.58 C209.42,107.25 209.66,124.72 209.39,126.26 Z" id="Path" fill="#FFFFFF"></path>
                    <path d="M182.43,149.13 C182.352793,149.128782 182.277135,149.108148 182.21,149.07 C182.065841,149.002235 181.96469,148.867367 181.94,148.71 L177.5,122.07 C177.481513,121.913088 177.532674,121.75595 177.64,121.64 C177.711882,121.573008 177.797062,121.521899 177.89,121.49 C183.603926,117.61584 188.910982,113.173191 193.73,108.23 L194.85,107.03 C196.333711,105.523792 197.723021,103.927422 199.01,102.25 C199.170163,102.023563 199.483563,101.969837 199.71,102.13 C199.936437,102.290163 199.990163,102.603563 199.83,102.83 C198.514249,104.541874 197.094927,106.171589 195.58,107.71 L194.46,108.91 C189.614921,113.876238 184.285034,118.345169 178.55,122.25 L182.8,147.82 C189.002234,144.042566 194.939369,139.846144 200.57,135.26 C200.99,134.92 201.4,134.56 201.8,134.21 C205.39,131.07 207.8,128.36 208.92,126.13 C209.33,124.49 207.74,107.86 197.58,99.13 C197.444239,99.0138887 197.380735,98.8341698 197.41341,98.6585417 C197.446085,98.4829136 197.569974,98.3380584 197.73841,98.2785417 C197.906846,98.2190249 198.094239,98.2538886 198.23,98.37 C208.91,107.51 210.33,124.56 209.88,126.37 C209.88,126.37 209.88,126.49 209.88,126.5 C208.65,128.91 206.18,131.73 202.5,134.95 C202.1,135.31 201.67,135.67 201.25,136.02 C195.433079,140.752696 189.295029,145.076396 182.88,148.96 C182.82412,149.000262 182.763707,149.033825 182.7,149.06 C182.619414,149.110715 182.525076,149.135173 182.43,149.13 L182.43,149.13 Z" id="Path" fill="#263238"></path>
                    <path d="M178,121.99 L166.23,148.67 C166.23,148.67 153.83,132.07 153.47,118.26 C155.27,110.81 157.21,106.66 164.9,102.15 L164.03,107.52 C164.03,107.52 165.45,120.21 178,121.99 Z" id="Path" fill="#FFFFFF"></path>
                    <path d="M166.23,149.130001 C166.065011,149.130001 165.910912,149.047683 165.82,148.91 C165.71,148.75 154.35,132.02 152.98,118.27 C152.969987,118.22387 152.969987,118.17613 152.98,118.13 C155.52,104.41 164.05,102.13 164.41,102.05 C164.680119,101.986923 164.951122,102.151301 165.02,102.42 C165.053171,102.547371 165.033705,102.68273 164.965988,102.795593 C164.89827,102.908455 164.787995,102.989329 164.66,103.02 C164.57,103.02 156.41,105.26 153.98,118.24 C155.19,130.08 163.98,144.24 166.15,147.59 L177.38,122.17 C171.564046,117.753444 166.608537,112.306452 162.76,106.1 C162.689489,105.987344 162.666731,105.851251 162.696753,105.721783 C162.726774,105.592316 162.807105,105.480127 162.92,105.41 C163.155567,105.268872 163.460584,105.339601 163.61,105.57 C167.441947,111.784744 172.420306,117.214446 178.28,121.57 C178.47982,121.707555 178.555092,121.966826 178.46,122.19 L166.69,148.82 C166.618103,148.987154 166.461074,149.102054 166.28,149.12 L166.23,149.130001 Z" id="Path" fill="#263238"></path>
                    <path d="M209.39,126.14 L209.39,126.24 C208.1,128.76 205.39,131.64 202.16,134.46 C202.16,134.46 202.16,134.4 202.16,134.38 L202.16,134.38 C200.64,121.21 194.16,108.58 194.16,108.58 L198.04,104.08 L197.53,98.47 C207.95,108.09 209.66,124.6 209.39,126.14 Z" id="Path" fill="#000000" opacity="0.12"></path>
                    <path d="M164.17,107.750009 L164.03,107.750009 C163.765884,107.676935 163.609792,107.40489 163.68,107.14 C164.482475,103.829625 164.689033,100.402798 164.29,97.02 C164.254534,96.7467352 164.446843,96.496286 164.72,96.46 C164.993265,96.4245336 165.243714,96.6168428 165.28,96.89 C165.707007,100.402614 165.493555,103.963547 164.65,107.4 C164.58416,107.609372 164.389476,107.751329 164.17,107.750009 Z" id="Path" fill="#263238"></path>
                    <path d="M197.71,105.160001 C197.445161,105.160477 197.22589,104.954362 197.21,104.69 C196.1,81.62 199.71,68.32 199.75,68.19 C199.831874,67.9279618 200.103345,67.7747124 200.37,67.84 C200.635097,67.9173199 200.78732,68.1949033 200.71,68.46 C200.71,68.59 197.11,81.75 198.2,104.64 C198.208177,104.771666 198.162918,104.901067 198.07446,104.998935 C197.986003,105.096803 197.86182,105.154869 197.73,105.160001 L197.71,105.160001 Z" id="Path" fill="#263238"></path>
                    <path d="M160,71.29 C159.39572,71.2755953 158.795103,71.1917104 158.21,71.04 C156.56,70.65 154.58,69.98 153.9,68.2 C153.4814,66.7422347 153.814988,65.1717474 154.79,64.01 C155.14,63.52 155.53,63.07 155.91,62.63 C156.402336,62.1070183 156.847407,61.5414774 157.24,60.94 C158.83,58.36 158.38,55.08 157.73,51.67 C157.680951,51.3973333 157.858548,51.1353779 158.13,51.08 C158.400394,51.0313414 158.659396,51.2099631 158.71,51.48 C159.37,54.95 159.87,58.58 158.09,61.48 C157.669136,62.1289644 157.194108,62.7411487 156.67,63.31 C156.290265,63.7238194 155.933081,64.1577806 155.6,64.61 C154.856203,65.5167712 154.575434,66.7174271 154.84,67.86 C155.35,69.2 157.03,69.75 158.44,70.08 C159.328024,70.407419 160.30716,70.385978 161.18,70.02 C161.331838,69.9253246 161.522651,69.9188455 161.680561,70.0030032 C161.838471,70.087161 161.939488,70.2491701 161.945561,70.4280033 C161.951633,70.6068364 161.861838,70.7753246 161.71,70.87 C161.189701,71.1651727 160.597843,71.3105415 160,71.29 Z" id="Path" fill="#263238"></path>
                    <path d="M153.52,53.42 C153.61,55.29 152.86,56.84 151.85,56.88 C150.84,56.92 149.96,55.45 149.85,53.58 C149.74,51.71 150.51,50.16 151.52,50.11 C152.53,50.06 153.44,51.55 153.52,53.42 Z" id="Path" fill="#263238"></path>
                    <path d="M174.08,52.93 C174.17,54.8 173.42,56.35 172.41,56.39 C171.4,56.43 170.52,54.96 170.41,53.09 C170.3,51.22 171.07,49.67 172.08,49.62 C173.09,49.57 174,51.06 174.08,52.93 Z" id="Path" fill="#263238"></path>
                    <path d="M164.7,78.67 C162.853405,78.7104282 161.021413,78.3344598 159.34,77.57 C159.229181,77.4950154 159.15304,77.3787418 159.128609,77.247187 C159.104177,77.1156322 159.133493,76.9797737 159.21,76.87 C159.283106,76.7598277 159.397632,76.6838755 159.527567,76.659395 C159.657502,76.6349145 159.791815,76.6639838 159.9,76.74 C162.197905,77.6711234 164.717706,77.9109389 167.15,77.43 C169.986278,76.8409754 172.451766,75.1031864 173.96,72.63 C174.116298,72.4017766 174.42391,72.3358595 174.66,72.48 C174.889409,72.6363387 174.951632,72.9474533 174.8,73.18 C173.144693,75.8897739 170.433352,77.7855376 167.32,78.41 C166.458022,78.5871321 165.579979,78.6742662 164.7,78.67 Z" id="Path" fill="#263238"></path>
                    <path d="M165.06,42.9300114 C164.902988,42.9284643 164.755436,42.8546883 164.66,42.73 C164.494315,42.5090861 164.539086,42.1956854 164.76,42.03 C169.13,38.82 172.12,38.7 176.62,41.54 C176.850399,41.6894158 176.921128,41.9944331 176.78,42.23 C176.630645,42.4616164 176.322034,42.5287058 176.09,42.38 C171.92,39.75 169.41,39.86 165.36,42.83 C165.2738,42.8955722 165.168304,42.9307376 165.06,42.9300114 L165.06,42.9300114 Z" id="Path" fill="#263238"></path>
                    <path d="M146.66,44.72 C146.539414,44.7194734 146.422759,44.6770534 146.33,44.6 C146.227602,44.5161841 146.163457,44.394516 146.152156,44.2626723 C146.140855,44.1308287 146.183359,44.0000193 146.27,43.9 C148.618633,41.2690137 152.537907,40.7504114 155.49,42.68 C155.712588,42.8425683 155.765733,43.1525767 155.61,43.38 C155.451103,43.6013031 155.144282,43.6546633 154.92,43.5 C152.406438,41.843188 149.06004,42.2678578 147.04,44.5 C146.955118,44.6291586 146.814274,44.7106997 146.66,44.72 Z" id="Path" fill="#263238"></path>
                    <path d="M161.75,97.26 C160.726993,97.2739157 159.70432,97.2137585 158.69,97.08 C158.607014,97.0697052 158.527934,97.0387612 158.46,96.99 C158.19,96.77 151.71,91.71 146.53,81.2 C137.71,63.33 139.4,37.5 139.42,37.2 C139.43933,36.9238576 139.678858,36.71567 139.955,36.735 C140.231142,36.75433 140.43933,36.9938576 140.42,37.27 C140.42,37.53 138.73,63.09 147.42,80.72 C150.193731,86.5642464 154.122764,91.7859478 158.97,96.07 C162.465731,96.40456 165.992914,96.1407821 169.4,95.29 C175.87,93.72 182,88.65 186.02,84.68 C186.112164,84.5859359 186.23831,84.5329286 186.37,84.5329286 C186.50169,84.5329286 186.627836,84.5859359 186.72,84.68 C186.816677,84.7707333 186.871519,84.8974141 186.871519,85.03 C186.871519,85.1625859 186.816677,85.2892667 186.72,85.38 C182.62,89.44 176.33,94.62 169.64,96.26 C167.058363,96.9018446 164.410133,97.2374885 161.75,97.26 L161.75,97.26 Z" id="Path" fill="#263238"></path>
                    <path d="M186.37,85.5800547 C186.283051,85.5804189 186.197287,85.5598355 186.12,85.52 C185.878829,85.3805069 185.794232,85.0732879 185.93,84.83 C190.88,75.97 191.93,70.3 191.98,70.25 C192.012154,70.0713672 192.137165,69.9234576 192.307942,69.8619873 C192.47872,69.800517 192.669319,69.8348248 192.807942,69.9519873 C192.946566,70.0691498 193.012154,70.2513672 192.98,70.43 C192.93,70.66 191.85,76.3 186.81,85.32 C186.723724,85.4823484 186.553829,85.5827408 186.37,85.5800547 Z" id="Path" fill="#263238"></path>
                    <path d="M199.67,68.85 C196.83,68.85 195.86,67.14 195.81,67.05 C195.677452,66.8069947 195.766995,66.5025484 196.01,66.37 C196.253005,66.2374517 196.557452,66.3269947 196.69,66.57 C196.69,66.65 197.86,68.52 201.6,67.57 C203.92,66.99 206.65,60.64 206.73,55.64 C206.73,53.72 206.4,50.37 203.73,49.64 C197.53,47.89 194.27,57.01 194.24,57.1 C194.145766,57.3595516 193.862077,57.496963 193.6,57.41 C193.340507,57.3160233 193.206231,57.0295684 193.3,56.77 C193.3,56.67 196.9,46.68 204,48.67 C206.48,49.37 207.82,51.86 207.77,55.67 C207.69,60.82 204.96,67.78 201.88,68.55 C201.159081,68.7435367 200.416424,68.8443499 199.67,68.85 Z" id="Path" fill="#263238"></path>
                    <path d="M195.17,54.9 C194.41,56.51 191.45,55.09 190.36,53.68 C189.249999,52.1981487 189.249999,50.1618513 190.36,48.68 C188.05,48.01 185.45,46.97 184.45,44.78 C184.026787,43.6684977 183.879243,42.4709886 184.02,41.29 C184.23,38.08 185.02,34.88 184.69,31.68 C184.36,28.48 182.38,25.13 179.21,24.54 C179.21,24.54 168.21,44.23 147.46,36.28 C147.46,36.28 138.21,40.7 134,33.13 C129.79,25.56 135.47,17.56 147.25,12.51 C147.25,12.51 139.89,12.3 140.1,8.51 C140.31,4.72 158.17,3.67 170.8,6.44 C170.8,6.44 169.31,-0.19 184.88,1.7 C200.45,3.59 205.49,7.98 207.4,18.85 C218.81,25.07 205.99,50.71 205.99,50.71 C205.99,50.71 199.96,44.67 195.17,54.9 Z" id="Path" fill="#263238"></path>
                    <path d="M138.34,33.49 C135.975995,37.6256177 135.548198,42.5909807 137.17,47.07 L140.38,52.07 L139.88,35.07 L138.34,33.49 Z" id="Path" fill="#263238"></path>
                    <path d="M206.41,20.87 C206.360447,20.8794589 206.309553,20.8794589 206.26,20.87 C205.997801,20.7842371 205.854604,20.5023191 205.94,20.24 C210.18,7.24 201.13,1.24 200.74,0.95 C200.510591,0.793661328 200.448368,0.482546728 200.6,0.25 C200.752591,0.0218625005 201.060559,-0.0406236366 201.29,0.11 C201.39,0.17 211.37,6.85 206.89,20.55 C206.81387,20.7475205 206.621607,20.875696 206.41,20.87 Z" id="Path" fill="#263238"></path>
                    <path d="M143.92,30.95 C140.922727,31.0293117 137.985676,30.0995976 135.58,28.31 C135.410757,28.2122872 135.313953,28.0249282 135.33218,27.8303547 C135.350406,27.6357813 135.480322,27.46966 135.664768,27.4050787 C135.849214,27.3404973 136.05438,27.389294 136.19,27.53 C139.29,29.95 143.96,30.6 148.7,29.27 C152.8,28.11 156.52,25.74 160.11,23.45 L160.59,23.14 C164.59,20.59 168.59,18.22 172.95,17.27 C178.361083,16.128519 184.003891,17.2095169 188.61,20.27 C190.84,21.75 192.02,23.41 192.100416,25.19 C192.105412,25.3226365 192.057857,25.4519809 191.967817,25.5495237 C191.877778,25.6470666 191.752645,25.7048005 191.62,25.71 C191.486939,25.7242384 191.354117,25.6810809 191.254839,25.5913486 C191.155561,25.5016163 191.09924,25.3738188 191.1,25.24 C191.03,23.79 190.01,22.4 188.1,21.1 C183.6996,18.2316764 178.342858,17.2214451 173.2,18.29 C168.96,19.2 165.2,21.43 161.2,24.02 L160.72,24.33 C157.06,26.66 153.28,29.07 149.04,30.27 C147.372951,30.7321485 145.649888,30.9609928 143.92,30.95 Z" id="Path" fill="#FFFFFF"></path>
                    <path d="M195.74,19.43 C195.514968,19.4287369 195.318506,19.2772977 195.26,19.06 C194.010772,15.3253974 191.070872,12.4003265 187.33,11.17 C183.88,9.94 179.72,9.78 174.61,10.68 C172.61,11.03 170.61,11.51 168.69,11.97 C166.44,12.5 164.11,13.06 161.77,13.42 C158.29,13.97 153.61,13.95 151.16,10.77 C151.037465,10.6300681 151.002733,10.4336842 151.069838,10.2602122 C151.136943,10.0867403 151.294795,9.96485511 151.4796,9.94381383 C151.664405,9.92277255 151.845616,10.0060533 151.95,10.16 C154.1,12.95 158.4,12.94 161.62,12.43 C163.91,12.07 166.23,11.52 168.46,10.99 C170.41,10.53 172.46,10.05 174.46,9.7 C179.75,8.76 184.07,8.94 187.68,10.23 C191.728717,11.5654367 194.904563,14.7412828 196.24,18.79 C196.310756,19.0573825 196.155486,19.3324313 195.89,19.41 L195.74,19.43 Z" id="Path" fill="#FFFFFF"></path>
                </g>
                <g id="Progress_Bar" transform="translate(0.000000, 294.000000)">
                    <path d="M341.77,23.24 L3.43,23.24 C1.53794293,23.2345078 0.00549221776,21.7020571 1.42108547e-14,19.81 L1.42108547e-14,19.81 C1.42108547e-14,17.9156633 1.53566331,16.38 3.43,16.38 L341.77,16.38 C343.664337,16.38 345.2,17.9156633 345.2,19.81 L345.2,19.81 C345.194508,21.7020571 343.662057,23.2345078 341.77,23.24 Z" id="Path" fill="#263238"></path>
                    <path d="M339.89,20.31 L3.89,20.31 C3.61385763,20.31 3.39,20.0861424 3.39,19.81 C3.39,19.5338576 3.61385763,19.31 3.89,19.31 L339.89,19.31 C340.166142,19.31 340.39,19.5338576 340.39,19.81 C340.39,20.0861424 340.166142,20.31 339.89,20.31 Z" id="Path" fill="#FFFFFF"></path>
                    <circle id="Oval" fill="#FFFFFF" transform="translate(23.608189, 18.344305) rotate(-47.270000) translate(-23.608189, -18.344305) " cx="23.6081887" cy="18.3443053" r="12.98"></circle>
                    <path d="M23.61,31.82 C18.1578489,31.82 13.2425518,28.5357034 11.1561039,23.4985727 C9.06965602,18.4614419 10.2229476,12.6634536 14.0782006,8.80820059 C17.9334536,4.9529476 23.7314419,3.79965602 28.7685727,5.8861039 C33.8057034,7.97255178 37.09,12.8878489 37.09,18.34 C37.084485,25.7825128 31.0525128,31.814485 23.61,31.82 Z M23.61,5.82 C16.7174863,5.82 11.13,11.4074863 11.13,18.3 C11.13,25.1925137 16.7174863,30.78 23.61,30.78 C30.5025137,30.78 36.09,25.1925137 36.09,18.3 C36.0570211,11.4276788 30.4823916,5.87091671 23.61,5.86 L23.61,5.82 Z" id="Shape" fill="#263238"></path>
                    <path d="M30.47,18.34 C30.47,22.1286734 27.3986734,25.2 23.61,25.2 C19.8213266,25.2 16.75,22.1286734 16.75,18.34 C16.75,14.5513266 19.8213266,11.48 23.61,11.48 C25.4293851,11.48 27.174253,12.2027479 28.4607525,13.4892475 C29.7472521,14.775747 30.47,16.5206149 30.47,18.34 L30.47,18.34 Z" id="Path" fill="#193DA1"></path>
                    <path d="M23.61,25.67 C19.5451842,25.67 16.25,22.3748158 16.25,18.31 C16.25,14.2451842 19.5451842,10.95 23.61,10.95 C27.6748158,10.95 30.97,14.2451842 30.97,18.31 C30.9644915,22.3725319 27.6725319,25.6644915 23.61,25.67 Z M23.61,11.95 C20.097469,11.95 17.25,14.797469 17.25,18.31 C17.25,21.822531 20.097469,24.67 23.61,24.67 C27.122531,24.67 29.97,21.822531 29.97,18.31 C29.948035,14.8114736 27.1085911,11.9854233 23.61,11.98 L23.61,11.95 Z" id="Shape" fill="#263238"></path>
                </g>
            </g>
        </g>
    </g>
</svg>