<svg xmlns="http://www.w3.org/2000/svg" fill="none" width="38" height="38" stroke="currentColor"><g fill="currentColor"><path d="M19 21a6 6 0 110-12 6 6 0 010 12z"/><path d="M19 0C8.487 0 0 8.477 0 18.977c0 6.326 3.083 11.892 7.854 15.35.254.168.465.337.718.505.254.168.506.295.76.465 0 0 .043 0 .043.043.254.126.506.294.76.421.043 0 .043.043.084.043.254.127.507.254.718.379.043 0 .084.043.084.043.254.127.465.21.717.338.043 0 .084.042.127.042.211.084.465.168.718.254.084.043.127.043.21.084.212.084.466.168.677.21.084.044.168.044.254.085.211.043.422.127.633.168.084.043.211.043.296.084.21.043.379.084.59.127.127.043.254.043.38.084.168.043.379.084.549.084.168.043.295.043.465.043.168 0 .338.043.506.043.168 0 .38.042.55.042.126 0 .253.043.379.043.338 0 .633.043.971.043.338 0 .676 0 .971-.043h.254c.254 0 .466-.043.718-.043.084 0 .211-.042.295-.042.211-.043.465-.043.676-.085.084 0 .169-.042.254-.042.211-.043.465-.084.677-.127.084 0 .168-.043.254-.043.21-.043.465-.084.676-.168.084 0 .127-.043.21-.043.255-.084.466-.127.718-.21.043 0 .127-.044.169-.044.254-.084.506-.168.717-.253.043 0 .084-.043.127-.043.254-.084.506-.21.76-.295.043 0 .043-.043.084-.043.254-.127.507-.21.76-.337.044 0 .044-.043.085-.043.254-.127.506-.254.76-.422 0 0 .043 0 .043-.043.254-.127.506-.295.76-.464l.76-.506C34.75 31.164 38 25.47 38 18.977 38 8.477 29.513 0 19 0h0zm13.343 29.266c-.38-3.585-2.999-6.537-6.588-7.253-1.223-.254-2.533-.422-3.927-.549-.844.338-1.731.549-2.701.549-.929 0-1.857-.168-2.66-.506a45.137 45.137 0 00-3.757.506c-3.673.717-6.377 3.88-6.588 7.59v.254c-2.49-2.952-4.011-6.747-4.011-10.88C2.11 9.657 9.668 2.108 19 2.108c9.332 0 16.889 7.548 16.889 16.869 0 3.88-1.31 7.464-3.546 10.289h0z"/></g></svg>