<svg width="22" height="22" viewBox="0 0 22 22" fill="none" xmlns="http://www.w3.org/2000/svg">
<path fill-rule="evenodd" clip-rule="evenodd" d="M13.7843 2.08083C14.1349 1.95708 14.5062 1.91583 14.8774 1.8952V1.91583C15.2487 1.8952 15.6612 1.8952 16.0324 1.9777C16.7749 2.1427 17.4555 2.49333 18.033 3.07083C19.6418 4.65895 19.6418 7.2577 18.033 8.86645L14.9393 11.9602C13.6812 13.239 12.2374 13.6308 11.2062 13.569C10.1749 13.5071 9.47366 13.0533 9.47366 13.0533C9.14944 12.8691 8.94812 12.5259 8.94555 12.153C8.94298 11.7801 9.13953 11.4342 9.46117 11.2455C9.78282 11.0569 10.1807 11.0541 10.5049 11.2383C10.5049 11.2383 10.8143 11.4858 11.3505 11.5065C11.8868 11.5271 12.6293 11.4446 13.5368 10.5371L16.6305 7.44333C17.4349 6.61833 17.4349 5.2777 16.6305 4.47333C16.053 3.8752 15.1662 3.77208 14.4443 4.01958C14.1555 4.1227 13.8874 4.24645 13.6605 4.47333C13.434 4.8307 13.0121 5.01343 12.5965 4.93421C12.1808 4.85499 11.8557 4.52991 11.7765 4.11426C11.6973 3.69861 11.88 3.27675 12.2374 3.0502C12.6912 2.59645 13.2274 2.28708 13.7843 2.08083ZM7.0812 8.20647C8.29807 6.96897 9.7212 6.61834 10.7524 6.65959V6.61834C11.7837 6.65959 12.4849 7.07209 12.4849 7.07209C12.8814 7.18772 13.1706 7.52873 13.22 7.93874C13.2694 8.34875 13.0695 8.74869 12.7118 8.95518C12.3542 9.16167 11.9078 9.13488 11.5774 8.88709C11.5774 8.88709 11.1856 8.72209 10.6081 8.70147C10.0306 8.68084 9.3087 8.78397 8.4837 9.60897L5.38995 12.7027C4.58557 13.5277 4.58557 14.8683 5.38995 15.6727C5.96745 16.2708 6.85432 16.374 7.5762 16.1265C7.86495 16.0233 8.13307 15.8996 8.35995 15.6727C8.58649 15.3153 9.00835 15.1326 9.424 15.2118C9.83965 15.2911 10.1647 15.6161 10.244 16.0318C10.3232 16.4474 10.1404 16.8693 9.78307 17.0958C9.32932 17.5496 8.79307 17.859 8.2362 18.0652C6.79245 18.5808 5.14245 18.2508 3.98745 17.0958C2.3787 15.5077 2.3787 12.909 3.98745 11.3002L7.0812 8.20647Z" fill="#00217D"/>
</svg>
