<svg width="18" height="18" viewBox="0 0 18 18" fill="none" xmlns="http://www.w3.org/2000/svg">
    <path fill-rule="evenodd" clip-rule="evenodd" d="M11.7846 1.08089C12.1353 0.957139 12.5065 0.915889 12.8778 0.895264V0.915889C13.249 0.895264 13.6615 0.895264 14.0328 0.977764C14.7753 1.14276 15.4559 1.49339 16.0334 2.07089C17.6421 3.65901 17.6421 6.25776 16.0334 7.86651L12.9396 10.9603C11.6815 12.239 10.2378 12.6309 9.20652 12.569C8.17527 12.5071 7.47402 12.0534 7.47402 12.0534C7.1498 11.8692 6.94849 11.526 6.94592 11.1531C6.94334 10.7802 7.1399 10.4343 7.46154 10.2456C7.78319 10.0569 8.18105 10.0542 8.50527 10.2384C8.50527 10.2384 8.81465 10.4859 9.3509 10.5065C9.88715 10.5271 10.6296 10.4446 11.5371 9.53714L14.6309 6.44339C15.4353 5.61839 15.4353 4.27776 14.6309 3.47339C14.0534 2.87526 13.1665 2.77214 12.4446 3.01964C12.1559 3.12276 11.8878 3.24651 11.6609 3.47339C11.4344 3.83076 11.0125 4.01349 10.5968 3.93427C10.1812 3.85505 9.85611 3.52997 9.77689 3.11432C9.69767 2.69867 9.8804 2.27681 10.2378 2.05026C10.6915 1.59651 11.2278 1.28714 11.7846 1.08089ZM5.08156 7.20653C6.29844 5.96903 7.72156 5.6184 8.75281 5.65965V5.6184C9.78406 5.65965 10.4853 6.07215 10.4853 6.07215C10.8818 6.18779 11.171 6.52879 11.2204 6.9388C11.2698 7.34881 11.0698 7.74875 10.7122 7.95524C10.3545 8.16173 9.90819 8.13494 9.57781 7.88715C9.57781 7.88715 9.18594 7.72215 8.60844 7.70153C8.03094 7.6809 7.30906 7.78403 6.48406 8.60903L3.39031 11.7028C2.58594 12.5278 2.58594 13.8684 3.39031 14.6728C3.96781 15.2709 4.85469 15.374 5.57656 15.1265C5.86531 15.0234 6.13344 14.8997 6.36031 14.6728C6.58686 14.3154 7.00872 14.1327 7.42437 14.2119C7.84002 14.2911 8.1651 14.6162 8.24432 15.0318C8.32354 15.4475 8.14081 15.8694 7.78344 16.0959C7.32969 16.5497 6.79344 16.859 6.23656 17.0653C4.79281 17.5809 3.14281 17.2509 1.98781 16.0959C0.379062 14.5078 0.379062 11.909 1.98781 10.3003L5.08156 7.20653Z" fill="#00217D"/>
</svg>
