<svg width="52" height="52" viewBox="0 0 52 52" fill="none" xmlns="http://www.w3.org/2000/svg">
<path d="M18.25 26L23.4167 31.1667L33.75 20.8333M49.25 26C49.25 29.0532 48.6486 32.0766 47.4802 34.8974C46.3118 37.7182 44.5992 40.2813 42.4402 42.4402C40.2813 44.5992 37.7182 46.3118 34.8974 47.4802C32.0766 48.6486 29.0532 49.25 26 49.25C22.9468 49.25 19.9234 48.6486 17.1026 47.4802C14.2818 46.3118 11.7187 44.5992 9.55977 42.4402C7.4008 40.2813 5.68822 37.7182 4.5198 34.8974C3.35138 32.0766 2.75 29.0532 2.75 26C2.75 19.8337 5.19955 13.92 9.55977 9.55977C13.92 5.19955 19.8337 2.75 26 2.75C32.1663 2.75 38.08 5.19955 42.4402 9.55977C46.8004 13.92 49.25 19.8337 49.25 26Z" stroke="#00217D" stroke-width="4" stroke-linecap="round" stroke-linejoin="round"/>
</svg>
