<svg viewBox="0 0 313 340" fill="none" xmlns="http://www.w3.org/2000/svg">
<path id="Vector" d="M210.648 331.653C210.648 335.895 163.494 339.306 105.319 339.306C47.1435 339.306 0 335.873 0 331.653C0 327.433 47.1544 324 105.319 324C163.483 324 210.648 327.411 210.648 331.653Z" fill="#8BAAFF"/>
<path id="Vector_2" opacity="0.4" d="M210.648 331.653C210.648 335.895 163.494 339.306 105.319 339.306C47.1435 339.306 0 335.873 0 331.653C0 327.433 47.1544 324 105.319 324C163.483 324 210.648 327.411 210.648 331.653Z" fill="white"/>
<g id="Character">
<g id="Vector_3">
<mask id="path-3-outside-1" maskUnits="userSpaceOnUse" x="87.1658" y="-1" width="71" height="75" fill="black">
<rect fill="white" x="87.1658" y="-1" width="71" height="75"/>
<path d="M125.224 5.16618C125.224 5.16618 118.93 0.223535 111.713 2.68922C104.496 5.15491 99.0245 17.1794 97.0767 26.9521C95.1289 36.7247 87.6418 44.1331 89.4432 55.5946C91.2446 67.0561 104.271 68.8463 120 70.5351C135.728 72.2239 144.263 70.3099 151.671 59.9743C159.079 49.6386 155.938 37.0625 151.558 25.9388C147.179 14.815 139.883 4.49064 133.814 2.57664C127.746 0.662632 125.224 5.16618 125.224 5.16618Z"/>
</mask>
<path d="M125.224 5.16618C125.224 5.16618 118.93 0.223535 111.713 2.68922C104.496 5.15491 99.0245 17.1794 97.0767 26.9521C95.1289 36.7247 87.6418 44.1331 89.4432 55.5946C91.2446 67.0561 104.271 68.8463 120 70.5351C135.728 72.2239 144.263 70.3099 151.671 59.9743C159.079 49.6386 155.938 37.0625 151.558 25.9388C147.179 14.815 139.883 4.49064 133.814 2.57664C127.746 0.662632 125.224 5.16618 125.224 5.16618Z" fill="#001550"/>
<path d="M125.224 5.16618C125.224 5.16618 118.93 0.223535 111.713 2.68922C104.496 5.15491 99.0245 17.1794 97.0767 26.9521C95.1289 36.7247 87.6418 44.1331 89.4432 55.5946C91.2446 67.0561 104.271 68.8463 120 70.5351C135.728 72.2239 144.263 70.3099 151.671 59.9743C159.079 49.6386 155.938 37.0625 151.558 25.9388C147.179 14.815 139.883 4.49064 133.814 2.57664C127.746 0.662632 125.224 5.16618 125.224 5.16618Z" stroke="#001550" stroke-width="4" stroke-linecap="round" stroke-linejoin="round" mask="url(#path-3-outside-1)"/>
</g>
<path id="Vector_4" d="M79.7402 220.785L78.3328 242.447C78.3328 242.447 72.3431 271.506 70.4516 283.485C68.5601 295.465 65.0924 313.681 64.4619 313.681C63.8314 313.681 53.4958 319.93 50.1857 325.03C46.8756 330.131 51.0751 332.292 55.6688 330.66C60.2624 329.027 66.4998 324.411 68.5376 318.928C70.5755 313.445 71.5888 311.407 71.7239 310.518C71.859 309.628 93.6449 251.138 95.8066 244.89C97.9683 238.641 102.562 220.289 102.562 220.289L113.269 183.968C113.269 183.968 124.731 221.314 124.866 222.969C125.001 224.624 136.71 320.076 137.25 323.645C137.791 327.215 137.633 329.759 139.795 330.525C141.957 331.29 147.057 331.29 149.736 331.29C152.416 331.29 161.716 332.698 166.298 331.549C170.881 330.401 171.399 329.635 168.212 327.338C165.026 325.042 147.327 323.578 145.695 316.89C145.559 316.383 145.436 218.127 145.436 218.127C145.436 218.127 143.904 185.634 141.36 176.47H82.4761L79.7402 220.785Z" fill="white" stroke="#001550" stroke-width="2" stroke-linecap="round" stroke-linejoin="round"/>
<path id="Vector_5" d="M55.6575 330.637C60.2398 328.971 66.4885 324.388 68.5263 318.905L68.9542 317.78C66.3534 320.549 62.1989 324.4 62.1989 324.4C61.9442 323.094 61.3763 321.869 60.5438 320.831C60.1806 320.43 59.7153 320.136 59.1977 319.979C58.6801 319.822 58.1297 319.809 57.6052 319.941L62.1088 314.987C58.7311 317.081 52.6513 321.36 50.2645 325.041C46.853 330.119 51.0413 332.292 55.6575 330.637Z" fill="#001550" stroke="#001550" stroke-width="2" stroke-linecap="round" stroke-linejoin="round"/>
<path id="Vector_6" d="M168.134 327.316C165.949 325.751 156.976 324.569 150.986 321.833C150.739 322.043 150.546 322.31 150.423 322.61C150.043 323.689 149.746 324.796 149.534 325.92L137.149 323.274V323.623C137.656 327.192 137.532 329.737 139.694 330.502C141.855 331.268 146.956 331.268 149.635 331.268C152.315 331.268 161.615 332.675 166.197 331.527C170.779 330.378 171.365 329.658 168.134 327.316Z" fill="#001550" stroke="#001550" stroke-width="2" stroke-linecap="round" stroke-linejoin="round"/>
<path id="Vector_7" d="M96.8987 123.62C96.8987 123.62 91.0554 126.311 83.9848 139.011C76.25 152.871 77.5786 160.572 77.466 177.291C77.3534 194.01 77.0156 221.764 77.0156 221.764C77.0156 221.764 98.4074 227.494 113.753 226.594C129.099 225.693 148.566 222.214 148.566 222.214C148.566 222.214 144.411 165.604 140.482 149.324C136.552 133.044 134.188 125.68 134.188 125.68C126.594 126.734 118.898 126.848 111.276 126.018C98.2498 124.746 96.8987 123.62 96.8987 123.62Z" fill="#001550" stroke="#001550" stroke-width="2" stroke-linecap="round" stroke-linejoin="round"/>
<path id="Vector_8" d="M121.51 173.688C122.096 175.614 122.636 177.562 123.109 179.509" stroke="white" stroke-width="2" stroke-linecap="round" stroke-linejoin="round"/>
<path id="Vector_9" d="M107.944 141.826C112.479 150.195 116.371 158.897 119.585 167.857" stroke="white" stroke-width="2" stroke-linecap="round" stroke-linejoin="round"/>
<path id="Vector_10" d="M240.325 112.857C239.65 112.407 228.582 110.673 228.582 110.673L226.42 109.784C226.42 109.784 239.819 110.853 239.931 110.29C240.044 109.727 240.494 109.052 239.593 108.939C238.693 108.827 221.455 105.325 221.455 105.325C221.455 105.325 225.835 101.182 226.398 100.281C226.961 99.3804 227.738 97.579 226.837 97.579C225.936 97.579 225.711 98.1419 224.484 98.93C223.257 99.7182 218.415 101.632 217.064 102.747C215.713 103.861 211.683 106.789 211.683 106.789L164.868 100.349C164.868 100.349 148.43 80.0827 144.861 75.7593C142.38 72.8741 139.556 70.303 136.451 68.1033C133.006 66.5833 133.073 69.1278 133.073 69.1278L140.268 101.103C140.268 101.103 158.879 112.193 160.027 112.193C161.175 112.193 211.457 113.859 211.457 113.859C211.457 113.859 214.835 115.435 216.952 116.775C219.068 118.115 232.568 122.405 232.568 122.405C232.568 122.405 233.469 121.954 232.455 121.166C231.442 120.378 224.934 117.237 224.934 117.237L238.445 120.164C238.445 120.164 239.233 119.601 238.895 119.038C238.558 118.475 226.511 113.871 226.511 113.871L240.021 114.546C240.021 114.546 240.989 113.308 240.325 112.857Z" fill="white" stroke="#001550" stroke-width="2" stroke-linecap="round" stroke-linejoin="round"/>
<path id="Vector_11" d="M162.042 96.8697C157.19 90.8912 147.496 78.9568 144.861 75.7593C142.38 72.8741 139.556 70.303 136.451 68.1033C133.006 66.5833 133.073 69.1278 133.073 69.1278L140.268 101.103C140.268 101.103 148.667 106.102 154.521 109.389L162.042 96.8697Z" fill="#10B981" stroke="#001550" stroke-width="2" stroke-linecap="round" stroke-linejoin="round"/>
<path id="Vector_12" d="M112.29 65.3677C112.29 65.3677 102.517 65.818 96.5271 72.4495C90.5374 79.081 91.2468 93.6724 93.7237 102.432C96.2006 111.191 99.3531 116.021 98.6663 119.061C97.9795 122.101 95.5251 123.103 96.8649 125.907C98.2047 128.71 105.962 131.75 119.664 131.3C133.366 130.849 135.956 127.922 136.068 125.355C136.181 122.788 135.168 120.637 135.505 119.061C135.843 117.485 145.728 108.726 145.728 99.0654C145.728 89.4053 141.461 86.0389 140.448 79.0697C139.435 72.1005 139.772 71.0984 135.618 68.0585C131.463 65.0186 117.795 63.4537 112.29 65.3677Z" fill="#10B981" stroke="#001550" stroke-width="2" stroke-linecap="round" stroke-linejoin="round"/>
<path id="Vector_13" d="M107.854 98.8516C104.587 101.585 100.962 103.858 97.0789 105.607" stroke="#001550" stroke-width="2" stroke-linecap="round" stroke-linejoin="round"/>
<path id="Vector_14" d="M108.934 99.9766C108.934 99.9766 106.514 107.79 100.58 112.102" stroke="#001550" stroke-width="2" stroke-linecap="round" stroke-linejoin="round"/>
<path id="Vector_15" d="M133.186 72.4375L134.312 83.2235L129.583 77.7179L133.186 72.4375Z" fill="white" stroke="#001550" stroke-width="2" stroke-linecap="round" stroke-linejoin="round"/>
<path id="Vector_16" d="M126.892 84.1241L133.186 72.4374L127.455 66.2676L126.892 84.1241Z" fill="white" stroke="#001550" stroke-width="2" stroke-linecap="round" stroke-linejoin="round"/>
<path id="Vector_17" d="M114.766 46.2725C115.748 50.1665 116.236 54.1685 116.219 58.1843C116.186 60.7846 115.922 63.3768 115.431 65.9304L126.892 84.1247L130.146 67.2364L132.285 55.5497C132.285 55.5497 119.259 54.8067 114.766 46.2725Z" fill="white" stroke="#001550" stroke-width="2" stroke-linecap="round" stroke-linejoin="round"/>
<path id="Vector_18" d="M126.217 74.3516L126.892 84.1242L123.526 78.8438L126.217 74.3516Z" fill="white" stroke="#001550" stroke-width="2" stroke-linecap="round" stroke-linejoin="round"/>
<path id="Vector_19" d="M111.614 65.4795L122.062 84.2368L126.217 74.3515L115.104 59.0732L111.614 65.4795Z" fill="white" stroke="#001550" stroke-width="2" stroke-linecap="round" stroke-linejoin="round"/>
<path id="Vector_20" d="M294.66 74.2275H199.85V152.026H294.66V74.2275Z" fill="#FFC966"/>
<path id="Vector_21" d="M294.66 74.2275H199.85V152.026H294.66V74.2275Z" stroke="#001550" stroke-width="2" stroke-linecap="round" stroke-linejoin="round"/>
<path id="Vector_22" d="M274.586 74.2275H179.775V152.026H274.586V74.2275Z" fill="#FFC966" stroke="#001550" stroke-width="2" stroke-linecap="round" stroke-linejoin="round"/>
<path id="Vector_23" d="M310.276 178.214C307.237 173.396 294.66 152.026 294.66 152.026H274.597L284.922 178.214H310.276Z" fill="#FFC966"/>
<path id="Vector_24" d="M310.276 178.214C307.237 173.396 294.66 152.026 294.66 152.026H274.597L284.922 178.214H310.276Z" stroke="#001550" stroke-width="2" stroke-linecap="round" stroke-linejoin="round"/>
<path id="Vector_25" d="M164.103 178.214C167.143 173.396 179.708 152.026 179.708 152.026H199.782L189.458 178.214H164.103Z" fill="#FFC966" stroke="#001550" stroke-width="2" stroke-linecap="round" stroke-linejoin="round"/>
<path id="Vector_26" d="M179.708 152.026L170.982 178.214H270.004L274.597 152.026H179.708Z" fill="#FFC966" stroke="#001550" stroke-width="2" stroke-linecap="round" stroke-linejoin="round"/>
<path id="Vector_27" d="M306.865 102.375V128.428" stroke="#001550" stroke-width="2" stroke-linecap="round" stroke-linejoin="round"/>
<path id="Vector_28" d="M311.796 113.646V134.767" stroke="#001550" stroke-width="2" stroke-linecap="round" stroke-linejoin="round"/>
<path id="Vector_29" d="M169.586 128.428V144.618" stroke="#001550" stroke-width="2" stroke-linecap="round" stroke-linejoin="round"/>
<path id="Vector_30" d="M165.364 137.582V150.248" stroke="#001550" stroke-width="2" stroke-linecap="round" stroke-linejoin="round"/>
<g id="Vector_31">
<path d="M95.998 93.334C99.358 97.1395 103.257 100.432 107.572 103.107C114.327 107.149 139.097 121.188 141.045 121.976C142.993 122.765 202.147 113.105 202.147 113.105C202.147 113.105 205.524 114.681 207.652 116.021C209.78 117.36 223.268 121.65 223.268 121.65C223.268 121.65 224.169 121.2 223.156 120.423C222.142 119.646 215.635 116.482 215.635 116.482L229.145 119.409C229.145 119.409 229.933 118.847 229.596 118.284C229.258 117.721 217.211 113.116 217.211 113.116L230.721 113.791C230.721 113.791 231.735 112.553 231.059 112.102C230.384 111.652 216.547 108.5 216.547 108.5C216.547 108.5 231.262 107.261 231.375 106.698C231.487 106.135 231.937 105.471 231.037 105.358C230.136 105.246 211.717 103.444 211.717 103.444C211.717 103.444 216.547 100.416 217.11 99.5151C217.672 98.6144 218.461 96.813 217.56 96.813C216.659 96.813 216.434 97.3759 215.207 98.164C213.98 98.9521 209.138 100.866 207.787 101.981C206.436 103.095 202.394 106.034 202.394 106.034L148.262 106.147L131.5 116.793" fill="white"/>
<path d="M95.998 93.334C99.358 97.1395 103.257 100.432 107.572 103.107C114.327 107.149 139.097 121.188 141.045 121.976C142.993 122.765 202.147 113.105 202.147 113.105C202.147 113.105 205.524 114.681 207.652 116.021C209.78 117.36 223.268 121.65 223.268 121.65C223.268 121.65 224.169 121.2 223.156 120.423C222.142 119.646 215.635 116.482 215.635 116.482L229.145 119.409C229.145 119.409 229.933 118.847 229.596 118.284C229.258 117.721 217.211 113.116 217.211 113.116L230.721 113.791C230.721 113.791 231.735 112.553 231.059 112.102C230.384 111.652 216.547 108.5 216.547 108.5C216.547 108.5 231.262 107.261 231.375 106.698C231.487 106.135 231.937 105.471 231.037 105.358C230.136 105.246 211.717 103.444 211.717 103.444C211.717 103.444 216.547 100.416 217.11 99.5151C217.672 98.6144 218.461 96.813 217.56 96.813C216.659 96.813 216.434 97.3759 215.207 98.164C213.98 98.9521 209.138 100.866 207.787 101.981C206.436 103.095 202.394 106.034 202.394 106.034L148.262 106.147L131.5 116.793" stroke="#001550" stroke-width="2" stroke-linecap="round" stroke-linejoin="round"/>
</g>
<path id="Vector_32" d="M231.014 105.359C230.125 105.246 211.694 103.445 211.694 103.445C211.694 103.445 216.524 100.416 217.087 99.5156C217.65 98.6149 218.438 96.8135 217.537 96.8135C216.637 96.8135 216.411 97.3764 215.184 98.1645C213.957 98.9527 209.116 100.867 207.765 101.981C206.414 103.096 202.372 106.034 202.372 106.034L148.239 106.147L142.238 101.385C139.986 105.336 135.775 112.745 133.04 117.631C137.25 119.973 140.437 121.718 141.078 121.977C142.992 122.765 202.18 113.105 202.18 113.105C202.18 113.105 205.558 114.681 207.686 116.021C209.814 117.361 223.302 121.651 223.302 121.651C223.302 121.651 224.202 121.2 223.189 120.423C222.176 119.646 215.668 116.483 215.668 116.483L229.179 119.41C229.179 119.41 229.967 118.847 229.629 118.284C229.291 117.721 217.244 113.116 217.244 113.116L230.755 113.792C230.755 113.792 231.768 112.553 231.093 112.103C230.417 111.653 216.546 108.5 216.546 108.5C216.546 108.5 231.262 107.262 231.374 106.699C231.487 106.136 231.915 105.472 231.014 105.359Z" fill="white" stroke="#001550" stroke-width="2" stroke-linecap="round" stroke-linejoin="round"/>
<path id="Vector_33" d="M140.369 36.8374C140.561 36.6045 140.814 36.4301 141.101 36.3343C141.387 36.2385 141.694 36.225 141.988 36.2954C142.281 36.3659 142.549 36.5173 142.76 36.7326C142.972 36.9479 143.119 37.2183 143.184 37.513C143.372 38.7343 143.309 39.9811 142.999 41.1774C142.69 42.3737 142.14 43.4943 141.382 44.4709C140.144 45.7094 139.018 46.0472 139.018 44.4709C139.331 41.904 139.782 39.3558 140.369 36.8374Z" fill="white" stroke="#001550" stroke-width="2" stroke-linecap="round" stroke-linejoin="round"/>
<g id="Vector_34">
<mask id="path-35-outside-2" maskUnits="userSpaceOnUse" x="106.82" y="14.1572" width="38" height="49" fill="black">
<rect fill="white" x="106.82" y="14.1572" width="38" height="49"/>
<path d="M127.543 17.1572C127.149 22.6365 124.804 27.7931 120.934 31.6924C117.329 35.2373 113.253 38.2682 108.82 40.6995C108.82 40.6995 109.473 44.2235 110.801 45.3269C112.13 46.4302 114.765 46.2163 114.765 46.2163C116.296 50.4041 118.787 54.1751 122.038 57.2275C127.318 62.0688 133.488 61.6297 137.012 54.3677C140.536 47.1058 142.304 39.8213 141.865 35.633L141.425 31.4447C141.425 31.4447 129.964 25.0835 127.543 17.1572Z"/>
</mask>
<path d="M127.543 17.1572C127.149 22.6365 124.804 27.7931 120.934 31.6924C117.329 35.2373 113.253 38.2682 108.82 40.6995C108.82 40.6995 109.473 44.2235 110.801 45.3269C112.13 46.4302 114.765 46.2163 114.765 46.2163C116.296 50.4041 118.787 54.1751 122.038 57.2275C127.318 62.0688 133.488 61.6297 137.012 54.3677C140.536 47.1058 142.304 39.8213 141.865 35.633L141.425 31.4447C141.425 31.4447 129.964 25.0835 127.543 17.1572Z" fill="white"/>
<path d="M127.543 17.1572C127.149 22.6365 124.804 27.7931 120.934 31.6924C117.329 35.2373 113.253 38.2682 108.82 40.6995C108.82 40.6995 109.473 44.2235 110.801 45.3269C112.13 46.4302 114.765 46.2163 114.765 46.2163C116.296 50.4041 118.787 54.1751 122.038 57.2275C127.318 62.0688 133.488 61.6297 137.012 54.3677C140.536 47.1058 142.304 39.8213 141.865 35.633L141.425 31.4447C141.425 31.4447 129.964 25.0835 127.543 17.1572Z" stroke="#001550" stroke-width="4" stroke-linecap="round" stroke-linejoin="round" mask="url(#path-35-outside-2)"/>
</g>
<path id="Vector_35" d="M125.879 38.9319C126.439 38.9319 126.892 38.1254 126.892 37.1305C126.892 36.1356 126.439 35.3291 125.879 35.3291C125.319 35.3291 124.866 36.1356 124.866 37.1305C124.866 38.1254 125.319 38.9319 125.879 38.9319Z" fill="#001550"/>
<path id="Vector_36" d="M131.385 53.3089C131.944 53.3089 132.398 52.5024 132.398 51.5075C132.398 50.5126 131.944 49.7061 131.385 49.7061C130.825 49.7061 130.371 50.5126 130.371 51.5075C130.371 52.5024 130.825 53.3089 131.385 53.3089Z" fill="#001550"/>
<path id="Vector_37" d="M135.652 38.9319C136.211 38.9319 136.665 38.1254 136.665 37.1305C136.665 36.1356 136.211 35.3291 135.652 35.3291C135.092 35.3291 134.638 36.1356 134.638 37.1305C134.638 38.1254 135.092 38.9319 135.652 38.9319Z" fill="#001550"/>
<path id="Vector_38" d="M133.625 35.2158C133.238 36.5646 133.123 37.9768 133.287 39.3703C133.625 41.2843 135.201 44.5381 133.85 45.1011C133.234 45.3823 132.552 45.489 131.879 45.4096C131.206 45.3302 130.568 45.0677 130.033 44.6507" stroke="#001550" stroke-width="2" stroke-linecap="round" stroke-linejoin="round"/>
<path id="Vector_39" d="M122.952 33.8765C122.952 33.8765 123.492 30.4313 128.007 30.8253" stroke="#001550" stroke-width="2" stroke-linecap="round" stroke-linejoin="round"/>
<path id="Vector_40" d="M135.044 31.883C135.044 31.883 139.255 28.5053 140.617 34.6864" stroke="#001550" stroke-width="2" stroke-linecap="round" stroke-linejoin="round"/>
</g>
</g>
</svg>
