<svg width="313" height="340" viewBox="0 0 313 340" fill="none" xmlns="http://www.w3.org/2000/svg">
<path d="M210.648 331.653C210.648 335.895 163.494 339.306 105.319 339.306C47.1435 339.306 0 335.873 0 331.653C0 327.433 47.1544 324 105.319 324C163.483 324 210.648 327.411 210.648 331.653Z" fill="#8BAAFF"/>
<path opacity="0.4" d="M210.648 331.653C210.648 335.895 163.494 339.306 105.319 339.306C47.1435 339.306 0 335.873 0 331.653C0 327.433 47.1544 324 105.319 324C163.483 324 210.648 327.411 210.648 331.653Z" fill="white"/>
<path d="M126.705 2.31073C125.939 2.79967 125.375 3.35099 124.994 3.79358C124.887 3.72523 124.771 3.6526 124.645 3.57663C123.902 3.12715 122.833 2.5565 121.526 2.06663C118.916 1.08905 115.289 0.410872 111.39 1.74293C107.42 3.09938 104.091 6.99961 101.544 11.5958C98.9739 16.2346 97.0871 21.784 96.096 26.7566C95.3943 30.2776 93.966 33.4435 92.4826 36.7313C91.9628 37.8835 91.4363 39.0506 90.9319 40.2532C89.0133 44.8274 87.5124 49.75 88.4554 55.7498C89.4296 61.9485 93.4832 65.4914 99.1404 67.6632C104.733 69.8101 112.06 70.6883 119.893 71.5294C127.793 72.3776 134.026 72.3405 139.252 70.7189C144.525 69.0827 148.679 65.8647 152.484 60.5568C160.229 49.7507 156.867 36.6927 152.489 25.5724C150.271 19.9397 147.312 14.4981 144.122 10.2075C140.966 5.96086 137.465 2.67948 134.115 1.62295C130.787 0.573319 128.334 1.27145 126.705 2.31073Z" fill="#001550" stroke="#001550" stroke-width="2" stroke-linecap="round" stroke-linejoin="round"/>
<path d="M79.7402 220.784L78.3328 242.446C78.3328 242.446 72.3431 271.506 70.4516 283.485C68.5601 295.464 65.0924 313.681 64.4619 313.681C63.8314 313.681 53.4958 319.93 50.1857 325.03C46.8756 330.13 51.0751 332.292 55.6688 330.66C60.2624 329.027 66.4998 324.411 68.5376 318.928C70.5755 313.445 71.5888 311.407 71.7239 310.518C71.859 309.628 93.6449 251.138 95.8066 244.89C97.9683 238.641 102.562 220.289 102.562 220.289L113.269 183.968C113.269 183.968 124.731 221.314 124.866 222.969C125.001 224.624 136.71 320.076 137.25 323.645C137.791 327.214 137.633 329.759 139.795 330.524C141.957 331.29 147.057 331.29 149.736 331.29C152.416 331.29 161.716 332.697 166.298 331.549C170.881 330.401 171.399 329.635 168.212 327.338C165.026 325.041 147.327 323.578 145.695 316.89C145.559 316.383 145.436 218.127 145.436 218.127C145.436 218.127 143.904 185.634 141.36 176.47H82.4761L79.7402 220.784Z" fill="white" stroke="#001550" stroke-width="2" stroke-linecap="round" stroke-linejoin="round"/>
<path d="M55.6575 330.637C60.2399 328.971 66.4885 324.388 68.5264 318.905L68.9542 317.78C66.3534 320.549 62.1989 324.4 62.1989 324.4C61.9443 323.094 61.3763 321.869 60.5439 320.831C60.1806 320.43 59.7154 320.136 59.1978 319.979C58.6802 319.822 58.1297 319.809 57.6053 319.941L62.1088 314.987C58.7312 317.081 52.6514 321.36 50.2645 325.041C46.8531 330.119 51.0414 332.292 55.6575 330.637Z" fill="#001550" stroke="#001550" stroke-width="2" stroke-linecap="round" stroke-linejoin="round"/>
<path d="M168.133 327.316C165.949 325.751 156.976 324.569 150.986 321.833C150.739 322.043 150.546 322.309 150.423 322.61C150.043 323.689 149.746 324.795 149.534 325.92L137.149 323.274V323.623C137.656 327.192 137.532 329.736 139.694 330.502C141.855 331.268 146.956 331.268 149.635 331.268C152.315 331.268 161.615 332.675 166.197 331.527C170.779 330.378 171.365 329.658 168.133 327.316Z" fill="#001550" stroke="#001550" stroke-width="2" stroke-linecap="round" stroke-linejoin="round"/>
<path d="M96.8987 123.621C96.8987 123.621 91.0553 126.311 83.9848 139.011C76.2499 152.871 77.5785 160.572 77.4659 177.292C77.3533 194.011 77.0156 221.764 77.0156 221.764C77.0156 221.764 98.4074 227.495 113.753 226.594C129.099 225.693 148.566 222.214 148.566 222.214C148.566 222.214 144.411 165.605 140.482 149.325C136.552 133.044 134.188 125.681 134.188 125.681C126.594 126.735 118.898 126.848 111.276 126.019C98.2498 124.746 96.8987 123.621 96.8987 123.621Z" fill="#001550" stroke="#001550" stroke-width="2" stroke-linecap="round" stroke-linejoin="round"/>
<path d="M121.51 173.689C122.096 175.614 122.636 177.562 123.109 179.51" stroke="white" stroke-width="2" stroke-linecap="round" stroke-linejoin="round"/>
<path d="M107.944 141.826C112.479 150.195 116.371 158.897 119.585 167.857" stroke="white" stroke-width="2" stroke-linecap="round" stroke-linejoin="round"/>
<path d="M240.325 112.857C239.65 112.407 228.582 110.673 228.582 110.673L226.421 109.783C226.421 109.783 239.819 110.853 239.931 110.29C240.044 109.727 240.494 109.052 239.593 108.939C238.693 108.826 221.455 105.325 221.455 105.325C221.455 105.325 225.835 101.182 226.398 100.281C226.961 99.3803 227.738 97.5788 226.837 97.5788C225.936 97.5788 225.711 98.1418 224.484 98.9299C223.257 99.718 218.415 101.632 217.064 102.747C215.713 103.861 211.683 106.789 211.683 106.789L164.868 100.349C164.868 100.349 148.43 80.0826 144.861 75.7592C142.38 72.874 139.556 70.3029 136.451 68.1032C133.006 66.5832 133.073 69.1277 133.073 69.1277L140.268 101.103C140.268 101.103 158.879 112.193 160.027 112.193C161.175 112.193 211.458 113.859 211.458 113.859C211.458 113.859 214.835 115.435 216.952 116.775C219.068 118.115 232.568 122.405 232.568 122.405C232.568 122.405 233.469 121.954 232.455 121.166C231.442 120.378 224.934 117.237 224.934 117.237L238.445 120.164C238.445 120.164 239.233 119.601 238.895 119.038C238.558 118.475 226.511 113.87 226.511 113.87L240.021 114.546C240.021 114.546 240.989 113.307 240.325 112.857Z" fill="white" stroke="#001550" stroke-width="2" stroke-linecap="round" stroke-linejoin="round"/>
<path d="M162.042 96.8695C157.19 90.8911 147.496 78.9567 144.861 75.7592C142.38 72.874 139.556 70.3029 136.451 68.1032C133.006 66.5832 133.073 69.1277 133.073 69.1277L140.268 101.103C140.268 101.103 148.667 106.102 154.522 109.389L162.042 96.8695Z" fill="#10B981" stroke="#001550" stroke-width="2" stroke-linecap="round" stroke-linejoin="round"/>
<path d="M112.29 65.3672C112.29 65.3672 102.517 65.8176 96.5271 72.4491C90.5374 79.0805 91.2468 93.672 93.7237 102.431C96.2006 111.191 99.3531 116.021 98.6663 119.061C97.9795 122.101 95.5251 123.103 96.8649 125.906C98.2047 128.71 105.962 131.749 119.664 131.299C133.366 130.849 135.956 127.921 136.068 125.354C136.181 122.787 135.168 120.637 135.505 119.061C135.843 117.484 145.728 108.725 145.728 99.065C145.728 89.4049 141.461 86.0385 140.448 79.0693C139.435 72.1 139.772 71.098 135.618 68.0581C131.463 65.0182 117.795 63.4532 112.29 65.3672Z" fill="#10B981" stroke="#001550" stroke-width="2" stroke-linecap="round" stroke-linejoin="round"/>
<path d="M107.854 98.8511C104.587 101.584 100.962 103.857 97.0788 105.606" stroke="#001550" stroke-width="2" stroke-linecap="round" stroke-linejoin="round"/>
<path d="M108.934 99.977C108.934 99.977 106.514 107.791 100.58 112.103" stroke="#001550" stroke-width="2" stroke-linecap="round" stroke-linejoin="round"/>
<path d="M133.186 72.4378L134.312 83.2238L129.583 77.7182L133.186 72.4378Z" fill="white" stroke="#001550" stroke-width="2" stroke-linecap="round" stroke-linejoin="round"/>
<path d="M126.892 84.1245L133.186 72.4378L127.455 66.2679L126.892 84.1245Z" fill="white" stroke="#001550" stroke-width="2" stroke-linecap="round" stroke-linejoin="round"/>
<path d="M114.766 46.2722C115.748 50.1663 116.236 54.1683 116.219 58.1841C116.186 60.7844 115.922 63.3766 115.431 65.9302L126.892 84.1245L130.146 67.2362L132.285 55.5495C132.285 55.5495 119.259 54.8064 114.766 46.2722Z" fill="white" stroke="#001550" stroke-width="2" stroke-linecap="round" stroke-linejoin="round"/>
<path d="M126.217 74.3518L126.892 84.1245L123.526 78.8441L126.217 74.3518Z" fill="white" stroke="#001550" stroke-width="2" stroke-linecap="round" stroke-linejoin="round"/>
<path d="M111.614 65.4798L122.062 84.2371L126.217 74.3518L115.104 59.0735L111.614 65.4798Z" fill="white" stroke="#001550" stroke-width="2" stroke-linecap="round" stroke-linejoin="round"/>
<path d="M294.66 74.228H199.85V152.027H294.66V74.228Z" fill="#FFC966"/>
<path d="M294.66 74.228H199.85V152.027H294.66V74.228Z" stroke="#001550" stroke-width="2" stroke-linecap="round" stroke-linejoin="round"/>
<path d="M274.586 74.228H179.775V152.027H274.586V74.228Z" fill="#FFC966" stroke="#001550" stroke-width="2" stroke-linecap="round" stroke-linejoin="round"/>
<path d="M310.276 178.215C307.237 173.396 294.66 152.027 294.66 152.027H274.597L284.922 178.215H310.276Z" fill="#FFC966"/>
<path d="M310.276 178.215C307.237 173.396 294.66 152.027 294.66 152.027H274.597L284.922 178.215H310.276Z" stroke="#001550" stroke-width="2" stroke-linecap="round" stroke-linejoin="round"/>
<path d="M164.103 178.215C167.143 173.396 179.708 152.027 179.708 152.027H199.782L189.458 178.215H164.103Z" fill="#FFC966" stroke="#001550" stroke-width="2" stroke-linecap="round" stroke-linejoin="round"/>
<path d="M179.707 152.027L170.982 178.215H270.003L274.597 152.027H179.707Z" fill="#FFC966" stroke="#001550" stroke-width="2" stroke-linecap="round" stroke-linejoin="round"/>
<path d="M306.865 102.375V128.428" stroke="#001550" stroke-width="2" stroke-linecap="round" stroke-linejoin="round"/>
<path d="M311.796 113.645V134.767" stroke="#001550" stroke-width="2" stroke-linecap="round" stroke-linejoin="round"/>
<path d="M169.586 128.428V144.618" stroke="#001550" stroke-width="2" stroke-linecap="round" stroke-linejoin="round"/>
<path d="M165.364 137.582V150.248" stroke="#001550" stroke-width="2" stroke-linecap="round" stroke-linejoin="round"/>
<path d="M95.998 93.3342C99.3579 97.1397 103.257 100.432 107.572 103.107C114.327 107.149 139.097 121.189 141.045 121.977C142.992 122.765 202.146 113.105 202.146 113.105C202.146 113.105 205.524 114.681 207.652 116.021C209.78 117.361 223.268 121.65 223.268 121.65C223.268 121.65 224.169 121.2 223.155 120.423C222.142 119.646 215.635 116.482 215.635 116.482L229.145 119.41C229.145 119.41 229.933 118.847 229.596 118.284C229.258 117.721 217.211 113.116 217.211 113.116L230.721 113.792C230.721 113.792 231.735 112.553 231.059 112.103C230.384 111.652 216.547 108.5 216.547 108.5C216.547 108.5 231.262 107.261 231.374 106.698C231.487 106.136 231.937 105.471 231.037 105.359C230.136 105.246 211.716 103.445 211.716 103.445C211.716 103.445 216.547 100.416 217.109 99.5153C217.672 98.6146 218.461 96.8132 217.56 96.8132C216.659 96.8132 216.434 97.3761 215.207 98.1643C213.979 98.9524 209.138 100.866 207.787 101.981C206.436 103.096 202.394 106.034 202.394 106.034L148.262 106.147L131.5 116.793" fill="white"/>
<path d="M95.998 93.3342C99.3579 97.1397 103.257 100.432 107.572 103.107C114.327 107.149 139.097 121.189 141.045 121.977C142.992 122.765 202.146 113.105 202.146 113.105C202.146 113.105 205.524 114.681 207.652 116.021C209.78 117.361 223.268 121.65 223.268 121.65C223.268 121.65 224.169 121.2 223.155 120.423C222.142 119.646 215.635 116.482 215.635 116.482L229.145 119.41C229.145 119.41 229.933 118.847 229.596 118.284C229.258 117.721 217.211 113.116 217.211 113.116L230.721 113.792C230.721 113.792 231.735 112.553 231.059 112.103C230.384 111.652 216.547 108.5 216.547 108.5C216.547 108.5 231.262 107.261 231.374 106.698C231.487 106.136 231.937 105.471 231.037 105.359C230.136 105.246 211.716 103.445 211.716 103.445C211.716 103.445 216.547 100.416 217.109 99.5153C217.672 98.6146 218.461 96.8132 217.56 96.8132C216.659 96.8132 216.434 97.3761 215.207 98.1643C213.98 98.9524 209.138 100.866 207.787 101.981C206.436 103.096 202.394 106.034 202.394 106.034L148.262 106.147L131.5 116.793" stroke="#001550" stroke-width="2" stroke-linecap="round" stroke-linejoin="round"/>
<path d="M231.014 105.359C230.125 105.246 211.694 103.445 211.694 103.445C211.694 103.445 216.524 100.416 217.087 99.5154C217.65 98.6146 218.438 96.8132 217.537 96.8132C216.637 96.8132 216.411 97.3762 215.184 98.1643C213.957 98.9524 209.116 100.866 207.765 101.981C206.414 103.096 202.372 106.034 202.372 106.034L148.239 106.147L142.238 101.384C139.986 105.336 135.776 112.744 133.04 117.631C137.25 119.973 140.437 121.718 141.078 121.977C142.992 122.765 202.18 113.105 202.18 113.105C202.18 113.105 205.558 114.681 207.686 116.021C209.814 117.361 223.302 121.65 223.302 121.65C223.302 121.65 224.203 121.2 223.189 120.423C222.176 119.646 215.668 116.482 215.668 116.482L229.179 119.41C229.179 119.41 229.967 118.847 229.629 118.284C229.292 117.721 217.245 113.116 217.245 113.116L230.755 113.792C230.755 113.792 231.769 112.553 231.093 112.103C230.417 111.652 216.547 108.5 216.547 108.5C216.547 108.5 231.262 107.261 231.374 106.699C231.487 106.136 231.915 105.471 231.014 105.359Z" fill="white" stroke="#001550" stroke-width="2" stroke-linecap="round" stroke-linejoin="round"/>
<path d="M140.369 36.8373C140.561 36.6043 140.814 36.43 141.101 36.3342C141.387 36.2383 141.694 36.2249 141.988 36.2953C142.281 36.3657 142.549 36.5172 142.76 36.7325C142.972 36.9478 143.119 37.2182 143.184 37.5128C143.372 38.7342 143.309 39.981 142.999 41.1773C142.69 42.3735 142.14 43.4942 141.382 44.4708C140.144 45.7093 139.018 46.047 139.018 44.4708C139.331 41.9038 139.782 39.3556 140.369 36.8373Z" fill="white" stroke="#001550" stroke-width="2" stroke-linecap="round" stroke-linejoin="round"/>
<path d="M127.431 16.1632C127.91 16.1092 128.359 16.4041 128.5 16.8648C129.618 20.5277 132.885 23.9405 136.024 26.4977C137.573 27.7597 139.05 28.7812 140.14 29.4871C140.685 29.8397 141.131 30.1126 141.44 30.2963C141.594 30.3882 141.714 30.4577 141.794 30.5037C141.834 30.5267 141.864 30.5438 141.884 30.5549L141.905 30.567L141.91 30.5697L141.911 30.57L127.431 16.1632ZM127.431 16.1632C126.953 16.2171 126.58 16.6046 126.546 17.085M127.431 16.1632L126.546 17.085M126.546 17.085C126.168 22.3238 123.927 27.2542 120.229 30.9833C116.69 34.4619 112.689 37.4363 108.339 39.8223C107.956 40.0324 107.756 40.4651 107.838 40.8895L107.839 40.8963L107.846 40.9312C107.852 40.9607 107.86 41.0028 107.871 41.056C107.893 41.1622 107.926 41.313 107.969 41.4965C108.056 41.8624 108.186 42.3646 108.361 42.9066C108.535 43.4454 108.76 44.0435 109.041 44.5929C109.314 45.1278 109.678 45.6936 110.162 46.0958C111.066 46.8459 112.31 47.0908 113.179 47.1798C113.514 47.2141 113.823 47.2278 114.08 47.2316M126.546 17.085L114.08 47.2316M114.08 47.2316C115.681 51.2974 118.163 54.961 121.353 57.9561L121.353 57.9562L121.362 57.9642C124.142 60.5135 127.297 61.7983 130.338 61.324C133.401 60.8461 136.055 58.6296 137.912 54.804C139.701 51.1168 141.048 47.4167 141.894 44.094C142.735 40.7885 143.096 37.7899 142.859 35.5284L142.42 31.3401C142.386 31.0158 142.196 30.7284 141.911 30.5701L114.08 47.2316Z" fill="white" stroke="#001550" stroke-width="2" stroke-linecap="round" stroke-linejoin="round"/>
<path d="M125.879 38.9315C126.439 38.9315 126.892 38.125 126.892 37.1301C126.892 36.1352 126.439 35.3287 125.879 35.3287C125.319 35.3287 124.866 36.1352 124.866 37.1301C124.866 38.125 125.319 38.9315 125.879 38.9315Z" fill="#001550"/>
<path d="M131.385 53.309C131.944 53.309 132.398 52.5025 132.398 51.5076C132.398 50.5127 131.944 49.7062 131.385 49.7062C130.825 49.7062 130.371 50.5127 130.371 51.5076C130.371 52.5025 130.825 53.309 131.385 53.309Z" fill="#001550"/>
<path d="M135.652 38.9315C136.211 38.9315 136.665 38.125 136.665 37.1301C136.665 36.1352 136.211 35.3287 135.652 35.3287C135.092 35.3287 134.638 36.1352 134.638 37.1301C134.638 38.125 135.092 38.9315 135.652 38.9315Z" fill="#001550"/>
<path d="M133.625 35.2161C133.238 36.5648 133.123 37.977 133.287 39.3706C133.625 41.2846 135.201 44.5384 133.85 45.1013C133.234 45.3826 132.552 45.4893 131.879 45.4099C131.206 45.3305 130.568 45.068 130.034 44.651" stroke="#001550" stroke-width="2" stroke-linecap="round" stroke-linejoin="round"/>
<path d="M122.952 33.8762C122.952 33.8762 123.492 30.431 128.007 30.8251" stroke="#001550" stroke-width="2" stroke-linecap="round" stroke-linejoin="round"/>
<path d="M135.044 31.8834C135.044 31.8834 139.255 28.5058 140.617 34.6869" stroke="#001550" stroke-width="2" stroke-linecap="round" stroke-linejoin="round"/>
</svg>
