<svg width="256" height="339" viewBox="0 0 256 339" fill="none" xmlns="http://www.w3.org/2000/svg">
<path d="M243.934 331.347C243.934 335.589 196.779 339 138.604 339C80.4292 339 33.2856 335.567 33.2856 331.347C33.2856 327.126 80.4401 323.693 138.604 323.693C196.768 323.693 243.934 327.104 243.934 331.347Z" fill="#8BAAFF"/>
<path opacity="0.4" d="M243.934 331.347C243.934 335.589 196.779 339 138.604 339C80.4292 339 33.2856 335.567 33.2856 331.347C33.2856 327.126 80.4401 323.693 138.604 323.693C196.768 323.693 243.934 327.104 243.934 331.347Z" fill="white"/>
<path d="M156.381 13.9376C156.381 13.9376 160.076 19.262 160.306 23.8867C160.535 28.5114 160.535 32.4473 161.235 34.0654C161.935 35.6835 164.242 36.8424 164.012 38.2309C163.783 39.6194 161.924 41.0079 161.924 41.0079C161.924 41.0079 160.776 47.4803 158.644 50.4978C156.512 53.5154 153.79 52.3455 151.472 52.1159C150.053 51.9632 148.656 51.6515 147.306 51.1866C145.3 53.6394 144.02 56.6048 143.611 59.7472C143.288 62.2946 143.365 64.877 143.841 67.4004L127.649 62.5461C127.649 62.5461 135.302 56.3033 134.351 48.8907C133.761 44.3642 132.182 40.023 129.726 36.1755C129.726 36.1755 121.165 26.6856 124.412 21.1315C127.66 15.5775 130.885 10.7232 134.591 8.87553C138.298 7.02784 156.381 13.9376 156.381 13.9376Z" fill="white" stroke="#001550" stroke-width="2" stroke-linecap="round" stroke-linejoin="round"/>
<path d="M153.134 38.9521C153.134 38.9521 156.414 42.2321 158.459 42.6475" stroke="#001550" stroke-width="2" stroke-linecap="round" stroke-linejoin="round"/>
<path d="M154.522 37.793L151.745 40.0998" stroke="#001550" stroke-width="2" stroke-linecap="round" stroke-linejoin="round"/>
<path d="M158.108 34.5459C158.682 34.5459 159.147 33.3564 159.147 31.8892C159.147 30.4219 158.682 29.2324 158.108 29.2324C157.534 29.2324 157.069 30.4219 157.069 31.8892C157.069 33.3564 157.534 34.5459 158.108 34.5459Z" fill="#001550"/>
<path d="M153.833 26.2259C153.833 26.2259 155.222 22.0604 158.207 23.2193" stroke="#001550" stroke-width="2" stroke-linecap="round" stroke-linejoin="round"/>
<path d="M121.439 16.047C121.439 16.047 120.346 9.10449 110.801 9.10449C101.257 9.10449 101.082 22.9786 103.4 28.7841C105.717 34.5895 114.267 36.8855 118.203 34.1085C122.139 31.3315 122.576 26.4553 122.576 24.1594C122.368 21.4341 121.988 18.7246 121.439 16.047Z" fill="#001550" stroke="#001550" stroke-width="2" stroke-linecap="round" stroke-linejoin="round"/>
<path d="M137.172 33.6167C137.172 33.6167 147.351 32.4578 148.969 28.2923C150.587 24.1267 147.351 21.3497 146.891 20.2017C146.432 19.0538 157.07 19.502 158.918 10.4822C160.766 1.46242 155.222 0.0739128 153.604 1.46242C151.986 2.85092 151.986 8.63454 151.986 8.63454C151.986 8.63454 147.121 1.92161 142.726 1.2219C138.331 0.522177 137.642 2.1512 138.79 3.7693C140.053 5.27755 141.447 6.67146 142.956 7.93482C142.956 7.93482 130.24 2.62133 123.954 9.56385C117.667 16.5064 114.704 24.3673 120.258 32.2391C123.599 36.9626 128.062 40.7801 133.247 43.3471C133.247 43.3471 133.706 36.6342 137.172 33.6167Z" fill="#001550" stroke="#001550" stroke-width="2" stroke-linecap="round" stroke-linejoin="round"/>
<path d="M138.561 35.2457C138.561 35.2457 136.713 27.3848 133.706 31.3098C130.7 35.2348 133.247 39.6408 135.095 41.4885C136.942 43.3362 140.419 41.7181 140.419 41.7181" fill="white"/>
<path d="M138.561 35.2457C138.561 35.2457 136.713 27.3848 133.706 31.3098C130.7 35.2348 133.247 39.6408 135.095 41.4885C136.942 43.3362 140.419 41.7181 140.419 41.7181" stroke="#001550" stroke-width="2" stroke-linecap="round" stroke-linejoin="round"/>
<path d="M238.04 66.9406C238.04 66.9406 244.053 70.8765 242.665 72.4946C241.049 74.0015 239.267 75.3184 237.351 76.4196C237.351 76.4196 232.257 73.8831 229.95 72.4946C227.643 71.1061 230.409 68.7883 232.716 67.3998C235.023 66.0113 236.652 65.3225 238.04 66.9406Z" fill="white" stroke="#001550" stroke-width="2" stroke-linecap="round" stroke-linejoin="round"/>
<path d="M142.726 66.0111L162.405 72.0243C165.412 72.9536 172.584 72.724 172.584 72.724C179.135 72.1367 185.631 71.0401 192.012 69.4441C201.961 66.8967 222.089 65.9674 222.089 65.9674C222.089 65.9674 231.809 63.42 237.122 64.1197L251.466 65.9674C250.25 66.911 248.826 67.5485 247.312 67.826C244.764 68.2852 238.281 67.1263 236.892 67.5855C235.716 68.2041 234.689 69.0738 233.886 70.1329C233.886 70.1329 238.511 74.2984 238.511 75.4573C238.511 76.6162 238.051 78.7373 236.663 78.4639C235.274 78.1906 235.274 76.8458 233.383 75.9165C231.492 74.9872 229.447 74.528 226.9 73.1395C225.477 72.3868 224.158 71.4534 222.975 70.3625C222.592 69.9908 210.609 76.1898 209.21 76.7693C204.06 78.9694 198.776 80.8426 193.39 82.378C183.08 85.2752 171.83 87.0683 161.203 84.9363C154.26 83.5478 142.693 79.6228 142.693 79.6228C142.693 79.6228 135.521 76.3429 135.991 70.3625C136.461 64.3821 142.726 66.0111 142.726 66.0111Z" fill="white" stroke="#001550" stroke-width="2" stroke-linecap="round" stroke-linejoin="round"/>
<path d="M147.35 71.5652C147.35 71.5652 141.337 61.3865 135.553 58.6095C129.77 55.8325 123.953 63.4638 120.979 70.1767C118.006 76.8896 118.487 87.2979 119.132 97.0284C119.777 106.759 124.456 117.801 124.456 117.801C124.456 117.801 114.507 129.828 112.189 141.165C109.871 152.503 113.118 167.306 114.507 177.485C115.895 187.664 116.584 204.555 116.584 204.555C116.584 204.555 110.341 211.498 109.412 220.059C108.483 228.619 105.269 265.584 105.269 269.979C105.269 274.374 104.35 280.858 105.269 282.005C106.187 283.153 106.198 283.099 107.127 283.099C108.056 283.099 129.791 281.022 131.65 279.403C133.509 277.785 134.416 276.626 132.339 275.697C130.262 274.768 112.659 268.044 112.441 266.218C112.222 264.392 128.84 223 131.617 215.598C134.394 208.196 137.401 175.801 138.56 170.947C139.719 166.093 142.037 157.292 142.037 157.292C150.213 156.673 158.349 155.6 166.406 154.077C182.139 151.3 196.888 143.756 196.888 143.756C196.888 143.756 188.885 158.811 191.804 168.76C194.723 178.71 195.926 192.813 196.549 202.489C197.172 212.165 195.882 211.236 197.172 212.132C198.462 213.029 207.887 208.623 210.5 208.251C213.113 207.879 222.592 206.786 225.631 204.84C228.67 202.894 215.409 200.958 209.844 198.837C204.279 196.716 203.983 195.557 203.983 195.557C203.983 195.557 203.776 188.068 210.04 157.62C213.156 142.434 214.534 129.981 210.5 128.756C206.465 127.532 173.327 128.21 165.247 130.298C160.425 131.53 156.01 134.007 152.445 137.481C152.445 137.481 148.739 121.519 149.165 115.735C149.591 109.951 150.553 102.309 150.553 102.309C150.553 102.309 157.485 99.7726 157.255 93.7484C157.026 87.7243 152.401 83.1105 150.313 79.4152C148.996 76.9348 148 74.297 147.35 71.5652Z" fill="white" stroke="#001550" stroke-width="2" stroke-linecap="round" stroke-linejoin="round"/>
<path d="M132.34 275.796C130.558 275.009 117.427 269.98 113.535 267.389C112.975 267.978 112.665 268.762 112.671 269.575C113.044 270.843 113.508 272.081 114.06 273.282L105.018 275.731C104.832 278.704 104.712 281.361 105.27 282.072C106.199 283.165 106.199 283.165 107.128 283.165C108.057 283.165 129.792 281.088 131.651 279.47C133.51 277.852 134.417 276.726 132.34 275.796Z" fill="#FFC966" stroke="#001550" stroke-width="2" stroke-linecap="round" stroke-linejoin="round"/>
<path d="M206.641 175.398C207.482 170.598 208.576 164.771 210.041 157.675C213.157 142.489 214.534 130.036 210.5 128.812C206.466 127.587 173.327 128.265 165.248 130.353C160.568 131.556 154.457 133.25 154.151 133.633C153.626 131.326 149.165 122.7 149.165 116.84C139.413 117.463 130.513 118.075 129.999 118.272L121.373 121.935C118.246 126.428 113.72 133.961 112.189 141.177C109.872 152.515 113.119 167.318 114.507 177.497C115.896 187.675 116.585 204.567 116.585 204.567C116.585 204.567 110.342 211.51 109.412 220.07C108.822 225.537 104.7 247.578 104.963 257.735C108.434 258.008 111.926 257.743 115.316 256.947C119.066 246.2 129.726 220.715 131.618 215.675C134.395 208.273 137.401 175.879 138.56 171.024C139.719 166.17 142.037 157.369 142.037 157.369C150.213 156.75 158.349 155.677 166.407 154.155C182.139 151.378 196.888 143.834 196.888 143.834C196.888 143.834 188.885 158.889 191.804 168.838C192.537 171.352 193.171 174.14 193.707 177.048C198.087 177.49 202.511 176.925 206.641 175.398Z" fill="#001550" stroke="#001550" stroke-width="2" stroke-linecap="round" stroke-linejoin="round"/>
<path d="M149.209 115.757C149.668 109.973 150.598 102.331 150.598 102.331C150.598 102.331 157.529 99.7944 157.3 93.7703C157.07 87.7462 152.445 83.1324 150.357 79.437C149.024 76.952 148.013 74.3066 147.351 71.5652C147.351 71.5652 141.337 61.3865 135.554 58.6095C129.77 55.8325 123.954 63.4638 120.98 70.1767C118.006 76.8896 118.487 87.2979 119.132 97.0284C119.777 106.759 124.457 117.801 124.457 117.801C124.457 117.801 116.563 127.368 113.207 137.481C119.385 140.083 126.087 141.207 132.777 140.761C143.786 139.952 151.276 136.147 154.151 133.676C153.08 128.494 148.903 119.594 149.209 115.757Z" fill="#10B981" stroke="#001550" stroke-width="2" stroke-linecap="round" stroke-linejoin="round"/>
<path d="M140.878 85.4502C140.878 85.4502 135.018 89.9218 124.085 92.1084" stroke="#001550" stroke-width="2" stroke-linecap="round" stroke-linejoin="round"/>
<path d="M141.578 87.1885C141.578 87.1885 136.112 94.8416 130.099 97.0283" stroke="#001550" stroke-width="2" stroke-linecap="round" stroke-linejoin="round"/>
<path d="M123.953 132.791C122.773 133.48 121.559 134.136 120.302 134.748" stroke="#001550" stroke-width="2" stroke-linecap="round" stroke-linejoin="round"/>
<path d="M147.044 110.148C142.101 117.787 135.802 124.457 128.458 129.828" stroke="#001550" stroke-width="2" stroke-linecap="round" stroke-linejoin="round"/>
<path d="M162.624 27.5051V32.6764C162.621 32.9417 162.715 33.1989 162.888 33.4C163.061 33.6012 163.301 33.7326 163.564 33.7697L195.806 37.9899C195.96 38.0085 196.116 37.9941 196.264 37.9476C196.412 37.901 196.549 37.8235 196.665 37.72C196.781 37.6166 196.873 37.4896 196.936 37.3476C196.999 37.2057 197.031 37.0519 197.03 36.8966L197.085 26.5757C197.085 26.2858 196.97 26.0077 196.764 25.8026C196.559 25.5976 196.281 25.4824 195.991 25.4824L163.684 26.3461C163.538 26.3503 163.393 26.3838 163.26 26.4448C163.127 26.5057 163.007 26.5928 162.908 26.7009C162.809 26.809 162.733 26.9359 162.684 27.0741C162.635 27.2122 162.615 27.3588 162.624 27.5051Z" fill="#001550" stroke="#001550" stroke-width="2" stroke-linecap="round" stroke-linejoin="round"/>
<path d="M172.573 39.4109C172.573 39.4109 166.32 37.7928 165.86 35.9341C165.586 34.8614 165.432 33.7612 165.401 32.6542C165.401 32.6542 168.408 33.3539 169.337 32.8838C170.266 32.4137 169.567 19.4689 170.726 18.7801C171.885 18.0913 175.58 16.4623 176.968 19.6985C178.357 22.9347 177.428 22.0163 177.428 22.0163C178.65 21.7594 179.912 21.7594 181.134 22.0163C182.362 22.4683 183.48 23.1764 184.414 24.0936C184.414 24.0936 187.421 23.6344 188.12 25.7117C188.82 27.789 185.573 36.5901 183.485 40.5261C181.396 44.462 180.708 46.0691 180.708 46.0691C180.708 46.0691 177.931 80.7817 176.334 87.4837C174.738 94.1857 172.06 98.1216 170.879 98.1216C169.698 98.1216 149.209 88.6426 140.878 85.4064C132.547 82.1702 126.993 83.0011 125.572 74.6701C124.151 66.3391 129.945 64.3493 134.832 64.3493C139.719 64.3493 165.139 79.6556 165.139 79.6556C165.139 79.6556 173.229 55.6028 173.229 49.1195C173.314 45.8699 173.095 42.6195 172.573 39.4109Z" fill="white" stroke="#001550" stroke-width="2" stroke-linecap="round" stroke-linejoin="round"/>
<path d="M225.632 204.938C228.682 203.003 215.409 201.057 209.844 198.936C208.249 198.359 206.715 197.627 205.263 196.749C204.991 197.041 204.781 197.385 204.648 197.762C204.514 198.138 204.46 198.537 204.487 198.936C204.628 200.323 204.921 201.691 205.362 203.014C205.362 203.014 200.354 204.38 196.692 205.496C196.91 212.055 196.036 211.454 197.173 212.219C198.31 212.985 207.887 208.71 210.5 208.338C213.113 207.966 222.592 206.884 225.632 204.938Z" fill="#FFC966" stroke="#001550" stroke-width="2" stroke-linecap="round" stroke-linejoin="round"/>
<path d="M142.037 157.391L147.591 145.135" stroke="#001550" stroke-width="2" stroke-linecap="round" stroke-linejoin="round"/>
<path d="M189.476 330.078C194.174 330.078 197.982 326.27 197.982 321.572C197.982 316.875 194.174 313.066 189.476 313.066C184.778 313.066 180.97 316.875 180.97 321.572C180.97 326.27 184.778 330.078 189.476 330.078Z" fill="#001550" stroke="#001550" stroke-width="2" stroke-linecap="round" stroke-linejoin="round"/>
<path d="M184.085 314.356C184.085 314.356 185.889 322.086 186.917 323.639C187.945 325.191 191.29 325.956 192.078 322.6C192.865 319.244 189.246 313.854 189.246 313.854L184.085 314.356Z" fill="white" stroke="#001550" stroke-width="2" stroke-linecap="round" stroke-linejoin="round"/>
<path d="M79.3795 330.078C84.0772 330.078 87.8854 326.27 87.8854 321.572C87.8854 316.875 84.0772 313.066 79.3795 313.066C74.6818 313.066 70.8735 316.875 70.8735 321.572C70.8735 326.27 74.6818 330.078 79.3795 330.078Z" fill="#001550" stroke="#001550" stroke-width="2" stroke-linecap="round" stroke-linejoin="round"/>
<path d="M84.7918 314.356C84.7918 314.356 82.9879 322.086 81.9602 323.639C80.9324 325.191 77.5869 325.956 76.7997 322.6C76.0125 319.244 79.6423 313.854 79.6423 313.854L84.7918 314.356Z" fill="white" stroke="#001550" stroke-width="2" stroke-linecap="round" stroke-linejoin="round"/>
<mask id="path-30-outside-1" maskUnits="userSpaceOnUse" x="33.5708" y="163.043" width="182" height="155" fill="black">
<rect fill="white" x="33.5708" y="163.043" width="182" height="155"/>
<path d="M211.189 242.165C211.296 241.917 211.344 241.648 211.329 241.378C211.314 241.109 211.236 240.847 211.102 240.613L209.352 210.853C209.328 210.448 209.17 210.063 208.903 209.758C208.636 209.453 208.274 209.246 207.876 209.169L71.8031 182.722L69.6165 171.176C69.3011 169.526 68.4245 168.035 67.1352 166.957C65.8458 165.879 64.2233 165.28 62.5428 165.262L37.3966 165.043C36.9124 165.043 36.448 165.235 36.1056 165.578C35.7632 165.92 35.5708 166.385 35.5708 166.869C35.5708 167.353 35.7632 167.817 36.1056 168.16C36.448 168.502 36.9124 168.695 37.3966 168.695L62.5428 168.913C63.3771 168.924 64.1822 169.222 64.8218 169.758C65.4614 170.294 65.896 171.035 66.0523 171.854L78.8768 239.946C78.8768 239.946 78.8768 240.033 78.8768 240.077C78.8707 240.361 78.9346 240.643 79.0627 240.897L87.2516 284.334C87.0981 284.743 87.0981 285.193 87.2516 285.602C87.2516 285.602 89.0336 290.599 86.7049 297.804C84.9975 302.641 82.2551 307.047 78.6691 310.716C78.3895 310.995 78.2123 311.361 78.1661 311.754H68.5888C68.349 311.754 68.1116 311.801 67.89 311.893C67.6685 311.985 67.4673 312.119 67.2977 312.289C67.1282 312.459 66.9937 312.66 66.9019 312.881C66.8102 313.103 66.7629 313.34 66.7629 313.58C66.7629 313.82 66.8102 314.057 66.9019 314.279C66.9937 314.5 67.1282 314.702 67.2977 314.871C67.4673 315.041 67.6685 315.175 67.89 315.267C68.1116 315.359 68.349 315.406 68.5888 315.406H193.084C193.568 315.406 194.033 315.214 194.375 314.871C194.717 314.529 194.91 314.064 194.91 313.58C194.91 313.096 194.717 312.631 194.375 312.289C194.033 311.947 193.568 311.754 193.084 311.754H136.975C135.882 308.398 134.603 300.93 138.867 297.159C144.121 292.568 147.775 286.421 149.297 279.611L211.189 270.799C211.643 270.736 212.057 270.504 212.347 270.149C212.637 269.794 212.782 269.343 212.753 268.886L211.189 242.165ZM152.467 275.434L152.03 271.772L161.181 270.843L161.465 274.123L152.467 275.434ZM139.26 277.315L138.736 273.117L148.4 272.144L148.849 275.948L139.26 277.315ZM94.5111 190.856L97.5177 209.639L86.847 208.546L83.1407 188.658L94.5111 190.856ZM111.239 194.136L113.185 211.224L101.29 210.022L98.3268 191.632L111.239 194.136ZM125.452 196.902L127.442 212.657L116.913 211.563L115 194.836L125.452 196.902ZM139.905 199.712L141.578 214.012L131.159 212.919L129.224 197.613L139.905 199.712ZM207.395 239.661L191.947 239.497C191.521 233.473 191.116 227.679 190.777 222.715L206.488 224.3L207.395 239.661ZM188.273 239.454L176.925 239.333L175.689 221.195L187.093 222.289C187.432 227.394 187.847 233.364 188.262 239.421L188.273 239.454ZM106.461 242.198L116.727 242.307L120.007 271.335L111.261 272.22L106.461 242.198ZM107.653 272.592L98.9062 273.467L93.057 242.056L102.722 242.165L107.653 272.592ZM144.497 238.951L134.395 238.841L131.607 216.724L141.994 217.817L144.497 238.951ZM145.733 218.178L156.666 219.271L158.437 239.158L148.193 239.049L145.733 218.178ZM130.711 238.841L119.996 238.721L117.318 215.313L127.879 216.407L130.711 238.841ZM116.301 238.656L105.86 238.535L101.858 213.728L113.578 214.909L116.301 238.656ZM120.401 242.351L131.159 242.471L134.603 269.859L123.67 270.952L120.401 242.351ZM134.843 242.504L144.913 242.613L148.007 268.514L138.298 269.487L134.843 242.504ZM148.597 242.657L158.732 242.766L160.842 267.202L151.582 268.142L148.597 242.657ZM162.406 242.799L173.47 242.919L175.022 265.77L164.483 266.863L162.406 242.799ZM162.11 239.158L160.416 219.632L171.994 220.802L173.251 239.279L162.11 239.158ZM175.427 217.478L174.684 206.447L186.152 208.633C186.24 210.153 186.491 213.772 186.819 218.582L175.427 217.478ZM171.743 217.106L160.099 215.926L159.005 203.407L170.966 205.714L171.743 217.106ZM156.436 215.554L145.339 214.461L143.634 200.412L155.255 202.664L156.436 215.554ZM98.1519 213.367L102.208 238.513L92.4448 238.404L87.5795 212.296L98.1519 213.367ZM88.7166 238.371L82.2989 238.306L77.204 211.257L83.7639 211.924L88.7166 238.371ZM89.4054 242.034L95.3311 273.86L89.1102 274.494L82.9877 241.968L89.4054 242.034ZM89.788 278.113L96.009 277.49L97.1023 283.361L90.936 284.236L89.788 278.113ZM100.721 282.847L99.6278 277.118L108.243 276.244L109.118 281.644L100.721 282.847ZM112.748 281.131L111.906 275.883L120.488 275.008L121.046 279.95L112.748 281.131ZM124.665 279.436L124.118 274.636L135.051 273.543L135.598 277.916L124.665 279.436ZM164.833 270.526L175.307 269.432L175.493 272.165L165.106 273.641L164.833 270.526ZM178.947 269.093L190.274 268C190.329 268.765 190.373 269.465 190.416 270.132L179.122 271.739L178.947 269.093ZM178.696 265.442L177.176 243.007L188.536 243.127C189.072 250.78 189.629 258.434 190.012 264.305L178.696 265.442ZM192.198 243.171L207.603 243.335L208.696 262.413L193.62 263.933C193.193 257.515 192.69 250.266 192.187 243.127L192.198 243.171ZM206.258 220.572L190.515 218.987C190.209 214.614 189.979 211.246 189.859 209.388L205.788 212.482L206.258 220.572ZM79.2813 187.904L83.0642 208.152L76.5043 207.496L72.5684 186.581L79.2813 187.904ZM136.44 294.425C131.17 299.083 131.946 307.151 133.16 311.754H82.6487C85.9634 308.015 88.5049 303.656 90.127 298.93C91.329 295.358 91.7503 291.57 91.3624 287.822L98.95 286.728C99.041 286.734 99.1323 286.734 99.2233 286.728C99.3324 286.739 99.4422 286.739 99.5513 286.728C99.7226 286.693 99.8882 286.634 100.043 286.553L145.394 280.092C143.864 285.638 140.753 290.618 136.44 294.425ZM194.035 269.509C194.035 268.875 193.948 268.208 193.904 267.541L208.926 266.021L209.013 267.388L194.035 269.509Z"/>
</mask>
<path d="M211.189 242.165C211.296 241.917 211.344 241.648 211.329 241.378C211.314 241.109 211.236 240.847 211.102 240.613L209.352 210.853C209.328 210.448 209.17 210.063 208.903 209.758C208.636 209.453 208.274 209.246 207.876 209.169L71.8031 182.722L69.6165 171.176C69.3011 169.526 68.4245 168.035 67.1352 166.957C65.8458 165.879 64.2233 165.28 62.5428 165.262L37.3966 165.043C36.9124 165.043 36.448 165.235 36.1056 165.578C35.7632 165.92 35.5708 166.385 35.5708 166.869C35.5708 167.353 35.7632 167.817 36.1056 168.16C36.448 168.502 36.9124 168.695 37.3966 168.695L62.5428 168.913C63.3771 168.924 64.1822 169.222 64.8218 169.758C65.4614 170.294 65.896 171.035 66.0523 171.854L78.8768 239.946C78.8768 239.946 78.8768 240.033 78.8768 240.077C78.8707 240.361 78.9346 240.643 79.0627 240.897L87.2516 284.334C87.0981 284.743 87.0981 285.193 87.2516 285.602C87.2516 285.602 89.0336 290.599 86.7049 297.804C84.9975 302.641 82.2551 307.047 78.6691 310.716C78.3895 310.995 78.2123 311.361 78.1661 311.754H68.5888C68.349 311.754 68.1116 311.801 67.89 311.893C67.6685 311.985 67.4673 312.119 67.2977 312.289C67.1282 312.459 66.9937 312.66 66.9019 312.881C66.8102 313.103 66.7629 313.34 66.7629 313.58C66.7629 313.82 66.8102 314.057 66.9019 314.279C66.9937 314.5 67.1282 314.702 67.2977 314.871C67.4673 315.041 67.6685 315.175 67.89 315.267C68.1116 315.359 68.349 315.406 68.5888 315.406H193.084C193.568 315.406 194.033 315.214 194.375 314.871C194.717 314.529 194.91 314.064 194.91 313.58C194.91 313.096 194.717 312.631 194.375 312.289C194.033 311.947 193.568 311.754 193.084 311.754H136.975C135.882 308.398 134.603 300.93 138.867 297.159C144.121 292.568 147.775 286.421 149.297 279.611L211.189 270.799C211.643 270.736 212.057 270.504 212.347 270.149C212.637 269.794 212.782 269.343 212.753 268.886L211.189 242.165ZM152.467 275.434L152.03 271.772L161.181 270.843L161.465 274.123L152.467 275.434ZM139.26 277.315L138.736 273.117L148.4 272.144L148.849 275.948L139.26 277.315ZM94.5111 190.856L97.5177 209.639L86.847 208.546L83.1407 188.658L94.5111 190.856ZM111.239 194.136L113.185 211.224L101.29 210.022L98.3268 191.632L111.239 194.136ZM125.452 196.902L127.442 212.657L116.913 211.563L115 194.836L125.452 196.902ZM139.905 199.712L141.578 214.012L131.159 212.919L129.224 197.613L139.905 199.712ZM207.395 239.661L191.947 239.497C191.521 233.473 191.116 227.679 190.777 222.715L206.488 224.3L207.395 239.661ZM188.273 239.454L176.925 239.333L175.689 221.195L187.093 222.289C187.432 227.394 187.847 233.364 188.262 239.421L188.273 239.454ZM106.461 242.198L116.727 242.307L120.007 271.335L111.261 272.22L106.461 242.198ZM107.653 272.592L98.9062 273.467L93.057 242.056L102.722 242.165L107.653 272.592ZM144.497 238.951L134.395 238.841L131.607 216.724L141.994 217.817L144.497 238.951ZM145.733 218.178L156.666 219.271L158.437 239.158L148.193 239.049L145.733 218.178ZM130.711 238.841L119.996 238.721L117.318 215.313L127.879 216.407L130.711 238.841ZM116.301 238.656L105.86 238.535L101.858 213.728L113.578 214.909L116.301 238.656ZM120.401 242.351L131.159 242.471L134.603 269.859L123.67 270.952L120.401 242.351ZM134.843 242.504L144.913 242.613L148.007 268.514L138.298 269.487L134.843 242.504ZM148.597 242.657L158.732 242.766L160.842 267.202L151.582 268.142L148.597 242.657ZM162.406 242.799L173.47 242.919L175.022 265.77L164.483 266.863L162.406 242.799ZM162.11 239.158L160.416 219.632L171.994 220.802L173.251 239.279L162.11 239.158ZM175.427 217.478L174.684 206.447L186.152 208.633C186.24 210.153 186.491 213.772 186.819 218.582L175.427 217.478ZM171.743 217.106L160.099 215.926L159.005 203.407L170.966 205.714L171.743 217.106ZM156.436 215.554L145.339 214.461L143.634 200.412L155.255 202.664L156.436 215.554ZM98.1519 213.367L102.208 238.513L92.4448 238.404L87.5795 212.296L98.1519 213.367ZM88.7166 238.371L82.2989 238.306L77.204 211.257L83.7639 211.924L88.7166 238.371ZM89.4054 242.034L95.3311 273.86L89.1102 274.494L82.9877 241.968L89.4054 242.034ZM89.788 278.113L96.009 277.49L97.1023 283.361L90.936 284.236L89.788 278.113ZM100.721 282.847L99.6278 277.118L108.243 276.244L109.118 281.644L100.721 282.847ZM112.748 281.131L111.906 275.883L120.488 275.008L121.046 279.95L112.748 281.131ZM124.665 279.436L124.118 274.636L135.051 273.543L135.598 277.916L124.665 279.436ZM164.833 270.526L175.307 269.432L175.493 272.165L165.106 273.641L164.833 270.526ZM178.947 269.093L190.274 268C190.329 268.765 190.373 269.465 190.416 270.132L179.122 271.739L178.947 269.093ZM178.696 265.442L177.176 243.007L188.536 243.127C189.072 250.78 189.629 258.434 190.012 264.305L178.696 265.442ZM192.198 243.171L207.603 243.335L208.696 262.413L193.62 263.933C193.193 257.515 192.69 250.266 192.187 243.127L192.198 243.171ZM206.258 220.572L190.515 218.987C190.209 214.614 189.979 211.246 189.859 209.388L205.788 212.482L206.258 220.572ZM79.2813 187.904L83.0642 208.152L76.5043 207.496L72.5684 186.581L79.2813 187.904ZM136.44 294.425C131.17 299.083 131.946 307.151 133.16 311.754H82.6487C85.9634 308.015 88.5049 303.656 90.127 298.93C91.329 295.358 91.7503 291.57 91.3624 287.822L98.95 286.728C99.041 286.734 99.1323 286.734 99.2233 286.728C99.3324 286.739 99.4422 286.739 99.5513 286.728C99.7226 286.693 99.8882 286.634 100.043 286.553L145.394 280.092C143.864 285.638 140.753 290.618 136.44 294.425ZM194.035 269.509C194.035 268.875 193.948 268.208 193.904 267.541L208.926 266.021L209.013 267.388L194.035 269.509Z" fill="white"/>
<path d="M211.189 242.165C211.296 241.917 211.344 241.648 211.329 241.378C211.314 241.109 211.236 240.847 211.102 240.613L209.352 210.853C209.328 210.448 209.17 210.063 208.903 209.758C208.636 209.453 208.274 209.246 207.876 209.169L71.8031 182.722L69.6165 171.176C69.3011 169.526 68.4245 168.035 67.1352 166.957C65.8458 165.879 64.2233 165.28 62.5428 165.262L37.3966 165.043C36.9124 165.043 36.448 165.235 36.1056 165.578C35.7632 165.92 35.5708 166.385 35.5708 166.869C35.5708 167.353 35.7632 167.817 36.1056 168.16C36.448 168.502 36.9124 168.695 37.3966 168.695L62.5428 168.913C63.3771 168.924 64.1822 169.222 64.8218 169.758C65.4614 170.294 65.896 171.035 66.0523 171.854L78.8768 239.946C78.8768 239.946 78.8768 240.033 78.8768 240.077C78.8707 240.361 78.9346 240.643 79.0627 240.897L87.2516 284.334C87.0981 284.743 87.0981 285.193 87.2516 285.602C87.2516 285.602 89.0336 290.599 86.7049 297.804C84.9975 302.641 82.2551 307.047 78.6691 310.716C78.3895 310.995 78.2123 311.361 78.1661 311.754H68.5888C68.349 311.754 68.1116 311.801 67.89 311.893C67.6685 311.985 67.4673 312.119 67.2977 312.289C67.1282 312.459 66.9937 312.66 66.9019 312.881C66.8102 313.103 66.7629 313.34 66.7629 313.58C66.7629 313.82 66.8102 314.057 66.9019 314.279C66.9937 314.5 67.1282 314.702 67.2977 314.871C67.4673 315.041 67.6685 315.175 67.89 315.267C68.1116 315.359 68.349 315.406 68.5888 315.406H193.084C193.568 315.406 194.033 315.214 194.375 314.871C194.717 314.529 194.91 314.064 194.91 313.58C194.91 313.096 194.717 312.631 194.375 312.289C194.033 311.947 193.568 311.754 193.084 311.754H136.975C135.882 308.398 134.603 300.93 138.867 297.159C144.121 292.568 147.775 286.421 149.297 279.611L211.189 270.799C211.643 270.736 212.057 270.504 212.347 270.149C212.637 269.794 212.782 269.343 212.753 268.886L211.189 242.165ZM152.467 275.434L152.03 271.772L161.181 270.843L161.465 274.123L152.467 275.434ZM139.26 277.315L138.736 273.117L148.4 272.144L148.849 275.948L139.26 277.315ZM94.5111 190.856L97.5177 209.639L86.847 208.546L83.1407 188.658L94.5111 190.856ZM111.239 194.136L113.185 211.224L101.29 210.022L98.3268 191.632L111.239 194.136ZM125.452 196.902L127.442 212.657L116.913 211.563L115 194.836L125.452 196.902ZM139.905 199.712L141.578 214.012L131.159 212.919L129.224 197.613L139.905 199.712ZM207.395 239.661L191.947 239.497C191.521 233.473 191.116 227.679 190.777 222.715L206.488 224.3L207.395 239.661ZM188.273 239.454L176.925 239.333L175.689 221.195L187.093 222.289C187.432 227.394 187.847 233.364 188.262 239.421L188.273 239.454ZM106.461 242.198L116.727 242.307L120.007 271.335L111.261 272.22L106.461 242.198ZM107.653 272.592L98.9062 273.467L93.057 242.056L102.722 242.165L107.653 272.592ZM144.497 238.951L134.395 238.841L131.607 216.724L141.994 217.817L144.497 238.951ZM145.733 218.178L156.666 219.271L158.437 239.158L148.193 239.049L145.733 218.178ZM130.711 238.841L119.996 238.721L117.318 215.313L127.879 216.407L130.711 238.841ZM116.301 238.656L105.86 238.535L101.858 213.728L113.578 214.909L116.301 238.656ZM120.401 242.351L131.159 242.471L134.603 269.859L123.67 270.952L120.401 242.351ZM134.843 242.504L144.913 242.613L148.007 268.514L138.298 269.487L134.843 242.504ZM148.597 242.657L158.732 242.766L160.842 267.202L151.582 268.142L148.597 242.657ZM162.406 242.799L173.47 242.919L175.022 265.77L164.483 266.863L162.406 242.799ZM162.11 239.158L160.416 219.632L171.994 220.802L173.251 239.279L162.11 239.158ZM175.427 217.478L174.684 206.447L186.152 208.633C186.24 210.153 186.491 213.772 186.819 218.582L175.427 217.478ZM171.743 217.106L160.099 215.926L159.005 203.407L170.966 205.714L171.743 217.106ZM156.436 215.554L145.339 214.461L143.634 200.412L155.255 202.664L156.436 215.554ZM98.1519 213.367L102.208 238.513L92.4448 238.404L87.5795 212.296L98.1519 213.367ZM88.7166 238.371L82.2989 238.306L77.204 211.257L83.7639 211.924L88.7166 238.371ZM89.4054 242.034L95.3311 273.86L89.1102 274.494L82.9877 241.968L89.4054 242.034ZM89.788 278.113L96.009 277.49L97.1023 283.361L90.936 284.236L89.788 278.113ZM100.721 282.847L99.6278 277.118L108.243 276.244L109.118 281.644L100.721 282.847ZM112.748 281.131L111.906 275.883L120.488 275.008L121.046 279.95L112.748 281.131ZM124.665 279.436L124.118 274.636L135.051 273.543L135.598 277.916L124.665 279.436ZM164.833 270.526L175.307 269.432L175.493 272.165L165.106 273.641L164.833 270.526ZM178.947 269.093L190.274 268C190.329 268.765 190.373 269.465 190.416 270.132L179.122 271.739L178.947 269.093ZM178.696 265.442L177.176 243.007L188.536 243.127C189.072 250.78 189.629 258.434 190.012 264.305L178.696 265.442ZM192.198 243.171L207.603 243.335L208.696 262.413L193.62 263.933C193.193 257.515 192.69 250.266 192.187 243.127L192.198 243.171ZM206.258 220.572L190.515 218.987C190.209 214.614 189.979 211.246 189.859 209.388L205.788 212.482L206.258 220.572ZM79.2813 187.904L83.0642 208.152L76.5043 207.496L72.5684 186.581L79.2813 187.904ZM136.44 294.425C131.17 299.083 131.946 307.151 133.16 311.754H82.6487C85.9634 308.015 88.5049 303.656 90.127 298.93C91.329 295.358 91.7503 291.57 91.3624 287.822L98.95 286.728C99.041 286.734 99.1323 286.734 99.2233 286.728C99.3324 286.739 99.4422 286.739 99.5513 286.728C99.7226 286.693 99.8882 286.634 100.043 286.553L145.394 280.092C143.864 285.638 140.753 290.618 136.44 294.425ZM194.035 269.509C194.035 268.875 193.948 268.208 193.904 267.541L208.926 266.021L209.013 267.388L194.035 269.509Z" stroke="#001550" stroke-width="4" stroke-linecap="round" stroke-linejoin="round" mask="url(#path-30-outside-1)"/>
<path d="M58.4968 170.007H31.9403C31.4432 170.034 30.9458 169.96 30.4784 169.788C30.0111 169.617 29.5836 169.352 29.2221 169.01C28.8606 168.667 28.5727 168.255 28.3759 167.798C28.1791 167.341 28.0776 166.848 28.0776 166.35C28.0776 165.852 28.1791 165.36 28.3759 164.902C28.5727 164.445 28.8606 164.033 29.2221 163.69C29.5836 163.348 30.0111 163.083 30.4784 162.912C30.9458 162.74 31.4432 162.666 31.9403 162.693H58.4968C59.4321 162.744 60.3123 163.152 60.9563 163.832C61.6004 164.512 61.9593 165.413 61.9593 166.35C61.9593 167.287 61.6004 168.188 60.9563 168.868C60.3123 169.548 59.4321 169.956 58.4968 170.007Z" fill="#001550" stroke="#001550" stroke-width="2" stroke-linecap="round" stroke-linejoin="round"/>
<path d="M99.6383 28.7627H77.7393" stroke="#001550" stroke-width="2" stroke-linecap="round" stroke-linejoin="round"/>
<path d="M54.7476 69.3789H48.4829" stroke="#001550" stroke-width="2" stroke-linecap="round" stroke-linejoin="round"/>
<path d="M112.266 69.3789H63.0776" stroke="#001550" stroke-width="2" stroke-linecap="round" stroke-linejoin="round"/>
<path d="M69.2991 192.157H1" stroke="#001550" stroke-width="2" stroke-linecap="round" stroke-linejoin="round"/>
<path d="M43.9781 205.212H14.8086" stroke="#001550" stroke-width="2" stroke-linecap="round" stroke-linejoin="round"/>
<path d="M108.221 144.445H83.1079" stroke="#001550" stroke-width="2" stroke-linecap="round" stroke-linejoin="round"/>
<path d="M192.078 171.439H172.125" stroke="#001550" stroke-width="2" stroke-linecap="round" stroke-linejoin="round"/>
<path d="M182.107 166.837H155.244" stroke="#001550" stroke-width="2" stroke-linecap="round" stroke-linejoin="round"/>
</svg>
