<svg width="252" height="339" viewBox="0 0 252 339" fill="none" xmlns="http://www.w3.org/2000/svg">
<path d="M243.933 331.347C243.933 335.589 196.779 339 138.604 339C80.4287 339 33.2852 335.567 33.2852 331.347C33.2852 327.126 80.4396 323.693 138.604 323.693C196.768 323.693 243.933 327.104 243.933 331.347Z" fill="#BCCDFF"/>
<path opacity="0.4" d="M243.933 331.347C243.933 335.589 196.779 339 138.604 339C80.4287 339 33.2852 335.567 33.2852 331.347C33.2852 327.126 80.4396 323.693 138.604 323.693C196.768 323.693 243.933 327.104 243.933 331.347Z" fill="white"/>
<path d="M156.381 13.9371C156.381 13.9371 160.077 19.2615 160.306 23.8862C160.536 28.5109 160.536 32.4468 161.236 34.0649C161.935 35.683 164.242 36.8419 164.013 38.2304C163.783 39.6189 161.924 41.0074 161.924 41.0074C161.924 41.0074 160.776 47.4798 158.645 50.4974C156.513 53.5149 153.79 52.345 151.472 52.1154C150.053 51.9627 148.656 51.651 147.307 51.1861C145.3 53.6389 144.02 56.6043 143.611 59.7467C143.288 62.2942 143.366 64.8765 143.841 67.3999L127.649 62.5456C127.649 62.5456 135.302 56.3028 134.351 48.8902C133.762 44.3637 132.183 40.0225 129.726 36.175C129.726 36.175 121.166 26.6851 124.413 21.131C127.66 15.577 130.885 10.7227 134.592 8.87505C138.298 7.02735 156.381 13.9371 156.381 13.9371Z" fill="white" stroke="#001550" stroke-linecap="round" stroke-linejoin="round"/>
<path d="M153.135 38.9521C153.135 38.9521 156.415 42.2321 158.459 42.6475" stroke="#001550" stroke-width="0.75" stroke-linecap="round" stroke-linejoin="round"/>
<path d="M154.523 37.793L151.746 40.0998" stroke="#001550" stroke-width="0.75" stroke-linecap="round" stroke-linejoin="round"/>
<path d="M158.109 34.5459C158.683 34.5459 159.148 33.3564 159.148 31.8892C159.148 30.4219 158.683 29.2324 158.109 29.2324C157.535 29.2324 157.07 30.4219 157.07 31.8892C157.07 33.3564 157.535 34.5459 158.109 34.5459Z" fill="#001550"/>
<path d="M153.834 26.2259C153.834 26.2259 155.222 22.0604 158.207 23.2193" stroke="#001550" stroke-width="0.75" stroke-linecap="round" stroke-linejoin="round"/>
<path d="M121.44 16.047C121.44 16.047 120.346 9.10449 110.802 9.10449C101.257 9.10449 101.082 22.9786 103.4 28.7841C105.718 34.5895 114.268 36.8855 118.203 34.1085C122.139 31.3315 122.577 26.4553 122.577 24.1594C122.368 21.4341 121.988 18.7246 121.44 16.047Z" fill="#001550" stroke="#001550" stroke-linecap="round" stroke-linejoin="round"/>
<path d="M137.172 33.6167C137.172 33.6167 147.351 32.4578 148.969 28.2923C150.587 24.1267 147.351 21.3497 146.891 20.2017C146.432 19.0538 157.07 19.502 158.918 10.4822C160.766 1.46242 155.222 0.0739128 153.604 1.46242C151.986 2.85092 151.986 8.63454 151.986 8.63454C151.986 8.63454 147.121 1.92161 142.726 1.2219C138.331 0.522177 137.642 2.1512 138.79 3.7693C140.053 5.27755 141.447 6.67146 142.956 7.93482C142.956 7.93482 130.24 2.62133 123.954 9.56385C117.667 16.5064 114.704 24.3673 120.258 32.2391C123.599 36.9626 128.062 40.7801 133.247 43.3471C133.247 43.3471 133.706 36.6342 137.172 33.6167Z" fill="#001550" stroke="#001550" stroke-linecap="round" stroke-linejoin="round"/>
<path d="M138.561 35.2457C138.561 35.2457 136.714 27.3848 133.707 31.3098C130.701 35.2348 133.248 39.6408 135.096 41.4885C136.943 43.3362 140.42 41.7181 140.42 41.7181" fill="white"/>
<path d="M138.561 35.2457C138.561 35.2457 136.714 27.3848 133.707 31.3098C130.701 35.2348 133.248 39.6408 135.096 41.4885C136.943 43.3362 140.42 41.7181 140.42 41.7181" stroke="#001550" stroke-linecap="round" stroke-linejoin="round"/>
<path d="M238.041 66.9406C238.041 66.9406 244.054 70.8765 242.665 72.4946C241.05 74.0015 239.267 75.3184 237.352 76.4196C237.352 76.4196 232.257 73.8831 229.95 72.4946C227.643 71.1061 230.409 68.7883 232.716 67.3998C235.023 66.0113 236.652 65.3225 238.041 66.9406Z" fill="white" stroke="#001550" stroke-linecap="round" stroke-linejoin="round"/>
<path d="M142.726 66.0116L162.405 72.0248C165.412 72.9541 172.584 72.7245 172.584 72.7245C179.135 72.1372 185.631 71.0406 192.012 69.4446C201.961 66.8972 222.089 65.9679 222.089 65.9679C222.089 65.9679 231.809 63.4205 237.122 64.1202L251.466 65.9679C250.25 66.9115 248.826 67.549 247.312 67.8265C244.764 68.2857 238.281 67.1268 236.892 67.586C235.716 68.2046 234.689 69.0743 233.886 70.1334C233.886 70.1334 238.511 74.2989 238.511 75.4578C238.511 76.6167 238.051 78.7377 236.663 78.4644C235.274 78.1911 235.274 76.8463 233.383 75.917C231.492 74.9877 229.447 74.5285 226.9 73.14C225.477 72.3873 224.158 71.4539 222.975 70.363C222.592 69.9913 210.609 76.1903 209.21 76.7698C204.06 78.9699 198.776 80.8431 193.39 82.3785C183.08 85.2757 171.83 87.0688 161.203 84.9368C154.26 83.5483 142.693 79.6233 142.693 79.6233C142.693 79.6233 135.521 76.3434 135.991 70.363C136.461 64.3826 142.726 66.0116 142.726 66.0116Z" fill="white" stroke="#001550" stroke-linecap="round" stroke-linejoin="round"/>
<path d="M147.351 71.5657C147.351 71.5657 141.338 61.387 135.554 58.61C129.771 55.8329 123.954 63.4643 120.98 70.1772C118.007 76.8901 118.488 87.2984 119.133 97.0289C119.778 106.759 124.457 117.802 124.457 117.802C124.457 117.802 114.508 129.828 112.19 141.166C109.872 152.503 113.119 167.307 114.508 177.486C115.896 187.664 116.585 204.556 116.585 204.556C116.585 204.556 110.342 211.498 109.413 220.059C108.484 228.62 105.269 265.584 105.269 269.98C105.269 274.375 104.351 280.858 105.269 282.006C106.188 283.154 106.199 283.099 107.128 283.099C108.057 283.099 129.792 281.022 131.651 279.404C133.51 277.786 134.417 276.627 132.34 275.698C130.263 274.768 112.66 268.044 112.442 266.219C112.223 264.393 128.841 223 131.618 215.598C134.395 208.197 137.402 175.802 138.561 170.948C139.72 166.093 142.037 157.292 142.037 157.292C150.214 156.674 158.35 155.6 166.407 154.078C182.14 151.301 196.889 143.757 196.889 143.757C196.889 143.757 188.886 158.812 191.805 168.761C194.724 178.71 195.927 192.814 196.55 202.49C197.173 212.165 195.883 211.236 197.173 212.133C198.463 213.029 207.888 208.623 210.501 208.251C213.114 207.88 222.593 206.786 225.632 204.84C228.671 202.894 215.41 200.959 209.845 198.838C204.28 196.717 203.984 195.558 203.984 195.558C203.984 195.558 203.777 188.069 210.041 157.62C213.157 142.434 214.535 129.981 210.501 128.757C206.466 127.532 173.328 128.21 165.248 130.298C160.426 131.53 156.011 134.007 152.446 137.481C152.446 137.481 148.739 121.519 149.166 115.735C149.592 109.952 150.554 102.31 150.554 102.31C150.554 102.31 157.486 99.7731 157.256 93.7489C157.027 87.7248 152.402 83.111 150.314 79.4156C148.997 76.9353 148.001 74.2975 147.351 71.5657Z" fill="white" stroke="#001550" stroke-linecap="round" stroke-linejoin="round"/>
<path d="M132.34 275.796C130.558 275.009 117.428 269.979 113.535 267.388C112.975 267.978 112.665 268.762 112.672 269.575C113.045 270.842 113.509 272.081 114.06 273.281L105.019 275.73C104.833 278.704 104.712 281.361 105.27 282.071C106.199 283.165 106.199 283.165 107.129 283.165C108.058 283.165 129.793 281.087 131.652 279.469C133.51 277.851 134.418 276.725 132.34 275.796Z" fill="#BCCDFF" stroke="#001550" stroke-linecap="round" stroke-linejoin="round"/>
<path d="M206.641 175.397C207.483 170.597 208.576 164.77 210.041 157.674C213.157 142.488 214.535 130.036 210.5 128.811C206.466 127.587 173.328 128.264 165.248 130.353C160.569 131.555 154.457 133.25 154.151 133.633C153.626 131.326 149.166 122.699 149.166 116.839C139.413 117.463 130.514 118.075 130 118.272L121.374 121.934C118.247 126.428 113.721 133.961 112.19 141.176C109.872 152.514 113.119 167.317 114.508 177.496C115.896 187.675 116.585 204.567 116.585 204.567C116.585 204.567 110.342 211.509 109.413 220.07C108.823 225.536 104.701 247.577 104.963 257.734C108.434 258.008 111.927 257.742 115.317 256.947C119.067 246.2 129.727 220.715 131.618 215.675C134.395 208.273 137.402 175.878 138.561 171.024C139.719 166.169 142.037 157.368 142.037 157.368C150.214 156.75 158.35 155.677 166.407 154.154C182.14 151.377 196.889 143.833 196.889 143.833C196.889 143.833 188.886 158.888 191.805 168.837C192.537 171.352 193.171 174.14 193.707 177.048C198.088 177.489 202.512 176.924 206.641 175.397Z" fill="#001550" stroke="#001550" stroke-linecap="round" stroke-linejoin="round"/>
<path d="M149.21 115.757C149.669 109.974 150.598 102.331 150.598 102.331C150.598 102.331 157.53 99.7949 157.3 93.7708C157.071 87.7467 152.446 83.1329 150.358 79.4375C149.024 76.9524 148.014 74.3071 147.351 71.5657C147.351 71.5657 141.338 61.387 135.554 58.61C129.771 55.8329 123.954 63.4642 120.98 70.1772C118.007 76.8901 118.488 87.2984 119.133 97.0289C119.778 106.759 124.457 117.802 124.457 117.802C124.457 117.802 116.563 127.368 113.207 137.481C119.386 140.084 126.087 141.207 132.777 140.761C143.787 139.952 151.276 136.147 154.151 133.677C153.08 128.494 148.904 119.595 149.21 115.757Z" fill="#BCCDFF" stroke="#001550" stroke-linecap="round" stroke-linejoin="round"/>
<path d="M140.877 85.4507C140.877 85.4507 135.017 89.9223 124.084 92.1089" stroke="#001550" stroke-linecap="round" stroke-linejoin="round"/>
<path d="M141.577 87.189C141.577 87.189 136.111 94.8421 130.098 97.0288" stroke="#001550" stroke-linecap="round" stroke-linejoin="round"/>
<path d="M123.954 132.791C122.774 133.48 121.56 134.136 120.303 134.748" stroke="#001550" stroke-linecap="round" stroke-linejoin="round"/>
<path d="M147.045 110.148C142.102 117.787 135.803 124.457 128.459 129.828" stroke="#001550" stroke-linecap="round" stroke-linejoin="round"/>
<path d="M162.623 27.5051V32.6764C162.62 32.9417 162.714 33.1989 162.887 33.4C163.06 33.6012 163.301 33.7326 163.563 33.7697L195.805 37.9899C195.959 38.0085 196.116 37.9941 196.264 37.9476C196.412 37.901 196.549 37.8235 196.664 37.72C196.78 37.6166 196.873 37.4896 196.936 37.3476C196.999 37.2057 197.031 37.0519 197.03 36.8966L197.084 26.5757C197.084 26.2858 196.969 26.0077 196.764 25.8026C196.559 25.5976 196.281 25.4824 195.991 25.4824L163.684 26.3461C163.537 26.3503 163.393 26.3838 163.26 26.4448C163.126 26.5057 163.007 26.5928 162.908 26.7009C162.809 26.809 162.733 26.9359 162.684 27.0741C162.635 27.2122 162.614 27.3588 162.623 27.5051Z" fill="#001550" stroke="#001550" stroke-linecap="round" stroke-linejoin="round"/>
<path d="M172.573 39.4114C172.573 39.4114 166.32 37.7933 165.86 35.9346C165.586 34.8618 165.432 33.7617 165.401 32.6547C165.401 32.6547 168.408 33.3544 169.337 32.8843C170.266 32.4142 169.567 19.4694 170.726 18.7806C171.885 18.0918 175.58 16.4628 176.968 19.699C178.357 22.9352 177.428 22.0168 177.428 22.0168C178.65 21.7599 179.912 21.7599 181.134 22.0168C182.362 22.4688 183.48 23.1769 184.414 24.0941C184.414 24.0941 187.421 23.6349 188.12 25.7122C188.82 27.7895 185.573 36.5906 183.485 40.5265C181.396 44.4625 180.708 46.0696 180.708 46.0696C180.708 46.0696 177.931 80.7822 176.334 87.4842C174.738 94.1862 172.06 98.1221 170.879 98.1221C169.698 98.1221 149.209 88.6431 140.878 85.4069C132.547 82.1707 126.993 83.0016 125.572 74.6706C124.151 66.3396 129.945 64.3498 134.832 64.3498C139.719 64.3498 165.139 79.6561 165.139 79.6561C165.139 79.6561 173.229 55.6033 173.229 49.1199C173.314 45.8704 173.095 42.62 172.573 39.4114Z" fill="white" stroke="#001550" stroke-linecap="round" stroke-linejoin="round"/>
<path d="M225.631 204.938C228.682 203.003 215.409 201.057 209.844 198.936C208.249 198.36 206.714 197.627 205.263 196.75C204.99 197.041 204.781 197.386 204.647 197.762C204.514 198.138 204.459 198.538 204.487 198.936C204.627 200.324 204.92 201.691 205.361 203.014C205.361 203.014 200.354 204.381 196.691 205.496C196.91 212.056 196.035 211.455 197.172 212.22C198.309 212.985 207.887 208.71 210.5 208.339C213.113 207.967 222.592 206.885 225.631 204.938Z" fill="#BCCDFF" stroke="#001550" stroke-linecap="round" stroke-linejoin="round"/>
<path d="M142.037 157.39L147.591 145.134" stroke="#001550" stroke-width="0.75" stroke-linecap="round" stroke-linejoin="round"/>
<path d="M189.477 330.078C194.174 330.078 197.983 326.27 197.983 321.572C197.983 316.875 194.174 313.066 189.477 313.066C184.779 313.066 180.971 316.875 180.971 321.572C180.971 326.27 184.779 330.078 189.477 330.078Z" fill="#001550" stroke="#001550" stroke-width="0.75" stroke-linecap="round" stroke-linejoin="round"/>
<path d="M184.086 314.356C184.086 314.356 185.89 322.086 186.918 323.639C187.945 325.191 191.291 325.956 192.078 322.6C192.865 319.244 189.246 313.854 189.246 313.854L184.086 314.356Z" fill="white" stroke="#001550" stroke-width="0.75" stroke-linecap="round" stroke-linejoin="round"/>
<path d="M79.379 330.078C84.0767 330.078 87.8849 326.27 87.8849 321.572C87.8849 316.875 84.0767 313.066 79.379 313.066C74.6813 313.066 70.873 316.875 70.873 321.572C70.873 326.27 74.6813 330.078 79.379 330.078Z" fill="#001550" stroke="#001550" stroke-width="0.75" stroke-linecap="round" stroke-linejoin="round"/>
<path d="M84.7913 314.356C84.7913 314.356 82.9874 322.086 81.9597 323.639C80.932 325.191 77.5864 325.956 76.7992 322.6C76.0121 319.244 79.6419 313.854 79.6419 313.854L84.7913 314.356Z" fill="white" stroke="#001550" stroke-width="0.75" stroke-linecap="round" stroke-linejoin="round"/>
<path d="M211.189 242.166C211.296 241.918 211.343 241.648 211.328 241.379C211.313 241.11 211.235 240.847 211.101 240.613L209.352 210.853C209.328 210.448 209.17 210.063 208.902 209.758C208.635 209.454 208.274 209.246 207.876 209.169L71.8026 182.722L69.616 171.177C69.3006 169.526 68.424 168.035 67.1347 166.957C65.8454 165.879 64.2228 165.28 62.5423 165.262L37.3961 165.043C36.9119 165.043 36.4475 165.236 36.1051 165.578C35.7627 165.921 35.5703 166.385 35.5703 166.869C35.5703 167.354 35.7627 167.818 36.1051 168.16C36.4475 168.503 36.9119 168.695 37.3961 168.695L62.5423 168.914C63.3766 168.924 64.1818 169.223 64.8213 169.759C65.4609 170.295 65.8956 171.035 66.0518 171.855L78.8763 239.946C78.8763 239.946 78.8763 240.034 78.8763 240.077C78.8702 240.362 78.9341 240.643 79.0622 240.897L87.2511 284.335C87.0976 284.743 87.0976 285.194 87.2511 285.603C87.2511 285.603 89.0332 290.599 86.7044 297.804C84.997 302.641 82.2546 307.048 78.6686 310.716C78.389 310.996 78.2118 311.362 78.1657 311.755H68.5883C68.3485 311.755 68.1111 311.802 67.8896 311.894C67.668 311.985 67.4668 312.12 67.2972 312.29C67.1277 312.459 66.9932 312.66 66.9014 312.882C66.8097 313.103 66.7624 313.341 66.7624 313.581C66.7624 313.82 66.8097 314.058 66.9014 314.279C66.9932 314.501 67.1277 314.702 67.2972 314.872C67.4668 315.041 67.668 315.176 67.8896 315.267C68.1111 315.359 68.3485 315.406 68.5883 315.406H193.083C193.568 315.406 194.032 315.214 194.375 314.872C194.717 314.529 194.909 314.065 194.909 313.581C194.909 313.096 194.717 312.632 194.375 312.29C194.032 311.947 193.568 311.755 193.083 311.755H136.975C135.882 308.398 134.602 300.931 138.866 297.159C144.121 292.568 147.775 286.421 149.296 279.611L211.189 270.799C211.643 270.737 212.056 270.505 212.346 270.15C212.636 269.795 212.781 269.343 212.752 268.886L211.189 242.166ZM152.467 275.435L152.03 271.772L161.181 270.843L161.465 274.123L152.467 275.435ZM139.26 277.315L138.735 273.117L148.4 272.144L148.848 275.949L139.26 277.315ZM94.5107 190.857L97.5173 209.64L86.8465 208.546L83.1402 188.659L94.5107 190.857ZM111.238 194.136L113.184 211.225L101.289 210.022L98.3263 191.633L111.238 194.136ZM125.451 196.903L127.441 212.657L116.913 211.564L114.999 194.836L125.451 196.903ZM139.905 199.712L141.578 214.013L131.158 212.92L129.223 197.613L139.905 199.712ZM207.395 239.662L191.946 239.498C191.52 233.474 191.116 227.679 190.777 222.716L206.487 224.301L207.395 239.662ZM188.273 239.454L176.924 239.334L175.689 221.196L187.092 222.289C187.431 227.395 187.847 233.364 188.262 239.421L188.273 239.454ZM106.461 242.198L116.727 242.308L120.007 271.335L111.26 272.221L106.461 242.198ZM107.652 272.592L98.9058 273.467L93.0566 242.056L102.721 242.166L107.652 272.592ZM144.497 238.951L134.395 238.842L131.607 216.724L141.993 217.818L144.497 238.951ZM145.732 218.178L156.665 219.272L158.436 239.159L148.192 239.05L145.732 218.178ZM130.71 238.842L119.996 238.722L117.317 215.314L127.878 216.407L130.71 238.842ZM116.3 238.656L105.859 238.536L101.858 213.729L113.578 214.909L116.3 238.656ZM120.4 242.351L131.158 242.472L134.602 269.859L123.669 270.952L120.4 242.351ZM134.843 242.504L144.912 242.614L148.006 268.514L138.298 269.487L134.843 242.504ZM148.597 242.658L158.732 242.767L160.842 267.202L151.581 268.143L148.597 242.658ZM162.405 242.8L173.47 242.92L175.022 265.77L164.482 266.863L162.405 242.8ZM162.11 239.159L160.415 219.632L171.994 220.802L173.251 239.279L162.11 239.159ZM175.427 217.479L174.683 206.447L186.152 208.634C186.239 210.153 186.491 213.772 186.819 218.583L175.427 217.479ZM171.742 217.107L160.098 215.926L159.005 203.408L170.966 205.715L171.742 217.107ZM156.436 215.554L145.339 214.461L143.633 200.412L155.255 202.664L156.436 215.554ZM98.1514 213.368L102.208 238.514L92.4443 238.405L87.5791 212.296L98.1514 213.368ZM88.7161 238.372L82.2984 238.306L77.2036 211.258L83.7634 211.925L88.7161 238.372ZM89.4049 242.034L95.3306 273.861L89.1097 274.495L82.9872 241.969L89.4049 242.034ZM89.7876 278.114L96.0085 277.49L97.1018 283.361L90.9355 284.236L89.7876 278.114ZM100.721 282.848L99.6273 277.119L108.243 276.244L109.117 281.645L100.721 282.848ZM112.747 281.131L111.905 275.883L120.488 275.009L121.045 279.95L112.747 281.131ZM124.664 279.436L124.117 274.637L135.051 273.544L135.597 277.917L124.664 279.436ZM164.832 270.526L175.306 269.433L175.492 272.166L165.106 273.642L164.832 270.526ZM178.947 269.094L190.274 268C190.328 268.766 190.372 269.465 190.416 270.132L179.122 271.74L178.947 269.094ZM178.696 265.442L177.176 243.007L188.535 243.128C189.071 250.781 189.629 258.434 190.011 264.305L178.696 265.442ZM192.198 243.171L207.603 243.335L208.696 262.414L193.619 263.933C193.193 257.516 192.69 250.267 192.187 243.128L192.198 243.171ZM206.258 220.573L190.514 218.987C190.208 214.614 189.978 211.247 189.858 209.388L205.788 212.482L206.258 220.573ZM79.2808 187.905L83.0637 208.153L76.5038 207.497L72.5679 186.582L79.2808 187.905ZM136.439 294.426C131.169 299.083 131.946 307.152 133.159 311.755H82.6482C85.9629 308.015 88.5045 303.657 90.1265 298.93C91.3285 295.359 91.7499 291.571 91.3619 287.822L98.9495 286.729C99.0405 286.735 99.1318 286.735 99.2228 286.729C99.3319 286.74 99.4417 286.74 99.5508 286.729C99.7221 286.694 99.8877 286.635 100.043 286.554L145.393 280.092C143.863 285.638 140.752 290.619 136.439 294.426ZM194.035 269.509C194.035 268.875 193.947 268.208 193.903 267.541L208.926 266.022L209.013 267.388L194.035 269.509Z" fill="white" stroke="#001550" stroke-linecap="round" stroke-linejoin="round"/>
<path d="M58.4973 170.007H31.9407C31.4437 170.034 30.9463 169.96 30.4789 169.788C30.0116 169.617 29.5841 169.352 29.2226 169.01C28.8611 168.667 28.5732 168.255 28.3764 167.798C28.1796 167.341 28.0781 166.848 28.0781 166.35C28.0781 165.852 28.1796 165.36 28.3764 164.902C28.5732 164.445 28.8611 164.033 29.2226 163.69C29.5841 163.348 30.0116 163.083 30.4789 162.912C30.9463 162.74 31.4437 162.666 31.9407 162.693H58.4973C59.4326 162.744 60.3128 163.152 60.9568 163.832C61.6009 164.512 61.9598 165.413 61.9598 166.35C61.9598 167.287 61.6009 168.188 60.9568 168.868C60.3128 169.548 59.4326 169.956 58.4973 170.007Z" fill="#001550" stroke="#001550" stroke-linecap="round" stroke-linejoin="round"/>
<path d="M99.6373 28.7622H77.7383" stroke="#001550" stroke-linecap="round" stroke-linejoin="round"/>
<path d="M54.7471 69.3789H48.4824" stroke="#001550" stroke-linecap="round" stroke-linejoin="round"/>
<path d="M112.266 69.3789H63.0781" stroke="#001550" stroke-linecap="round" stroke-linejoin="round"/>
<path d="M69.2991 192.157H1" stroke="#001550" stroke-linecap="round" stroke-linejoin="round"/>
<path d="M43.9781 205.211H14.8086" stroke="#001550" stroke-linecap="round" stroke-linejoin="round"/>
<path d="M108.221 144.445H83.1074" stroke="#001550" stroke-linecap="round" stroke-linejoin="round"/>
<path d="M192.078 171.439H172.125" stroke="#001550" stroke-linecap="round" stroke-linejoin="round"/>
<path d="M182.107 166.836H155.244" stroke="#001550" stroke-linecap="round" stroke-linejoin="round"/>
</svg>
