<svg width="201" height="343" viewBox="0 0 201 343" fill="none" xmlns="http://www.w3.org/2000/svg">
    <path d="M200.76 324.921C200.76 328.887 156.007 332.076 100.795 332.076C45.5826 332.076 0.840088 328.867 0.840088 324.921C0.840088 320.976 45.593 317.767 100.795 317.767C155.997 317.767 200.76 320.956 200.76 324.921Z" fill="#8BAAFF"/>
    <path opacity="0.4" d="M200.76 324.921C200.76 328.887 156.007 332.076 100.795 332.076C45.5826 332.076 0.840088 328.867 0.840088 324.921C0.840088 320.976 45.593 317.767 100.795 317.767C155.997 317.767 200.76 320.956 200.76 324.921Z" fill="white"/>
    <path d="M59.2593 72.1094C59.2593 72.1094 42.7256 76.3251 38.1362 82.624C33.5468 88.923 14.9439 131.758 14.9439 131.758C14.9439 131.758 8.91296 138.538 15.4342 145.073C21.9555 151.608 34.9981 154.025 39.8327 148.218C44.6673 142.41 51.6593 115.052 52.6301 111.908C53.601 108.763 60.8381 82.1327 61.5638 80.6882C62.2895 79.2436 62.9857 72.9741 59.2593 72.1094Z" fill="white" stroke="#001550" stroke-width="2" stroke-linecap="round" stroke-linejoin="round"/>
    <path d="M59.2584 72.1094C59.2584 72.1094 42.7248 76.3251 38.1353 82.624C35.3601 86.427 27.4561 103.624 21.6409 116.605C24.4651 116.035 36.2329 114.286 50.011 121.243C51.3348 116.605 52.3155 112.94 52.6293 111.908C53.6099 108.763 60.8373 82.1327 61.563 80.6882C62.2886 79.2436 62.9849 72.9741 59.2584 72.1094Z" fill="#001550" stroke="#001550" stroke-width="2" stroke-linecap="round" stroke-linejoin="round"/>
    <path d="M107.703 16.3027C110.547 17.9112 112.825 20.362 114.224 23.319C116.185 27.9179 116.185 34.9342 116.185 34.9342C116.185 34.9342 147.105 33.9516 158.941 33.7255C170.778 33.4995 178.75 36.3886 178.986 42.1962C179.221 48.0039 176.573 59.3833 170.052 63.7365C163.531 68.0898 143.241 61.0735 132.856 58.1746C122.471 55.2757 118.843 56.2092 111.361 55.2265C103.878 54.2439 101.691 51.3548 100.485 46.7559C99.279 42.1569 101.691 33.4406 101.691 26.4242C101.691 19.4079 100.701 14.8483 107.703 16.3027Z" fill="white" stroke="#001550" stroke-width="2" stroke-linecap="round" stroke-linejoin="round"/>
    <path d="M152.871 46.0692C152.871 46.0692 148.527 57.203 140.554 63.2563C134.837 67.5997 127.119 70.0761 123.226 71.1177C109.291 67.187 89.6194 65.3396 78.1165 67.8945C78.1165 67.8945 62.0535 71.7466 59.2586 72.1004C56.4638 72.4541 49.8248 94.8494 48.4225 110.248C47.0202 125.646 51.5704 163.804 51.5704 166.605C51.5704 169.405 53.3159 215.964 56.1108 228.916C58.9056 241.868 62.0535 259.379 62.3967 261.816C62.7399 264.253 65.1916 282.452 65.1916 288.417C65.1916 294.382 62.3575 308.729 62.3575 308.729C62.3575 308.729 49.7856 317.131 44.8922 322.025C39.9988 326.919 48.4912 332.087 54.6987 333.227C65.2308 335.193 77.7438 324.826 77.7438 324.826L91.7768 319.234C95.4935 317.74 96.5918 313.741 96.6801 310.154L97.3273 284.231C99.524 293.403 101.328 302.669 102.74 312.031C103.309 315.863 103.898 319.892 106.202 322.988C107.481 324.765 109.135 326.238 111.047 327.302C112.439 327.95 113.92 327.813 115.322 328.619C117.901 330.112 118.96 333.336 121.461 334.957C126.845 338.149 133.027 339.734 139.279 339.526C139.279 339.526 153.244 340.234 153.989 332.53C154.734 324.826 135.818 312.228 135.818 312.228C135.818 312.228 133.023 261.128 130.914 244.325C128.806 227.521 123.226 200.222 123.226 188.312C123.226 176.402 128.816 120.399 128.816 120.399C128.816 120.399 129.385 118.925 130.257 116.527L131.179 116.016C139.152 111.417 161.373 93.5031 168.62 82.1237C175.563 71.2356 178.074 50.8057 178.27 44.8311" fill="white"/>
    <path d="M152.871 46.0692C152.871 46.0692 148.527 57.203 140.554 63.2563C134.837 67.5997 127.119 70.0761 123.226 71.1177C109.291 67.187 89.6194 65.3396 78.1165 67.8945C78.1165 67.8945 62.0535 71.7466 59.2586 72.1004C56.4638 72.4541 49.8248 94.8494 48.4225 110.248C47.0202 125.647 51.5704 163.804 51.5704 166.605C51.5704 169.405 53.3159 215.964 56.1108 228.916C58.9056 241.868 62.0535 259.379 62.3967 261.816C62.7399 264.253 65.1916 282.452 65.1916 288.417C65.1916 294.382 62.3575 308.729 62.3575 308.729C62.3575 308.729 49.7856 317.131 44.8922 322.025C39.9988 326.919 48.4912 332.088 54.6987 333.227C65.2308 335.193 77.7438 324.826 77.7438 324.826L91.7768 319.234C95.4935 317.74 96.5918 313.741 96.6801 310.154L97.3273 284.231C99.524 293.403 101.328 302.669 102.74 312.031C103.309 315.864 103.898 319.892 106.202 322.988C107.481 324.765 109.135 326.238 111.047 327.302C112.439 327.95 113.92 327.813 115.322 328.619C117.901 330.112 118.96 333.336 121.461 334.957C126.845 338.149 133.027 339.734 139.279 339.526C139.279 339.526 153.244 340.234 153.989 332.53C154.734 324.826 135.818 312.228 135.818 312.228C135.818 312.228 133.023 261.128 130.914 244.325C128.806 227.521 123.226 200.222 123.226 188.312C123.226 176.402 128.816 120.399 128.816 120.399C128.816 120.399 129.385 118.925 130.257 116.527L131.179 116.016C139.152 111.417 161.373 93.5031 168.62 82.1237C175.563 71.2356 178.074 50.8057 178.27 44.8311" stroke="#001550" stroke-width="2" stroke-linecap="round" stroke-linejoin="round"/>
    <path d="M153.921 332.529C154.618 324.825 135.75 312.227 135.75 312.227C135.75 312.227 135.534 308.296 135.181 302.253C124.238 304.895 113.018 306.215 101.761 306.184C102.094 308.149 102.421 310.114 102.741 312.08C103.31 315.912 103.899 319.941 106.203 323.037C107.482 324.814 109.136 326.287 111.047 327.351C112.44 327.999 113.921 327.862 115.323 328.667C117.902 330.161 118.961 333.384 121.462 335.006C126.846 338.197 133.028 339.783 139.28 339.575C139.28 339.575 153.215 340.233 153.921 332.529Z" fill="#001550" stroke="#001550" stroke-width="2" stroke-linecap="round" stroke-linejoin="round"/>
    <path d="M91.7768 319.233C95.4935 317.74 96.5918 313.74 96.68 310.153C96.68 308.797 96.7487 307.441 96.7781 306.085C85.627 305.707 74.5497 304.119 63.7402 301.349C63.0733 305.437 62.4261 308.729 62.4261 308.729C62.4261 308.729 49.8542 317.13 44.9608 322.024C40.0674 326.918 48.5598 332.087 54.7673 333.227C65.2994 335.192 77.8124 324.825 77.8124 324.825L91.7768 319.233Z" fill="#001550" stroke="#001550" stroke-width="2" stroke-linecap="round" stroke-linejoin="round"/>
    <path d="M153.92 332.529C153.92 332.421 153.92 332.303 153.92 332.185C150.834 334.397 147.268 335.845 143.515 336.41C132.473 338.376 122.412 332.725 119.715 330.269C117.018 327.812 115.302 325.837 111.125 323.134C106.947 320.432 103.172 313.779 103.172 313.779L103.015 314.025C103.534 317.219 104.26 320.412 106.172 322.987C107.451 324.764 109.105 326.237 111.017 327.301C112.409 327.95 113.89 327.812 115.292 328.618C117.871 330.111 118.931 333.335 121.431 334.956C126.815 338.148 132.997 339.733 139.25 339.525C139.25 339.525 153.214 340.233 153.92 332.529Z" fill="white" stroke="#001550" stroke-width="2" stroke-linecap="round" stroke-linejoin="round"/>
    <path d="M91.7772 319.233C95.0232 317.926 96.2686 314.723 96.602 311.549C93.3855 313.514 85.9522 317.808 81.2353 319.695C75.1063 322.152 70.9287 329.522 58.9158 329.522C50.345 329.522 45.6477 326.161 43.657 324.225C42.5979 328.372 49.5408 332.254 54.7579 333.227C65.29 335.192 77.803 324.825 77.803 324.825L91.7772 319.233Z" fill="white" stroke="#001550" stroke-width="2" stroke-linecap="round" stroke-linejoin="round"/>
    <path d="M137.113 65.5361C132.734 67.9717 128.069 69.85 123.227 71.1276C109.292 67.1969 89.62 65.3494 78.117 67.9044C78.117 67.9044 62.054 71.7565 59.2592 72.1103C56.4643 72.464 49.8254 94.8592 48.423 110.258C47.5601 119.77 48.9624 137.93 50.1588 151.108C79.2741 161.799 110.321 158.134 125.502 155.225C127.032 137.773 128.767 120.409 128.767 120.409C128.767 120.409 129.336 118.935 130.209 116.537L131.131 116.026C136.554 112.901 148.537 103.635 157.942 94.4072C139.064 88.9534 136.779 74.0363 137.113 65.5361Z" fill="#001550" stroke="#001550" stroke-width="2" stroke-linecap="round" stroke-linejoin="round"/>
    <path d="M110.047 82.2318C109.989 79.2928 109.24 76.409 107.859 73.8152C106.479 71.2214 104.507 68.9908 102.104 67.3049C93.1802 66.4402 84.4524 66.4992 78.1175 67.9044C78.1175 67.9044 73.6751 68.9755 69.0563 70.027C65.9463 73.3312 64.1952 77.6899 64.1531 82.2318C64.1531 93.1494 74.4302 102.003 87.1002 102.003C99.7701 102.003 110.047 93.1494 110.047 82.2318Z" fill="#001550" stroke="#001550" stroke-width="2" stroke-linecap="round" stroke-linejoin="round"/>
    <path d="M103.172 313.78C108.411 315.627 113.965 316.409 119.509 316.079C131.561 315.558 135.749 312.227 135.749 312.227C135.749 312.227 132.954 261.128 130.845 244.324C128.737 227.52 123.157 200.221 123.157 188.311C123.157 181.295 125.118 158.959 126.697 141.801L125.942 141.89C123.935 142.123 121.902 141.921 119.98 141.297C118.058 140.673 116.293 139.642 114.804 138.273C113.316 136.904 112.139 135.231 111.353 133.365C110.568 131.5 110.192 129.488 110.252 127.464L110.585 116.291C101.497 116.885 92.3726 116.622 83.3332 115.505C67.0937 113.667 50.3247 108.154 50.3247 108.154L48.5595 108.695C48.5595 109.216 48.4517 109.736 48.4026 110.247C47.0101 125.656 51.5505 163.803 51.5505 166.604C51.5505 169.405 53.296 215.964 56.0909 228.916C58.8857 241.867 62.0336 259.379 62.3768 261.816C62.72 264.253 65.1716 282.452 65.1716 288.417C65.1716 294.382 62.4847 308.188 62.3866 308.699C64.4852 309.348 68.8785 310.665 76.7923 312.915C88.8346 316.335 96.6111 312.217 96.6111 312.217C96.6111 308.021 97.3074 284.221 97.3074 284.221C97.3074 284.221 101.74 304.366 103.172 313.78Z" fill="#10B981" stroke="#001550" stroke-width="2" stroke-linecap="round" stroke-linejoin="round"/>
    <path d="M63.2701 122.904L94.6409 128.073V147.452L77.0187 165.12L62.8386 147.884L63.2701 122.904Z" stroke="#001550" stroke-width="2" stroke-linecap="round" stroke-linejoin="round"/>
    <path d="M85.8934 231.873C83.6281 219.098 81.9708 206.481 81.9708 197.42L69.3989 189.019" stroke="#001550" stroke-width="2" stroke-linecap="round" stroke-linejoin="round"/>
    <path d="M97.3283 284.23C97.3283 284.23 92.0329 263.722 87.6592 241.258" stroke="#001550" stroke-width="2" stroke-linecap="round" stroke-linejoin="round"/>
    <path d="M106.673 175.655C106.958 176.789 107.394 177.879 107.968 178.897C111.841 185.776 117.421 186.651 117.421 186.651L118.284 168.56" stroke="#001550" stroke-width="2" stroke-linecap="round" stroke-linejoin="round"/>
    <path d="M107.967 165.11C107.299 166.415 106.82 167.808 106.545 169.247" stroke="#001550" stroke-width="2" stroke-linecap="round" stroke-linejoin="round"/>
    <path d="M123.373 220.141C123.824 222.529 124.285 224.877 124.736 227.118" stroke="#001550" stroke-width="2" stroke-linecap="round" stroke-linejoin="round"/>
    <path d="M117.422 186.65C117.422 186.65 119.638 199.926 122.198 213.841" stroke="#001550" stroke-width="2" stroke-linecap="round" stroke-linejoin="round"/>
    <path d="M76.0861 60.4549L75.89 70.773C75.89 70.773 72.3401 73.6228 71.634 81.0911C70.9279 88.5595 78.0278 95.507 86.0103 95.507C93.9927 95.507 100.926 89.2768 102.171 83.5871C103.417 77.8974 101.808 69.7117 101.808 69.7117L101.279 57.2612C101.279 57.2612 93.4337 62.2335 86.0103 60.8185C78.5868 59.4034 76.4294 56.7207 76.4294 56.7207L76.0861 60.4549Z" fill="white" stroke="#001550" stroke-width="2" stroke-linecap="round" stroke-linejoin="round"/>
    <path d="M70.5063 33.529C70.5063 33.529 70.0257 39.425 71.3006 40.8696C72.5754 42.3141 74.3308 43.4246 74.6544 42.1471C74.978 40.8696 75.1251 34.1677 75.4487 32.733C75.7723 31.2983 70.6632 29.5 70.5063 33.529Z" fill="white" stroke="#001550" stroke-width="2" stroke-linecap="round" stroke-linejoin="round"/>
    <path d="M73.6259 33.4313C73.6259 33.4313 72.1647 45.2235 72.1647 50.9328C72.1647 56.6422 69.9582 58.7943 77.0679 62.5088C84.1776 66.2233 90.336 66.695 95.2491 64.9655C100.162 63.236 102.869 59.0694 103.094 55.6104C103.32 52.1514 103.339 46.7663 103.339 46.7663C103.339 46.7663 110.204 40.6147 108.753 35.9568C107.301 31.2989 104.085 37.1852 104.085 37.1852C105.437 33.1389 106.1 28.8934 106.046 24.6265C105.801 18.2195 100.888 17.4825 98.9167 17.4825C96.9456 17.4825 84.9131 13.7778 79.2744 17.4333C73.6357 21.0889 73.6259 33.4313 73.6259 33.4313Z" fill="white" stroke="#001550" stroke-width="2" stroke-linecap="round" stroke-linejoin="round"/>
    <path d="M104.103 37.1363C105.456 33.09 106.119 28.8445 106.065 24.5777C105.82 18.1706 100.907 17.4336 98.9355 17.4336H98.808C97.7685 19.1828 96.4839 21.8753 96.4839 21.8753L97.4645 22.3666C97.4645 22.3666 96.4839 27.791 98.4452 28.528C100.406 29.265 99.4258 30.9847 99.4258 33.9426C99.4258 36.9004 101.152 39.1115 102.132 39.1115C102.907 39.1115 104.094 37.1461 104.623 36.2912C104.3 36.7629 104.103 37.1363 104.103 37.1363Z" fill="#001550" stroke="#001550" stroke-width="2" stroke-linecap="round" stroke-linejoin="round"/>
    <path d="M84.6878 37.8438C84.6878 37.8438 82.6187 39.7502 83.5699 41.1947C84.5211 42.6392 88.0318 43.4254 88.9928 41.6664C89.3232 41.0751 89.4402 40.3878 89.3241 39.7202C89.208 39.0526 88.8659 38.4455 88.3554 38.001" stroke="#001550" stroke-width="2" stroke-linecap="round" stroke-linejoin="round"/>
    <path d="M82.4616 35.9279C82.4616 36.9106 82.0694 37.6771 81.5791 37.6771C81.0887 37.6771 80.7063 36.891 80.7063 35.9279C80.7063 34.9649 81.0986 34.1689 81.5791 34.1689C82.0596 34.1689 82.4616 34.9551 82.4616 35.9279Z" fill="#001550"/>
    <path d="M93.0513 36.38C93.0513 37.3627 92.659 38.139 92.1785 38.139C91.698 38.139 91.2959 37.3529 91.2959 36.38C91.2959 35.4072 91.6882 34.6309 92.1785 34.6309C92.6688 34.6309 93.0513 35.3973 93.0513 36.38Z" fill="#001550"/>
    <path d="M90.4238 31.6133C90.4238 31.6133 93.7678 29.3728 96.9549 32.8908" stroke="#001550" stroke-width="2" stroke-linecap="round" stroke-linejoin="round"/>
    <path d="M69.4479 19.8999L95.7489 23.6046C95.7489 23.6046 106.801 20.6565 107.791 18.4357C108.782 16.2148 105.085 5.14005 103.113 2.42786C101.142 -0.284332 82.2258 4.39322 76.3223 5.37589C70.4188 6.35857 66.0059 7.82277 66.2805 10.8298C66.555 13.8368 69.4479 19.8999 69.4479 19.8999Z" fill="#FFC966" stroke="#001550" stroke-width="2" stroke-linecap="round" stroke-linejoin="round"/>
    <path d="M69.448 19.8994C69.448 19.8994 54.454 32.2124 54.2088 33.4309C53.9636 34.6494 76.0772 35.1506 82.9613 33.6766C89.8454 32.2025 95.7097 23.5746 95.7097 23.5746L69.448 19.8994Z" fill="#FFC966" stroke="#001550" stroke-width="2" stroke-linecap="round" stroke-linejoin="round"/>
    <path d="M53.0607 183.152L94.2478 158.948C95.6118 159.971 97.2624 160.539 98.966 160.57C100.67 160.601 102.34 160.094 103.74 159.121C105.14 158.149 106.2 156.759 106.768 155.15C107.337 153.54 107.386 151.792 106.908 150.153L98.3076 155.194L96.3464 151.804L104.956 146.753C103.764 145.531 102.218 144.715 100.538 144.423C98.8573 144.13 97.1275 144.376 95.5939 145.124C94.0603 145.872 92.8008 147.085 91.9942 148.591C91.1875 150.097 90.8746 151.82 91.0999 153.514L49.8638 177.717C48.4998 176.694 46.8491 176.127 45.1456 176.096C43.442 176.065 41.7718 176.571 40.3715 177.544C38.9713 178.517 37.9118 179.906 37.3433 181.516C36.7748 183.125 36.7259 184.873 37.2036 186.512L45.5783 181.599L47.5396 184.999L39.1649 189.912C40.3554 191.137 41.901 191.955 43.582 192.249C45.263 192.542 46.9935 192.297 48.5275 191.548C50.0614 190.799 51.3205 189.585 52.1256 188.077C52.9307 186.57 53.2407 184.846 53.0116 183.152H53.0607Z" fill="#FFC966" stroke="#001550" stroke-width="2" stroke-linecap="round" stroke-linejoin="round"/>
    <path d="M88.1398 165.159C88.1398 165.159 93.2097 168.795 93.2097 172.176C93.2097 175.556 87.1689 179.202 83.0698 179.438C78.9707 179.673 78.2352 175.084 78.9609 172.667C79.6866 170.249 88.1398 165.159 88.1398 165.159Z" fill="white" stroke="#001550" stroke-width="2" stroke-linecap="round" stroke-linejoin="round"/>
    <path d="M34.9978 134.903C34.9978 134.903 63.0149 150.626 66.8786 150.154C70.7423 149.682 76.0574 146.282 78.9601 147.206C81.8628 148.13 89.8257 160.521 90.5514 162.703C91.277 164.884 84.7558 172.628 83.3044 173.836C81.8531 175.045 77.2636 179.89 76.3026 180.371C75.3416 180.853 69.0556 186.424 65.9176 186.424C62.7795 186.424 57.4644 183.997 56.9741 182.789C56.4837 181.58 57.6998 179.89 57.6998 179.89L42.9901 173.109C42.9901 173.109 14.9632 157.858 10.1385 150.115C5.31368 142.371 17.3854 128.574 17.3854 128.574" fill="white"/>
    <path d="M34.9978 134.903C34.9978 134.903 63.0149 150.626 66.8786 150.154C70.7423 149.682 76.0574 146.282 78.9601 147.206C81.8628 148.13 89.8257 160.521 90.5514 162.703C91.277 164.884 84.7558 172.628 83.3044 173.836C81.853 175.045 77.2636 179.89 76.3026 180.371C75.3416 180.853 69.0556 186.424 65.9176 186.424C62.7795 186.424 57.4644 183.997 56.9741 182.789C56.4837 181.58 57.6998 179.89 57.6998 179.89L42.9901 173.109C42.9901 173.109 14.9632 157.858 10.1385 150.115C5.31368 142.371 17.3854 128.574 17.3854 128.574" stroke="#001550" stroke-width="2" stroke-linecap="round" stroke-linejoin="round"/>
    <path d="M67.3694 172.903C68.2258 173.017 69.0206 173.411 69.6306 174.024C70.2406 174.637 70.6315 175.435 70.7428 176.294C71.2331 179.438 70.0171 185.01 70.0171 185.01" stroke="#001550" stroke-width="2" stroke-linecap="round" stroke-linejoin="round"/>
    <path d="M72.9187 168.304C72.9187 168.304 76.3019 168.549 76.3019 171.694V180.41" stroke="#001550" stroke-width="2" stroke-linecap="round" stroke-linejoin="round"/>
    <path d="M76.5479 159.598C76.5479 159.598 82.824 164.197 83.3045 166.86C83.5711 169.191 83.5711 171.545 83.3045 173.876" stroke="#001550" stroke-width="2" stroke-linecap="round" stroke-linejoin="round"/>
    <path d="M104.526 143C105.938 143 109.674 133.625 109.674 130.107C109.674 126.589 111.312 100.814 115.058 88.835C117.745 80.2562 120.059 73.6329 121.157 70.5572C118.304 69.83 115.273 69.1814 112.116 68.5918C110.243 74.2815 104.526 92.0385 102.192 103.329C99.387 116.92 100.083 133.095 100.319 134.5C100.554 135.905 103.143 143 104.526 143Z" fill="#10B981" stroke="#001550" stroke-width="2" stroke-linecap="round" stroke-linejoin="round"/>
    <path d="M109.683 114.562L101.655 113.506C100.995 113.419 100.39 113.884 100.304 114.545L99.4622 120.966C99.3756 121.627 99.8401 122.233 100.5 122.32L108.528 123.376C109.188 123.463 109.793 122.998 109.879 122.337L110.721 115.916C110.807 115.255 110.343 114.649 109.683 114.562Z" fill="white" stroke="#001550" stroke-width="2" stroke-linecap="round" stroke-linejoin="round"/>
    <path d="M107.57 116.603L103.419 116.051C102.759 115.963 102.153 116.428 102.065 117.09L101.648 120.236C101.561 120.898 102.025 121.506 102.685 121.593L106.836 122.146C107.497 122.233 108.103 121.768 108.191 121.106L108.607 117.96C108.695 117.298 108.231 116.69 107.57 116.603Z" fill="white" stroke="#001550" stroke-width="2" stroke-linecap="round" stroke-linejoin="round"/>
    <path d="M52.1495 139.482C53.5616 139.482 57.2979 130.107 57.2979 126.589C57.2979 123.071 58.9355 97.2956 62.6816 85.3167C65.0548 77.7304 66.6728 72.8858 67.5848 70.3604C63.927 71.1858 60.4555 71.9425 59.2984 72.0899C58.4354 72.198 57.2194 74.3893 55.8955 77.8091C54.3461 82.6242 52.4535 88.8838 50.9923 94.9863C49.8492 100.014 49.0141 105.107 48.4917 110.237C48.1622 115.384 48.1392 120.546 48.423 125.695C48.423 125.872 48.4426 126.009 48.4819 126.108C48.629 127.533 50.7471 139.482 52.1495 139.482Z" fill="#10B981" stroke="#001550" stroke-width="2" stroke-linecap="round" stroke-linejoin="round"/>
    <path d="M57.4801 107.832L49.4159 106.97C48.7535 106.899 48.1593 107.38 48.0886 108.044L47.4019 114.493C47.3313 115.157 47.811 115.752 48.4734 115.823L56.5375 116.685C57.1999 116.756 57.7942 116.275 57.8649 115.611L58.5515 109.162C58.6222 108.499 58.1425 107.903 57.4801 107.832Z" fill="white" stroke="#001550" stroke-width="2" stroke-linecap="round" stroke-linejoin="round"/>
    <path d="M55.3443 109.265L51.1806 108.82C50.5182 108.749 49.9239 109.23 49.8532 109.893L49.5172 113.049C49.4465 113.713 49.9262 114.309 50.5886 114.38L54.7523 114.825C55.4147 114.896 56.009 114.415 56.0797 113.751L56.4157 110.595C56.4864 109.931 56.0067 109.336 55.3443 109.265Z" fill="white" stroke="#001550" stroke-width="2" stroke-linecap="round" stroke-linejoin="round"/>
    <path d="M83.7998 52.5555C84.6009 52.2002 85.4672 52.0166 86.3433 52.0166C87.2193 52.0166 88.0857 52.2002 88.8867 52.5555" stroke="#001550" stroke-width="2" stroke-miterlimit="10" stroke-linecap="round"/>
</svg>
