<svg width="320" height="284" viewBox="0 0 320 284" fill="none" xmlns="http://www.w3.org/2000/svg">
<path fill-rule="evenodd" clip-rule="evenodd" d="M157.556 115.983H299.532C299.791 115.983 300 115.781 300 115.531V21.0167C300 20.7671 299.791 20.5647 299.532 20.5647H157.556C157.297 20.5647 157.088 20.7671 157.088 21.0167V115.531C157.088 115.781 157.297 115.983 157.556 115.983ZM299.064 115.079H158.024V21.4688H299.064V115.079Z" fill="#001550"/>
<path d="M158.024 115.079H157.524V115.579H158.024V115.079ZM299.064 115.079V115.579H299.564V115.079H299.064ZM158.024 21.4688V20.9688H157.524V21.4688H158.024ZM299.064 21.4688H299.564V20.9688H299.064V21.4688ZM299.532 115.483H157.556V116.483H299.532V115.483ZM299.5 115.531C299.5 115.512 299.509 115.498 299.516 115.491C299.522 115.485 299.529 115.483 299.532 115.483V116.483C300.05 116.483 300.5 116.073 300.5 115.531H299.5ZM299.5 21.0167V115.531H300.5V21.0167H299.5ZM299.532 21.0647C299.529 21.0647 299.522 21.0631 299.516 21.0567C299.509 21.0501 299.5 21.0357 299.5 21.0167H300.5C300.5 20.4746 300.05 20.0647 299.532 20.0647V21.0647ZM157.556 21.0647H299.532V20.0647H157.556V21.0647ZM157.588 21.0167C157.588 21.0357 157.579 21.0501 157.572 21.0567C157.566 21.0631 157.559 21.0647 157.556 21.0647V20.0647C157.038 20.0647 156.588 20.4746 156.588 21.0167H157.588ZM157.588 115.531V21.0167H156.588V115.531H157.588ZM157.556 115.483C157.559 115.483 157.566 115.485 157.572 115.491C157.579 115.498 157.588 115.512 157.588 115.531H156.588C156.588 116.073 157.038 116.483 157.556 116.483V115.483ZM158.024 115.579H299.064V114.579H158.024V115.579ZM157.524 21.4688V115.079H158.524V21.4688H157.524ZM299.064 20.9688H158.024V21.9688H299.064V20.9688ZM299.564 115.079V21.4688H298.564V115.079H299.564Z" fill="#001550"/>
<path fill-rule="evenodd" clip-rule="evenodd" d="M282.064 31.1328C282.064 33.07 283.691 34.6404 285.696 34.6404C287.702 34.6404 289.328 33.07 289.328 31.1328C289.328 29.1956 287.702 27.6252 285.696 27.6252C283.691 27.6252 282.064 29.1956 282.064 31.1328ZM283 31.1327C283 29.6948 284.207 28.5292 285.696 28.5292C287.185 28.5292 288.392 29.6948 288.392 31.1327C288.392 32.5706 287.185 33.7363 285.696 33.7363C284.207 33.7363 283 32.5706 283 31.1327Z" fill="#001550"/>
<path d="M285.696 34.1404C283.95 34.1404 282.564 32.7776 282.564 31.1328H281.564C281.564 33.3624 283.431 35.1404 285.696 35.1404V34.1404ZM288.828 31.1328C288.828 32.7776 287.443 34.1404 285.696 34.1404V35.1404C287.962 35.1404 289.828 33.3624 289.828 31.1328H288.828ZM285.696 28.1252C287.443 28.1252 288.828 29.4881 288.828 31.1328H289.828C289.828 28.9032 287.962 27.1252 285.696 27.1252V28.1252ZM282.564 31.1328C282.564 29.4881 283.95 28.1252 285.696 28.1252V27.1252C283.431 27.1252 281.564 28.9032 281.564 31.1328H282.564ZM285.696 28.0292C283.948 28.0292 282.5 29.4024 282.5 31.1327H283.5C283.5 29.9872 284.467 29.0292 285.696 29.0292V28.0292ZM288.892 31.1327C288.892 29.4024 287.445 28.0292 285.696 28.0292V29.0292C286.926 29.0292 287.892 29.9872 287.892 31.1327H288.892ZM285.696 34.2363C287.445 34.2363 288.892 32.8631 288.892 31.1327H287.892C287.892 32.2782 286.926 33.2363 285.696 33.2363V34.2363ZM282.5 31.1327C282.5 32.8631 283.948 34.2363 285.696 34.2363V33.2363C284.467 33.2363 283.5 32.2782 283.5 31.1327H282.5Z" fill="#001550"/>
<path d="M277.516 31.1327C277.516 32.8203 276.099 34.1883 274.352 34.1883C272.605 34.1883 271.188 32.8203 271.188 31.1327C271.188 29.4452 272.605 28.0771 274.352 28.0771C276.099 28.0771 277.516 29.4452 277.516 31.1327Z" fill="#001550" stroke="#001550"/>
<path d="M266.17 31.1327C266.17 32.8203 264.754 34.1883 263.006 34.1883C261.259 34.1883 259.842 32.8203 259.842 31.1327C259.842 29.4452 261.259 28.0771 263.006 28.0771C264.754 28.0771 266.17 29.4452 266.17 31.1327Z" fill="#001550" stroke="#001550"/>
<rect x="167.506" y="41.8633" width="122.796" height="65.9026" fill="#FFC966"/>
<path fill-rule="evenodd" clip-rule="evenodd" d="M235.242 95.7246H235.382V95.7336C249.103 95.771 260.257 85.0596 260.296 71.8089C260.335 58.5582 249.244 47.786 235.523 47.7485H235.373C221.84 47.9654 210.977 58.6036 210.941 71.6745C210.906 84.7453 221.711 95.4387 235.242 95.7246ZM211.878 71.6656C211.913 59.0905 222.363 48.8556 235.382 48.6436L235.523 48.6346C248.726 48.6695 259.401 59.0349 259.365 71.7864C259.328 84.5378 248.595 94.8466 235.391 94.8116H235.251C222.233 94.5307 211.842 84.2406 211.878 71.6656Z" fill="white"/>
<path d="M230.29 61.1458L230.159 83.1314L246.85 72.1476L230.29 61.1458Z" fill="white"/>
<path d="M187.801 282.548C186.79 265.164 186.097 253.122 186.097 253.122C121.75 268.174 86.9281 244.01 86.9281 244.01C86.9281 244.01 84.1198 261.123 80.5439 282.548H187.801Z" fill="#001550"/>
<path fill-rule="evenodd" clip-rule="evenodd" d="M80.5442 283H187.801V282.991C187.929 282.989 188.051 282.937 188.139 282.846C188.227 282.756 188.274 282.636 188.269 282.512C187.249 265.128 186.556 253.095 186.556 253.095C186.553 252.959 186.484 252.831 186.369 252.752C186.258 252.673 186.118 252.647 185.985 252.679C122.612 267.505 87.5554 243.883 87.1997 243.639C87.0686 243.549 86.898 243.532 86.7504 243.594C86.6029 243.656 86.4974 243.785 86.4696 243.938C86.4696 243.938 83.652 261.051 80.0855 282.476C80.0652 282.605 80.1026 282.736 80.1884 282.837C80.2757 282.94 80.4063 283 80.5442 283ZM187.333 282.096H81.0965C82.4784 273.799 83.7437 266.17 84.7739 259.957C86.0605 252.198 86.9805 246.651 87.3028 244.778C92.2828 247.852 126.815 267.252 185.685 253.692C185.787 255.496 186.148 261.705 186.669 270.671C186.869 274.106 187.092 277.945 187.333 282.096Z" fill="#001550"/>
<g opacity="0.6">
<path fill-rule="evenodd" clip-rule="evenodd" d="M80.5442 282.777H187.801V282.768C187.929 282.766 188.051 282.714 188.139 282.624C188.227 282.535 188.274 282.415 188.269 282.292C187.249 265.006 186.556 253.041 186.556 253.041C186.553 252.906 186.484 252.779 186.369 252.7C186.258 252.622 186.118 252.596 185.985 252.628C122.612 267.37 87.5554 243.881 87.1997 243.639C87.0686 243.549 86.898 243.532 86.7504 243.594C86.6029 243.655 86.4974 243.783 86.4696 243.935C86.4696 243.935 83.652 260.952 80.0855 282.256C80.0652 282.384 80.1026 282.515 80.1884 282.615C80.2757 282.718 80.4063 282.777 80.5442 282.777ZM187.333 281.878H81.0966C82.4784 273.629 83.7437 266.042 84.7739 259.865C86.0606 252.15 86.9805 246.633 87.3029 244.771C92.2828 247.828 126.815 267.118 185.686 253.635C185.787 255.428 186.148 261.602 186.669 270.518C186.869 273.933 187.092 277.751 187.333 281.878Z" fill="#001550"/>
<path d="M187.801 282.777V283.277H188.301V282.777H187.801ZM80.5442 282.777V282.277L80.5436 282.277L80.5442 282.777ZM187.801 282.768L187.792 282.268L187.301 282.277V282.768H187.801ZM188.139 282.624L187.783 282.274L187.783 282.274L188.139 282.624ZM188.269 282.292L188.769 282.271L188.768 282.262L188.269 282.292ZM186.556 253.041L186.056 253.052L186.056 253.061L186.057 253.07L186.556 253.041ZM186.369 252.7L186.081 253.108L186.085 253.111L186.369 252.7ZM185.985 252.628L186.098 253.115L186.103 253.114L185.985 252.628ZM87.1997 243.639L86.9175 244.052L86.9179 244.052L87.1997 243.639ZM86.7504 243.594L86.9421 244.056L86.9435 244.055L86.7504 243.594ZM86.4696 243.935L85.9777 243.846L85.9763 243.854L86.4696 243.935ZM80.0855 282.256L79.5923 282.173L79.5916 282.178L80.0855 282.256ZM80.1884 282.615L80.5693 282.291L80.5685 282.29L80.1884 282.615ZM81.0966 281.878L80.6035 281.796L80.5059 282.378H81.0966V281.878ZM187.333 281.878V282.378H187.863L187.832 281.849L187.333 281.878ZM84.7739 259.865L85.2671 259.947L84.7739 259.865ZM87.3029 244.771L87.5644 244.345L86.9359 243.96L86.8102 244.686L87.3029 244.771ZM185.686 253.635L186.185 253.606L186.151 253.015L185.574 253.147L185.686 253.635ZM186.669 270.518L186.17 270.547L186.669 270.518ZM187.801 282.277H80.5442V283.277H187.801V282.277ZM187.301 282.768V282.777H188.301V282.768H187.301ZM187.783 282.274C187.786 282.271 187.788 282.269 187.79 282.269C187.791 282.268 187.792 282.268 187.792 282.268L187.81 283.268C188.066 283.263 188.314 283.16 188.496 282.975L187.783 282.274ZM187.769 282.312C187.769 282.294 187.776 282.281 187.783 282.274L188.496 282.975C188.679 282.789 188.779 282.535 188.769 282.271L187.769 282.312ZM186.556 253.041C186.057 253.07 186.057 253.07 186.057 253.07C186.057 253.07 186.057 253.071 186.057 253.071C186.057 253.071 186.057 253.072 186.057 253.072C186.057 253.074 186.057 253.076 186.057 253.079C186.058 253.085 186.058 253.094 186.059 253.105C186.06 253.128 186.062 253.163 186.065 253.209C186.07 253.301 186.078 253.438 186.089 253.618C186.109 253.979 186.141 254.514 186.181 255.21C186.262 256.602 186.38 258.637 186.531 261.213C186.831 266.365 187.26 273.678 187.77 282.321L188.768 282.262C188.258 273.619 187.83 266.307 187.529 261.155C187.379 258.579 187.26 256.544 187.179 255.152C187.139 254.456 187.108 253.921 187.087 253.56C187.076 253.38 187.068 253.243 187.063 253.151C187.06 253.105 187.058 253.07 187.057 253.047C187.056 253.036 187.056 253.027 187.056 253.021C187.055 253.018 187.055 253.016 187.055 253.015C187.055 253.014 187.055 253.013 187.055 253.013C187.055 253.013 187.055 253.013 187.055 253.013C187.055 253.012 187.055 253.012 186.556 253.041ZM186.085 253.111C186.072 253.102 186.057 253.082 186.056 253.052L187.056 253.031C187.049 252.729 186.895 252.455 186.652 252.288L186.085 253.111ZM186.103 253.114C186.1 253.115 186.096 253.115 186.093 253.114C186.09 253.113 186.086 253.112 186.081 253.108L186.657 252.291C186.427 252.129 186.138 252.076 185.867 252.142L186.103 253.114ZM86.9179 244.052C87.3554 244.35 122.554 267.897 186.098 253.115L185.872 252.141C122.67 266.843 87.7555 243.413 87.4815 243.226L86.9179 244.052ZM86.9435 244.055C86.9389 244.057 86.9348 244.057 86.9315 244.057C86.9281 244.057 86.9232 244.055 86.9175 244.052L87.4819 243.226C87.2096 243.04 86.86 243.006 86.5573 243.133L86.9435 244.055ZM86.9614 244.025C86.9575 244.047 86.9449 244.054 86.9421 244.056L86.5588 243.132C86.2609 243.256 86.0372 243.52 85.9777 243.846L86.9614 244.025ZM80.5786 282.338C82.3619 271.686 83.958 262.106 85.1082 255.189C85.6833 251.73 86.147 248.937 86.4669 247.009C86.6268 246.045 86.7508 245.297 86.8348 244.79C86.8768 244.536 86.9088 244.343 86.9303 244.213C86.9411 244.149 86.9492 244.099 86.9547 244.067C86.9574 244.05 86.9594 244.038 86.9608 244.03C86.9615 244.025 86.962 244.022 86.9624 244.02C86.9625 244.019 86.9627 244.018 86.9627 244.018C86.9628 244.018 86.9628 244.017 86.9628 244.017C86.9629 244.017 86.9629 244.017 86.4696 243.935C85.9763 243.854 85.9763 243.854 85.9763 243.854C85.9762 243.854 85.9762 243.854 85.9762 243.855C85.9761 243.855 85.976 243.856 85.9758 243.857C85.9754 243.859 85.9749 243.862 85.9742 243.866C85.9729 243.874 85.9708 243.887 85.9681 243.903C85.9627 243.936 85.9545 243.985 85.9438 244.05C85.9223 244.18 85.8903 244.373 85.8483 244.626C85.7643 245.133 85.6403 245.881 85.4803 246.845C85.1605 248.773 84.6968 251.566 84.1217 255.025C82.9715 261.941 81.3755 271.521 79.5923 282.173L80.5786 282.338ZM80.5685 282.29C80.576 282.299 80.5823 282.315 80.5794 282.334L79.5916 282.178C79.5481 282.453 79.6292 282.731 79.8083 282.94L80.5685 282.29ZM80.5436 282.277C80.5467 282.277 80.5503 282.278 80.5543 282.28C80.5584 282.281 80.5639 282.285 80.5693 282.291L79.8076 282.939C79.9926 283.157 80.2641 283.277 80.5447 283.277L80.5436 282.277ZM81.0966 282.378H187.333V281.378H81.0966V282.378ZM84.2807 259.783C83.2505 265.96 81.9853 273.546 80.6035 281.796L81.5897 281.961C82.9716 273.711 84.2369 266.124 85.2671 259.947L84.2807 259.783ZM86.8102 244.686C86.4875 246.55 85.5672 252.069 84.2807 259.783L85.2671 259.947C86.554 252.231 87.4736 246.717 87.7955 244.857L86.8102 244.686ZM185.574 253.147C126.862 266.595 92.4627 247.351 87.5644 244.345L87.0413 245.198C92.103 248.304 126.769 267.642 185.797 254.122L185.574 253.147ZM187.168 270.489C186.647 261.573 186.286 255.4 186.185 253.606L185.186 253.663C185.288 255.457 185.649 261.632 186.17 270.547L187.168 270.489ZM187.832 281.849C187.591 277.721 187.368 273.904 187.168 270.489L186.17 270.547C186.37 273.962 186.593 277.78 186.834 281.907L187.832 281.849Z" fill="#001550"/>
</g>
<path d="M3.49481 112.512C3.4012 115.323 1.51966 117.855 1.45414 120.648C1.39797 123.27 2.93315 125.656 3.45736 128.224C4.01901 130.99 3.45736 133.829 3.82244 136.604C4.07978 138.394 4.58675 140.143 5.32954 141.802C5.86953 143.11 6.76145 144.256 7.91313 145.12C9.78531 146.458 12.4532 146.403 14.7091 146.403C17.0419 146.531 19.3511 145.894 21.2617 144.595C22.6923 143.346 23.8507 141.834 24.6691 140.148C25.5584 138.844 26.1077 137.352 26.2698 135.799C26.2567 134.919 26.066 134.05 25.7081 133.241C23.836 128.802 19.1555 125.638 18.3692 120.919C18.0322 118.903 18.4628 116.851 18.65 114.826C18.8373 112.801 18.7156 110.586 17.4425 108.95C15.3363 106.238 10.4031 105.669 7.14554 105.678C2.39022 105.687 3.6165 109.158 3.49481 112.512Z" fill="white" stroke="#001550" stroke-width="2"/>
<path fill-rule="evenodd" clip-rule="evenodd" d="M7.68855 145.499C9.542 146.801 11.9665 146.864 14.1569 146.864V146.828H14.7841C17.2247 146.962 19.6393 146.286 21.6269 144.912C23.1007 143.617 24.2993 142.057 25.1559 140.319C26.078 138.964 26.6465 137.413 26.8128 135.799C26.7961 134.866 26.5927 133.945 26.2137 133.087C25.3091 131.159 24.1376 129.359 22.7315 127.735C20.981 125.53 19.3335 123.441 18.9029 120.865C18.7298 119.375 18.7707 117.869 19.0246 116.39C19.0901 115.893 19.1462 115.387 19.1931 114.88C19.4458 112.123 19.0339 110.161 17.8919 108.697C15.5423 105.669 10.216 105.244 7.20179 105.244C6.02881 105.144 4.86473 105.513 3.98165 106.265C2.91811 107.31 2.97961 108.939 3.0449 110.668L3.04556 110.686V112.494C2.92772 113.835 2.5929 115.149 2.05331 116.39C0.629432 119.251 0.650151 122.586 2.10948 125.43C2.49504 126.371 2.80793 127.338 3.04556 128.323C3.28276 129.791 3.36119 131.278 3.27959 132.762C3.21626 134.068 3.26008 135.377 3.41064 136.676C3.66972 138.507 4.1862 140.296 4.94582 141.992C5.51943 143.376 6.46647 144.588 7.68855 145.499ZM2.97104 116.679C3.53809 115.35 3.8886 113.945 4.01009 112.512L3.98201 112.548C4.01957 112.119 4.00689 111.69 3.99437 111.266C3.98817 111.056 3.98201 110.847 3.98201 110.641C3.91648 109.031 3.86968 107.648 4.62791 106.88C5.34117 106.316 6.25712 106.05 7.17406 106.139C9.43003 106.166 14.9342 106.419 17.1153 109.23C18.1076 110.505 18.4633 112.268 18.2292 114.79C18.2012 115.163 18.1573 115.536 18.1134 115.909C18.0988 116.033 18.0842 116.157 18.0701 116.282C17.8049 117.842 17.7639 119.43 17.9484 121.001C18.4258 123.713 20.2231 126.036 21.9549 128.233C23.3123 129.792 24.4429 131.522 25.3154 133.377C25.652 134.131 25.8332 134.942 25.849 135.763C25.6827 137.24 25.1531 138.656 24.3044 139.895C23.5126 141.529 22.3962 142.997 21.0188 144.216C19.1968 145.465 16.9868 146.075 14.7564 145.942H14.4849C12.36 145.942 9.94488 145.942 8.2412 144.749C7.15217 143.934 6.31128 142.85 5.80738 141.612C5.0826 139.994 4.58822 138.287 4.33772 136.541C4.19434 135.286 4.15365 134.023 4.21603 132.762C4.30425 131.215 4.21951 129.663 3.96329 128.133C3.72942 127.103 3.41653 126.091 3.0272 125.105C1.63351 122.462 1.61269 119.339 2.97104 116.679Z" fill="#001550"/>
<path d="M9.57031 145.906L12.6968 169.872C12.6968 169.872 30.3702 165.677 35.5842 158.942L25.5587 137.644" fill="white"/>
<path d="M9.57031 145.906L12.6968 169.872C12.6968 169.872 30.3702 165.677 35.5842 158.942L25.5587 137.644" stroke="#001550"/>
<path d="M12.6967 170.324C12.5998 170.323 12.5053 170.295 12.4252 170.242C12.316 170.169 12.2446 170.054 12.2286 169.926L9.10209 145.96C9.06889 145.713 9.24891 145.487 9.50461 145.454C9.62936 145.436 9.75625 145.469 9.85543 145.544C9.9546 145.619 10.0173 145.731 10.0288 145.852L13.0898 169.302C15.9823 168.561 30.2951 164.655 35.041 158.879L25.1279 137.833C25.027 137.603 25.1297 137.337 25.3619 137.228C25.5972 137.126 25.8734 137.227 25.9797 137.454L36.0146 158.752C36.0812 158.905 36.0599 159.08 35.9584 159.213C30.707 165.993 13.4923 170.134 12.7996 170.306L12.6967 170.324Z" fill="#001550" stroke="#001550"/>
<path d="M41.7998 160.597L47.4164 172.71L105.21 139.895L116.191 125.747L123.754 143.511L108.309 178.442C96.2544 186.589 83.5778 193.842 70.3879 200.138C64.1006 203.232 57.6482 206.002 51.0577 208.437C44.7579 210.715 38.1959 212.27 31.6995 213.942C31.2586 214.1 30.7737 214.1 30.3328 213.942C30.0426 213.798 29.9209 213.454 29.6588 213.246C24.9035 209.549 12.9777 176.589 11.7515 166.093L41.7998 160.597Z" fill="#10B981" stroke="#001550" stroke-width="2"/>
<path d="M197.265 112.62L223.999 149.332C230.577 158.365 231.171 170.25 225.525 179.852C215.228 197.39 198.762 224.149 190.179 231.887C190.179 231.887 194.185 239.806 193.577 242.735C192.968 245.664 187.314 246.261 187.314 246.261L196.01 260.671C196.01 260.671 148.841 300.945 82.4912 248.629L96.2985 201.892L88.9876 196.847L118.315 102.242L148.457 99.1145L157.621 122.547L167.516 111.246L177.448 122.547L197.265 112.62Z" fill="#10B981" stroke="#001550" stroke-width="2"/>
<path d="M195.262 167.187C195.061 167.188 194.883 167.064 194.822 166.879C194.74 166.642 194.869 166.386 195.112 166.301C203.237 163.589 210.791 162.405 221.182 162.079C221.44 162.079 221.654 162.273 221.669 162.522C221.671 162.642 221.624 162.758 221.538 162.844C221.452 162.931 221.334 162.981 221.21 162.983C210.913 163.309 203.424 164.52 195.412 167.16C195.364 167.178 195.313 167.187 195.262 167.187Z" fill="#001550" stroke="#001550"/>
<path d="M170.67 254.415C170.493 254.411 170.333 254.312 170.254 254.158C170.175 254.005 170.192 253.822 170.296 253.683C174.985 247.74 181.186 243.068 188.297 240.123C188.532 240.037 188.796 240.145 188.894 240.369C188.992 240.593 188.89 240.851 188.662 240.954C181.704 243.826 175.635 248.389 171.045 254.198C170.964 254.325 170.824 254.405 170.67 254.415Z" fill="#001550" stroke="#001550"/>
<path d="M42.848 191.424C42.7859 191.432 42.7229 191.432 42.6608 191.424C42.4264 191.321 42.3156 191.059 42.408 190.827C44.6446 185.671 46.1132 180.235 46.7702 174.681C46.7986 174.432 47.0312 174.251 47.2897 174.279C47.5482 174.306 47.7347 174.531 47.7063 174.781C47.0335 180.42 45.543 185.941 43.2786 191.179C43.1941 191.333 43.0277 191.427 42.848 191.424Z" fill="#001550" stroke="#001550"/>
<path d="M53.1448 186.198H53.0886C52.8333 186.17 52.6494 185.948 52.6768 185.701C53.0918 181.982 52.1228 178.243 49.9434 175.151C49.7976 174.945 49.8474 174.665 50.0557 174.518C50.1585 174.449 50.2857 174.423 50.4088 174.445C50.532 174.467 50.6408 174.536 50.711 174.636C53.0275 177.917 54.0564 181.888 53.6129 185.836C53.5644 186.048 53.3695 186.199 53.1448 186.198Z" fill="#001550" stroke="#001550"/>
<path d="M107.897 162.983C107.844 162.992 107.79 162.992 107.738 162.983C107.622 162.944 107.527 162.862 107.474 162.755C107.421 162.648 107.415 162.525 107.457 162.414C108.692 158.987 116.818 140.048 119.766 133.277C119.827 133.122 119.971 133.012 120.141 132.99C120.311 132.967 120.48 133.036 120.581 133.17C120.683 133.303 120.7 133.48 120.627 133.63C117.716 140.211 109.544 159.376 108.337 162.712C108.261 162.88 108.087 162.987 107.897 162.983Z" fill="#001550" stroke="#001550"/>
<path d="M167.516 213.273C167.302 213.276 167.113 213.138 167.058 212.939L163.931 201.639L114.889 173.614C114.672 173.485 114.602 173.211 114.733 172.999C114.863 172.787 115.145 172.715 115.367 172.837L164.568 200.943C164.673 201.002 164.751 201.1 164.783 201.214L167.048 209.35V199.686C167.048 199.581 167.084 199.479 167.151 199.397L188.11 174.437C188.277 174.245 188.572 174.217 188.775 174.374C188.872 174.448 188.934 174.557 188.946 174.677C188.958 174.796 188.92 174.915 188.84 175.006L167.984 199.84V212.821C167.982 213.05 167.807 213.242 167.572 213.273H167.516Z" fill="#001550" stroke="#001550"/>
<path d="M169.819 244.462C169.738 244.462 169.657 244.444 169.585 244.408L112.708 213.671C112.599 213.614 112.518 213.517 112.482 213.401C112.447 213.286 112.461 213.162 112.521 213.056C112.652 212.838 112.939 212.762 113.167 212.885L169.791 243.449L183.186 234.247C183.397 234.104 183.686 234.148 183.841 234.346C183.914 234.444 183.943 234.566 183.922 234.685C183.901 234.804 183.831 234.91 183.729 234.979L170.09 244.353C170.014 244.416 169.919 244.454 169.819 244.462Z" fill="#001550" stroke="#001550"/>
<ellipse cx="67.5274" cy="104.88" rx="51.5875" ry="50.88" fill="#001550"/>
<ellipse cx="69.4231" cy="103.562" rx="51.3631" ry="49.6032" fill="#FFC966" stroke="#001550"/>
<path fill-rule="evenodd" clip-rule="evenodd" d="M17.583 103.535C17.5727 131.176 40.7642 153.594 69.386 153.609C98.0097 153.594 121.214 131.196 121.245 103.553C121.245 75.9121 98.0453 53.503 69.4235 53.498C40.8016 53.4931 17.5933 75.894 17.583 103.535ZM18.5193 103.583C18.5072 76.4403 41.2801 54.426 69.3862 54.4111C97.4893 54.426 120.273 76.4131 120.309 103.553C120.314 130.696 97.536 152.705 69.4299 152.714C41.3238 152.722 18.5314 130.727 18.5193 103.583Z" fill="#001550"/>
<path d="M69.386 153.609L69.3858 154.109H69.3863L69.386 153.609ZM17.583 103.535L17.083 103.535L17.583 103.535ZM121.245 103.553L121.745 103.554V103.553H121.245ZM69.4235 53.498L69.4235 52.998L69.4235 53.498ZM69.3862 54.4111L69.3865 53.9111L69.386 53.9111L69.3862 54.4111ZM18.5193 103.583L18.0193 103.584L18.5193 103.583ZM120.309 103.553L120.809 103.553V103.553L120.309 103.553ZM69.4299 152.714L69.4301 153.214L69.4299 152.714ZM69.3863 153.109C41.024 153.094 18.0728 130.884 18.083 103.535L17.083 103.535C17.0726 131.469 40.5044 154.093 69.3858 154.109L69.3863 153.109ZM120.745 103.553C120.715 130.904 97.7501 153.094 69.3858 153.109L69.3863 154.109C98.2692 154.093 121.714 131.489 121.745 103.554L120.745 103.553ZM69.4234 53.998C97.7857 54.003 120.745 76.2045 120.745 103.553H121.745C121.745 75.6197 98.305 53.0031 69.4235 52.998L69.4234 53.998ZM18.083 103.535C18.0932 76.1866 41.061 53.9931 69.4234 53.998L69.4235 52.998C40.5421 52.993 17.0935 75.6014 17.083 103.535L18.083 103.535ZM69.386 53.9111C41.0203 53.9262 18.0071 76.1481 18.0193 103.584L19.0193 103.583C19.0074 76.7324 41.54 54.9259 69.3865 54.9111L69.386 53.9111ZM120.809 103.553C120.773 76.1204 97.7488 53.9261 69.3865 53.9111L69.386 54.9111C97.2297 54.9259 119.774 76.7058 119.809 103.554L120.809 103.553ZM69.4301 153.214C97.7957 153.205 120.815 130.989 120.809 103.553L119.809 103.553C119.814 130.404 97.2763 152.205 69.4298 152.214L69.4301 153.214ZM18.0193 103.584C18.0315 131.019 41.0644 153.222 69.4301 153.214L69.4298 152.214C41.5832 152.222 19.0312 130.434 19.0193 103.583L18.0193 103.584Z" fill="#001550"/>
<path d="M49.1011 84.5601L65.052 127.971L97.2534 93.5279L49.1011 84.5601Z" fill="white"/>
<path d="M107.026 170.333C107.026 170.333 97.1503 190.14 89.7178 192.3L78.5971 178.586L69.2362 167.033L66.8492 164.186L66.793 164.095L56.7863 146.657L55.663 144.695L55.326 143.267L54.5303 139.904L54.4741 139.66L54.6145 139.253L56.4867 134.217L59.8285 130.511V130.375L61.0361 124.427L61.1671 123.785L64.3498 121.887C64.3498 121.887 64.3498 121.887 64.3498 121.842C64.1252 121.263 61.7756 114.799 63.6103 111.039C63.9928 110.196 64.6503 109.497 65.4825 109.05C65.8508 108.847 66.2439 108.689 66.6526 108.58C66.7317 108.428 66.8326 108.288 66.9521 108.164C67.2423 107.847 67.7478 107.603 68.3376 108.408C68.6117 108.808 68.826 109.243 68.9741 109.701C69.0771 109.945 69.18 110.234 69.283 110.55C69.283 110.695 69.3673 110.84 69.4141 110.993C69.4609 111.147 69.517 111.319 69.5732 111.491C69.6855 111.852 69.8072 112.214 69.9289 112.575C71.6513 117.746 74.8714 126.533 75.1148 127.166L82.8937 129.643L83.8298 129.932L84.2885 131.144L87.0031 138.322L87.181 138.792L87.2652 139.37L88.9876 153.129L89.0531 153.193L103.74 167.196L107.026 170.333Z" fill="white" stroke="#001550"/>
<path d="M107.896 171.436C107.777 171.435 107.663 171.389 107.578 171.309C94.4168 159.43 88.6786 153.509 88.6225 153.455C88.554 153.382 88.5114 153.29 88.5008 153.193L87.6209 144.487C87.2585 141.298 86.5815 138.15 85.5989 135.085C85.1265 133.244 84.1575 131.557 82.7907 130.194C81.2648 128.811 79.3365 128.468 77.2865 128.097C76.5282 127.961 75.7419 127.826 74.9743 127.627C74.8541 127.597 74.7515 127.522 74.6897 127.418C74.628 127.314 74.6125 127.191 74.6467 127.076C74.6775 126.959 74.7551 126.859 74.8623 126.798C74.9694 126.737 75.0973 126.72 75.2177 126.75C75.9479 126.94 76.7155 127.076 77.4643 127.211C79.5518 127.582 81.7048 127.971 83.4366 129.543C84.9144 131.014 85.9638 132.835 86.4788 134.823C87.4823 137.949 88.175 141.161 88.5476 144.415L89.4181 152.966C90.2606 153.825 96.0644 159.692 108.215 170.667C108.358 170.793 108.407 170.992 108.336 171.166C108.265 171.341 108.09 171.455 107.896 171.454V171.436Z" fill="#001550" stroke="#001550"/>
<path d="M78.1853 135.203C77.9972 135.199 77.8285 135.09 77.7547 134.922C76.7625 132.581 75.7515 130.104 74.675 127.347C74.2912 126.398 73.9262 125.43 73.5517 124.472C72.0259 120.503 70.7435 116.499 69.4797 112.72C69.358 112.367 69.2364 111.997 69.124 111.635L69.0772 111.508C69.0772 111.373 68.993 111.246 68.9649 111.12L68.4781 109.673C68.4781 109.601 68.4313 109.538 68.4126 109.465C68.3291 109.201 68.1923 108.955 68.0101 108.742L67.9633 108.688C67.7261 108.484 67.3824 108.444 67.1021 108.588C66.9106 108.65 66.7282 108.735 66.5591 108.842C66.2892 108.999 66.0353 109.18 65.8009 109.384C65.1885 109.914 64.7003 110.565 64.3687 111.291L64.2751 111.49C63.2548 113.895 63.8164 116.824 64.2751 118.967C64.453 119.871 64.6402 120.775 64.8461 121.751C64.8417 121.766 64.8417 121.781 64.8461 121.796C65.7822 125.982 66.971 130.032 68.0194 133.44C68.062 133.665 67.9228 133.886 67.6956 133.953C67.4685 134.02 67.2253 133.912 67.1302 133.702C66.0724 130.276 64.8648 126.208 63.9287 121.95C63.7134 121.046 63.5169 120.078 63.339 119.138C62.9084 116.887 62.3093 113.805 63.4326 111.156L63.5356 110.93C63.9255 110.088 64.493 109.333 65.2018 108.715C65.4915 108.472 65.805 108.257 66.1379 108.073C66.3732 107.934 66.6245 107.822 66.8868 107.739C67.1003 107.665 67.3248 107.626 67.5514 107.621C67.9988 107.617 68.4283 107.79 68.7402 108.1L68.7964 108.173C69.0555 108.481 69.2524 108.834 69.3768 109.212L69.9291 110.876C69.9291 111.011 70.0039 111.129 70.0414 111.246V111.373C70.1537 111.734 70.2754 112.096 70.3971 112.449C71.6234 116.209 72.9339 120.205 74.4597 124.147C74.8248 125.114 75.1992 126.072 75.5737 127.021C76.6502 129.733 77.6518 132.237 78.644 134.57C78.6901 134.681 78.6883 134.806 78.6392 134.916C78.59 135.026 78.4974 135.113 78.3819 135.157C78.3218 135.189 78.2539 135.205 78.1853 135.203Z" fill="#001550" stroke="#001550"/>
<path d="M60.961 136.848C60.754 136.845 60.5726 136.714 60.5117 136.523C59.8885 134.522 59.5053 132.46 59.3697 130.375C59.179 128.278 59.5972 126.171 60.5772 124.291L60.6521 124.156C61.4118 123.084 62.5616 122.329 63.8723 122.04C64.1307 121.973 64.3969 122.121 64.4667 122.37C64.5365 122.62 64.3835 122.877 64.125 122.944C63.0399 123.175 62.0842 123.791 61.4478 124.671L61.3823 124.788C60.4986 126.517 60.1261 128.447 60.3058 130.366C60.4378 132.381 60.8116 134.374 61.4197 136.306C61.4859 136.547 61.3406 136.796 61.0921 136.866L60.961 136.848Z" fill="#001550" stroke="#001550"/>
<path d="M88.988 191.134C88.8474 191.134 88.7138 191.075 88.6229 190.971L66.4844 164.466L66.4283 164.384C62.7218 158.725 59.3588 152.864 56.356 146.828C55.7382 145.535 55.2514 144.415 54.877 143.402C54.5276 142.517 54.2368 141.611 54.0064 140.69C54.0018 140.648 54.0018 140.605 54.0064 140.563C54.0064 140.319 54.0064 140.075 54.0626 139.822C54.1187 139.569 54.0626 139.379 54.1562 139.153C54.4501 137.331 55.0844 135.576 56.0284 133.973C56.8731 132.444 58.071 131.123 59.5293 130.113C59.7465 129.979 60.0354 130.039 60.1752 130.249C60.2447 130.349 60.2689 130.472 60.2424 130.589C60.2159 130.707 60.141 130.809 60.0348 130.872C58.7095 131.812 57.6187 133.026 56.8428 134.425C55.9415 135.933 55.3354 137.587 55.0548 139.307C55.0142 139.513 54.986 139.721 54.9706 139.931C54.9387 140.134 54.92 140.339 54.9144 140.545C55.1338 141.411 55.4089 142.262 55.7382 143.095C56.1126 144.08 56.5807 145.183 57.1891 146.449C60.1675 152.421 63.496 158.226 67.1584 163.833C67.1841 163.863 67.2061 163.897 67.224 163.932L89.3343 190.402C89.4958 190.594 89.4666 190.877 89.2688 191.035C89.189 191.096 89.0903 191.131 88.988 191.134Z" fill="#001550" stroke="#001550"/>
<path d="M111.51 168.362C110.303 171.625 108.701 174.738 106.736 177.637C99.659 188.422 89.1654 199.876 89.1654 199.876C82.4724 193.973 73.1958 180.295 73.1958 180.295C77.792 177.583 85.1496 169.691 89.2871 164.638C93.2561 159.783 96.1299 155.652 96.1299 155.652L111.51 168.362Z" fill="white" stroke="#001550" stroke-width="2"/>
<path fill-rule="evenodd" clip-rule="evenodd" d="M88.8284 200.21C88.9159 200.286 89.0292 200.328 89.1467 200.328L89.1654 200.31C89.2913 200.303 89.4091 200.247 89.493 200.156C89.596 200.048 100.099 188.558 107.11 177.863C109.092 174.94 110.713 171.803 111.94 168.516C112 168.338 111.945 168.143 111.8 168.019L96.4107 155.308C96.309 155.227 96.1764 155.191 96.0456 155.209C95.9122 155.227 95.7932 155.3 95.718 155.408C95.7162 155.41 95.7024 155.429 95.6773 155.465C95.3115 155.988 92.5295 159.959 88.9033 164.357C85.0279 169.058 77.6047 177.14 72.9243 179.906C72.8195 179.973 72.7457 180.077 72.7183 180.196C72.6882 180.314 72.712 180.439 72.7839 180.539C72.7967 180.553 72.8969 180.697 73.0736 180.95C74.702 183.281 82.8241 194.909 88.8284 200.21ZM89.1096 199.234C83.1842 193.855 75.3492 182.646 73.8233 180.44V180.431C78.5974 177.393 85.8333 169.565 89.6526 164.927C92.854 161.004 95.3627 157.514 96.2052 156.339L110.949 168.516C109.76 171.637 108.209 174.619 106.324 177.402C100.034 186.994 90.9163 197.236 89.1096 199.234Z" fill="#001550"/>
<path d="M3.43901 109.574C3.33604 108.218 3.30795 106.609 3.776 106.058C4.27961 105.535 4.88788 105.117 5.56392 104.828C11.9761 101.601 18.3977 98.3734 25.0252 95.5529C25.6055 95.3088 26.3357 95.0737 26.8505 95.4444C27.242 95.8266 27.3981 96.3785 27.2624 96.8998C26.9413 98.539 26.1236 100.049 24.9128 101.239C23.2733 103.032 21.3218 104.534 19.1465 105.678C18.4025 106.029 17.6833 106.428 16.9935 106.871C16.1174 107.55 15.3032 108.3 14.5597 109.113C13.9696 109.688 13.3444 110.228 12.6875 110.731" fill="white"/>
<path d="M3.43901 109.574C3.33604 108.218 3.30795 106.609 3.776 106.058C4.27961 105.535 4.88788 105.117 5.56392 104.828C11.9761 101.601 18.3977 98.3734 25.0252 95.5529C25.6055 95.3088 26.3357 95.0737 26.8505 95.4444C27.242 95.8266 27.3981 96.3785 27.2624 96.8998C26.9413 98.539 26.1236 100.049 24.9128 101.239C23.2733 103.032 21.3218 104.534 19.1465 105.678C18.4025 106.029 17.6833 106.428 16.9935 106.871C16.1174 107.55 15.3032 108.3 14.5597 109.113C13.9696 109.688 13.3444 110.228 12.6875 110.731" stroke="#001550" stroke-width="1.5"/>
<path d="M12.6965 111.183C12.5531 111.187 12.4168 111.123 12.3314 111.011C12.2524 110.919 12.2158 110.799 12.2299 110.68C12.244 110.56 12.3077 110.452 12.4063 110.379C13.0444 109.887 13.6508 109.359 14.2223 108.796C14.422 108.604 14.6092 108.414 14.784 108.227C15.3751 107.597 16.0236 107.019 16.7217 106.5C17.2554 106.145 17.8154 105.828 18.3972 105.551L18.9215 105.28C21.0444 104.162 22.9459 102.689 24.538 100.932C25.6965 99.8195 26.4796 98.3951 26.7846 96.8454C26.7846 96.6104 26.8501 96.0318 26.5412 95.8058C26.2323 95.5798 25.6051 95.8058 25.1932 95.9685C18.5845 98.78 12.088 102.062 5.76008 105.235C5.14017 105.488 4.5821 105.863 4.12193 106.338C3.96279 106.527 3.71941 107.242 3.88791 109.547C3.906 109.796 3.71112 110.013 3.45263 110.03C3.19413 110.048 2.96991 109.86 2.95182 109.61C2.80205 107.504 2.95182 106.319 3.39178 105.768C3.93724 105.2 4.59646 104.745 5.32948 104.43C11.6481 101.248 18.1726 97.9664 24.8094 95.1459C25.5072 94.7194 26.3905 94.6951 27.1122 95.0826C27.6466 95.5565 27.8754 96.2715 27.7113 96.9539C27.3891 98.6888 26.5271 100.288 25.24 101.537C23.5648 103.363 21.5722 104.893 19.3521 106.057L18.8185 106.329C17.5216 106.919 16.3721 107.773 15.4486 108.833C15.2614 109.032 15.0648 109.221 14.8776 109.411C14.2869 109.997 13.6618 110.549 13.0054 111.066C12.9203 111.139 12.8107 111.181 12.6965 111.183Z" fill="#001550"/>
<path d="M9.0083 109.637C9.46617 109.416 9.94205 109.232 10.4312 109.086C15.1116 107.721 20.2133 108.046 24.9405 106.763C27.3275 106.112 29.6209 105.045 32.1484 105.063C32.8972 105.063 33.9176 105.361 33.8333 106.265C33.7491 107.169 33.1032 107.531 32.607 108.073C32.0614 108.712 31.4736 109.316 30.8472 109.881C29.5413 110.989 28.0506 111.876 26.4382 112.503C24.0681 113.294 21.6222 113.854 19.1368 114.175C16.7404 114.618 14.4563 115.333 12.1067 115.983C11.5264 116.146 10.9366 116.291 10.3375 116.408" fill="white"/>
<path d="M10.3378 116.878C10.1166 116.875 9.9268 116.725 9.87912 116.517C9.85426 116.399 9.87877 116.277 9.94724 116.177C10.0157 116.077 10.1225 116.007 10.2442 115.983C10.7684 115.884 11.3207 115.748 11.976 115.568L13.3988 115.17C15.2449 114.605 17.1195 114.132 19.0153 113.751L20.616 113.47C22.5341 113.214 24.4175 112.757 26.2325 112.105C27.7956 111.496 29.2416 110.637 30.5105 109.565C30.9591 109.166 31.3783 108.737 31.7648 108.281L32.2329 107.766C32.3265 107.658 32.4388 107.549 32.5418 107.45C32.9423 107.138 33.2226 106.705 33.3374 106.22C33.3522 106.087 33.3118 105.954 33.2251 105.849C32.9093 105.609 32.5125 105.49 32.1112 105.515C30.3738 105.599 28.6627 105.959 27.0469 106.582C26.3823 106.799 25.7083 107.016 25.0344 107.196C22.688 107.768 20.2954 108.146 17.8827 108.326C15.403 108.501 12.9459 108.901 10.5437 109.52C10.0761 109.655 9.62181 109.831 9.18641 110.044C9.03609 110.131 8.8478 110.13 8.69865 110.041C8.5495 109.952 8.46453 109.79 8.47855 109.621C8.49257 109.452 8.60321 109.305 8.76517 109.24C9.24941 109.003 9.75359 108.806 10.2723 108.652C12.7234 108.018 15.2305 107.606 17.761 107.422C20.1226 107.249 22.4649 106.883 24.7629 106.329C25.4275 106.148 26.0734 105.94 26.7287 105.723C28.4446 105.071 30.2598 104.695 32.1018 104.611C32.7639 104.584 33.4101 104.812 33.8991 105.244C34.1676 105.531 34.2939 105.917 34.2454 106.301C34.1358 107.007 33.763 107.65 33.197 108.11L32.9068 108.399L32.4575 108.905C32.0404 109.392 31.5901 109.851 31.1096 110.279C29.7651 111.424 28.2302 112.341 26.5695 112.991C24.6894 113.66 22.7406 114.133 20.7564 114.401L19.1745 114.682C17.3023 115.034 15.4301 115.586 13.6141 116.083L12.1912 116.481C11.5173 116.671 10.9275 116.806 10.3846 116.915L10.3378 116.878Z" fill="#001550" stroke="#001550"/>
<path d="M8.10986 115.993C9.06304 115.249 10.176 114.721 11.3674 114.447C13.6247 114.139 15.9155 114.139 18.1728 114.447C22.1371 114.753 26.1216 114.719 30.0798 114.347C30.7168 114.229 31.3711 114.229 32.0081 114.347C35.687 115.351 30.7257 118.804 29.3403 119.383C23.8829 121.67 17.4239 121.778 11.5547 121.643" fill="white"/>
<path d="M14.4847 122.203C13.5486 122.203 12.5282 122.203 11.5641 122.203C11.4399 122.201 11.3218 122.151 11.2358 122.064C11.1498 121.978 11.1029 121.862 11.1054 121.742C11.1154 121.495 11.3263 121.299 11.5828 121.299C17.6018 121.444 23.9017 121.299 29.1531 119.075C30.2671 118.614 32.8975 116.662 32.8975 115.613C32.8975 115.306 32.5511 115.061 31.9146 114.89C31.3452 114.789 30.7616 114.789 30.1922 114.89C26.1938 115.269 22.1685 115.305 18.1635 114.998L17.2274 114.926C15.3087 114.663 13.3611 114.663 11.4424 114.926C10.3244 115.19 9.27975 115.687 8.38137 116.381C8.17702 116.533 7.88405 116.497 7.72611 116.3C7.56681 116.105 7.60025 115.822 7.801 115.667C8.81231 114.883 9.99252 114.327 11.2552 114.04C13.2612 113.746 15.3002 113.728 17.3116 113.986L18.1916 114.058C22.1279 114.359 26.084 114.326 30.0143 113.959C30.714 113.848 31.4293 113.87 32.1205 114.022C33.4404 114.383 33.7587 115.052 33.7868 115.55C33.9178 117.358 30.2858 119.581 29.4995 119.907C24.9595 121.814 19.6893 122.203 14.4847 122.203Z" fill="#001550" stroke="#001550"/>
<path d="M14.9526 122.004C14.9526 122.004 22.7409 131.948 17.0682 141.431L14.9526 122.004Z" fill="white"/>
<path d="M17.0684 141.883C16.987 141.884 16.9067 141.865 16.8343 141.829C16.6128 141.7 16.5346 141.426 16.6565 141.205C22.1139 132.066 14.6533 122.375 14.5784 122.284C14.4764 122.155 14.4535 121.983 14.5183 121.833C14.5832 121.683 14.7259 121.578 14.8928 121.558C15.0596 121.537 15.2252 121.604 15.3272 121.733C15.4021 121.832 23.2372 131.984 17.4709 141.621C17.3978 141.774 17.2426 141.875 17.0684 141.883Z" fill="#001550" stroke="#001550"/>
<path d="M44.3175 164.167C44.3175 164.167 41.2377 169.004 31.4743 172.764C25.4514 174.974 19.1241 176.314 12.6965 176.742L9.83203 157.306C9.83203 157.306 16.1038 158.4 25.2307 154.657C28.6537 153.235 31.8953 151.436 34.8911 149.296L44.3175 164.167Z" fill="white" stroke="#001550" stroke-width="2"/>
<path fill-rule="evenodd" clip-rule="evenodd" d="M12.2378 176.805C12.2664 177.029 12.4636 177.196 12.6965 177.194H12.734C19.2089 176.754 25.5824 175.402 31.6523 173.18C41.4101 169.424 44.558 164.643 44.7092 164.414L44.7107 164.411C44.8034 164.264 44.8034 164.08 44.7107 163.932L35.2937 149.061C35.2216 148.957 35.1112 148.883 34.9847 148.853C34.8537 148.83 34.7183 148.859 34.6103 148.935C31.6462 151.052 28.4392 152.833 25.0529 154.241C16.5058 157.738 10.4458 156.933 9.94896 156.867C9.92941 156.864 9.91847 156.863 9.91634 156.863C9.76779 156.841 9.61684 156.884 9.50447 156.98C9.39778 157.082 9.34887 157.227 9.37341 157.369L12.2378 176.805ZM13.1269 176.254L10.4122 157.83C12.2095 157.975 17.8073 158.192 25.3896 155.073C28.6962 153.707 31.8357 151.991 34.7504 149.956L43.7837 164.158C43.0442 165.117 39.6275 169.148 31.3337 172.349C25.4893 174.484 19.3579 175.799 13.1269 176.254Z" fill="#001550"/>
<path d="M12.6965 177.194V176.944L12.6947 176.944L12.6965 177.194ZM12.2378 176.805L12.4859 176.774L12.4852 176.769L12.2378 176.805ZM12.734 177.194V177.444H12.7425L12.7509 177.444L12.734 177.194ZM31.6523 173.18L31.7382 173.415L31.7421 173.414L31.6523 173.18ZM44.7092 164.414L44.5005 164.276L44.5004 164.276L44.7092 164.414ZM44.7107 164.411L44.9195 164.549L44.9222 164.545L44.7107 164.411ZM44.7107 163.932L44.9222 163.799L44.9219 163.799L44.7107 163.932ZM35.2937 149.061L35.505 148.927L35.4994 148.919L35.2937 149.061ZM34.9847 148.853L35.041 148.609L35.0289 148.607L34.9847 148.853ZM34.6103 148.935L34.4671 148.73L34.465 148.731L34.6103 148.935ZM25.0529 154.241L25.1475 154.473L25.1489 154.472L25.0529 154.241ZM9.94896 156.867L9.98187 156.619L9.98187 156.619L9.94896 156.867ZM9.91634 156.863L9.87988 157.11L9.89802 157.113H9.91634V156.863ZM9.50447 156.98L9.34153 156.79L9.33242 156.799L9.50447 156.98ZM9.37341 157.369L9.62081 157.333L9.61978 157.327L9.37341 157.369ZM10.4122 157.83L10.4323 157.581L10.1191 157.556L10.1649 157.867L10.4122 157.83ZM13.1269 176.254L12.8795 176.29L12.9134 176.52L13.145 176.503L13.1269 176.254ZM25.3896 155.073L25.4847 155.304L25.485 155.304L25.3896 155.073ZM34.7504 149.956L34.9614 149.822L34.8213 149.602L34.6073 149.751L34.7504 149.956ZM43.7837 164.158L43.9816 164.311L44.0888 164.172L43.9946 164.024L43.7837 164.158ZM31.3337 172.349L31.4195 172.584L31.4237 172.582L31.3337 172.349ZM12.6947 176.944C12.5815 176.945 12.4975 176.865 12.4858 176.774L11.9899 176.837C12.0352 177.193 12.3457 177.447 12.6983 177.444L12.6947 176.944ZM12.734 176.944H12.6965V177.444H12.734V176.944ZM31.5664 172.946C25.5188 175.159 19.1685 176.506 12.717 176.945L12.7509 177.444C19.2494 177.002 25.6461 175.645 31.7382 173.415L31.5664 172.946ZM44.5004 164.276C44.3743 164.468 41.2658 169.211 31.5624 172.947L31.7421 173.414C41.5544 169.636 44.7417 164.819 44.918 164.551L44.5004 164.276ZM44.5019 164.274L44.5005 164.276L44.918 164.551L44.9194 164.549L44.5019 164.274ZM44.4991 164.066C44.5405 164.131 44.5405 164.212 44.4991 164.278L44.9222 164.545C45.0662 164.316 45.0662 164.028 44.9222 163.799L44.4991 164.066ZM35.0824 149.195L44.4995 164.066L44.9219 163.799L35.5049 148.928L35.0824 149.195ZM34.9286 149.097C34.9957 149.112 35.0521 149.151 35.0879 149.203L35.4994 148.919C35.391 148.762 35.2267 148.653 35.0409 148.61L34.9286 149.097ZM34.7535 149.14C34.8064 149.103 34.8741 149.088 34.9405 149.099L35.0289 148.607C34.8332 148.572 34.6302 148.616 34.4671 148.73L34.7535 149.14ZM25.1489 154.472C28.5525 153.057 31.776 151.267 34.7556 149.138L34.465 148.731C31.5163 150.838 28.3259 152.609 24.9569 154.01L25.1489 154.472ZM9.91605 157.115C10.4405 157.184 16.5477 157.991 25.1475 154.473L24.9582 154.01C16.464 157.485 10.4511 156.681 9.98187 156.619L9.91605 157.115ZM9.91634 157.113C9.91007 157.113 9.90518 157.113 9.9029 157.113C9.90024 157.112 9.89815 157.112 9.89692 157.112C9.89453 157.112 9.8929 157.112 9.89263 157.112C9.89204 157.112 9.89248 157.112 9.89478 157.112C9.89924 157.113 9.9059 157.113 9.91605 157.115L9.98187 156.619C9.97246 156.618 9.96388 156.617 9.95745 156.616C9.95431 156.616 9.95039 156.615 9.94654 156.615C9.94465 156.614 9.94166 156.614 9.93819 156.614C9.93645 156.614 9.92749 156.613 9.91634 156.613V157.113ZM9.66719 157.17C9.72373 157.122 9.80174 157.099 9.87988 157.11L9.9528 156.616C9.73384 156.583 9.50996 156.646 9.34174 156.791L9.66719 157.17ZM9.61978 157.327C9.60972 157.268 9.62919 157.207 9.67651 157.162L9.33242 156.799C9.16637 156.957 9.08802 157.185 9.12704 157.412L9.61978 157.327ZM12.4852 176.769L9.62074 157.333L9.12608 157.406L11.9905 176.842L12.4852 176.769ZM10.1649 157.867L12.8795 176.29L13.3742 176.218L10.6595 157.794L10.1649 157.867ZM25.2945 154.842C17.7581 157.942 12.202 157.723 10.4323 157.581L10.3922 158.079C12.217 158.226 17.8565 158.442 25.4847 155.304L25.2945 154.842ZM34.6073 149.751C31.7076 151.775 28.5841 153.483 25.2941 154.842L25.485 155.304C28.8083 153.931 31.9638 152.206 34.8935 150.161L34.6073 149.751ZM43.9946 164.024L34.9614 149.822L34.5395 150.09L43.5727 164.292L43.9946 164.024ZM31.4237 172.582C39.765 169.363 43.2175 165.301 43.9816 164.311L43.5858 164.006C42.8708 164.932 39.4899 168.934 31.2437 172.115L31.4237 172.582ZM13.145 176.503C19.3991 176.047 25.5533 174.727 31.4195 172.583L31.2479 172.114C25.4253 174.242 19.3167 175.552 13.1087 176.005L13.145 176.503Z" fill="#001550"/>
<path d="M187.876 62.9085C187.876 62.9085 190.16 64.0114 192.434 60.2688C194.709 56.5262 196.694 46.2747 191.686 45.3978C184.918 42.2157 182.634 46.8352 182.634 46.8352L178.524 32.5246C178.524 32.5246 177.391 19.3079 168.723 20.4108C160.055 21.5137 155.038 30.7618 155.038 30.7618L131.551 31.6658L130.868 44.4395C130.868 44.4395 126.993 41.7998 125.851 45.0995C124.709 48.3991 124.709 59.419 134.275 62.9357C134.275 62.9357 138.02 79.3435 149.496 88.3204L155.113 88.6368L153.868 101.483C156.511 106.808 161.287 110.862 167.095 112.711C176.68 115.576 185.535 97.5594 185.535 97.5594C185.535 97.5594 185.76 75.2302 187.876 62.9085Z" fill="white" stroke="#001550"/>
<path d="M133.546 62.4114H133.433C129.062 61.4261 126.047 58.2439 125.008 53.4346C124.016 49.032 124.905 44.2317 126.291 43.1921C126.767 42.8249 127.387 42.6794 127.985 42.7943C130.073 43.1379 132.123 46.1663 132.207 46.2929C132.349 46.5026 132.288 46.7839 132.071 46.9212C131.854 47.0585 131.563 46.9998 131.421 46.7901C130.896 46.0036 129.221 43.9153 127.826 43.6803C127.495 43.6244 127.155 43.7065 126.89 43.9063C125.954 44.5933 124.962 48.9055 125.954 53.2447C126.665 56.3907 128.584 60.3774 133.723 61.5345C133.974 61.5926 134.128 61.8349 134.07 62.077C134.014 62.3047 133.784 62.4512 133.546 62.4114Z" fill="#001550" stroke="#001550"/>
<path d="M196.9 115.116C196.902 115.143 196.902 115.17 196.9 115.197C194.849 117.821 192.579 120.279 190.113 122.547C189.739 122.899 189.345 123.243 188.962 123.577C183.8 128.17 178.038 132.09 171.822 135.239L171.682 135.32L167.535 111.237C173.475 107.927 178.759 103.624 183.139 98.5269L183.439 98.2195C184.085 97.5325 185.189 96.5561 185.526 96.0499C186.668 94.3413 186.462 95.0735 186.462 95.0735L185.713 91.6473L185.32 89.9026L185.742 90.0924C196.928 97.9302 197.152 113.723 196.9 115.116Z" fill="white" stroke="#001550" stroke-width="2"/>
<path d="M171.663 135.79C171.591 135.789 171.52 135.771 171.457 135.736C171.322 135.675 171.227 135.553 171.204 135.411L167.048 111.328C167.031 111.186 167.078 111.044 167.179 110.939C167.246 110.879 167.326 110.832 167.413 110.804C172.762 107.301 177.73 103.285 182.241 98.8163L183.289 97.7315C184.678 96.3698 185.978 94.9267 187.183 93.4103C187.333 93.2056 187.626 93.157 187.838 93.3018C188.05 93.4466 188.101 93.7299 187.951 93.9346C186.719 95.4822 185.39 96.9554 183.972 98.3462L182.924 99.431C178.389 103.921 173.399 107.961 168.031 111.491L172.009 134.606C177.815 131.191 183.373 127.398 188.643 123.252C189.037 122.944 189.42 122.619 189.795 122.303C193.155 119.464 195.411 117.014 196.46 114.998C196.844 113.516 195.355 98.4818 185.845 90.5898C185.717 90.4848 185.658 90.3223 185.689 90.1635C185.719 90.0048 185.835 89.8738 185.993 89.82C186.15 89.7662 186.326 89.7977 186.453 89.9027C196.45 98.1654 197.78 113.579 197.358 115.215C197.358 115.215 197.358 115.324 197.358 115.333C196.207 117.511 193.895 120.061 190.45 122.972C190.076 123.297 189.673 123.622 189.28 123.939C183.835 128.217 178.089 132.126 172.084 135.637C172.032 135.673 171.975 135.704 171.916 135.727C171.84 135.773 171.752 135.795 171.663 135.79Z" fill="#001550" stroke="#001550" stroke-width="0.5"/>
<path d="M167.516 111.255L156.498 135.375C156.498 135.375 144.891 120.368 144.554 107.883C146.239 101.149 148.055 97.3969 155.253 93.3198L154.439 98.1744C154.439 98.1744 155.768 109.646 167.516 111.255Z" fill="white" stroke="#001550" stroke-width="2"/>
<path d="M166.936 111.418L156.424 134.398C154.392 131.37 146.164 118.569 145.031 107.865C147.306 96.1311 154.945 94.1061 155.029 94.1061C155.149 94.0784 155.252 94.0053 155.315 93.9032C155.379 93.8012 155.397 93.6788 155.366 93.5637C155.301 93.3208 155.048 93.1722 154.795 93.2292C154.458 93.3015 146.473 95.3627 144.095 107.766C144.086 107.807 144.086 107.851 144.095 107.892C145.378 120.323 156.012 135.447 156.115 135.591C156.2 135.716 156.344 135.791 156.499 135.79L156.545 135.781C156.715 135.765 156.862 135.661 156.929 135.51" stroke="#001550" stroke-width="0.5"/>
<path d="M154.57 98.3823H154.439C154.191 98.3162 154.045 98.0703 154.111 97.8308C154.862 94.8382 155.055 91.7403 154.682 88.6822C154.649 88.4351 154.829 88.2087 155.084 88.1759C155.34 88.1439 155.575 88.3177 155.609 88.5647C156.008 91.7401 155.809 94.9592 155.019 98.0659C154.957 98.2551 154.775 98.3835 154.57 98.3823Z" fill="#001550" stroke="#001550"/>
<path d="M185.966 96.0409C185.718 96.0414 185.513 95.855 185.498 95.616C184.459 74.7604 187.838 62.7371 187.876 62.6195C187.952 62.3826 188.207 62.2441 188.456 62.3031C188.704 62.373 188.847 62.624 188.774 62.8636C188.774 62.9811 185.405 74.878 186.425 95.5708C186.433 95.6899 186.39 95.8068 186.307 95.8953C186.225 95.9838 186.108 96.0363 185.985 96.0409H185.966Z" fill="#001550" stroke="#001550"/>
<path d="M150.666 65.4221C150.1 65.4091 149.538 65.3333 148.99 65.1961C147.446 64.8435 145.592 64.2379 144.956 62.6287C144.564 61.3109 144.876 59.8911 145.789 58.8409C146.117 58.3979 146.482 57.9911 146.837 57.5934C147.298 57.1206 147.715 56.6093 148.082 56.0656C149.571 53.7332 149.15 50.7681 148.541 47.6854C148.495 47.4389 148.661 47.2021 148.916 47.152C149.169 47.108 149.411 47.2695 149.458 47.5136C150.076 50.6505 150.544 53.9321 148.878 56.5537C148.484 57.1404 148.039 57.6938 147.549 58.2081C147.193 58.5822 146.859 58.9745 146.547 59.3833C145.851 60.203 145.588 61.2884 145.836 62.3214C146.313 63.5327 147.886 64.0299 149.206 64.3283C150.037 64.6243 150.954 64.6049 151.771 64.274C151.913 64.1884 152.091 64.1826 152.239 64.2587C152.387 64.3347 152.482 64.4812 152.487 64.6429C152.493 64.8045 152.409 64.9568 152.267 65.0424C151.78 65.3093 151.226 65.4407 150.666 65.4221Z" fill="#001550" stroke="#001550"/>
<path d="M144.601 49.2671C144.685 50.9576 143.983 52.3588 143.037 52.395C142.092 52.4311 141.268 51.1022 141.165 49.4117C141.062 47.7212 141.783 46.32 142.728 46.2748C143.674 46.2296 144.526 47.5766 144.601 49.2671Z" fill="#001550"/>
<path d="M163.847 48.8242C163.931 50.5147 163.229 51.9159 162.283 51.9521C161.338 51.9882 160.514 50.6593 160.411 48.9688C160.308 47.2783 161.029 45.8771 161.974 45.8319C162.92 45.7867 163.772 47.1337 163.847 48.8242Z" fill="#001550"/>
<path d="M155.066 72.0935C153.337 72.13 151.622 71.7901 150.049 71.0991C149.945 71.0313 149.874 70.9262 149.851 70.8072C149.828 70.6883 149.855 70.5655 149.927 70.4662C149.995 70.3666 150.102 70.298 150.224 70.2759C150.346 70.2537 150.471 70.28 150.573 70.3487C152.724 71.1905 155.083 71.4073 157.359 70.9725C160.014 70.44 162.322 68.869 163.734 66.6332C163.88 66.4269 164.168 66.3673 164.389 66.4976C164.604 66.639 164.662 66.9202 164.52 67.1304C162.971 69.5801 160.433 71.2939 157.518 71.8584C156.712 72.0186 155.89 72.0973 155.066 72.0935Z" fill="#001550" stroke="#001550"/>
<path d="M155.403 39.7842C155.256 39.7828 155.118 39.7161 155.029 39.6034C154.874 39.4037 154.916 39.1203 155.122 38.9706C159.213 36.0687 162.012 35.9602 166.224 38.5276C166.44 38.6627 166.506 38.9384 166.374 39.1514C166.234 39.3607 165.945 39.4214 165.728 39.287C161.825 36.9094 159.475 37.0088 155.684 39.6938C155.603 39.753 155.505 39.7848 155.403 39.7842Z" fill="#001550" stroke="#001550"/>
<path d="M138.179 41.4023C138.066 41.4018 137.957 41.3635 137.87 41.2938C137.774 41.218 137.714 41.108 137.704 40.9888C137.693 40.8697 137.733 40.7514 137.814 40.661C140.013 38.2825 143.681 37.8137 146.445 39.5581C146.653 39.7051 146.703 39.9853 146.557 40.1909C146.408 40.391 146.121 40.4392 145.911 40.2994C143.558 38.8016 140.426 39.1855 138.535 41.2034C138.455 41.3202 138.324 41.3939 138.179 41.4023Z" fill="#001550" stroke="#001550"/>
<path d="M152.304 88.8992C151.347 88.9118 150.39 88.8574 149.44 88.7365C149.362 88.7272 149.288 88.6992 149.225 88.6551C148.972 88.4562 142.906 83.8819 138.057 74.3807C129.801 58.226 131.383 34.8753 131.402 34.6041C131.42 34.3545 131.644 34.1663 131.902 34.1837C132.161 34.2012 132.356 34.4178 132.338 34.6674C132.338 34.9024 130.756 58.009 138.89 73.9468C141.487 79.2301 145.165 83.9506 149.702 87.8234C152.974 88.1259 156.276 87.8874 159.466 87.1183C165.522 85.699 171.26 81.1156 175.023 77.5267C175.11 77.4417 175.228 77.3937 175.351 77.3937C175.474 77.3937 175.592 77.4417 175.679 77.5267C175.769 77.6087 175.82 77.7232 175.82 77.8431C175.82 77.963 175.769 78.0775 175.679 78.1595C171.841 81.8298 165.953 86.5126 159.69 87.9952C157.274 88.5754 154.795 88.8788 152.304 88.8992Z" fill="#001550" stroke="#001550"/>
<path d="M175.351 78.3402C175.27 78.3406 175.189 78.322 175.117 78.286C174.891 78.1599 174.812 77.8821 174.939 77.6622C179.573 69.6526 180.556 64.5269 180.602 64.4817C180.632 64.3202 180.749 64.1865 180.909 64.1309C181.069 64.0753 181.248 64.1064 181.377 64.2123C181.507 64.3182 181.569 64.4829 181.538 64.6444C181.492 64.8523 180.481 69.951 175.763 78.1052C175.682 78.2519 175.523 78.3427 175.351 78.3402Z" fill="#001550" stroke="#001550"/>
<path d="M187.801 63.2161C185.142 63.2161 184.234 61.6702 184.188 61.5888C184.064 61.3692 184.147 61.0939 184.375 60.9741C184.602 60.8543 184.887 60.9352 185.011 61.1549C185.011 61.2272 186.107 62.9177 189.608 62.0589C191.779 61.5346 194.335 55.7941 194.41 51.274C194.41 49.5383 194.101 46.5099 191.601 45.85C185.798 44.2679 182.746 52.5125 182.718 52.5939C182.63 52.8285 182.364 52.9528 182.119 52.8741C181.876 52.7892 181.75 52.5302 181.838 52.2956C181.838 52.2052 185.208 43.1741 191.854 44.9731C194.176 45.6059 195.43 47.8569 195.383 51.3012C195.308 55.9568 192.753 62.2488 189.87 62.9449C189.195 63.1198 188.5 63.211 187.801 63.2161Z" fill="#001550" stroke="#001550"/>
<path d="M183.588 50.6051C182.877 52.0605 180.106 50.7768 179.086 49.5022C178.047 48.1625 178.047 46.3217 179.086 44.9821C176.923 44.3764 174.49 43.4362 173.553 41.4564C173.157 40.4516 173.019 39.3691 173.151 38.3014C173.347 35.3995 174.087 32.5067 173.778 29.6138C173.469 26.721 171.616 23.6926 168.648 23.1592C168.648 23.1592 158.351 40.9592 138.928 33.7723C138.928 33.7723 130.269 37.7681 126.328 30.9247C122.387 24.0813 127.704 16.8492 138.731 12.2839C138.731 12.2839 131.841 12.0941 132.038 8.66784C132.235 5.24163 148.953 4.29242 160.776 6.79653C160.776 6.79653 159.381 0.802922 173.956 2.51151C188.531 4.22009 193.249 8.18872 195.037 18.0153C205.717 23.6383 193.717 46.8172 193.717 46.8172C193.717 46.8172 188.072 41.357 183.588 50.6051Z" fill="#001550"/>
<path d="M130.391 31.2502C128.178 34.9889 127.777 39.4777 129.295 43.5268L132.3 48.0468L131.832 32.6786L130.391 31.2502Z" fill="#001550"/>
<path d="M194.11 19.8415C194.064 19.8501 194.016 19.8501 193.97 19.8415C193.724 19.764 193.59 19.5091 193.67 19.272C197.639 7.51981 189.167 2.09573 188.802 1.83357C188.588 1.69223 188.529 1.41098 188.671 1.20076C188.814 0.994518 189.102 0.93803 189.317 1.0742C189.411 1.12844 198.753 7.16725 194.559 19.5522C194.488 19.7308 194.308 19.8467 194.11 19.8415Z" fill="#001550" stroke="#001550"/>
<line x1="20.3301" y1="281.96" x2="289.244" y2="281.96" stroke="#001550" stroke-width="2"/>
<line x1="294.731" y1="281.96" x2="319.976" y2="281.96" stroke="#001550" stroke-width="2"/>
</svg>
