<svg viewBox="0 0 352 331" fill="none" xmlns="http://www.w3.org/2000/svg"><path fill-rule="evenodd" clip-rule="evenodd" d="M199.36 127.192h151.67a.5.5 0 00.5-.5V22.142a.5.5 0 00-.5-.5H199.36a.5.5 0 00-.5.5v104.55a.5.5 0 00.5.5zm151.17-1H199.86V22.642h150.67v103.55z" fill="#263238"/><path fill-rule="evenodd" clip-rule="evenodd" d="M332.37 33.332a3.88 3.88 0 107.76 0 3.88 3.88 0 00-7.76 0zm1 0a2.88 2.88 0 115.76 0 2.88 2.88 0 01-5.76 0z" fill="#263238"/><path d="M327.51 33.332a3.38 3.38 0 11-6.76 0 3.38 3.38 0 016.76 0zM315.39 33.332a3.38 3.38 0 11-6.76 0 3.38 3.38 0 016.76 0z" fill="#263238"/><path fill="#BCCDFF" d="M209.99 45.202h131.18v72.9H209.99z"/><path fill-rule="evenodd" clip-rule="evenodd" d="M282.35 104.782h.15v.01c14.657.042 26.573-11.807 26.615-26.465.041-14.657-11.808-26.573-26.465-26.615h-.16c-14.457.24-26.062 12.008-26.1 26.466-.038 14.46 11.505 26.288 25.96 26.604zm-24.96-26.614c.038-13.91 11.201-25.231 25.11-25.466l.15-.01c14.105.039 25.508 11.505 25.47 25.61-.039 14.105-11.505 25.509-25.61 25.47h-.15c-13.907-.311-25.008-11.693-24.97-25.604z" fill="#fff"/><path d="M277.06 66.532l-.14 24.32 17.83-12.15-17.69-12.17z" fill="#fff"/><g><path d="M231.67 311.442c-1.08-19.23-1.82-32.55-1.82-32.55-68.74 16.65-105.94-10.08-105.94-10.08s-3 18.93-6.82 42.63h114.58z" fill="#001550"/><path fill-rule="evenodd" clip-rule="evenodd" d="M117.09 311.942h114.58v-.01a.513.513 0 00.5-.53c-1.09-19.23-1.83-32.54-1.83-32.54a.491.491 0 00-.61-.46c-67.7 16.4-105.15-9.73-105.53-10a.489.489 0 00-.48-.05.51.51 0 00-.3.38s-3.01 18.93-6.82 42.63a.508.508 0 00.11.4.49.49 0 00.38.18zm114.08-1H117.68a32896.1 32896.1 0 003.928-24.489 5338.255 5338.255 0 012.702-16.791c5.32 3.4 42.21 24.86 105.1 9.86.109 1.996.494 8.868 1.051 18.792l.709 12.628z" fill="#001550"/><g opacity=".6"><path d="M231.67 311.442c-1.08-19.23-1.82-32.55-1.82-32.55-68.74 16.65-105.94-10.08-105.94-10.08s-3 18.93-6.82 42.63h114.58z" fill="#fff"/><path fill-rule="evenodd" clip-rule="evenodd" d="M117.09 311.942h114.58v-.01a.513.513 0 00.5-.53c-1.09-19.23-1.83-32.54-1.83-32.54a.491.491 0 00-.61-.46c-67.7 16.4-105.15-9.73-105.53-10a.489.489 0 00-.48-.05.51.51 0 00-.3.38s-3.01 18.93-6.82 42.63a.508.508 0 00.11.4.49.49 0 00.38.18zm114.08-1H117.68a32896.1 32896.1 0 003.928-24.489 5338.255 5338.255 0 012.702-16.791c5.32 3.4 42.21 24.86 105.1 9.86.109 1.996.494 8.868 1.051 18.792l.709 12.628z" fill="#001550"/></g><path d="M34.78 123.352c-.1 3.11-2.11 5.91-2.18 9-.06 2.9 1.58 5.54 2.14 8.38.6 3.06 0 6.2.39 9.27a22.165 22.165 0 001.61 5.75 8.753 8.753 0 002.76 3.67c2 1.48 4.85 1.42 7.26 1.42a11.066 11.066 0 007-2 15.497 15.497 0 003.64-4.92 10.69 10.69 0 001.71-4.81 7.479 7.479 0 00-.6-2.83c-2-4.91-7-8.41-7.84-13.63-.36-2.23.1-4.5.3-6.74.2-2.24.07-4.69-1.29-6.5-2.25-3-7.52-3.63-11-3.62-5.08.01-3.77 3.85-3.9 7.56z" fill="#fff"/><path fill-rule="evenodd" clip-rule="evenodd" d="M39.26 159.842c1.98 1.44 4.57 1.51 6.91 1.51v-.04h.67c2.607.148 5.187-.6 7.31-2.12a16.405 16.405 0 003.77-5.08 11.11 11.11 0 001.77-5 7.999 7.999 0 00-.64-3 25.862 25.862 0 00-3.72-5.92c-1.87-2.44-3.63-4.75-4.09-7.6a17.999 17.999 0 01.13-4.95c.07-.55.13-1.11.18-1.67.27-3.05-.17-5.22-1.39-6.84-2.51-3.35-8.2-3.82-11.42-3.82a4.59 4.59 0 00-3.44 1.13c-1.136 1.156-1.07 2.958-1 4.871v2.019a14.24 14.24 0 01-1.06 4.31 11.4 11.4 0 00.06 10 22.64 22.64 0 011 3.2 23.69 23.69 0 01.25 4.91 27.394 27.394 0 00.14 4.33 22.478 22.478 0 001.64 5.88 9.24 9.24 0 002.93 3.88zm-5.04-31.88a15.4 15.4 0 001.11-4.61l-.03.04c.04-.475.027-.95.013-1.419-.006-.232-.013-.462-.013-.691-.07-1.78-.12-3.31.69-4.16a3.713 3.713 0 012.72-.82c2.41.03 8.29.31 10.62 3.42 1.06 1.41 1.44 3.36 1.19 6.15-.03.413-.077.825-.124 1.238l-.046.412a18.999 18.999 0 00-.13 5.22c.51 3 2.43 5.57 4.28 8a24.745 24.745 0 013.59 5.69 7 7 0 01.57 2.64 10.302 10.302 0 01-1.65 4.57 15.244 15.244 0 01-3.51 4.78 10.452 10.452 0 01-6.69 1.91h-.29c-2.27 0-4.85 0-6.67-1.32a8.166 8.166 0 01-2.6-3.47 21.607 21.607 0 01-1.57-5.61 26.539 26.539 0 01-.13-4.18 23.855 23.855 0 00-.27-5.12c-.25-1.14-.584-2.26-1-3.35a10.4 10.4 0 01-.06-9.32z" fill="#001550"/><path d="M41.27 160.292l3.34 26.51s18.88-4.64 24.45-12.09l-10.71-23.56" fill="#fff"/><path d="M44.61 187.302a.5.5 0 01-.5-.44l-3.34-26.51a.5.5 0 01.43-.56.49.49 0 01.56.44l3.27 25.94c3.09-.82 18.38-5.14 23.45-11.53l-10.59-23.28a.52.52 0 01.25-.67.5.5 0 01.66.25l10.72 23.56a.52.52 0 01-.06.51c-5.61 7.5-24 12.08-24.74 12.27l-.11.02z" fill="#001550"/><path d="M75.7 176.542l6 13.4 61.74-36.3 11.73-15.65 8.08 19.65-16.5 38.64a310.97 310.97 0 01-40.51 24 213.791 213.791 0 01-20.65 9.18c-6.73 2.52-13.74 4.24-20.68 6.09a2.096 2.096 0 01-1.46 0c-.31-.16-.44-.54-.72-.77-5.08-4.09-17.82-40.55-19.13-52.16l32.1-6.08z" fill="#00217D"/><path d="M241.78 123.472l28.56 40.61a31.581 31.581 0 011.63 33.76c-11 19.4-28.59 49-37.76 57.56 0 0 4.28 8.76 3.63 12-.65 3.24-6.69 3.9-6.69 3.9l9.29 15.94s-50.39 44.55-121.27-13.32l14.75-51.7-7.81-5.58 31.33-104.65 32.2-3.46 9.79 25.92 10.57-12.5 10.61 12.5 21.17-10.98z" fill="#00217D"/><path d="M239.64 183.832a.49.49 0 01-.47-.34.51.51 0 01.31-.64c8.68-3 16.75-4.31 27.85-4.67a.52.52 0 01.52.49.499.499 0 01-.49.51c-11 .36-19 1.7-27.56 4.62a.4.4 0 01-.16.03zM213.37 280.322a.51.51 0 01-.4-.81 47.93 47.93 0 0119.23-15 .5.5 0 01.39.92 46.816 46.816 0 00-18.82 14.65.511.511 0 01-.4.24zM76.82 210.642a.67.67 0 01-.2 0 .52.52 0 01-.27-.66 65.442 65.442 0 004.66-17.86.503.503 0 011 .11 66.994 66.994 0 01-4.73 18.14.508.508 0 01-.46.27zM87.82 204.862h-.06a.5.5 0 01-.44-.55 17.421 17.421 0 00-2.92-11.67.51.51 0 01.12-.7.5.5 0 01.7.13 18.461 18.461 0 013.1 12.39.51.51 0 01-.5.4zM146.31 179.182a.485.485 0 01-.17 0 .493.493 0 01-.3-.63c1.32-3.79 10-24.74 13.15-32.23a.5.5 0 11.92.39c-3.11 7.28-11.84 28.48-13.13 32.17a.5.5 0 01-.47.3zM210 234.812a.5.5 0 01-.49-.37l-3.34-12.5-52.39-31a.5.5 0 01.51-.86l52.56 31.09a.499.499 0 01.23.3l2.42 9v-10.69c0-.116.039-.229.11-.32l22.39-27.61a.51.51 0 01.71-.07.487.487 0 01.07.7l-22.28 27.47v14.36a.51.51 0 01-.44.5H210zM212.46 269.312a.53.53 0 01-.25-.06l-60.76-34a.497.497 0 01-.2-.68.51.51 0 01.69-.19l60.49 33.81 14.31-10.18a.51.51 0 01.7.11.497.497 0 01-.12.7l-14.57 10.37a.517.517 0 01-.29.12z" fill="#fff"/><ellipse cx="101.41" cy="117.072" rx="56.86" ry="57.94" fill="#434656"/><circle cx="105.21" cy="113.452" r="54.87" fill="#8BAAFF"/><path fill-rule="evenodd" clip-rule="evenodd" d="M49.83 113.422c-.011 30.576 24.764 55.373 55.34 55.39 30.578-.017 55.367-24.792 55.4-55.37 0-30.576-24.784-55.364-55.36-55.37-30.576-.006-55.369 24.774-55.38 55.35zm1 .053c-.013-30.025 24.315-54.376 54.34-54.393 30.022.017 54.361 24.338 54.4 54.36.006 30.025-24.328 54.371-54.353 54.38-30.025.009-54.374-24.322-54.387-54.347z" fill="#001550"/><path d="M83.5 92.432l17.04 48.02 34.4-38.1-51.44-9.92z" fill="#fff"/><path d="M145.38 187.312s-10.55 21.91-18.49 24.3l-11.88-15.17-10-12.78-2.55-3.15-.06-.1-10.69-19.29-1.2-2.17-.36-1.58-.85-3.72-.06-.27.15-.45 2-5.57 3.57-4.1v-.15l1.29-6.58.14-.71 3.4-2.1v-.05c-.24-.64-2.75-7.79-.79-11.95a4.66 4.66 0 012-2.2 5.476 5.476 0 011.25-.52c.084-.167.192-.322.32-.46.31-.35.85-.62 1.48.27.293.442.522.924.68 1.43.11.27.22.59.33.94 0 .16.09.32.14.49.05.17.11.36.17.55.12.4.25.8.38 1.2 1.84 5.72 5.28 15.44 5.54 16.14l8.31 2.74 1 .32.49 1.34 2.9 7.94.19.52.09.64 1.84 15.22.07.07 15.69 15.49 3.51 3.47z" fill="#fff"/><path d="M146.31 188.532a.492.492 0 01-.34-.14c-14.06-13.14-20.19-19.69-20.25-19.75a.508.508 0 01-.13-.29l-.94-9.63a55.662 55.662 0 00-2.16-10.4 11.884 11.884 0 00-3-5.41c-1.63-1.53-3.69-1.91-5.88-2.32-.81-.15-1.65-.3-2.47-.52a.492.492 0 01-.35-.61.503.503 0 01.61-.36c.78.21 1.6.36 2.4.51 2.23.41 4.53.84 6.38 2.58a12.863 12.863 0 013.25 5.84 56.987 56.987 0 012.21 10.61l.93 9.46c.9.95 7.1 7.44 20.08 19.58a.5.5 0 01-.34.87v-.02z" fill="#001550"/><path d="M114.57 148.452a.51.51 0 01-.46-.31c-1.06-2.59-2.14-5.33-3.29-8.38-.41-1.05-.8-2.12-1.2-3.18-1.63-4.39-3-8.82-4.35-13-.13-.39-.26-.8-.38-1.2l-.05-.14c0-.15-.09-.29-.12-.43l-.52-1.6c0-.08-.05-.15-.07-.23a2.316 2.316 0 00-.43-.8l-.05-.06a.809.809 0 00-.92-.11 2.523 2.523 0 00-.58.28c-.288.174-.56.375-.81.6a6.183 6.183 0 00-1.53 2.11l-.1.22c-1.09 2.66-.49 5.9 0 8.27.19 1 .39 2 .61 3.08a.085.085 0 000 .05c1 4.63 2.27 9.11 3.39 12.88a.5.5 0 01-.95.29c-1.13-3.79-2.42-8.29-3.42-13-.23-1-.44-2.07-.63-3.11-.46-2.49-1.1-5.9.1-8.83l.11-.25a7.336 7.336 0 011.78-2.45 6.203 6.203 0 011-.71c.251-.154.52-.278.8-.37.228-.081.468-.125.71-.13a1.75 1.75 0 011.27.53l.06.08c.277.341.487.731.62 1.15l.59 1.84c0 .15.08.28.12.41v.14c.12.4.25.8.38 1.19 1.31 4.16 2.71 8.58 4.34 12.94.39 1.07.79 2.13 1.19 3.18 1.15 3 2.22 5.77 3.28 8.35a.503.503 0 01-.28.65.415.415 0 01-.21.05z" fill="#001550"/><path d="M96.17 150.272a.51.51 0 01-.48-.36 30.156 30.156 0 01-1.22-6.8 12.53 12.53 0 011.29-6.73l.08-.15a5.711 5.711 0 013.44-2.34.518.518 0 11.27 1 4.729 4.729 0 00-2.86 1.91l-.07.13a11.582 11.582 0 00-1.15 6.17c.141 2.229.54 4.433 1.19 6.57a.51.51 0 01-.35.62l-.14-.02z" fill="#001550"/><path d="M126.11 210.322a.51.51 0 01-.39-.18l-23.65-29.32-.06-.09a191.405 191.405 0 01-10.76-19.42c-.66-1.43-1.18-2.67-1.58-3.79a24.686 24.686 0 01-.93-3 .655.655 0 010-.14c0-.27 0-.54.06-.82.06-.28 0-.49.1-.74a16.832 16.832 0 012-5.73 12.49 12.49 0 013.74-4.27.5.5 0 01.69.15.49.49 0 01-.15.69 11.76 11.76 0 00-3.41 3.93 15.675 15.675 0 00-1.91 5.4 5.898 5.898 0 00-.09.69 5.484 5.484 0 00-.06.68c.234.957.528 1.899.88 2.82.4 1.09.9 2.31 1.55 3.71a192.956 192.956 0 0010.65 19.23.602.602 0 01.07.11l23.62 29.28a.5.5 0 01-.07.7.498.498 0 01-.3.11z" fill="#001550"/><path d="M150.17 185.132a48.561 48.561 0 01-5.1 10.26c-7.56 11.93-18.77 24.6-18.77 24.6-7.15-6.53-17.06-21.66-17.06-21.66 4.91-3 12.77-11.73 17.19-17.32 4.24-5.37 7.31-9.94 7.31-9.94l16.43 14.06z" fill="#fff"/><path fill-rule="evenodd" clip-rule="evenodd" d="M125.94 220.362c.093.084.214.13.34.13l.02-.02a.51.51 0 00.35-.17c.11-.12 11.33-12.83 18.82-24.66a49.59 49.59 0 005.16-10.34.52.52 0 00-.15-.55l-16.44-14.06a.5.5 0 00-.39-.11.51.51 0 00-.35.22l-.044.064c-.39.578-3.362 4.971-7.236 9.836-4.14 5.2-12.07 14.14-17.07 17.2a.518.518 0 00-.22.32.47.47 0 00.07.38c.014.016.121.175.309.454 1.74 2.579 10.417 15.442 16.831 21.306zm.3-1.08c-6.33-5.95-14.7-18.35-16.33-20.79v-.01c5.1-3.36 12.83-12.02 16.91-17.15 3.42-4.34 6.1-8.2 7-9.5l15.75 13.47a48.605 48.605 0 01-4.94 9.83c-6.72 10.61-16.46 21.94-18.39 24.15z" fill="#001550"/><path d="M34.72 120.102c-.11-1.5-.14-3.28.36-3.89a5.826 5.826 0 011.91-1.36c6.85-3.57 13.71-7.14 20.79-10.26.62-.27 1.4-.53 1.95-.12a1.7 1.7 0 01.44 1.61 9.32 9.32 0 01-2.51 4.8 22.7 22.7 0 01-6.16 4.91c-.795.389-1.563.83-2.3 1.32a21.049 21.049 0 00-2.6 2.48 22.429 22.429 0 01-2 1.79" fill="#fff"/><path d="M44.61 121.882a.47.47 0 01-.39-.19.49.49 0 01.08-.7 21.415 21.415 0 001.94-1.75c.213-.213.413-.423.6-.63a15.718 15.718 0 012.07-1.91c.57-.393 1.168-.744 1.79-1.05l.56-.3a21.919 21.919 0 006-4.81 8.65 8.65 0 002.4-4.52c0-.26.07-.9-.26-1.15-.33-.25-1 0-1.44.18-7.06 3.11-14 6.74-20.76 10.25a5.137 5.137 0 00-1.75 1.22c-.17.21-.43 1-.25 3.55a.501.501 0 11-1 .07c-.16-2.33 0-3.64.47-4.25a6.333 6.333 0 012.07-1.48c6.75-3.52 13.72-7.15 20.81-10.27a2.409 2.409 0 012.46-.07 2.15 2.15 0 01.64 2.07 9.59 9.59 0 01-2.64 5.07 23.186 23.186 0 01-6.29 5l-.57.3a10.63 10.63 0 00-3.6 2.77c-.2.22-.41.43-.61.64a23.53 23.53 0 01-2 1.83.51.51 0 01-.33.13z" fill="#001550"/><path d="M40.67 120.172c.49-.244.997-.449 1.52-.61 5-1.51 10.45-1.15 15.5-2.57 2.55-.72 5-1.9 7.7-1.88.8 0 1.89.33 1.8 1.33-.09 1-.78 1.4-1.31 2a21.107 21.107 0 01-1.88 2 16.441 16.441 0 01-4.71 2.9 40.184 40.184 0 01-7.8 1.85c-2.56.49-5 1.28-7.51 2-.62.18-1.25.34-1.89.47" fill="#fff"/><path d="M42.09 128.182a.51.51 0 01-.49-.4.501.501 0 01.39-.59c.56-.11 1.15-.26 1.85-.46l1.52-.44a61.435 61.435 0 016-1.57l1.71-.31a28.337 28.337 0 006-1.51 16.08 16.08 0 004.57-2.81c.48-.441.927-.916 1.34-1.42l.5-.57c.1-.12.22-.24.33-.35.428-.345.727-.824.85-1.36a.56.56 0 00-.12-.41 1.739 1.739 0 00-1.19-.37 16.896 16.896 0 00-5.41 1.18c-.71.24-1.43.48-2.15.68a45.51 45.51 0 01-7.64 1.25 42.494 42.494 0 00-7.84 1.32c-.5.15-.985.344-1.45.58a.498.498 0 01-.756-.468.5.5 0 01.306-.422 10.256 10.256 0 011.61-.65 43.547 43.547 0 018-1.36 44.954 44.954 0 007.48-1.21c.71-.2 1.4-.43 2.1-.67a18.006 18.006 0 015.74-1.23 2.68 2.68 0 011.92.7c.287.318.422.745.37 1.17a3.24 3.24 0 01-1.12 2l-.31.32-.48.56a15.691 15.691 0 01-1.44 1.52 17.004 17.004 0 01-4.85 3 30.006 30.006 0 01-6.21 1.56l-1.69.31c-2 .39-4 1-5.94 1.55l-1.52.44c-.72.21-1.35.36-1.93.48l-.05-.04z" fill="#001550"/><path d="M39.71 127.202a8.79 8.79 0 013.48-1.71c2.411-.34 4.859-.34 7.27 0 4.235.339 8.492.302 12.72-.11a5.49 5.49 0 012.06 0c3.93 1.11-1.37 4.93-2.85 5.57-5.83 2.53-12.73 2.65-19 2.5" fill="#fff"/><path d="M46.52 134.072H43.4a.501.501 0 01-.49-.51.51.51 0 01.51-.49c6.43.16 13.16 0 18.77-2.46 1.19-.51 4-2.67 4-3.83 0-.34-.37-.61-1.05-.8a5.125 5.125 0 00-1.84 0c-4.271.42-8.572.46-12.85.12l-1-.08a21.983 21.983 0 00-6.18 0 8.444 8.444 0 00-3.27 1.61.5.5 0 01-.7-.09.5.5 0 01.08-.7 9.281 9.281 0 013.69-1.8 22.99 22.99 0 016.47-.06l.94.08c4.205.333 8.431.297 12.63-.11a5.876 5.876 0 012.25.07c1.41.4 1.75 1.14 1.78 1.69.14 2-3.74 4.46-4.58 4.82-4.85 2.11-10.48 2.54-16.04 2.54z" fill="#001550"/><path d="M47.02 133.852s8.32 11 2.26 21.49l-2.26-21.49z" fill="#fff"/><path d="M49.28 155.842a.543.543 0 01-.25-.06.52.52 0 01-.19-.69c5.83-10.11-2.14-20.83-2.22-20.93a.503.503 0 11.8-.61c.08.11 8.45 11.34 2.29 22a.5.5 0 01-.43.29z" fill="#001550"/><path d="M78.39 180.492s-3.29 5.35-13.72 9.51a70.05 70.05 0 01-20.06 4.4l-3.06-21.5s6.7 1.21 16.45-2.93a51.734 51.734 0 0010.32-5.93l10.07 16.45z" fill="#fff"/><path fill-rule="evenodd" clip-rule="evenodd" d="M44.12 194.472a.49.49 0 00.49.43h.04a71.138 71.138 0 0020.21-4.44c10.424-4.156 13.787-9.444 13.948-9.698l.002-.002a.51.51 0 000-.53l-10.06-16.45a.547.547 0 00-.33-.23.518.518 0 00-.4.09 51.287 51.287 0 01-10.21 5.87c-9.13 3.868-15.605 2.977-16.135 2.904l-.035-.004a.54.54 0 00-.44.13.49.49 0 00-.14.43l3.06 21.5zm.95-.61l-2.9-20.38c1.92.16 7.9.4 16-3.05a51.926 51.926 0 0010-5.66l9.65 15.71c-.79 1.06-4.44 5.52-13.3 9.06a69.842 69.842 0 01-19.45 4.32z" fill="#001550"/><path d="M231.75 68.482s2.44 1.22 4.87-2.92 4.55-15.48-.8-16.45c-7.23-3.52-9.67 1.59-9.67 1.59l-4.39-15.83s-1.21-14.62-10.47-13.4c-9.26 1.22-14.62 11.45-14.62 11.45l-25.09 1-.73 14.13s-4.14-2.92-5.36.73c-1.22 3.65-1.22 15.84 9 19.73 0 0 4 18.15 16.26 28.08l6 .35-1.33 14.21a24 24 0 0014.13 12.42c10.24 3.17 19.7-16.76 19.7-16.76s.24-24.7 2.5-38.33z" fill="#fff"/><path d="M178.98 36.142c4.51 2.69 9.33 5 14.52 5.88 5.19.88 10.8 0 15-3.11a38.924 38.924 0 001 10.34c.92 3.25 2.89 6.35 5.9 7.87.32 4 .7 8 1 12.08.27 3.39.42 7.78-.92 10.91a21.772 21.772 0 01-7.15 9.38c-3.3 2.45-6 3.35-10.84 6.53-.35.23-.18 1.06.11.76a24 24 0 0012.74-5.06s8.27 16.09 8.49 28.38l10.45-13.32s-.62-28.41 2.95-38.48c0 0 5.14.19 6.48-9.41 1.34-9.6-4.47-10.5-4.47-10.5s-19.88-29.27-24.79-26.59c-4.91 2.68-30.47 14.34-30.47 14.34z" fill="#fff"/><path d="M173.71 67.932h-.12c-4.67-1.09-7.89-4.61-9-9.93-1.06-4.87-.11-10.18 1.37-11.33a2.21 2.21 0 011.81-.44c2.23.38 4.42 3.73 4.51 3.87a.502.502 0 11-.84.55c-.56-.87-2.35-3.18-3.84-3.44a1.27 1.27 0 00-1 .25c-1 .76-2.06 5.53-1 10.33.76 3.48 2.81 7.89 8.3 9.17a.5.5 0 01.37.6.49.49 0 01-.56.37z" fill="#001550"/><path d="M241.39 126.232c.002.03.002.06 0 .09a66.752 66.752 0 01-7.25 8.13c-.4.39-.82.77-1.23 1.14a85.944 85.944 0 01-18.31 12.9l-.15.09-4.43-26.64a61.786 61.786 0 0016.67-14.06l.32-.34c.69-.76 1.87-1.84 2.23-2.4 1.22-1.89 1-1.08 1-1.08l-.8-3.79-.42-1.93.45.21c11.95 8.67 12.19 26.14 11.92 27.68z" fill="#fff"/><path d="M214.43 149.102a.46.46 0 01-.22-.06.478.478 0 01-.27-.36l-4.44-26.64a.536.536 0 01.14-.43.702.702 0 01.25-.15 102.287 102.287 0 0015.84-13.26l1.12-1.2a51.23 51.23 0 004.16-4.78.503.503 0 01.82.58 52.856 52.856 0 01-4.25 4.88l-1.12 1.2a104.021 104.021 0 01-15.91 13.34l4.25 25.57a159.588 159.588 0 0017.77-12.56c.42-.34.83-.7 1.23-1.05 3.59-3.14 6-5.85 7.12-8.08.41-1.64-1.18-18.27-11.34-27a.501.501 0 01.158-.851.5.5 0 01.492.091c10.68 9.14 12.1 26.19 11.65 28v.13c-1.23 2.41-3.7 5.23-7.38 8.45-.4.36-.83.72-1.25 1.07a162.134 162.134 0 01-18.37 12.94.88.88 0 01-.18.1.46.46 0 01-.27.07z" fill="#001550"/><path d="M210 121.962l-11.77 26.68s-12.4-16.6-12.76-30.41c1.8-7.45 3.74-11.6 11.43-16.11l-.87 5.37s1.42 12.69 13.97 14.47z" fill="#fff"/><path d="M198.23 149.102a.49.49 0 01-.41-.22c-.11-.16-11.47-16.89-12.84-30.64a.33.33 0 010-.14c2.54-13.72 11.07-16 11.43-16.08a.51.51 0 01.61.37.49.49 0 01-.36.6c-.09 0-8.25 2.24-10.68 15.22 1.21 11.84 10 26 12.17 29.35l11.23-25.42a59.67 59.67 0 01-14.62-16.07.502.502 0 01.16-.69.51.51 0 01.69.16 57.609 57.609 0 0014.67 16 .51.51 0 01.18.62l-11.77 26.63a.5.5 0 01-.41.3l-.05.01z" fill="#001550"/><path d="M196.17 107.722h-.14a.5.5 0 01-.35-.61 28.7 28.7 0 00.61-10.12.5.5 0 01.99-.13 29.28 29.28 0 01-.63 10.51.499.499 0 01-.48.35zM229.71 105.132a.5.5 0 01-.5-.47c-1.11-23.07 2.5-36.37 2.54-36.5a.52.52 0 01.62-.35.5.5 0 01.34.62c0 .13-3.6 13.29-2.51 36.18a.489.489 0 01-.47.52h-.02zM192 71.262a7.882 7.882 0 01-1.79-.25c-1.65-.39-3.63-1.06-4.31-2.84a4.559 4.559 0 01.89-4.19c.35-.49.74-.94 1.12-1.38.492-.523.937-1.088 1.33-1.69 1.59-2.58 1.14-5.86.49-9.27a.51.51 0 01.4-.59.5.5 0 01.58.4c.66 3.47 1.16 7.1-.62 10a13.737 13.737 0 01-1.42 1.83c-.38.414-.737.848-1.07 1.3a3.778 3.778 0 00-.76 3.25c.51 1.34 2.19 1.89 3.6 2.22a3.74 3.74 0 002.74-.06.5.5 0 11.53.85 3.24 3.24 0 01-1.71.42zM185.52 53.392c.09 1.87-.66 3.42-1.67 3.46-1.01.04-1.89-1.43-2-3.3-.11-1.87.66-3.42 1.67-3.47 1.01-.05 1.92 1.44 2 3.31zM206.08 52.902c.09 1.87-.66 3.42-1.67 3.46-1.01.04-1.89-1.43-2-3.3-.11-1.87.66-3.42 1.67-3.47 1.01-.05 1.92 1.44 2 3.31zM196.7 78.642a12.299 12.299 0 01-5.36-1.1.497.497 0 01-.13-.7.49.49 0 01.69-.13 12.73 12.73 0 007.25.69 10.47 10.47 0 006.81-4.8.52.52 0 01.7-.15.51.51 0 01.14.7 11.39 11.39 0 01-7.48 5.23c-.862.177-1.74.264-2.62.26zM197.06 42.902a.5.5 0 01-.3-.9c4.37-3.21 7.36-3.33 11.86-.49a.51.51 0 01.16.69.5.5 0 01-.69.15c-4.17-2.63-6.68-2.52-10.73.45a.49.49 0 01-.3.1zM178.66 44.692a.52.52 0 01-.33-.12.49.49 0 01-.06-.7 7.13 7.13 0 019.22-1.22.51.51 0 01.12.7.5.5 0 01-.69.12 6.1 6.1 0 00-7.88 1 .49.49 0 01-.38.22z" fill="#001550"/><path d="M193.75 97.232a21.208 21.208 0 01-3.06-.18.5.5 0 01-.23-.09c-.27-.22-6.75-5.28-11.93-15.79-8.82-17.87-7.13-43.7-7.11-44a.501.501 0 111 .07c0 .26-1.69 25.82 7 43.45a47.898 47.898 0 0011.55 15.35c3.496.335 7.023.07 10.43-.78 6.47-1.57 12.6-6.64 16.62-10.61a.49.49 0 01.7 0 .48.48 0 010 .7c-4.1 4.06-10.39 9.24-17.08 10.88a33.9 33.9 0 01-7.89 1z" fill="#001550"/><path d="M218.37 85.552a.54.54 0 01-.25-.06.51.51 0 01-.19-.69c4.95-8.86 6-14.53 6.05-14.58a.507.507 0 111 .18c-.05.23-1.13 5.87-6.17 14.89a.49.49 0 01-.44.26zM231.67 68.822c-2.84 0-3.81-1.71-3.86-1.8a.5.5 0 11.88-.48c0 .08 1.17 1.95 4.91 1 2.32-.58 5.05-6.93 5.13-11.93 0-1.92-.33-5.27-3-6-6.2-1.75-9.46 7.37-9.49 7.46a.51.51 0 01-.64.31.5.5 0 01-.3-.64c0-.1 3.6-10.09 10.7-8.1 2.48.7 3.82 3.19 3.77 7-.08 5.15-2.81 12.11-5.89 12.88a8.778 8.778 0 01-2.21.3z" fill="#001550"/><path d="M227.17 54.872c-.76 1.61-3.72.19-4.81-1.22a4.17 4.17 0 010-5c-2.31-.67-4.91-1.71-5.91-3.9a7.36 7.36 0 01-.43-3.49c.21-3.21 1-6.41.67-9.61-.33-3.2-2.31-6.55-5.48-7.14 0 0-11 19.69-31.75 11.74 0 0-9.25 4.42-13.46-3.15-4.21-7.57 1.47-15.57 13.25-20.62 0 0-7.36-.21-7.15-4 .21-3.79 18.07-4.84 30.7-2.07 0 0-1.49-6.63 14.08-4.74 15.57 1.89 20.61 6.28 22.52 17.15 11.41 6.22-1.41 31.86-1.41 31.86s-6.03-6.04-10.82 4.19z" fill="#001550"/><path d="M170.34 33.462a16.23 16.23 0 00-1.17 13.58l3.21 5-.5-17-1.54-1.58zM238.41 20.842a.402.402 0 01-.15 0 .5.5 0 01-.32-.63c4.24-13-4.81-19-5.2-19.29a.51.51 0 01-.14-.7.5.5 0 01.69-.14c.1.06 10.08 6.74 5.6 20.44a.5.5 0 01-.48.32z" fill="#001550"/></g><g><path d="M341.77 317.212H3.43a3.44 3.44 0 01-3.43-3.43 3.43 3.43 0 013.43-3.43h338.34a3.43 3.43 0 013.43 3.43 3.44 3.44 0 01-3.43 3.43z" fill="#001550"/><path d="M339.89 314.282h-336a.5.5 0 010-1h336a.5.5 0 010 1z" fill="#fff"/><circle cx="23.608" cy="312.316" r="12.98" transform="rotate(-47.27 23.608 312.316)" fill="#fff"/><g fill="#001550"><path fill-rule="evenodd" clip-rule="evenodd" d="M11.156 317.471a13.48 13.48 0 0012.454 8.321c7.442-.005 13.474-6.037 13.48-13.48a13.48 13.48 0 10-25.934 5.159zm-.026-5.199c0-6.892 5.587-12.48 12.48-12.48v.04c6.872.011 12.447 5.568 12.48 12.44 0 6.893-5.588 12.48-12.48 12.48-6.893 0-12.48-5.587-12.48-12.48z"/><path d="M23.61 325.792v.5-.5zm-12.454-8.321l.462-.192-.462.192zm25.934-5.159l.5.001v-.001h-.5zm-8.322-12.454l.192-.462-.192.462zm-14.69 2.922l.354.354-.354-.354zm9.532-2.988h.5v-.5h-.5v.5zm0 .04h-.5v.499l.499.001v-.5zm12.48 12.44h.5v-.002l-.5.002zm-12.48 13.02a12.98 12.98 0 01-11.992-8.013l-.924.383a13.98 13.98 0 0012.916 8.63v-1zm12.98-12.98c-.006 7.166-5.814 12.975-12.98 12.98v1c7.718-.006 13.974-6.261 13.98-13.979l-1-.001zm-8.013-11.992a12.98 12.98 0 018.013 11.992h1a13.98 13.98 0 00-8.63-12.916l-.383.924zm-14.146 2.814a12.98 12.98 0 0114.146-2.814l.383-.924a13.982 13.982 0 00-15.236 3.031l.707.707zm-2.813 14.145a12.98 12.98 0 012.813-14.145l-.707-.707a13.98 13.98 0 00-3.03 15.235l.924-.383zm11.992-17.987c-7.169 0-12.98 5.812-12.98 12.98h1c0-6.616 5.363-11.98 11.98-11.98v-1zm.5.54v-.04h-1v.04h1zm12.48 12.438c-.035-7.147-5.832-12.926-12.98-12.938l-.001 1c6.597.011 11.95 5.345 11.98 11.943l1-.005zm-12.98 12.982c7.168 0 12.98-5.811 12.98-12.98h-1c0 6.617-5.364 11.98-11.98 11.98v1zm-12.98-12.98c0 7.169 5.811 12.98 12.98 12.98v-1c-6.617 0-11.98-5.363-11.98-11.98h-1z"/></g><path d="M30.47 312.312a6.86 6.86 0 11-13.72 0 6.86 6.86 0 0113.72 0z" fill="#001550"/><path fill-rule="evenodd" clip-rule="evenodd" d="M16.25 312.282a7.36 7.36 0 007.36 7.36 7.37 7.37 0 007.36-7.36 7.36 7.36 0 10-14.72 0zm1 0a6.36 6.36 0 016.36-6.36v.03a6.37 6.37 0 016.36 6.33 6.36 6.36 0 11-12.72 0z" fill="#001550"/></g></svg>