<?xml version="1.0" encoding="UTF-8"?>
<svg width="24px" height="24px" viewBox="0 0 24 24" version="1.1" xmlns="http://www.w3.org/2000/svg" xmlns:xlink="http://www.w3.org/1999/xlink">
    <title>icons / my-account</title>
    <g id="Symbols" stroke="none" stroke-width="1" fill="none" fill-rule="evenodd">
        <g id="components-/-navigation-/-header" transform="translate(-1162.000000, -16.000000)" fill="#282A34" fill-rule="nonzero">
            <g id="Group" transform="translate(1157.000000, 16.000000)">
                <g transform="translate(5.000000, 0.000000)" id="np_profile_2212088_282A34">
                    <path d="M16.4448,8.778 C16.4448,10.611744 15.333864,12.22248 13.72224,12.88896 C16.61064,13.555512 18.83352,15.88896 19.27776,18.88896 C19.4446344,19.777704 18.055248,19.999896 17.889312,19.1111472 C17.444928,16.2227472 14.944512,14.0553072 12.000912,14.0553072 C9.056112,14.0553072 6.556752,16.2218592 6.112512,19.1111472 C5.9456376,19.9998912 4.557192,19.7776992 4.724064,18.88896 C5.223744,15.88896 7.446624,13.55544 10.279584,12.88896 C8.668032,12.222408 7.557024,10.610832 7.557024,8.778 C7.557024,6.33384 9.556704,4.3332 12.001824,4.3332 C14.44416,4.3332 16.4448,6.33288 16.4448,8.778 Z M12,5.77788 C10.333128,5.77788 9,7.111008 9,8.77788 C9,10.444752 10.333128,11.83308 12,11.83308 C13.666872,11.83308 15.0552,10.444632 15.0552,8.77788 C15.0552,7.111008 13.666752,5.77788 12,5.77788 Z" id="Shape"></path>
                    <path d="M12,0 C18.66648,0 24,5.38872 24,12 C24,18.66648 18.66648,24 12,24 C5.38872,24 0,18.66648 0,12 C0,5.38872 5.38872,0 12,0 Z M12,1.388448 C6.1668,1.388448 1.3884,6.165888 1.3884,12.000048 C1.3884,17.888448 6.16584,22.611648 12,22.611648 C17.8884,22.611648 22.6116,17.889408 22.6116,12.000048 C22.6116,6.166848 17.88936,1.388448 12,1.388448 Z" id="Shape"></path>
                </g>
            </g>
        </g>
    </g>
</svg>