<svg width="389" height="260" viewBox="0 0 389 260" fill="none" xmlns="http://www.w3.org/2000/svg">
    <path d="M247.649 253.745C247.649 256.814 213.497 259.282 171.363 259.282C129.229 259.282 95.085 256.798 95.085 253.745C95.085 250.692 129.237 248.208 171.363 248.208C213.489 248.208 247.649 250.676 247.649 253.745Z" fill="#8BAAFF"/>
    <path opacity="0.4" d="M247.649 253.745C247.649 256.814 213.497 259.282 171.363 259.282C129.229 259.282 95.085 256.798 95.085 253.745C95.085 250.692 129.237 248.208 171.363 248.208C213.489 248.208 247.649 250.676 247.649 253.745Z" fill="white"/>
    <path d="M134.449 241.321C134.449 241.321 133.992 243.372 128.767 246.094C123.541 248.815 117.635 252.674 120.583 254.258C123.532 255.842 133.992 252.217 136.95 249.496C139.908 246.774 143.303 245.18 143.303 242.915C143.303 240.651 140.579 239.28 138.312 239.28C137.537 239.195 136.755 239.344 136.067 239.708C135.378 240.072 134.814 240.634 134.449 241.321Z" fill="#001550" stroke="#001550" stroke-width="2" stroke-linecap="round" stroke-linejoin="round"/>
    <path d="M138.994 230.436C137.631 234.518 133.992 236.783 133.992 237.92C134.065 239.063 134.217 240.2 134.45 241.322C136.081 242.257 137.842 242.948 139.675 243.373C142.175 243.82 143.304 242.916 143.304 242.916C143.304 242.916 146.038 240.875 146.719 240.194C147.4 239.514 149.22 238.377 148.986 236.102C148.753 233.828 147.848 232.924 148.763 230.883C149.677 228.842 168.982 197.525 168.982 197.525L153.083 191.392C153.083 191.392 140.356 226.344 138.994 230.436Z" fill="#001550" stroke="#001550" stroke-width="2" stroke-linecap="round" stroke-linejoin="round"/>
    <path d="M215.103 244.956C215.103 244.956 229.416 251.537 229.649 253.131C229.883 254.725 219.647 254.939 215.103 254.492C210.559 254.044 207.61 250.176 207.61 250.176C207.61 250.176 209.196 244.276 215.103 244.956Z" fill="#001550" stroke="#001550" stroke-width="2" stroke-linecap="round" stroke-linejoin="round"/>
    <path d="M194.202 191.848C194.202 191.848 200.108 228.618 202.385 235.655C204.662 242.692 201.694 242.002 202.833 244.053C204.275 246.207 205.871 248.253 207.61 250.176C207.61 250.176 211.697 246.541 213.517 246.288C215.336 246.035 216.698 245.831 216.698 245.831C216.698 245.831 215.784 241.292 215.103 240.388C214.422 239.484 213.964 236.306 213.283 233.808C212.602 231.31 211.473 190.001 211.473 190.001C211.473 190.001 198.97 192.305 194.202 191.848Z" fill="#001550" stroke="#001550" stroke-width="2" stroke-linecap="round" stroke-linejoin="round"/>
    <path d="M170.344 37.7422C167.228 39.9588 164.266 42.3846 161.48 45.0028C156.031 49.9988 146.943 57.2594 146.486 58.8534C146.028 60.4474 152.625 90.1702 155.126 99.6761C157.627 109.182 158.308 153.008 155.126 167.986C153.069 177.426 150.258 186.686 146.719 195.677C153.719 200.471 162.09 202.859 170.568 202.481C184.657 201.791 191.001 197.942 198.065 198.593C205.129 199.245 213.06 199.04 216.699 194.278C220.338 189.515 224.191 187.698 226.429 184.743C227.804 182.898 228.594 180.684 228.696 178.386C228.696 178.386 226.653 170.669 219.151 146.389C211.649 122.109 211.658 89.6454 210.296 82.8416C208.934 76.0378 205.752 55.3835 202.57 49.7072C199.389 44.0309 186.496 39.7834 180.113 38.6559C173.73 37.5284 172.621 36.605 170.344 37.7422Z" fill="#10B981"/>
    <path d="M170.344 37.7422C167.228 39.9588 164.266 42.3846 161.48 45.0028C156.031 49.9988 146.943 57.2594 146.486 58.8534C146.028 60.4474 152.625 90.1702 155.126 99.6761C157.627 109.182 158.308 153.008 155.126 167.986C153.069 177.426 150.258 186.686 146.719 195.677C153.719 200.471 162.09 202.859 170.568 202.481C184.657 201.791 191.001 197.942 198.065 198.593C205.129 199.245 213.06 199.04 216.699 194.278C220.338 189.515 224.191 187.698 226.429 184.743C227.804 182.898 228.594 180.684 228.696 178.386C228.696 178.386 226.653 170.669 219.151 146.389C211.649 122.109 211.658 89.6454 210.296 82.8416C208.934 76.0378 205.752 55.3835 202.57 49.7072C199.389 44.0309 186.496 39.7834 180.113 38.6559C173.73 37.5284 172.621 36.605 170.344 37.7422Z" stroke="#001550" stroke-width="2" stroke-linecap="round" stroke-linejoin="round"/>
    <path d="M171.463 63.0818L184.336 81.1895L191.886 58.2803C191.886 58.2803 191.361 48.405 187.527 44.9448C183.694 41.4846 179.412 36.3721 173.01 40.882C166.607 45.392 167.785 51.321 168.077 54.4896C168.369 57.6582 171.463 63.0818 171.463 63.0818Z" fill="white" stroke="#001550" stroke-width="2" stroke-miterlimit="10"/>
    <path d="M176.201 55.9573L179.976 60.3117L179.111 73.6568L184.336 81.1896L187.819 71.6254L183.168 60.3117L183.752 53.3524L179.111 49.2896L176.201 55.9573Z" fill="#001550" stroke="#001550" stroke-width="2" stroke-miterlimit="10"/>
    <path d="M179.616 54.3147L171.463 63.0624C171.463 63.0624 167.23 49.9117 166.597 45.3726C165.965 40.8335 167.376 39.8907 169.731 38.4813C172.085 37.072 175.783 37.6746 178.663 38.3258C181.543 38.977 183.061 40.2017 183.684 41.4556C184.306 42.7094 191.049 59.1551 191.049 59.1551L179.616 54.3147Z" fill="white" stroke="#001550" stroke-width="2" stroke-miterlimit="10"/>
    <path d="M184.395 78.3418C189.756 105.722 196.256 152.581 190.184 198.73" stroke="#001550" stroke-width="2" stroke-miterlimit="10"/>
    <path d="M189.084 89.957C189.831 89.957 190.436 89.3521 190.436 88.6059C190.436 87.8597 189.831 87.2549 189.084 87.2549C188.337 87.2549 187.731 87.8597 187.731 88.6059C187.731 89.3521 188.337 89.957 189.084 89.957Z" fill="#001550"/>
    <path d="M192.967 120.564C193.714 120.564 194.319 119.959 194.319 119.213C194.319 118.467 193.714 117.862 192.967 117.862C192.22 117.862 191.614 118.467 191.614 119.213C191.614 119.959 192.22 120.564 192.967 120.564Z" fill="#001550"/>
    <path d="M165.683 31.5417C165.683 31.5417 168.106 36.6251 168.339 39.7451C168.573 42.8652 176.211 54.1886 178.868 54.1886C181.524 54.1886 181.417 45.6353 181.067 41.8252C180.716 38.015 181.757 35.9253 182.108 35.4685C182.458 35.0117 177.243 33.6217 174.012 31.1918C170.782 28.7619 168.106 28.412 166.831 28.8785C165.557 29.3451 165.683 31.5417 165.683 31.5417Z" fill="white"/>
    <path d="M165.683 31.5417C165.683 31.5417 168.106 36.6251 168.339 39.7451C168.573 42.8652 176.211 54.1886 178.868 54.1886C181.524 54.1886 181.417 45.6353 181.067 41.8252C180.716 38.015 181.757 35.9253 182.108 35.4685C182.458 35.0117 177.243 33.6217 174.012 31.1918C170.782 28.7619 168.106 28.412 166.831 28.8785C165.557 29.3451 165.683 31.5417 165.683 31.5417Z" stroke="#001550" stroke-width="2" stroke-linecap="round" stroke-linejoin="round"/>
    <path d="M160.361 28.4117C160.361 28.4117 164.176 32.3481 166.258 32.805C168.34 33.2618 169.848 31.6483 169.031 30.0349C168.214 28.4214 168.69 25.9915 171.113 26.3317C173.536 26.6719 175.511 24.6016 174.704 21.8314C173.896 19.0613 172.621 16.3981 169.615 16.9716C166.608 17.5451 157.462 23.2116 160.361 28.4117Z" fill="#001550" stroke="#001550" stroke-width="2" stroke-linecap="round" stroke-linejoin="round"/>
    <path d="M185.582 13.0453C185.582 13.0453 187.431 17.0886 189.163 18.7118C190.895 20.335 192.403 19.9754 191.829 21.2487C191.255 22.522 188.705 24.1646 188.705 24.1646C188.705 24.1646 188.939 29.9381 188.705 32.7082C188.472 35.4783 188.705 36.2948 186.156 36.7613C182.657 37.2058 179.102 36.7989 175.793 35.5755C173.552 34.8546 171.656 33.3314 170.471 31.2988C169.38 31.3366 168.289 31.2187 167.231 30.9489C165.032 30.4921 163.183 25.8655 164.458 24.1451C165.01 23.4424 165.819 22.9866 166.707 22.8773C167.594 22.7681 168.49 23.0142 169.196 23.562C170.014 24.5339 170.938 25.4087 171.629 25.4087C172.32 25.4087 173.711 24.8352 172.904 23.3287C172.096 21.8221 171.162 20.5586 172.436 19.5186C173.711 18.4786 183.5 12.9286 185.582 13.0453Z" fill="white"/>
    <path d="M185.582 13.0453C185.582 13.0453 187.431 17.0886 189.163 18.7118C190.895 20.335 192.403 19.9754 191.829 21.2487C191.255 22.522 188.705 24.1646 188.705 24.1646C188.705 24.1646 188.939 29.9381 188.705 32.7082C188.472 35.4783 188.705 36.2948 186.156 36.7613C182.657 37.2058 179.102 36.7989 175.793 35.5755C173.552 34.8546 171.656 33.3314 170.471 31.2988C169.38 31.3366 168.289 31.2187 167.231 30.9489C165.032 30.4921 163.183 25.8655 164.458 24.1451C165.01 23.4424 165.819 22.9866 166.707 22.8773C167.594 22.7681 168.49 23.0142 169.196 23.562C170.014 24.5339 170.938 25.4087 171.629 25.4087C172.32 25.4087 173.711 24.8352 172.904 23.3287C172.096 21.8221 171.162 20.5586 172.436 19.5186C173.711 18.4786 183.5 12.9286 185.582 13.0453Z" stroke="#001550" stroke-width="2" stroke-linecap="round" stroke-linejoin="round"/>
    <path d="M188.705 24.1449C187.663 24.3525 186.673 24.7654 185.792 25.3595C184.912 25.9536 184.159 26.717 183.577 27.6051C181.748 30.521 183.577 31.0167 184.715 30.3266C185.854 29.6365 187.897 28.0619 189.036 27.4107C190.174 26.7595 190.456 23.9116 188.705 24.1449Z" fill="#001550" stroke="#001550" stroke-width="2" stroke-linecap="round" stroke-linejoin="round"/>
    <path d="M183.881 20.7787C184.238 20.643 184.271 19.8621 183.955 19.0343C183.64 18.2066 183.095 17.6456 182.738 17.7812C182.382 17.9169 182.349 18.6979 182.664 19.5256C182.98 20.3533 183.525 20.9143 183.881 20.7787Z" fill="#001550"/>
    <path d="M180.215 17.7929C180.606 17.1576 181.148 16.6289 181.793 16.2541C182.438 15.8793 183.166 15.6701 183.912 15.6452" stroke="#001550" stroke-width="2" stroke-linecap="round" stroke-linejoin="round"/>
    <path d="M156.332 37.0817C158.703 32.2995 161.831 27.9309 165.596 24.1448C171.959 17.6715 195.759 10.9649 197.063 9.11817C198.367 7.27143 186.068 10.2748 186.068 10.2748C186.068 10.2748 178.897 1.60485 168.485 1.02167C158.074 0.438489 155.067 11.7716 154.951 17.4382C154.834 23.1048 157.724 29.685 157.724 29.685C157.724 29.685 154.454 38.0051 156.332 37.0817Z" fill="#FFC966"/>
    <path d="M156.332 37.0817C158.703 32.2995 161.831 27.9309 165.596 24.1448C171.959 17.6715 195.759 10.9649 197.063 9.11817C198.367 7.27143 186.068 10.2748 186.068 10.2748C186.068 10.2748 178.897 1.60485 168.485 1.02167C158.074 0.438489 155.067 11.7716 154.951 17.4382C154.834 23.1048 157.724 29.685 157.724 29.685C157.724 29.685 154.454 38.0051 156.332 37.0817Z" stroke="#001550" stroke-width="2" stroke-linecap="round" stroke-linejoin="round"/>
    <path d="M157.695 29.6853C157.695 29.6853 154.455 38.0053 156.303 37.0819C158.674 32.2997 161.802 27.9312 165.567 24.145C171.93 17.6717 195.73 10.9651 197.034 9.1184C198.338 7.27166 186.039 10.275 186.039 10.275C186.039 10.275 177.827 14.5517 171.006 19.0228C166.309 22.2403 161.859 25.8044 157.695 29.6853Z" fill="#FFC966" stroke="#001550" stroke-width="2" stroke-linecap="round" stroke-linejoin="round"/>
    <path d="M160.701 3.56836C160.701 3.56836 160.818 14.7751 169.147 20.4417" stroke="#001550" stroke-width="2" stroke-linecap="round" stroke-linejoin="round"/>
    <path d="M157.968 111.388L161.51 112.36C161.51 112.36 167.63 108.093 168.321 107.967C169.012 107.841 174.801 111.145 176.64 112.613C178.479 114.081 180.795 115.665 180.182 116.151C179.569 116.637 178.236 116.025 177.37 115.539C176.504 115.053 171.259 112.487 171.259 112.487C171.259 112.487 175.151 115.053 176.514 116.151C177.876 117.249 179.812 117.862 179.326 118.474C179.21 118.664 179.057 118.829 178.875 118.957C178.693 119.086 178.487 119.176 178.269 119.222C178.05 119.267 177.825 119.267 177.607 119.222C177.389 119.177 177.182 119.088 177 118.96C175.784 118.348 169.547 114.81 169.547 114.81C169.547 114.81 174.801 118.348 175.784 119.203C176.767 120.058 176.757 121.283 175.657 121.283C174.558 121.283 171.503 119.689 170.403 119.086C169.304 118.484 166.122 116.88 166.122 116.88C167.489 118.381 168.753 119.972 169.907 121.642C170.646 122.994 171.746 124.704 170.52 124.704C169.294 124.704 167.601 121.895 166.735 120.914C165.869 119.932 162.697 118.834 162.697 118.834C161.213 119.533 159.656 120.068 158.055 120.428C155.973 120.787 151.818 116.394 151.818 116.394L157.968 111.388Z" fill="white" stroke="#001550" stroke-width="2" stroke-linecap="round" stroke-linejoin="round"/>
    <path d="M161.509 112.399L158.482 116.035" stroke="#001550" stroke-width="2" stroke-linecap="round" stroke-linejoin="round"/>
    <path d="M169.585 114.849L167.629 113.683" stroke="#001550" stroke-width="2" stroke-linecap="round" stroke-linejoin="round"/>
    <path d="M171.297 112.526L169.098 111.321" stroke="#001550" stroke-width="2" stroke-linecap="round" stroke-linejoin="round"/>
    <path d="M130.129 70.877C130.129 70.877 115.592 82.91 115.359 83.8139C115.125 84.7179 152.168 118.999 152.168 118.999L158.979 111.505L138.76 84.4943L154.211 74.7746C154.211 74.7746 155.573 67.2905 153.306 62.9749C152.605 61.6962 151.631 60.5863 150.455 59.7232C149.278 58.8601 147.927 58.2648 146.495 57.979L130.129 70.877Z" fill="#10B981"/>
    <path d="M130.129 70.877C130.129 70.877 115.592 82.91 115.359 83.8139C115.125 84.7179 152.168 118.999 152.168 118.999L158.979 111.505L138.76 84.4943L154.211 74.7746C154.211 74.7746 155.573 67.2905 153.306 62.9749C152.605 61.6962 151.631 60.5863 150.455 59.7232C149.278 58.8601 147.927 58.2648 146.495 57.979L130.129 70.877Z" stroke="#001550" stroke-width="2" stroke-linecap="round" stroke-linejoin="round"/>
    <path d="M231.693 70.3911C231.693 70.3911 217.516 62.3237 211.639 56.5891C205.762 50.8545 203.33 48.1622 202.717 50.3588C202.103 52.5555 207.854 81.4618 208.954 81.9867C210.053 82.5115 233.279 90.783 237.93 91.026C242.581 91.269 245.714 91.6383 246.249 89.568C246.785 87.4977 243.33 81.1411 239.03 76.1257C234.729 71.1103 231.693 70.3911 231.693 70.3911Z" fill="#10B981"/>
    <path d="M231.693 70.3911C231.693 70.3911 217.516 62.3237 211.639 56.5891C205.762 50.8545 203.33 48.1622 202.717 50.3588C202.103 52.5555 207.854 81.4618 208.954 81.9867C210.053 82.5115 233.279 90.783 237.93 91.026C242.581 91.269 245.714 91.6383 246.249 89.568C246.785 87.4977 243.33 81.1411 239.03 76.1257C234.729 71.1103 231.693 70.3911 231.693 70.3911Z" stroke="#001550" stroke-width="2" stroke-linecap="round" stroke-linejoin="round"/>
    <path d="M167.163 40.6973C167.163 40.6973 173.526 60.2144 176.251 73.6082C178.975 87.0019 180.143 99.4722 180.143 99.4722C180.143 99.4722 176.251 96.984 165.83 96.0703C155.408 95.1567 150.611 93.5724 146.067 84.951C141.523 76.3296 138.565 77.01 134.021 75.6493C129.477 74.2885 128.115 71.7614 128.115 71.7614C128.115 71.7614 165.577 40.4349 167.163 40.6973ZM181.563 38.9964C184.933 45.7354 187.675 52.7697 189.756 60.0103C193.298 72.2182 198.319 98.8891 198.319 98.8891C198.319 98.8891 206.998 97.9171 209.567 92.4157C212.136 86.9144 212.252 84.8344 216.378 83.3764C220.504 81.9185 226.167 78.8568 226.653 74.9495C227.011 72.3097 227.541 69.6961 228.239 67.1251C228.239 67.1251 205.383 48.2009 201.831 45.7418C198.28 43.2827 182.546 38.0244 181.563 38.9964Z" fill="#10B981"/>
    <path d="M167.163 40.6973C167.163 40.6973 173.526 60.2144 176.251 73.6082C178.975 87.0019 180.143 99.4722 180.143 99.4722C180.143 99.4722 176.251 96.984 165.83 96.0703C155.408 95.1567 150.611 93.5724 146.067 84.951C141.523 76.3296 138.565 77.01 134.021 75.6493C129.477 74.2885 128.115 71.7614 128.115 71.7614C128.115 71.7614 165.577 40.4349 167.163 40.6973ZM181.563 38.9964C184.933 45.7354 187.675 52.7697 189.756 60.0103C193.298 72.2182 198.319 98.8891 198.319 98.8891C198.319 98.8891 206.998 97.9171 209.567 92.4157C212.136 86.9144 212.252 84.8344 216.378 83.3764C220.504 81.9185 226.167 78.8568 226.653 74.9495C227.011 72.3097 227.541 69.6961 228.239 67.1251C228.239 67.1251 205.383 48.2009 201.831 45.7418C198.28 43.2827 182.546 38.0244 181.563 38.9964Z" stroke="#001550" stroke-width="2" stroke-linecap="round" stroke-linejoin="round"/>
    <path d="M221.252 38.3063C221.252 38.3063 222.166 43.7299 222.478 45.0226C222.789 46.3153 225.757 50.0671 225.757 50.0671L220.795 53.1969C219.614 51.0652 218.314 49.0014 216.902 47.0151C216.066 46.1695 211.862 45.0712 210.636 43.4188C209.41 41.7665 209.722 39.8323 209.41 38.6076C209.099 37.3829 206.277 33.8741 206.968 33.3395C207.659 32.8049 209.109 33.2618 209.79 34.1074C210.471 34.953 210.48 36.168 210.763 36.7803C211.045 37.3926 214.81 39.6962 214.81 39.6962C214.81 39.6962 213.127 34.885 212.864 34.2046C212.801 34.0187 212.779 33.8213 212.8 33.6261C212.822 33.4309 212.886 33.2428 212.988 33.075C213.09 32.9072 213.228 32.7638 213.391 32.655C213.555 32.5462 213.74 32.4746 213.935 32.4453C214.694 32.4453 218.138 35.8083 218.138 35.8083L221.252 38.3063Z" stroke="#001550" stroke-width="2" stroke-linecap="round" stroke-linejoin="round"/>
    <path d="M206.785 29.0106C209.78 27.5158 209.996 21.8818 207.267 16.4268C204.539 10.9718 199.899 7.76145 196.904 9.25627C193.909 10.7511 193.693 16.3851 196.422 21.8401C199.151 27.2951 203.791 30.5054 206.785 29.0106Z" fill="white" stroke="#001550" stroke-width="2" stroke-linecap="round" stroke-linejoin="round"/>
    <path d="M205.573 27.7175C207.63 26.6905 207.427 22.1171 205.119 17.5024C202.81 12.8878 199.271 9.97934 197.214 11.0063C195.156 12.0332 195.36 16.6067 197.668 21.2213C199.976 25.836 203.515 28.7444 205.573 27.7175Z" fill="white" stroke="#001550" stroke-width="2" stroke-linecap="round" stroke-linejoin="round"/>
    <path d="M206.491 28.6254L215.083 41.4554C215.192 41.6205 215.334 41.7615 215.499 41.8698C215.665 41.9781 215.851 42.0514 216.046 42.0851C216.241 42.1188 216.441 42.1122 216.634 42.0657C216.826 42.0193 217.007 41.934 217.165 41.815C217.321 41.6993 217.451 41.5538 217.55 41.3871C217.648 41.2203 217.713 41.0356 217.739 40.8438C217.765 40.652 217.753 40.4569 217.703 40.2698C217.653 40.0828 217.566 39.9076 217.447 39.7544L207.902 27.6048C207.849 27.5298 207.781 27.4663 207.703 27.4181C207.625 27.3699 207.538 27.338 207.447 27.3244C207.356 27.3108 207.263 27.3157 207.174 27.3388C207.085 27.362 207.002 27.4029 206.929 27.459L206.608 27.6729C206.469 27.7855 206.378 27.9478 206.357 28.1255C206.335 28.3033 206.383 28.4825 206.491 28.6254Z" fill="#001550" stroke="#001550" stroke-width="2" stroke-linecap="round" stroke-linejoin="round"/>
    <path d="M212.768 30.4239C212.768 30.4239 210.218 31.9985 210.335 32.8539C210.452 33.7092 210.821 34.0591 211.551 34.0591C212.281 34.0591 214.217 32.9705 214.947 32.6109C215.677 32.2512 215.151 29.4617 212.768 30.4239Z" fill="white" stroke="#001550" stroke-width="2" stroke-linecap="round" stroke-linejoin="round"/>
    <path d="M213.74 33.3397C212.829 34.5487 212.013 35.8258 211.298 37.1596C211.22 37.6942 215.647 42.0194 216.416 42.0194C217.185 42.0194 221.388 39.4243 221.232 38.3551C221.077 37.2859 216.795 34.0784 216.036 33.3106C215.278 32.5427 214.596 32.2706 213.74 33.3397Z" fill="white" stroke="#001550" stroke-width="2" stroke-linecap="round" stroke-linejoin="round"/>
    <path d="M212.612 38.6854L216.738 33.7964" stroke="#001550" stroke-width="2" stroke-linecap="round" stroke-linejoin="round"/>
    <path d="M219.034 36.168L214.908 40.8237" stroke="#001550" stroke-width="2" stroke-linecap="round" stroke-linejoin="round"/>
    <path d="M231.323 78.8177L218.732 52.4385L228.025 47.5786C228.025 47.5786 237.93 59.0576 241.968 67.018C246.006 74.9784 247.806 87.6626 246.249 89.6163C244.693 91.5699 237.56 90.2189 234.019 88.0222" fill="#10B981"/>
    <path d="M231.323 78.8177L218.732 52.4385L228.025 47.5786C228.025 47.5786 237.93 59.0576 241.968 67.018C246.006 74.9784 247.806 87.6626 246.249 89.6163C244.693 91.5699 237.56 90.2189 234.019 88.0222" stroke="#001550" stroke-width="2" stroke-linecap="round" stroke-linejoin="round"/>
</svg>
