<svg viewBox="0 0 429 333" fill="none" xmlns="http://www.w3.org/2000/svg">
<path d="M311.67 288.466C351.957 288.466 384.616 278.762 384.616 266.791C384.616 254.82 351.957 245.116 311.67 245.116C271.382 245.116 238.723 254.82 238.723 266.791C238.723 278.762 271.382 288.466 311.67 288.466Z" fill="#001550" stroke="#001550" stroke-width="1.5" stroke-linecap="round" stroke-linejoin="round"/>
<path d="M311.67 255.083C346.173 255.083 375.068 262.167 382.656 271.769C383.854 270.38 384.545 268.625 384.616 266.791C384.616 254.81 351.952 245.106 311.67 245.106C271.387 245.106 238.713 254.81 238.713 266.791C238.784 268.625 239.475 270.38 240.673 271.769C248.261 262.207 277.156 255.083 311.67 255.083Z" fill="white" stroke="#001550" stroke-width="1.5" stroke-linecap="round" stroke-linejoin="round"/>
<path d="M301.708 285.744C277.338 284.641 258.95 279.673 258.95 273.601C258.963 272.939 259.17 272.295 259.546 271.75" stroke="white" stroke-width="1.5" stroke-linecap="round" stroke-linejoin="round"/>
<path d="M358.256 267.691C362.429 269.462 364.813 271.486 364.813 273.641C364.813 280.451 341.111 285.966 311.882 285.966H310.619" stroke="white" stroke-width="1.5" stroke-linecap="round" stroke-linejoin="round"/>
<path d="M266.073 267.459C275.237 263.786 292.342 261.306 311.882 261.306C323 261.22 334.105 262.131 345.061 264.028" stroke="white" stroke-width="1.5" stroke-linecap="round" stroke-linejoin="round"/>
<path d="M301.011 277.872C294.837 277.011 290.705 275.443 290.705 273.642C290.705 270.92 300.192 268.714 311.922 268.714C323.652 268.714 333.089 270.92 333.089 273.642C333.089 275.979 326.117 277.932 316.762 278.438" stroke="white" stroke-width="1.5" stroke-linecap="round" stroke-linejoin="round"/>
<path d="M18.7012 179.656C50.5168 170.6 117.462 152.73 154.41 151.384C204.078 149.623 287.937 185.728 340.292 192.052C392.648 198.377 427.828 196.575 427.828 196.575" stroke="#001550" stroke-width="2" stroke-linecap="round" stroke-linejoin="round"/>
<path d="M1 184.827C1 184.827 3.74813 183.988 8.56745 182.581" stroke="#001550" stroke-width="2" stroke-linecap="round" stroke-linejoin="round"/>
<path d="M413.694 128.495C395.354 124.46 376.591 122.683 357.822 123.203C319.004 124.508 276.995 129.649 225.053 136.357C173.111 143.066 99.1444 106 48.8496 119.752C-1.44508 133.504 2.374 137.642 2.374 137.642" stroke="#001550" stroke-width="2" stroke-linecap="round" stroke-linejoin="round"/>
<path d="M428 132.219C428 132.219 426.04 131.571 422.494 130.63" stroke="#001550" stroke-width="2" stroke-linecap="round" stroke-linejoin="round"/>
<path d="M130.98 193.975C130.625 193.98 130.275 193.885 129.97 193.702C129.528 193.429 129.208 192.996 129.076 192.493C128.945 191.99 129.011 191.455 129.263 191C129.758 190.13 254.676 53.6956 311.831 3.66743C312.03 3.50703 312.283 3.42828 312.538 3.44706C312.793 3.46584 313.031 3.58075 313.205 3.76861C313.371 3.96954 313.453 4.22695 313.435 4.48715C313.416 4.74734 313.297 4.99019 313.104 5.16503C256.232 54.9807 133.163 192.123 132.668 192.983C132.499 193.283 132.254 193.533 131.958 193.708C131.661 193.882 131.324 193.974 130.98 193.975Z" fill="#001550"/>
<path d="M137.881 166.826C137.881 166.826 144.074 160.208 147.792 160.208C151.51 160.208 158.532 166.411 158.118 169.72C157.704 173.029 151.51 170.135 151.51 170.135C151.51 170.135 145.721 177.997 139.942 176.753C134.163 175.508 137.881 166.826 137.881 166.826Z" fill="white" stroke="#001550" stroke-width="2" stroke-linecap="round" stroke-linejoin="round"/>
<path d="M151.541 170.114C151.541 170.114 155.33 172.745 155.663 174.597C155.997 176.449 151.46 181.68 146.419 182.854C141.377 184.028 138.679 181.164 140.195 178.473C141.71 175.781 147.722 170.357 151.541 170.114Z" fill="white" stroke="#001550" stroke-width="2" stroke-linecap="round" stroke-linejoin="round"/>
<path d="M307.133 146.143V9.24316C307.133 9.24316 304.375 19.1496 304.375 19.8681" stroke="#001550" stroke-width="2" stroke-linecap="round" stroke-linejoin="round"/>
<path d="M364.136 153.357H259.324V237.466H364.136V153.357Z" fill="#FFC966" stroke="#001550" stroke-width="2" stroke-linecap="round" stroke-linejoin="round"/>
<path d="M308.628 153.003V148.187C308.628 147.867 308.502 147.561 308.276 147.335C308.051 147.109 307.745 146.982 307.426 146.982C307.107 146.982 306.801 147.109 306.576 147.335C306.35 147.561 306.224 147.867 306.224 148.187V153.003H308.628Z" fill="#001550"/>
<path d="M318.247 141.286V141.528C318.149 141.344 318.004 141.19 317.826 141.081C317.648 140.973 317.445 140.914 317.236 140.911C316.915 140.911 316.606 141.039 316.379 141.267C316.152 141.495 316.024 141.803 316.024 142.125V154.987C316.024 155.97 315.635 156.913 314.941 157.609C314.248 158.305 313.308 158.698 312.326 158.7C311.818 158.701 311.315 158.594 310.851 158.387C310.583 158.787 310.466 159.269 310.522 159.748C310.577 160.226 310.802 160.669 311.154 160.997C311.541 161.07 311.933 161.108 312.326 161.109C313.129 161.109 313.924 160.95 314.665 160.643C315.407 160.335 316.081 159.884 316.648 159.316C317.216 158.747 317.666 158.072 317.973 157.329C318.281 156.587 318.439 155.791 318.439 154.987V149.027H321.207L318.247 141.286Z" fill="#001550"/>
<path d="M307.234 7.95775C307.234 7.95775 309.376 0.338165 307.477 1.04649C305.578 1.75482 307.234 7.95775 307.234 7.95775Z" stroke="#001550" stroke-width="2" stroke-linecap="round" stroke-linejoin="round"/>
<path d="M307.234 7.95774C307.234 7.95774 299.151 5.09406 299.869 7.71488C300.586 10.3357 307.234 7.95774 307.234 7.95774Z" stroke="#001550" stroke-width="2" stroke-linecap="round" stroke-linejoin="round"/>
<path d="M132.94 74.3688C132.94 74.3688 122.968 68.773 103.408 71.5759C83.848 74.3789 80.1199 90.5288 83.3126 107.316C86.5052 124.104 105.005 138.321 107.803 137.127C110.602 135.933 107.005 98.3507 113.39 91.1561C119.776 83.9615 140.528 85.1657 141.68 79.5699C142.832 73.9741 132.94 74.3688 132.94 74.3688Z" fill="#001550" stroke="#001550" stroke-width="2" stroke-linecap="round" stroke-linejoin="round"/>
<path d="M98.1745 84.3359L100.195 97.5614C100.195 97.5614 87.667 131.814 89.6978 136.57C91.7286 141.326 110.683 143.006 110.683 143.006C110.683 143.006 141.498 146.74 150.641 143.006C159.785 139.272 155.047 128.424 154.026 125.378C153.006 122.333 147.257 97.9055 147.257 97.9055C147.257 97.9055 149.278 92.1377 149.278 89.0919C149.278 86.046 148.934 77.5562 147.58 75.5223C146.226 73.4884 122.524 71.1104 112.026 72.8104C101.529 74.5104 96.8207 77.2223 98.1745 84.3359Z" fill="#FFC966" stroke="#001550" stroke-width="2" stroke-linecap="round" stroke-linejoin="round"/>
<path d="M103.6 99.6052C103.6 99.6052 103.257 129.102 104.954 134.87C106.652 140.638 113.421 147.417 127.636 145.717C141.852 144.017 143.216 130.458 143.216 130.458L142.205 98.9272L103.6 99.6052Z" fill="white" stroke="#001550" stroke-width="2" stroke-linecap="round" stroke-linejoin="round"/>
<path d="M127.98 120.794C127.982 121.299 127.834 121.793 127.556 122.214C127.277 122.634 126.88 122.963 126.415 123.157C125.95 123.352 125.438 123.404 124.943 123.307C124.449 123.209 123.994 122.967 123.637 122.611C123.28 122.255 123.036 121.801 122.937 121.306C122.838 120.811 122.888 120.297 123.081 119.831C123.273 119.364 123.599 118.966 124.018 118.685C124.437 118.404 124.93 118.254 125.434 118.254C125.768 118.253 126.098 118.318 126.407 118.445C126.716 118.572 126.997 118.759 127.233 118.995C127.47 119.231 127.658 119.511 127.786 119.82C127.914 120.129 127.98 120.46 127.98 120.794Z" stroke="#001550" stroke-width="2" stroke-miterlimit="10"/>
<path d="M127.636 131.48C127.636 131.817 127.536 132.146 127.349 132.426C127.162 132.706 126.897 132.923 126.586 133.052C126.275 133.18 125.933 133.213 125.604 133.147C125.274 133.08 124.972 132.918 124.735 132.679C124.498 132.44 124.337 132.136 124.273 131.806C124.208 131.475 124.243 131.133 124.373 130.823C124.503 130.512 124.722 130.247 125.003 130.062C125.283 129.876 125.613 129.778 125.949 129.78C126.171 129.78 126.391 129.824 126.597 129.91C126.802 129.995 126.989 130.121 127.145 130.279C127.302 130.437 127.426 130.624 127.51 130.83C127.595 131.037 127.637 131.258 127.636 131.48Z" fill="#001550"/>
<path d="M117.412 109.917C118.493 111.09 118.867 112.497 118.26 113.074C117.654 113.65 116.24 113.165 115.179 112.001C114.118 110.837 113.714 109.431 114.33 108.854C114.946 108.277 116.331 108.753 117.412 109.917Z" fill="#001550"/>
<path d="M131.162 109.917C130.081 111.09 129.697 112.497 130.313 113.074C130.93 113.65 132.334 113.165 133.344 112.001C134.355 110.837 134.809 109.431 134.193 108.854C133.577 108.277 132.243 108.753 131.162 109.917Z" fill="#001550"/>
<path d="M110.178 105.919C110.936 104.798 112.026 103.944 113.295 103.475C114.563 103.007 115.947 102.949 117.25 103.309" stroke="#001550" stroke-width="2" stroke-linecap="round" stroke-linejoin="round"/>
<path d="M130.627 103.683C130.627 103.683 135.456 102.196 136.952 106.294" stroke="#001550" stroke-width="2" stroke-linecap="round" stroke-linejoin="round"/>
<path d="M146.934 292.928C146.934 292.928 152.258 289.731 155.208 288.476C155.485 288.349 155.768 288.237 156.057 288.142C158.664 287.272 166.049 287.707 172.99 283.356C179.931 279.005 176.466 273.783 171.252 272.478C166.039 271.172 160.401 269.442 160.401 269.442L159.098 248.992C159.098 248.992 143.458 253.343 138.245 255.518C133.031 257.694 136.072 288.577 136.507 291.188C136.941 293.799 136.941 295.539 146.934 292.928Z" fill="#001550" stroke="#001550" stroke-width="2" stroke-linecap="round" stroke-linejoin="round"/>
<path d="M164.311 283.356C155.218 285.096 155.218 286.837 145.196 288.577C142.26 289.164 139.266 289.409 136.274 289.306C136.375 290.237 136.456 290.894 136.507 291.188C136.941 293.799 136.941 295.539 146.934 292.928C146.934 292.928 152.258 289.731 155.208 288.476C155.485 288.349 155.768 288.237 156.057 288.142C158.664 287.272 166.049 287.707 172.99 283.356C175.223 281.97 176.365 280.482 176.739 279.065C172.794 281.015 168.618 282.457 164.311 283.356Z" fill="white" stroke="#001550" stroke-width="2" stroke-linecap="round" stroke-linejoin="round"/>
<path d="M167.929 272.215C167.929 272.215 167.595 295.954 166.918 301.034C166.241 306.113 167.252 312.569 175.001 312.569C182.75 312.569 198.027 307.51 203.442 306.498C208.858 305.486 217.668 303.098 221.386 294.628C225.104 286.159 202.432 287.161 202.432 287.161L203.786 269.867C203.786 269.867 180.457 274.583 167.929 272.215Z" fill="#001550" stroke="#001550" stroke-width="2" stroke-linecap="round" stroke-linejoin="round"/>
<path d="M221.426 294.598C221.841 293.775 221.942 292.829 221.709 291.937C219.388 295.092 216.241 297.544 212.616 299.02C204.533 302.41 189.247 306.103 177.739 307.843C172.475 308.613 169.141 307.752 167.05 306.599C167.797 309.888 169.99 312.589 175.031 312.589C182.821 312.589 198.057 307.53 203.473 306.518C208.888 305.506 217.708 303.067 221.426 294.598Z" fill="white" stroke="#001550" stroke-width="2" stroke-linecap="round" stroke-linejoin="round"/>
<path d="M202.472 287.13C202.472 287.13 204.159 292.898 199.441 296.632" stroke="white" stroke-width="2" stroke-linecap="round" stroke-linejoin="round"/>
<path d="M165.564 259.667C165.564 259.667 165.039 269.978 165.615 272.043C167.777 279.875 168.464 278.043 184.72 277.699C200.977 277.355 207.544 270.859 209.241 266.791C210.939 262.723 209.241 253.899 208.564 250.843C207.888 247.787 202.502 246.796 200.431 247.119C198.36 247.443 166.575 256.277 165.564 259.667Z" fill="#FFC966" stroke="#001550" stroke-width="2" stroke-linecap="round" stroke-linejoin="round"/>
<path d="M53.8208 285.44V308.228C53.8283 309.12 54.0789 309.993 54.5454 310.753C55.0119 311.512 55.6766 312.13 56.4679 312.539L93.0422 331.451C93.6929 331.79 94.4118 331.977 95.145 331.998C95.8781 332.019 96.6065 331.874 97.2755 331.573L151.157 311.001C152.017 310.615 152.747 309.988 153.259 309.197C153.772 308.405 154.045 307.482 154.047 306.538V278.995L92.4158 297.644L53.8208 285.44Z" fill="#B9CCFF"/>
<path d="M53.8208 285.44V308.228C53.8283 309.12 54.0789 309.993 54.5454 310.753C55.0119 311.512 55.6766 312.13 56.4679 312.539L93.0422 331.451C93.6929 331.79 94.4118 331.977 95.145 331.998C95.8781 332.019 96.6065 331.874 97.2755 331.573L151.157 311.001C152.017 310.615 152.747 309.988 153.259 309.197C153.772 308.405 154.045 307.482 154.047 306.538V278.995L92.4158 297.644L53.8208 285.44Z" stroke="#001550" stroke-width="2" stroke-linecap="round" stroke-linejoin="round"/>
<path d="M110.117 246.968L51.012 265.991C50.5501 266.14 50.1473 266.432 49.8621 266.825C49.5769 267.217 49.4241 267.691 49.4258 268.177V285.056C49.4347 285.481 49.5613 285.895 49.7914 286.252C50.0215 286.61 50.3462 286.896 50.7291 287.079L91.9308 306.72C92.2082 306.853 92.5095 306.929 92.8167 306.943C93.124 306.957 93.4308 306.908 93.7191 306.801L155.582 283.619C156.02 283.456 156.397 283.163 156.665 282.78C156.932 282.397 157.076 281.941 157.078 281.473L157.189 265.637C157.185 265.113 157.005 264.606 156.676 264.198C156.348 263.79 155.891 263.505 155.38 263.391L111.289 246.907C110.899 246.829 110.496 246.85 110.117 246.968Z" fill="white"/>
<path d="M91.8599 306.71C92.1373 306.843 92.4386 306.919 92.7458 306.933C93.053 306.946 93.3599 306.898 93.6482 306.791L155.582 283.619C156.02 283.456 156.397 283.163 156.664 282.78C156.932 282.397 157.076 281.941 157.077 281.473L157.188 265.637C157.19 265.098 156.996 264.577 156.643 264.17L92.7389 287.808L91.8599 306.71Z" fill="#B9CCFF"/>
<path opacity="0.5" d="M91.8599 306.71C92.1373 306.843 92.4386 306.919 92.7458 306.933C93.053 306.946 93.3599 306.898 93.6482 306.791L155.582 283.619C156.02 283.456 156.397 283.163 156.664 282.78C156.932 282.397 157.076 281.941 157.077 281.473L157.188 265.637C157.19 265.098 156.996 264.577 156.643 264.17L92.7389 287.808L91.8599 306.71Z" fill="white"/>
<path d="M49.4258 268.127V285.005C49.4347 285.43 49.5613 285.844 49.7914 286.202C50.0215 286.559 50.3461 286.845 50.7291 287.029L91.9308 306.72C92.2058 306.853 92.5048 306.929 92.8098 306.943V287.808L49.4965 267.732C49.4574 267.86 49.4336 267.993 49.4258 268.127Z" fill="#B9CCFF"/>
<path d="M110.117 246.968L51.012 265.991C50.5501 266.14 50.1473 266.432 49.8621 266.825C49.5769 267.217 49.4241 267.691 49.4258 268.177V285.056C49.4347 285.481 49.5613 285.895 49.7914 286.252C50.0215 286.61 50.3462 286.896 50.7291 287.079L91.9308 306.72C92.2082 306.853 92.5095 306.929 92.8167 306.943C93.124 306.957 93.4308 306.908 93.7191 306.801L155.582 283.619C156.02 283.456 156.397 283.163 156.665 282.78C156.932 282.397 157.076 281.941 157.078 281.473L157.189 265.637C157.185 265.113 157.005 264.606 156.676 264.198C156.348 263.79 155.891 263.505 155.38 263.391L111.289 246.907C110.899 246.829 110.496 246.85 110.117 246.968V246.968Z" stroke="#001550" stroke-width="2" stroke-linecap="round" stroke-linejoin="round"/>
<path d="M191.298 215.923C191.298 215.923 199.077 219.647 203.149 227.114C207.221 234.582 204.159 248.81 201.785 253.221C199.411 257.633 183.508 259.667 178.093 259.667C172.677 259.667 171.657 258.989 171.657 258.989C171.657 258.989 154.39 262.379 143.549 264.413C132.708 266.447 135.466 241.018 138.811 229.482C142.155 217.947 161.159 212.189 168.949 212.189C176.739 212.189 191.298 215.923 191.298 215.923Z" fill="#001550" stroke="#001550" stroke-width="2" stroke-linecap="round" stroke-linejoin="round"/>
<path d="M171.657 258.989C171.657 258.989 186.216 253.93 192.308 241.018" stroke="white" stroke-width="2" stroke-linecap="round" stroke-linejoin="round"/>
<path d="M185.539 251.521C190.23 249.551 194.488 246.673 198.067 243.052" stroke="white" stroke-width="2" stroke-linecap="round" stroke-linejoin="round"/>
<path d="M151.339 227.115C151.339 227.115 155.38 248.476 153.359 257.289C151.339 266.103 139.477 267.469 136.769 266.447C134.062 265.425 135.416 244.408 135.416 233.894C135.416 223.381 145.923 224.059 151.339 227.115Z" fill="#FFC966" stroke="#001550" stroke-width="2" stroke-linecap="round" stroke-linejoin="round"/>
<path d="M64.9951 170.135C64.9951 170.135 62.6309 184.028 64.3182 190.828C65.1778 194.615 66.7893 198.191 69.0567 201.341C69.0567 201.341 60.59 213.889 62.2874 224.392C63.9848 234.896 68.3495 236.262 68.3495 236.262C68.3495 236.262 64.6314 255.599 71.3805 262.379C78.1295 269.159 93.0523 276.616 109.642 273.571C126.232 270.525 137.406 269.837 140.791 264.069C144.175 258.301 142.145 232.872 142.145 232.872C142.145 232.872 141.468 204.731 140.791 187.428C140.114 170.124 137.76 156.231 129.616 149.451C121.473 142.672 85.596 153.185 74.7651 160.299C63.9343 167.413 64.9951 170.135 64.9951 170.135Z" fill="#10B981"/>
<path d="M64.9951 170.135C64.9951 170.135 62.6309 184.028 64.3182 190.828C65.1778 194.615 66.7893 198.191 69.0567 201.341C69.0567 201.341 60.59 213.889 62.2874 224.392C63.9848 234.896 68.3495 236.262 68.3495 236.262C68.3495 236.262 64.6314 255.599 71.3805 262.379C78.1295 269.159 93.0523 276.616 109.642 273.571C126.232 270.525 137.406 269.837 140.791 264.069C144.175 258.301 142.145 232.872 142.145 232.872C142.145 232.872 141.468 204.731 140.791 187.428C140.114 170.124 137.76 156.231 129.616 149.451C121.473 142.672 85.596 153.185 74.7651 160.299C63.9343 167.413 64.9951 170.135 64.9951 170.135Z" stroke="#001550" stroke-width="2" stroke-linecap="round" stroke-linejoin="round"/>
<path d="M69.0566 201.341C74.2986 204.923 80.2959 207.243 86.5805 208.12C92.8651 208.998 99.2673 208.409 105.287 206.401" stroke="#001550" stroke-width="2" stroke-linecap="round" stroke-linejoin="round"/>
<path d="M68.3799 236.262C68.3799 236.262 85.6466 253.222 114.098 236.94" stroke="#001550" stroke-width="2" stroke-linecap="round" stroke-linejoin="round"/>
<path d="M135.759 153.519C135.759 153.519 129.333 143.683 120.523 138.26C111.713 132.836 89.0411 128.768 79.8975 127.068C70.754 125.368 60.9335 126.056 58.2258 136.175C55.518 146.294 55.8515 163.304 58.5592 170.762C61.2669 178.219 72.4412 182.631 81.2514 177.552C90.0616 172.472 114.431 152.79 122.898 151.779C131.364 150.767 135.082 157.253 135.759 153.519Z" fill="#10B981"/>
<path d="M135.759 153.519C135.759 153.519 129.333 143.683 120.523 138.26C111.713 132.836 89.0411 128.768 79.8975 127.068C70.754 125.368 60.9335 126.056 58.2258 136.175C55.518 146.294 55.8515 163.304 58.5592 170.762C61.2669 178.219 72.4412 182.631 81.2514 177.552C90.0616 172.472 114.431 152.79 122.898 151.779C131.364 150.767 135.082 157.253 135.759 153.519Z" stroke="#001550" stroke-width="2" stroke-linecap="round" stroke-linejoin="round"/>
<path d="M172.334 199.642C172.334 199.642 180.124 200.653 185.195 202.677C190.267 204.701 193.662 217.259 191.631 218.949C189.6 220.638 185.569 218.615 185.569 218.615C182.385 219.737 179.094 220.53 175.749 220.983C171.657 221.347 167.252 202.02 172.334 199.642Z" fill="white" stroke="#001550" stroke-width="2" stroke-linecap="round" stroke-linejoin="round"/>
<path d="M146.6 198.62C146.6 198.62 147.954 198.619 155.4 195.23C162.846 191.84 168.949 191.84 173.687 199.277C178.426 206.715 180.457 215.903 177.729 221.326C175.001 226.75 164.867 230.484 159.441 230.484C154.016 230.484 153.379 223.401 153.379 223.401C153.379 223.401 152.703 212.209 149.338 208.141C145.974 204.074 145.246 199.642 146.6 198.62Z" fill="#FFC966" stroke="#001550" stroke-width="2" stroke-linecap="round" stroke-linejoin="round"/>
<path d="M121.544 153.519C128.99 150.807 138.477 152.507 141.862 161.999C145.246 171.491 148.288 199.297 148.288 199.297C148.288 199.297 156.754 200.309 160.139 204.053C163.524 207.797 165.191 217.279 164.544 222.025C163.897 226.77 152.016 235.584 138.477 235.928C124.939 236.272 115.108 229.857 110.37 212.523C105.631 195.189 107.51 168.849 107.51 168.849C107.51 168.849 109.228 161.088 111.814 159.358" fill="#10B981"/>
<path d="M121.544 153.519C128.99 150.807 138.477 152.507 141.862 161.999C145.246 171.491 148.288 199.297 148.288 199.297C148.288 199.297 156.754 200.309 160.139 204.053C163.524 207.797 165.191 217.279 164.544 222.025C163.897 226.77 152.016 235.584 138.477 235.928C124.939 236.272 115.108 229.857 110.37 212.523C105.631 195.189 107.51 168.849 107.51 168.849C107.51 168.849 109.228 161.088 111.814 159.358" stroke="#001550" stroke-width="2" stroke-linecap="round" stroke-linejoin="round"/>
<path d="M148.288 199.297C148.288 199.297 150.935 211.653 137.335 218.432" stroke="#001550" stroke-width="2" stroke-linecap="round" stroke-linejoin="round"/>
<path fill-rule="evenodd" clip-rule="evenodd" d="M310.32 215.985H310.443V215.993C322.405 216.027 332.129 206.343 332.163 194.362C332.197 182.382 322.527 172.642 310.565 172.608H310.434C298.636 172.804 289.166 182.423 289.135 194.241C289.104 206.058 298.523 215.727 310.32 215.985ZM289.951 194.233C289.982 182.863 299.092 173.609 310.442 173.418L310.565 173.41C322.076 173.441 331.382 182.813 331.351 194.342C331.319 205.871 321.962 215.191 310.451 215.16H310.328C298.979 214.906 289.92 205.602 289.951 194.233Z" fill="white"/>
<path d="M310.443 215.985H311.443V214.985H310.443V215.985ZM310.32 215.985L310.298 216.985L310.309 216.985H310.32V215.985ZM310.443 215.993H309.443V216.99L310.44 216.993L310.443 215.993ZM332.163 194.362L331.163 194.359L332.163 194.362ZM310.565 172.608L310.568 171.608H310.565V172.608ZM310.434 172.608V171.608H310.426L310.418 171.609L310.434 172.608ZM289.135 194.241L290.135 194.243L289.135 194.241ZM310.442 173.418L310.459 174.418L310.484 174.417L310.509 174.416L310.442 173.418ZM310.565 173.41L310.568 172.41L310.533 172.409L310.498 172.412L310.565 173.41ZM310.451 215.16L310.453 214.16H310.451V215.16ZM310.328 215.16L310.306 216.159L310.317 216.16H310.328V215.16ZM310.443 214.985H310.32V216.985H310.443V214.985ZM311.443 215.993V215.985H309.443V215.993H311.443ZM331.163 194.359C331.131 205.789 321.854 215.026 310.445 214.993L310.44 216.993C322.955 217.029 333.127 206.896 333.163 194.365L331.163 194.359ZM310.562 173.608C321.97 173.641 331.195 182.93 331.163 194.359L333.163 194.365C333.198 181.834 323.084 171.644 310.568 171.608L310.562 173.608ZM310.434 173.608H310.565V171.608H310.434V173.608ZM290.135 194.243C290.165 182.969 299.199 173.795 310.451 173.608L310.418 171.609C298.074 171.814 288.167 181.877 288.135 194.238L290.135 194.243ZM310.342 214.985C299.091 214.739 290.105 205.518 290.135 194.243L288.135 194.238C288.102 206.599 297.955 216.714 310.298 216.985L310.342 214.985ZM310.426 172.418C298.529 172.619 288.983 182.317 288.951 194.23L290.951 194.235C290.98 183.409 299.655 174.6 310.459 174.418L310.426 172.418ZM310.498 172.412L310.376 172.42L310.509 174.416L310.631 174.407L310.498 172.412ZM332.351 194.345C332.384 182.265 322.633 172.443 310.568 172.41L310.562 174.41C321.52 174.44 330.381 183.361 330.351 194.339L332.351 194.345ZM310.448 216.16C322.513 216.193 332.318 206.424 332.351 194.345L330.351 194.339C330.321 205.317 321.411 214.19 310.453 214.16L310.448 216.16ZM310.328 216.16H310.451V214.16H310.328V216.16ZM288.951 194.23C288.918 206.143 298.411 215.893 310.306 216.159L310.351 214.16C299.547 213.918 290.921 205.062 290.951 194.235L288.951 194.23Z" fill="white"/>
<path d="M306.153 184.921L306.039 204.929L320.637 194.933L306.153 184.921Z" fill="white"/>
</svg>
