<svg width="301" height="285" viewBox="0 0 301 285" fill="none" xmlns="http://www.w3.org/2000/svg">
<path d="M297.115 273.311H2.98184C1.337 273.306 0.00477461 271.974 0 270.329C0 268.682 1.33502 267.347 2.98184 267.347H297.115C298.762 267.347 300.097 268.682 300.097 270.329C300.092 271.974 298.76 273.306 297.115 273.311Z" fill="#001550"/>
<path d="M295.481 270.763H3.38227C3.14221 270.763 2.9476 270.569 2.9476 270.329C2.9476 270.089 3.14221 269.894 3.38227 269.894H295.481C295.721 269.894 295.916 270.089 295.916 270.329C295.916 270.569 295.721 270.763 295.481 270.763Z" fill="white"/>
<circle cx="20.5232" cy="269.055" r="11.284" transform="rotate(-47.27 20.5232 269.055)" fill="white"/>
<path fill-rule="evenodd" clip-rule="evenodd" d="M9.69786 273.535C11.5117 277.914 15.7848 280.77 20.5245 280.77C26.9946 280.765 32.2385 275.521 32.2433 269.051C32.2433 264.311 29.3881 260.038 25.0091 258.224C20.6301 256.41 15.5897 257.413 12.2382 260.764C8.88663 264.116 7.88402 269.156 9.69786 273.535ZM9.67561 269.016C9.67561 263.024 14.533 258.167 20.525 258.167V258.202C26.4994 258.211 31.3457 263.042 31.3744 269.016C31.3744 275.008 26.5169 279.866 20.525 279.866C14.533 279.866 9.67561 275.008 9.67561 269.016Z" fill="#001550"/>
<path d="M20.5245 280.77V281.27H20.5249L20.5245 280.77ZM9.69786 273.535L9.23592 273.727L9.69786 273.535ZM32.2433 269.051L32.7433 269.051V269.051H32.2433ZM25.0091 258.224L25.2004 257.762L25.0091 258.224ZM12.2382 260.764L11.8846 260.411L12.2382 260.764ZM20.525 258.167H21.025V257.667H20.525V258.167ZM20.525 258.202H20.025V258.701L20.5242 258.702L20.525 258.202ZM31.3744 269.016H31.8744L31.8744 269.014L31.3744 269.016ZM20.5245 280.27C15.987 280.27 11.8962 277.536 10.1598 273.344L9.23592 273.727C11.1271 278.293 15.5825 281.27 20.5245 281.27V280.27ZM31.7433 269.05C31.7387 275.245 26.7184 280.265 20.5242 280.27L20.5249 281.27C27.2709 281.265 32.7383 275.797 32.7433 269.051L31.7433 269.05ZM24.8178 258.686C29.0099 260.423 31.7433 264.513 31.7433 269.051H32.7433C32.7433 264.109 29.7663 259.653 25.2004 257.762L24.8178 258.686ZM12.5917 261.118C15.8002 257.909 20.6256 256.95 24.8178 258.686L25.2004 257.762C20.6346 255.871 15.3791 256.916 11.8846 260.411L12.5917 261.118ZM10.1598 273.344C8.42335 269.152 9.38318 264.327 12.5917 261.118L11.8846 260.411C8.39007 263.905 7.34469 269.161 9.23592 273.727L10.1598 273.344ZM20.525 257.667C14.2569 257.667 9.17561 262.748 9.17561 269.016H10.1756C10.1756 263.3 14.8092 258.667 20.525 258.667V257.667ZM21.025 258.202V258.167H20.025V258.202H21.025ZM31.8744 269.014C31.8444 262.765 26.7751 257.712 20.5258 257.702L20.5242 258.702C26.2238 258.711 30.847 263.319 30.8744 269.019L31.8744 269.014ZM20.525 280.366C26.7931 280.366 31.8744 275.284 31.8744 269.016H30.8744C30.8744 274.732 26.2408 279.366 20.525 279.366V280.366ZM9.17561 269.016C9.17561 275.284 14.2569 280.366 20.525 280.366V279.366C14.8092 279.366 10.1756 274.732 10.1756 269.016H9.17561Z" fill="#001550"/>
<path d="M26.4888 269.051C26.4888 272.344 23.8188 275.014 20.5251 275.014C17.2315 275.014 14.5615 272.344 14.5615 269.051C14.5615 265.757 17.2315 263.087 20.5251 263.087C22.1068 263.087 23.6237 263.715 24.7421 264.834C25.8605 265.952 26.4888 267.469 26.4888 269.051Z" fill="#001550"/>
<path fill-rule="evenodd" clip-rule="evenodd" d="M14.1268 269.025C14.1268 272.558 16.9914 275.423 20.5252 275.423C24.0569 275.418 26.9187 272.556 26.9235 269.025C26.9235 265.491 24.0589 262.626 20.5252 262.626C16.9914 262.626 14.1268 265.491 14.1268 269.025ZM14.996 269.024C14.996 265.971 17.4714 263.495 20.525 263.495V263.522C23.5665 263.526 26.0349 265.983 26.054 269.024C26.054 272.078 23.5786 274.554 20.525 274.554C17.4714 274.554 14.996 272.078 14.996 269.024Z" fill="#001550"/>
<path d="M164.681 10.1195C164.681 10.1195 164.681 -0.915105 145.738 1.29183C126.795 3.49876 118.857 20.2346 113.134 23.7584C107.411 27.2821 96.8323 30.3792 96.3909 35.6537C95.9495 40.9283 100.805 43.1426 95.9495 47.1077C91.0943 51.0728 83.6496 54.6186 85.3783 59.9079C87.1071 65.1972 91.9991 70.4791 89.7922 74.0102C87.5853 77.5413 81.4206 81.0577 87.1439 85.0448C92.8672 89.032 95.5155 89.8927 95.5155 95.1747C95.5155 100.457 93.3086 104.002 98.6052 105.753C103.902 107.504 106.969 103.988 110.059 110.594C113.149 117.2 116.224 118.965 121.513 117.641C126.802 116.317 134.284 114.117 136.962 115.883C139.639 117.649 147.996 122.504 151.498 119.848C155 117.192 158.119 113.227 163.393 115.434C168.668 117.641 173.089 120.724 175.289 116.758C177.488 112.793 175.289 111.911 183.66 110.138C192.032 108.365 195.114 108.821 195.114 101.773C195.114 94.7259 194.673 92.9457 198.638 89.878C202.603 86.8104 206.127 88.1125 204.81 80.6236C203.493 73.1348 200.845 71.3692 202.162 63.8804C203.479 56.3915 199.955 53.7506 197.314 51.5436C194.673 49.3367 191.591 45.3789 192.473 41.4138C193.356 37.4487 199.962 37 193.349 29.9599C186.735 22.9197 183.66 25.112 182.314 19.8227C180.968 14.5334 176.576 3.07208 164.681 10.1195Z" fill="#001550" stroke="#001550" stroke-linecap="round" stroke-linejoin="round"/>
<path d="M216.23 268.286C216.23 268.286 217.546 250.226 209.609 232.159C201.671 214.092 199.884 212.789 199.884 207.5C199.884 202.211 205.195 196.039 206.078 184.144C206.961 172.248 206.519 166.488 206.519 166.488C206.519 166.488 225.462 196.443 238.681 198.209C251.901 199.975 259.831 187.638 254.983 170.895C250.135 154.151 228.986 140.498 220.621 129.478C212.257 118.458 193.3 118.443 183.611 118.443C173.923 118.443 169.075 114.919 167.309 108.313C165.544 101.707 165.551 88.451 165.551 88.451C165.551 88.451 154.09 95.4985 134.706 87.5682C134.706 87.5682 136.471 111.8 134.264 115.324C132.057 118.848 128.997 122.438 115.777 122.438C102.558 122.438 91.5454 125.086 85.3807 131.265C79.216 137.445 53.6598 162.104 47.0537 171.799C40.4476 181.495 43.964 192.066 51.8942 196.032C59.8245 199.997 67.7547 196.466 73.4854 191.184C79.216 185.902 97.2761 169.151 97.2761 169.151C97.2761 169.151 97.2761 179.288 102.124 193.825C106.972 208.361 110.952 206.603 107.406 217.174C103.86 227.745 96.8347 230.835 94.6351 244.488C93.3176 252.348 92.7266 260.311 92.8696 268.279" fill="#BCCDFF"/>
<path d="M216.23 268.286C216.23 268.286 217.546 250.226 209.609 232.159C201.671 214.092 199.884 212.789 199.884 207.5C199.884 202.211 205.195 196.039 206.078 184.144C206.961 172.248 206.519 166.488 206.519 166.488C206.519 166.488 225.462 196.443 238.681 198.209C251.901 199.975 259.831 187.638 254.983 170.895C250.135 154.151 228.986 140.498 220.621 129.478C212.257 118.458 193.3 118.443 183.611 118.443C173.923 118.443 169.075 114.919 167.309 108.313C165.544 101.707 165.551 88.451 165.551 88.451C165.551 88.451 154.09 95.4985 134.706 87.5682C134.706 87.5682 136.471 111.8 134.264 115.324C132.057 118.848 128.997 122.438 115.777 122.438C102.558 122.438 91.5454 125.086 85.3807 131.265C79.216 137.445 53.6598 162.104 47.0537 171.799C40.4476 181.495 43.964 192.066 51.8942 196.032C59.8245 199.997 67.7547 196.466 73.4854 191.184C79.216 185.902 97.2761 169.151 97.2761 169.151C97.2761 169.151 97.2761 179.288 102.124 193.825C106.972 208.361 110.952 206.603 107.406 217.174C103.86 227.745 96.8347 230.835 94.6351 244.488C93.3176 252.348 92.7266 260.311 92.8696 268.279" stroke="#001550" stroke-linecap="round" stroke-linejoin="round"/>
<path d="M97.2733 169.159C97.6347 164.394 98.6114 159.696 100.179 155.182L97.2733 169.159Z" fill="white"/>
<path d="M97.2733 169.159C97.6347 164.394 98.6114 159.696 100.179 155.182" stroke="#001550" stroke-linecap="round" stroke-linejoin="round"/>
<path d="M206.501 166.518C205.531 162.861 204.182 159.316 202.477 155.939" stroke="#001550" stroke-linecap="round" stroke-linejoin="round"/>
<path d="M141.786 215.35L169.535 206.456" stroke="#001550" stroke-linecap="round" stroke-linejoin="round"/>
<path d="M154.351 208.022C160.834 205.414 167.598 203.57 174.508 202.527" stroke="#001550" stroke-linecap="round" stroke-linejoin="round"/>
<path d="M146.614 151.981C168.595 156.218 177.077 135.15 180.027 118.311C172.707 117.501 168.852 114.095 167.322 108.365C165.564 101.744 165.564 88.5023 165.564 88.5023C165.564 88.5023 154.103 95.5498 134.719 87.6196C134.719 87.6196 136.484 111.852 134.277 115.375C132.747 117.832 130.776 120.289 125.258 121.547C125.06 129.11 126.582 148.112 146.614 151.981Z" fill="white"/>
<path d="M146.614 151.981C168.595 156.218 177.077 135.15 180.027 118.311C172.707 117.501 168.852 114.095 167.322 108.365C165.564 101.744 165.564 88.5023 165.564 88.5023C165.564 88.5023 154.103 95.5498 134.719 87.6196C134.719 87.6196 136.484 111.852 134.277 115.375C132.747 117.832 130.776 120.289 125.258 121.547C125.06 129.11 126.582 148.112 146.614 151.981Z" stroke="#001550" stroke-linecap="round" stroke-linejoin="round"/>
<path d="M179.85 80.0864C182.865 80.0864 185.309 77.6425 185.309 74.6279C185.309 71.6133 182.865 69.1694 179.85 69.1694C176.836 69.1694 174.392 71.6133 174.392 74.6279C174.392 77.6425 176.836 80.0864 179.85 80.0864Z" fill="#BCCDFF" stroke="#001550" stroke-linecap="round" stroke-linejoin="round"/>
<path d="M121.543 80.0864C124.558 80.0864 127.002 77.6425 127.002 74.6279C127.002 71.6133 124.558 69.1694 121.543 69.1694C118.528 69.1694 116.085 71.6133 116.085 74.6279C116.085 77.6425 118.528 80.0864 121.543 80.0864Z" fill="#BCCDFF" stroke="#001550" stroke-linecap="round" stroke-linejoin="round"/>
<path d="M179.349 56.024C179.349 56.024 182.078 47.5862 185.308 50.5655C188.537 53.5449 184.314 64.9547 182.078 67.684C179.842 70.4132 177.613 70.4132 177.863 66.6908C178.113 62.9685 179.349 56.024 179.349 56.024Z" fill="white" stroke="#001550" stroke-linecap="round" stroke-linejoin="round"/>
<path d="M122.924 64.5131C122.924 64.5131 123.66 84.221 138.166 93.8874C152.673 103.554 163.451 97.9775 169.402 89.7972C175.353 81.6168 179.076 73.4365 179.076 61.5411C179.076 49.6458 180.547 44.43 176.471 36.9927C172.396 29.5553 158.25 25.8403 158.25 25.8403C152.373 33.1747 146.038 40.1305 139.285 46.6664C128.125 57.4436 122.924 64.5131 122.924 64.5131Z" fill="white"/>
<path d="M122.924 64.5131C122.924 64.5131 123.66 84.221 138.166 93.8874C152.673 103.554 163.451 97.9775 169.402 89.7972C175.353 81.6168 179.076 73.4365 179.076 61.5411C179.076 49.6458 180.547 44.43 176.471 36.9927C172.396 29.5553 158.25 25.8403 158.25 25.8403C152.373 33.1747 146.038 40.1305 139.285 46.6664C128.125 57.4436 122.924 64.5131 122.924 64.5131Z" stroke="#001550" stroke-linecap="round" stroke-linejoin="round"/>
<path d="M143.868 58.3776C143.868 60.3638 142.978 61.9749 141.882 61.9749C140.786 61.9749 139.903 60.3638 139.903 58.3776C139.903 56.3913 140.786 54.7803 141.882 54.7803C142.978 54.7803 143.868 56.3913 143.868 58.3776Z" fill="#001550"/>
<path d="M148.335 70.9425C149.667 71.7783 151.235 72.1584 152.802 72.0258C154.369 71.8931 155.851 71.2547 157.023 70.2068" stroke="#001550" stroke-linecap="round" stroke-linejoin="round"/>
<path d="M150.592 79.3435C150.592 79.3435 158.279 82.5729 162.745 72.1489" stroke="#001550" stroke-linecap="round" stroke-linejoin="round"/>
<path d="M160.496 58.5031C160.496 58.5031 165.211 55.2736 169.927 57.2599" stroke="#001550" stroke-width="2" stroke-linecap="round" stroke-linejoin="round"/>
<path d="M159.008 50.3443C159.008 50.3443 164.217 45.136 171.411 49.3512" stroke="#001550" stroke-width="2" stroke-linecap="round" stroke-linejoin="round"/>
<path d="M147.84 47.0855C147.84 47.0855 143.375 42.6202 137.166 46.8428" stroke="#001550" stroke-width="2" stroke-linecap="round" stroke-linejoin="round"/>
<path d="M47.0511 171.807C47.0511 171.807 39.1208 180.635 39.1208 189.867C39.1208 199.099 44.4027 207.522 58.9832 220.705C73.5637 233.888 87.1731 243.613 92.9037 246.703C98.6344 249.792 104.358 245.82 104.358 245.82C104.358 245.82 113.833 255.288 114.929 253.088C116.025 250.889 111.626 247.578 110.743 246.261C109.968 245.215 109.083 244.256 108.102 243.4C108.102 243.4 112.729 244.054 114.495 245.607C116.26 247.159 119.115 249.792 120.439 249.572C121.763 249.351 121.763 248.248 119.777 245.607C118.176 243.538 116.241 241.751 114.053 240.317C112.729 239.442 108.323 237.014 108.323 237.014C108.323 237.014 114.708 236.573 116.915 237.897C119.122 239.221 125.066 243.186 125.507 241.421C125.949 239.655 125.949 238.559 123.742 236.573C121.535 234.587 117.121 232.159 114.495 231.725C112.684 231.392 110.912 230.877 109.206 230.188C109.206 230.188 114.274 228.422 116.032 228.422C117.791 228.422 124.86 231.946 126.824 231.512C128.788 231.078 127.707 229.305 126.17 228.201C124.632 227.098 117.798 224.457 114.929 224.236C112.06 224.016 95.9861 229.526 94.0072 229.526C92.0283 229.526 86.9597 222.478 81.6704 213.003C76.3812 203.528 74.4023 188.771 63.169 183.71" fill="#BCCDFF"/>
<path d="M47.0511 171.807C47.0511 171.807 39.1208 180.635 39.1208 189.867C39.1208 199.099 44.4027 207.522 58.9832 220.705C73.5637 233.888 87.1731 243.613 92.9037 246.703C98.6344 249.792 104.358 245.82 104.358 245.82C104.358 245.82 113.833 255.288 114.929 253.088C116.025 250.889 111.626 247.578 110.743 246.261C109.968 245.215 109.083 244.256 108.102 243.4C108.102 243.4 112.729 244.054 114.495 245.607C116.26 247.159 119.115 249.792 120.439 249.572C121.763 249.351 121.763 248.248 119.777 245.607C118.176 243.538 116.241 241.751 114.053 240.317C112.729 239.442 108.323 237.014 108.323 237.014C108.323 237.014 114.708 236.573 116.915 237.897C119.122 239.221 125.066 243.186 125.507 241.421C125.949 239.655 125.949 238.559 123.742 236.573C121.535 234.587 117.121 232.159 114.495 231.725C112.684 231.392 110.912 230.877 109.206 230.188C109.206 230.188 114.274 228.422 116.032 228.422C117.791 228.422 124.86 231.946 126.824 231.512C128.788 231.078 127.707 229.305 126.17 228.201C124.632 227.098 117.798 224.457 114.929 224.236C112.06 224.016 95.9861 229.525 94.0072 229.525C92.0283 229.525 86.9597 222.478 81.6704 213.003C76.3812 203.528 74.4023 188.771 63.169 183.71" stroke="#001550" stroke-linecap="round" stroke-linejoin="round"/>
<path d="M126.134 228.194C124.589 227.098 117.763 224.449 114.894 224.229C112.025 224.008 95.9507 229.518 93.9718 229.518C91.9929 229.518 86.9244 222.47 81.6351 212.995C78.6925 207.735 76.7798 200.842 73.7269 194.891C57.5427 192.684 50.6056 202.145 47.3982 208.949C50.9694 213.137 54.8286 217.07 58.9478 220.72C73.4841 233.961 87.1377 243.627 92.8684 246.717C98.599 249.807 104.322 245.834 104.322 245.834C104.322 245.834 113.797 255.302 114.894 253.103C115.99 250.903 111.59 247.593 110.708 246.276C109.933 245.23 109.047 244.27 108.067 243.414C108.067 243.414 112.694 244.069 114.459 245.621C116.225 247.173 119.079 249.807 120.403 249.586C121.728 249.366 121.728 248.262 119.741 245.621C118.14 243.553 116.206 241.765 114.018 240.332C112.694 239.456 108.287 237.029 108.287 237.029C108.287 237.029 114.673 236.587 116.88 237.912C119.087 239.236 125.031 243.201 125.472 241.435C125.913 239.67 125.913 238.574 123.707 236.587C121.5 234.601 117.086 232.174 114.459 231.739C112.649 231.407 110.877 230.891 109.17 230.202C109.17 230.202 114.239 228.436 115.997 228.436C117.755 228.436 124.825 231.96 126.789 231.526C128.753 231.092 127.672 229.297 126.134 228.194Z" fill="white" stroke="#001550" stroke-linecap="round" stroke-linejoin="round"/>
<path d="M221.773 180.075C219.934 175.875 221.508 166.679 223.347 153.548C225.186 140.417 227.025 127.021 227.025 119.929C227.025 112.837 228.195 103.009 225.885 99.8385C223.575 96.6679 215.167 88.0682 214.542 84.081C213.916 80.0939 219.581 73.9954 219.581 73.9954C219.581 73.9954 221.265 70.8395 222.737 72.5241C224.208 74.2087 223.575 76.3053 222.737 79.2479C221.898 82.1904 221.052 84.5004 221.052 84.5004C221.052 84.5004 228.409 86.8103 230.299 85.5523C232.19 84.2944 232.021 77.0998 231.888 73.5761C231.616 66.7051 228.865 69.6404 226.959 72.8919C226.04 74.4515 220.655 73.5246 223.803 69.53C226.952 65.5355 229.88 62.0117 232.822 65.1676C235.765 68.3236 237.862 74.4147 237.862 74.4147C237.862 74.4147 239.965 64.4026 241.878 58.5174C243.791 52.6323 247.219 50.3003 248.455 50.7122C249.691 51.1242 249.551 53.1767 248.315 56.053C247.079 58.9294 244.343 66.867 243.658 69.4712C242.974 72.0753 242.842 75.0841 244.21 74.8119C245.578 74.5397 250.367 66.1828 251.743 62.6223C253.119 59.0618 255.164 55.7808 257.488 54.2728C259.813 52.7647 261.733 54.6847 260.777 57.1491C258.877 61.6058 256.721 65.9485 254.318 70.1553C252.808 72.8742 251.526 75.7137 250.485 78.6446C252.74 76.2417 255.117 73.9557 257.606 71.7958C260.895 69.0592 264.455 68.5148 265.544 69.4712C266.633 70.4275 265.684 70.5673 262.947 72.7595C260.21 74.9517 256.12 77.5632 252.847 82.8893C250.311 86.7947 248.331 91.0332 246.961 95.4835C245.944 98.4048 244.612 101.207 242.989 103.84C242.989 103.84 245.556 124.689 250.007 136.157C254.458 147.626 262.329 164.399 259.931 176.382C257.533 188.366 252.913 194.523 246.41 196.406C244.524 196.957 242.536 197.058 240.604 196.702C238.673 196.345 236.852 195.541 235.287 194.354" fill="#BCCDFF"/>
<path d="M221.773 180.075C219.934 175.875 221.508 166.679 223.347 153.548C225.186 140.417 227.025 127.021 227.025 119.929C227.025 112.837 228.195 103.009 225.885 99.8385C223.575 96.6679 215.167 88.0682 214.542 84.081C213.916 80.0939 219.581 73.9954 219.581 73.9954C219.581 73.9954 221.265 70.8395 222.737 72.5241C224.208 74.2087 223.575 76.3053 222.737 79.2479C221.898 82.1904 221.052 84.5004 221.052 84.5004C221.052 84.5004 228.409 86.8103 230.299 85.5523C232.19 84.2944 232.021 77.0998 231.888 73.5761C231.616 66.7051 228.865 69.6404 226.959 72.8919C226.04 74.4515 220.655 73.5246 223.803 69.53C226.952 65.5355 229.88 62.0117 232.822 65.1676C235.765 68.3236 237.862 74.4147 237.862 74.4147C237.862 74.4147 239.965 64.4026 241.878 58.5174C243.791 52.6323 247.219 50.3003 248.455 50.7122C249.691 51.1242 249.551 53.1767 248.315 56.053C247.079 58.9294 244.343 66.867 243.658 69.4712C242.974 72.0753 242.842 75.0841 244.21 74.8119C245.578 74.5397 250.367 66.1828 251.743 62.6223C253.119 59.0618 255.164 55.7808 257.488 54.2728C259.813 52.7647 261.733 54.6847 260.777 57.1491C258.877 61.6058 256.721 65.9485 254.318 70.1553C252.808 72.8742 251.526 75.7137 250.485 78.6446C252.74 76.2417 255.117 73.9557 257.606 71.7958C260.895 69.0592 264.455 68.5148 265.544 69.4712C266.633 70.4275 265.684 70.5673 262.947 72.7595C260.21 74.9517 256.12 77.5632 252.847 82.8893C250.311 86.7947 248.331 91.0332 246.961 95.4835C245.944 98.4048 244.612 101.207 242.989 103.84C242.989 103.84 245.556 124.689 250.007 136.157C254.458 147.626 262.329 164.399 259.931 176.382C257.533 188.366 252.913 194.523 246.41 196.406C244.524 196.957 242.536 197.058 240.604 196.702C238.673 196.345 236.852 195.541 235.287 194.354" stroke="#001550" stroke-linecap="round" stroke-linejoin="round"/>
<path d="M252.848 82.8894C256.136 77.5486 260.248 74.9445 262.985 72.7596C265.721 70.5747 266.663 70.4276 265.582 69.4713C264.5 68.5149 260.932 69.0593 257.644 71.7959C255.155 73.9558 252.778 76.2418 250.523 78.6447C251.552 75.715 252.821 72.8755 254.319 70.1554C256.714 65.9481 258.863 61.6054 260.756 57.1492C261.712 54.6848 259.799 52.7354 257.467 54.2729C255.136 55.8104 253.09 59.0619 251.722 62.6224C250.354 66.1829 245.557 74.5399 244.189 74.812C242.821 75.0842 242.953 72.0681 243.637 69.4713C244.322 66.8745 247.065 58.9295 248.294 56.0531C249.523 53.1768 249.662 51.1243 248.434 50.7124C247.205 50.3004 243.777 52.625 241.857 58.5175C239.937 64.41 237.841 74.4148 237.841 74.4148C237.841 74.4148 235.744 68.3163 232.801 65.1678C229.859 62.0192 226.916 65.5356 223.782 69.5301C220.649 73.5247 225.989 74.4516 226.938 72.892C228.844 69.6405 231.595 66.7053 231.867 73.5762C232 77.0999 232.169 84.2871 230.278 85.5524C228.388 86.8177 221.031 84.5005 221.031 84.5005C221.031 84.5005 221.87 82.1905 222.716 79.248C223.562 76.3054 224.187 74.2015 222.716 72.5242C221.244 70.8469 219.56 73.9955 219.56 73.9955C219.56 73.9955 213.888 80.0866 214.521 84.0812C215.153 88.0757 223.554 96.6827 225.864 99.8386C228.174 102.995 227.004 112.837 227.004 119.929C227.004 127.021 225.165 140.417 223.326 153.548C223.326 153.725 223.275 153.886 223.253 154.056C226.158 157.109 232.08 161.486 242.093 161.147C248.802 160.919 253.554 157.543 256.769 153.828C254.635 147.479 251.958 141.322 249.971 136.172C245.521 124.703 242.953 103.855 242.953 103.855C244.576 101.222 245.908 98.4196 246.926 95.4983C248.305 91.041 250.298 86.7973 252.848 82.8894Z" fill="white" stroke="#001550" stroke-linecap="round" stroke-linejoin="round"/>
<path d="M232.704 103.016C232.704 103.016 231.476 97.8153 233.256 94.527C234.192 92.6573 235.735 91.1607 237.633 90.2823" stroke="#001550" stroke-linecap="round" stroke-linejoin="round"/>
</svg>
