<svg viewBox="0 0 301 285" fill="none" xmlns="http://www.w3.org/2000/svg">
    <title> empty-orders-image</title>
<path d="M164.681 10.1195C164.681 10.1195 164.681 -0.915105 145.738 1.29183C126.795 3.49876 118.858 20.2346 113.134 23.7584C107.411 27.2821 96.8324 30.3792 96.391 35.6537C95.9496 40.9283 100.805 43.1426 95.9496 47.1077C91.0944 51.0728 83.6497 54.6186 85.3784 59.9079C87.1072 65.1972 91.9992 70.4791 89.7923 74.0102C87.5854 77.5413 81.4207 81.0577 87.144 85.0448C92.8673 89.032 95.5156 89.8927 95.5156 95.1747C95.5156 100.457 93.3087 104.002 98.6053 105.753C103.902 107.504 106.97 103.988 110.059 110.594C113.149 117.2 116.224 118.965 121.513 117.641C126.803 116.317 134.284 114.117 136.962 115.883C139.64 117.649 147.996 122.504 151.498 119.848C155 117.192 158.119 113.227 163.393 115.434C168.668 117.641 173.089 120.724 175.289 116.758C177.488 112.793 175.289 111.911 183.66 110.138C192.032 108.365 195.114 108.821 195.114 101.773C195.114 94.7259 194.673 92.9457 198.638 89.878C202.603 86.8104 206.127 88.1125 204.81 80.6236C203.493 73.1348 200.845 71.3692 202.162 63.8804C203.479 56.3915 199.955 53.7506 197.314 51.5436C194.673 49.3367 191.591 45.3789 192.473 41.4138C193.356 37.4487 199.962 37 193.349 29.9599C186.735 22.9197 183.66 25.112 182.314 19.8227C180.968 14.5334 176.576 3.07208 164.681 10.1195Z" fill="#001550" stroke="#001550" stroke-width="2" stroke-linecap="round" stroke-linejoin="round"/>
<path d="M216.23 268.286C216.23 268.286 217.546 250.226 209.609 232.159C201.671 214.092 199.884 212.789 199.884 207.5C199.884 202.211 205.195 196.039 206.078 184.144C206.961 172.248 206.519 166.488 206.519 166.488C206.519 166.488 225.462 196.443 238.682 198.209C251.901 199.975 259.831 187.638 254.983 170.895C250.136 154.151 228.986 140.498 220.621 129.478C212.257 118.458 193.3 118.443 183.611 118.443C173.923 118.443 169.075 114.919 167.309 108.313C165.544 101.707 165.551 88.451 165.551 88.451C165.551 88.451 154.09 95.4985 134.706 87.5682C134.706 87.5682 136.471 111.8 134.264 115.324C132.057 118.848 128.997 122.438 115.778 122.438C102.558 122.438 91.5455 125.086 85.3808 131.265C79.2161 137.445 53.6598 162.104 47.0537 171.799C40.4477 181.495 43.964 192.066 51.8943 196.032C59.8245 199.997 67.7547 196.466 73.4854 191.184C79.2161 185.902 97.2761 169.151 97.2761 169.151C97.2761 169.151 97.2761 179.288 102.124 193.825C106.972 208.361 110.952 206.603 107.406 217.174C103.86 227.745 96.8347 230.835 94.6352 244.488C93.3177 252.348 92.7267 260.311 92.8696 268.279" fill="#10B981"/>
<path d="M216.23 268.286C216.23 268.286 217.546 250.226 209.609 232.159C201.671 214.092 199.884 212.789 199.884 207.5C199.884 202.211 205.195 196.039 206.078 184.144C206.961 172.248 206.519 166.488 206.519 166.488C206.519 166.488 225.462 196.443 238.682 198.209C251.901 199.975 259.831 187.638 254.983 170.895C250.136 154.151 228.986 140.498 220.621 129.478C212.257 118.458 193.3 118.443 183.611 118.443C173.923 118.443 169.075 114.919 167.309 108.313C165.544 101.707 165.551 88.451 165.551 88.451C165.551 88.451 154.09 95.4985 134.706 87.5682C134.706 87.5682 136.471 111.8 134.264 115.324C132.057 118.848 128.997 122.438 115.778 122.438C102.558 122.438 91.5455 125.086 85.3808 131.265C79.2161 137.445 53.6598 162.104 47.0537 171.799C40.4477 181.495 43.964 192.066 51.8943 196.032C59.8245 199.997 67.7547 196.466 73.4854 191.184C79.2161 185.902 97.2761 169.151 97.2761 169.151C97.2761 169.151 97.2761 179.288 102.124 193.825C106.972 208.361 110.952 206.603 107.406 217.174C103.86 227.745 96.8347 230.835 94.6352 244.488C93.3177 252.348 92.7267 260.311 92.8696 268.279" stroke="#001550" stroke-width="2" stroke-linecap="round" stroke-linejoin="round"/>
<path d="M97.2733 169.159C97.6347 164.394 98.6114 159.696 100.179 155.182L97.2733 169.159Z" fill="white"/>
<path d="M97.2733 169.159C97.6347 164.394 98.6114 159.696 100.179 155.182" stroke="#001550" stroke-width="2" stroke-linecap="round" stroke-linejoin="round"/>
<path d="M206.501 166.518C205.531 162.861 204.182 159.316 202.477 155.939" stroke="#001550" stroke-width="2" stroke-linecap="round" stroke-linejoin="round"/>
<path d="M141.786 215.35L169.535 206.456" stroke="#001550" stroke-width="2" stroke-linecap="round" stroke-linejoin="round"/>
<path d="M154.351 208.022C160.834 205.414 167.598 203.57 174.508 202.527" stroke="#001550" stroke-width="2" stroke-linecap="round" stroke-linejoin="round"/>
<path d="M146.614 151.981C168.595 156.218 177.077 135.15 180.027 118.311C172.707 117.501 168.853 114.095 167.322 108.365C165.564 101.744 165.564 88.5023 165.564 88.5023C165.564 88.5023 154.103 95.5498 134.719 87.6196C134.719 87.6196 136.484 111.852 134.277 115.375C132.747 117.832 130.776 120.289 125.258 121.547C125.06 129.11 126.582 148.112 146.614 151.981Z" fill="white"/>
<path d="M146.614 151.981C168.595 156.218 177.077 135.15 180.027 118.311C172.707 117.501 168.853 114.095 167.322 108.365C165.564 101.744 165.564 88.5023 165.564 88.5023C165.564 88.5023 154.103 95.5498 134.719 87.6196C134.719 87.6196 136.484 111.852 134.277 115.375C132.747 117.832 130.776 120.289 125.258 121.547C125.06 129.11 126.582 148.112 146.614 151.981Z" stroke="#001550" stroke-width="2" stroke-linecap="round" stroke-linejoin="round"/>
<path d="M179.85 80.0864C182.865 80.0864 185.309 77.6425 185.309 74.6279C185.309 71.6133 182.865 69.1694 179.85 69.1694C176.836 69.1694 174.392 71.6133 174.392 74.6279C174.392 77.6425 176.836 80.0864 179.85 80.0864Z" fill="#FFC966" stroke="#001550" stroke-width="2" stroke-linecap="round" stroke-linejoin="round"/>
<path d="M121.543 80.0864C124.558 80.0864 127.002 77.6425 127.002 74.6279C127.002 71.6133 124.558 69.1694 121.543 69.1694C118.529 69.1694 116.085 71.6133 116.085 74.6279C116.085 77.6425 118.529 80.0864 121.543 80.0864Z" fill="#FFC966" stroke="#001550" stroke-width="2" stroke-linecap="round" stroke-linejoin="round"/>
<path d="M179.349 56.024C179.349 56.024 182.078 47.5862 185.308 50.5655C188.537 53.5449 184.314 64.9547 182.078 67.684C179.842 70.4132 177.613 70.4132 177.863 66.6908C178.113 62.9685 179.349 56.024 179.349 56.024Z" fill="white" stroke="#001550" stroke-width="2" stroke-linecap="round" stroke-linejoin="round"/>
<path d="M122.924 64.5131C122.924 64.5131 123.66 84.221 138.166 93.8874C152.673 103.554 163.451 97.9775 169.402 89.7972C175.353 81.6168 179.076 73.4365 179.076 61.5411C179.076 49.6458 180.547 44.43 176.471 36.9927C172.396 29.5553 158.25 25.8403 158.25 25.8403C152.373 33.1747 146.038 40.1305 139.285 46.6664C128.125 57.4436 122.924 64.5131 122.924 64.5131Z" fill="white"/>
<path d="M122.924 64.5131C122.924 64.5131 123.66 84.221 138.166 93.8874C152.673 103.554 163.451 97.9775 169.402 89.7972C175.353 81.6168 179.076 73.4365 179.076 61.5411C179.076 49.6458 180.547 44.43 176.471 36.9927C172.396 29.5553 158.25 25.8403 158.25 25.8403C152.373 33.1747 146.038 40.1305 139.285 46.6664C128.125 57.4436 122.924 64.5131 122.924 64.5131Z" stroke="#001550" stroke-width="2" stroke-linecap="round" stroke-linejoin="round"/>
<path d="M143.868 58.3776C143.868 60.3638 142.978 61.9749 141.882 61.9749C140.786 61.9749 139.903 60.3638 139.903 58.3776C139.903 56.3913 140.786 54.7803 141.882 54.7803C142.978 54.7803 143.868 56.3913 143.868 58.3776Z" fill="#001550"/>
<path d="M148.335 70.9425C149.667 71.7783 151.235 72.1584 152.802 72.0258C154.369 71.8931 155.851 71.2547 157.023 70.2068" stroke="#001550" stroke-width="2" stroke-linecap="round" stroke-linejoin="round"/>
<path d="M150.592 79.3435C150.592 79.3435 158.279 82.5729 162.745 72.1489" stroke="#001550" stroke-width="2" stroke-linecap="round" stroke-linejoin="round"/>
<path d="M160.496 58.5031C160.496 58.5031 165.211 55.2736 169.927 57.2599" stroke="#001550" stroke-width="2" stroke-linecap="round" stroke-linejoin="round"/>
<path d="M159.008 50.3443C159.008 50.3443 164.217 45.136 171.411 49.3512" stroke="#001550" stroke-width="2" stroke-linecap="round" stroke-linejoin="round"/>
<path d="M147.84 47.0855C147.84 47.0855 143.375 42.6202 137.166 46.8428" stroke="#001550" stroke-width="2" stroke-linecap="round" stroke-linejoin="round"/>
<path d="M47.0511 171.807C47.0511 171.807 39.1208 180.635 39.1208 189.867C39.1208 199.099 44.4028 207.522 58.9832 220.705C73.5637 233.888 87.1731 243.613 92.9038 246.703C98.6344 249.792 104.358 245.82 104.358 245.82C104.358 245.82 113.833 255.288 114.929 253.088C116.025 250.889 111.626 247.578 110.743 246.261C109.968 245.215 109.083 244.256 108.102 243.4C108.102 243.4 112.729 244.054 114.495 245.607C116.26 247.159 119.115 249.792 120.439 249.572C121.763 249.351 121.763 248.248 119.777 245.607C118.176 243.538 116.241 241.751 114.054 240.317C112.729 239.442 108.323 237.014 108.323 237.014C108.323 237.014 114.708 236.573 116.915 237.897C119.122 239.221 125.066 243.186 125.507 241.421C125.949 239.655 125.949 238.559 123.742 236.573C121.535 234.587 117.121 232.159 114.495 231.725C112.684 231.392 110.912 230.877 109.206 230.188C109.206 230.188 114.274 228.422 116.032 228.422C117.791 228.422 124.86 231.946 126.824 231.512C128.788 231.078 127.707 229.305 126.17 228.201C124.632 227.098 117.798 224.457 114.929 224.236C112.06 224.016 95.9861 229.526 94.0072 229.526C92.0283 229.526 86.9597 222.478 81.6705 213.003C76.3812 203.528 74.4023 188.771 63.169 183.71" fill="#10B981"/>
<path d="M47.0511 171.807C47.0511 171.807 39.1208 180.635 39.1208 189.867C39.1208 199.099 44.4028 207.522 58.9832 220.705C73.5637 233.888 87.1731 243.613 92.9038 246.703C98.6344 249.792 104.358 245.82 104.358 245.82C104.358 245.82 113.833 255.288 114.929 253.088C116.025 250.889 111.626 247.578 110.743 246.261C109.968 245.215 109.083 244.256 108.102 243.4C108.102 243.4 112.729 244.054 114.495 245.607C116.26 247.159 119.115 249.792 120.439 249.572C121.763 249.351 121.763 248.248 119.777 245.607C118.176 243.538 116.241 241.751 114.054 240.317C112.729 239.442 108.323 237.014 108.323 237.014C108.323 237.014 114.708 236.573 116.915 237.897C119.122 239.221 125.066 243.186 125.507 241.421C125.949 239.655 125.949 238.559 123.742 236.573C121.535 234.587 117.121 232.159 114.495 231.725C112.684 231.392 110.912 230.877 109.206 230.188C109.206 230.188 114.274 228.422 116.032 228.422C117.791 228.422 124.86 231.946 126.824 231.512C128.788 231.078 127.707 229.305 126.17 228.201C124.632 227.098 117.798 224.457 114.929 224.236C112.06 224.016 95.9861 229.525 94.0072 229.525C92.0283 229.525 86.9597 222.478 81.6705 213.003C76.3812 203.528 74.4023 188.771 63.169 183.71" stroke="#001550" stroke-width="2" stroke-linecap="round" stroke-linejoin="round"/>
<path d="M126.134 228.194C124.589 227.098 117.763 224.449 114.894 224.229C112.025 224.008 95.9508 229.518 93.9719 229.518C91.993 229.518 86.9244 222.47 81.6352 212.995C78.6926 207.735 76.7799 200.842 73.727 194.891C57.5428 192.684 50.6057 202.145 47.3983 208.949C50.9694 213.137 54.8287 217.07 58.9479 220.72C73.4842 233.961 87.1378 243.627 92.8684 246.717C98.5991 249.807 104.322 245.834 104.322 245.834C104.322 245.834 113.798 255.302 114.894 253.103C115.99 250.903 111.591 247.593 110.708 246.276C109.933 245.23 109.048 244.27 108.067 243.414C108.067 243.414 112.694 244.069 114.46 245.621C116.225 247.173 119.079 249.807 120.404 249.586C121.728 249.366 121.728 248.262 119.742 245.621C118.14 243.553 116.206 241.765 114.018 240.332C112.694 239.456 108.288 237.029 108.288 237.029C108.288 237.029 114.673 236.587 116.88 237.912C119.087 239.236 125.031 243.201 125.472 241.435C125.914 239.67 125.914 238.574 123.707 236.587C121.5 234.601 117.086 232.174 114.46 231.739C112.649 231.407 110.877 230.891 109.17 230.202C109.17 230.202 114.239 228.436 115.997 228.436C117.755 228.436 124.825 231.96 126.789 231.526C128.753 231.092 127.672 229.297 126.134 228.194Z" fill="white" stroke="#001550" stroke-width="2" stroke-linecap="round" stroke-linejoin="round"/>
<path d="M221.773 180.075C219.934 175.875 221.508 166.679 223.347 153.548C225.186 140.417 227.025 127.021 227.025 119.929C227.025 112.837 228.195 103.009 225.885 99.8385C223.575 96.6679 215.167 88.0682 214.542 84.081C213.916 80.0939 219.581 73.9954 219.581 73.9954C219.581 73.9954 221.265 70.8395 222.737 72.5241C224.208 74.2087 223.575 76.3053 222.737 79.2479C221.898 82.1904 221.052 84.5004 221.052 84.5004C221.052 84.5004 228.409 86.8103 230.299 85.5523C232.19 84.2944 232.021 77.0998 231.888 73.5761C231.616 66.7051 228.865 69.6404 226.959 72.8919C226.04 74.4515 220.655 73.5246 223.803 69.53C226.952 65.5355 229.88 62.0117 232.822 65.1676C235.765 68.3236 237.862 74.4147 237.862 74.4147C237.862 74.4147 239.965 64.4026 241.878 58.5174C243.791 52.6323 247.219 50.3003 248.455 50.7122C249.691 51.1242 249.551 53.1767 248.315 56.053C247.079 58.9294 244.343 66.867 243.658 69.4712C242.974 72.0753 242.842 75.0841 244.21 74.8119C245.578 74.5397 250.367 66.1828 251.743 62.6223C253.119 59.0618 255.164 55.7808 257.488 54.2728C259.813 52.7647 261.733 54.6847 260.777 57.1491C258.877 61.6058 256.721 65.9485 254.318 70.1553C252.808 72.8742 251.526 75.7137 250.485 78.6446C252.74 76.2417 255.117 73.9557 257.606 71.7958C260.895 69.0592 264.455 68.5148 265.544 69.4712C266.633 70.4275 265.684 70.5673 262.947 72.7595C260.21 74.9517 256.12 77.5632 252.847 82.8893C250.311 86.7947 248.331 91.0332 246.961 95.4835C245.944 98.4048 244.612 101.207 242.989 103.84C242.989 103.84 245.556 124.689 250.007 136.157C254.458 147.626 262.329 164.399 259.931 176.382C257.533 188.366 252.913 194.523 246.41 196.406C244.524 196.957 242.536 197.058 240.604 196.702C238.673 196.345 236.852 195.541 235.287 194.354" fill="#10B981"/>
<path d="M221.773 180.075C219.934 175.875 221.508 166.679 223.347 153.548C225.186 140.417 227.025 127.021 227.025 119.929C227.025 112.837 228.195 103.009 225.885 99.8385C223.575 96.6679 215.167 88.0682 214.542 84.081C213.916 80.0939 219.581 73.9954 219.581 73.9954C219.581 73.9954 221.265 70.8395 222.737 72.5241C224.208 74.2087 223.575 76.3053 222.737 79.2479C221.898 82.1904 221.052 84.5004 221.052 84.5004C221.052 84.5004 228.409 86.8103 230.299 85.5523C232.19 84.2944 232.021 77.0998 231.888 73.5761C231.616 66.7051 228.865 69.6404 226.959 72.8919C226.04 74.4515 220.655 73.5246 223.803 69.53C226.952 65.5355 229.88 62.0117 232.822 65.1676C235.765 68.3236 237.862 74.4147 237.862 74.4147C237.862 74.4147 239.965 64.4026 241.878 58.5174C243.791 52.6323 247.219 50.3003 248.455 50.7122C249.691 51.1242 249.551 53.1767 248.315 56.053C247.079 58.9294 244.343 66.867 243.658 69.4712C242.974 72.0753 242.842 75.0841 244.21 74.8119C245.578 74.5397 250.367 66.1828 251.743 62.6223C253.119 59.0618 255.164 55.7808 257.488 54.2728C259.813 52.7647 261.733 54.6847 260.777 57.1491C258.877 61.6058 256.721 65.9485 254.318 70.1553C252.808 72.8742 251.526 75.7137 250.485 78.6446C252.74 76.2417 255.117 73.9557 257.606 71.7958C260.895 69.0592 264.455 68.5148 265.544 69.4712C266.633 70.4275 265.684 70.5673 262.947 72.7595C260.21 74.9517 256.12 77.5632 252.847 82.8893C250.311 86.7947 248.331 91.0332 246.961 95.4835C245.944 98.4048 244.612 101.207 242.989 103.84C242.989 103.84 245.556 124.689 250.007 136.157C254.458 147.626 262.329 164.399 259.931 176.382C257.533 188.366 252.913 194.523 246.41 196.406C244.524 196.957 242.536 197.058 240.604 196.702C238.673 196.345 236.852 195.541 235.287 194.354" stroke="#001550" stroke-width="2" stroke-linecap="round" stroke-linejoin="round"/>
<path d="M252.848 82.8894C256.136 77.5486 260.248 74.9445 262.985 72.7596C265.721 70.5747 266.663 70.4276 265.582 69.4713C264.5 68.5149 260.932 69.0593 257.644 71.7959C255.155 73.9558 252.778 76.2418 250.523 78.6447C251.552 75.715 252.821 72.8755 254.319 70.1554C256.714 65.9481 258.863 61.6054 260.756 57.1492C261.712 54.6848 259.8 52.7354 257.468 54.2729C255.136 55.8104 253.09 59.0619 251.722 62.6224C250.354 66.1829 245.557 74.5399 244.189 74.812C242.821 75.0842 242.953 72.0681 243.637 69.4713C244.322 66.8745 247.066 58.9295 248.294 56.0531C249.523 53.1768 249.662 51.1243 248.434 50.7124C247.205 50.3004 243.777 52.625 241.857 58.5175C239.937 64.41 237.841 74.4148 237.841 74.4148C237.841 74.4148 235.744 68.3163 232.801 65.1678C229.859 62.0192 226.916 65.5356 223.782 69.5301C220.649 73.5247 225.989 74.4516 226.938 72.892C228.844 69.6405 231.595 66.7053 231.867 73.5762C232 77.0999 232.169 84.2871 230.278 85.5524C228.388 86.8177 221.031 84.5005 221.031 84.5005C221.031 84.5005 221.87 82.1905 222.716 79.248C223.562 76.3054 224.187 74.2015 222.716 72.5242C221.244 70.8469 219.56 73.9955 219.56 73.9955C219.56 73.9955 213.888 80.0866 214.521 84.0812C215.153 88.0757 223.554 96.6827 225.864 99.8386C228.174 102.995 227.005 112.837 227.005 119.929C227.005 127.021 225.165 140.417 223.326 153.548C223.326 153.725 223.275 153.886 223.253 154.056C226.159 157.109 232.081 161.486 242.093 161.147C248.802 160.919 253.554 157.543 256.769 153.828C254.635 147.479 251.958 141.322 249.971 136.172C245.521 124.703 242.953 103.855 242.953 103.855C244.576 101.222 245.908 98.4196 246.926 95.4983C248.305 91.041 250.298 86.7973 252.848 82.8894Z" fill="white" stroke="#001550" stroke-width="2" stroke-linecap="round" stroke-linejoin="round"/>
<path d="M232.704 103.016C232.704 103.016 231.476 97.8153 233.256 94.527C234.192 92.6573 235.735 91.1607 237.633 90.2823" stroke="#001550" stroke-width="2" stroke-linecap="round" stroke-linejoin="round"/>
<line x1="34" y1="268" x2="243" y2="268" stroke="#001550" stroke-width="2"/>
<line x1="248" y1="268" x2="271" y2="268" stroke="#001550" stroke-width="2"/>
</svg>
