<svg width="142" height="40" viewBox="0 0 142 40" fill="none" xmlns="http://www.w3.org/2000/svg">
<path d="M36.0938 33.0521C36.0938 30.7526 37.6147 28.9258 39.9622 28.9258C41.3509 28.9258 42.1444 29.464 42.7892 30.2631L42.1945 30.785C41.6153 30.0024 40.8879 29.6927 40.0118 29.6927C38.1436 29.6927 37.003 31.1604 37.003 33.0523C37.003 34.9441 38.1437 36.4282 40.0118 36.4282C40.8879 36.4282 41.6153 36.102 42.194 35.3192L42.7886 35.8411C42.1436 36.6565 41.3504 37.1948 39.9617 37.1948C37.6147 37.1945 36.0938 35.3516 36.0938 33.0521Z" fill="#1A202C"/>
<path d="M44.7031 35.4741V26.1133H45.5622V35.3438C45.5622 35.9802 45.8264 36.4202 46.388 36.4202C46.768 36.4202 47.0984 36.2412 47.2801 36.045L47.6105 36.6975C47.2966 36.991 46.9166 37.1867 46.2558 37.1867C45.2157 37.1866 44.7031 36.5505 44.7031 35.4741Z" fill="#1A202C"/>
<path fill-rule="evenodd" clip-rule="evenodd" d="M49.3683 26.5859C49.0211 26.5859 48.707 26.8635 48.707 27.2223C48.707 27.5811 49.0215 27.8746 49.3683 27.8746C49.7331 27.8737 50.0286 27.5822 50.0296 27.2223C50.0296 26.8631 49.732 26.5859 49.3683 26.5859ZM48.9317 29.1146V36.9915H49.7914V29.1146H48.9317Z" fill="#1A202C"/>
<path fill-rule="evenodd" clip-rule="evenodd" d="M53.3382 39.999V35.7262C53.9832 36.6231 54.9918 37.194 56.1155 37.1945C58.2482 37.1945 59.6864 35.5635 59.6864 33.0521C59.6864 30.524 58.2482 28.9258 56.1155 28.9258C54.9252 28.9258 53.9003 29.5618 53.3382 30.3609V29.1215H52.4785V39.999H53.3382ZM55.9604 29.696C57.746 29.696 58.7539 31.1476 58.7539 33.0554C58.7539 34.9637 57.746 36.4313 55.96 36.4307C54.8523 36.4307 53.7943 35.7457 53.3314 34.9955V31.0979C53.795 30.3481 54.8533 29.696 55.9604 29.696Z" fill="#1A202C"/>
<path d="M61.1543 35.9384L61.6668 35.3186C62.1793 35.955 63.1216 36.4766 64.2457 36.4766C65.5848 36.4766 66.3784 35.7916 66.3784 34.8784C66.3784 32.7256 61.3361 33.9488 61.3361 31.1111C61.3361 29.9043 62.3776 28.9258 64.1796 28.9258C65.5518 28.9258 66.461 29.4477 67.0396 30.0837L66.5603 30.6867C66.0974 30.0669 65.2377 29.6427 64.1797 29.6427C62.94 29.6427 62.1959 30.2624 62.1959 31.0778C62.1959 33.0512 67.2216 31.8443 67.2216 34.8777C67.2216 36.1498 66.2297 37.1935 64.2293 37.1935C62.9394 37.1942 61.9476 36.8194 61.1543 35.9384Z" fill="#1A202C"/>
<path fill-rule="evenodd" clip-rule="evenodd" d="M26.7559 33.3068C26.7559 30.9821 28.6662 29.0977 31.0227 29.0977C33.3795 29.0977 35.2895 30.9821 35.2895 33.3068C35.2895 35.6314 33.3792 37.5159 31.0227 37.5159C28.6662 37.5159 26.7559 35.6314 26.7559 33.3068ZM28.5375 33.3101C28.5375 34.6578 29.6448 35.7505 31.0107 35.7505L31.011 35.7509C32.3775 35.7509 33.484 34.6577 33.484 33.3101C33.484 31.9624 32.3766 30.8698 31.0107 30.8698C29.6448 30.8698 28.5375 31.9623 28.5375 33.3101Z" fill="#1A202C"/>
<path d="M31.9765 33.1542C31.9096 33.0819 31.0801 32.3635 30.793 32.2376C30.6606 32.1796 30.5561 32.2351 30.5069 32.3747C30.4893 32.4326 30.4771 32.4919 30.4704 32.552C30.446 32.741 30.4365 33.0205 30.4376 33.2973C30.4365 33.574 30.446 33.8537 30.4704 34.0426C30.4771 34.1027 30.4893 34.162 30.5069 34.2199C30.5561 34.3591 30.6606 34.4151 30.793 34.357C31.0801 34.2311 31.9096 33.5127 31.9765 33.4404C32.0146 33.3993 32.0449 33.3537 32.0423 33.2973C32.0455 33.2409 32.0146 33.1954 31.9765 33.1542Z" fill="#DC491C"/>
<path fill-rule="evenodd" clip-rule="evenodd" d="M19.4188 29.8818C20.1394 29.3766 21.0018 29.1058 21.8859 29.1072C24.2426 29.1072 26.1527 30.9921 26.1527 33.3167C26.1527 35.6414 24.2424 37.5258 21.8859 37.5258C19.5294 37.5258 17.6191 35.6414 17.6191 33.3167V33.2566V33.2477V25.1191C17.6195 25.0103 17.7088 24.9222 17.8191 24.9219H19.2188C19.3291 24.9222 19.4184 25.0103 19.4188 25.1191V29.8818ZM19.4004 33.3273C19.4004 34.6749 20.5077 35.7675 21.8737 35.7675V35.7679C23.2396 35.7679 24.3469 34.6754 24.3469 33.3277C24.3469 31.9799 23.2396 30.8873 21.8737 30.8873C20.5934 30.8873 19.5402 31.8472 19.4132 33.077C19.4132 33.077 19.4004 33.3228 19.4004 33.3273Z" fill="#1A202C"/>
<path d="M21.9057 29.1133C20.9871 29.1133 20.1136 29.3774 19.4102 29.8881L19.4202 33.046C19.6002 31.7841 20.6376 30.8956 21.8994 30.8952" fill="#1A202C"/>
<path d="M5.43889 37.1914C4.64309 37.1914 4.03887 36.9176 3.62623 36.3699V36.83C3.62623 36.903 3.60044 36.9651 3.54886 37.0162C3.50465 37.06 3.4457 37.0819 3.37202 37.0819H2.86359C2.7899 37.0819 2.72727 37.06 2.67569 37.0162C2.63148 36.9651 2.60938 36.903 2.60938 36.83V29.5566C2.60938 29.4836 2.63148 29.4252 2.67569 29.3814C2.72727 29.3302 2.7899 29.3047 2.86359 29.3047H3.40518C3.47886 29.3047 3.53781 29.3302 3.58202 29.3814C3.62623 29.4252 3.64834 29.4836 3.64834 29.5566V32.076C4.08308 31.5429 4.67993 31.2764 5.43889 31.2764C6.20522 31.2764 6.78365 31.5283 7.17418 32.0322C7.56471 32.5288 7.77472 33.1531 7.80419 33.9053C7.81156 33.9856 7.81524 34.0952 7.81524 34.2339C7.81524 34.3727 7.81156 34.4822 7.80419 34.5625C7.77472 35.322 7.56471 35.95 7.17418 36.4466C6.78365 36.9432 6.20522 37.1914 5.43889 37.1914ZM5.20678 36.3042C5.72995 36.3042 6.10943 36.1435 6.34522 35.8222C6.58838 35.5009 6.72102 35.0774 6.74312 34.5516C6.75049 34.4785 6.75417 34.3727 6.75417 34.2339C6.75417 32.8537 6.23838 32.1636 5.20678 32.1636C4.71309 32.1636 4.33361 32.3243 4.06834 32.6456C3.80308 32.9669 3.66307 33.343 3.64834 33.7738L3.63729 34.201L3.64834 34.6173C3.67044 35.0774 3.80676 35.4753 4.05729 35.8113C4.31519 36.1399 4.69835 36.3042 5.20678 36.3042Z" fill="#1A202C"/>
<path d="M9.96164 39.1631C9.9027 39.1631 9.85112 39.1412 9.8069 39.0974C9.76269 39.0536 9.74059 39.0025 9.74059 38.9441C9.74059 38.8929 9.75901 38.8272 9.79585 38.7469L10.6469 36.7423L8.53583 31.8022C8.49899 31.7072 8.48057 31.6452 8.48057 31.6159C8.48057 31.5502 8.50268 31.4955 8.54689 31.4516C8.5911 31.4078 8.64636 31.3859 8.71268 31.3859H9.25426C9.37216 31.3859 9.46058 31.448 9.51953 31.5721L11.1996 35.5593L12.9238 31.5721C12.9827 31.448 13.0748 31.3859 13.2001 31.3859H13.7196C13.7859 31.3859 13.8412 31.4078 13.8854 31.4516C13.9296 31.4955 13.9517 31.5466 13.9517 31.605C13.9517 31.6269 13.9333 31.6926 13.8964 31.8022L10.7574 38.9769C10.6985 39.1011 10.6064 39.1631 10.4811 39.1631H9.96164Z" fill="#1A202C"/>
<path d="M39.0872 16.7234C39.0442 16.5954 38.9152 16.5314 38.7862 16.5527L38.7432 16.5741C38.3562 16.6594 38.0552 16.638 37.8617 16.4887C37.5607 16.2968 37.4317 15.8488 37.4317 15.1449V8.72431C37.4317 6.20727 35.9051 4.94875 32.8951 4.94875C30.1861 4.94875 28.0791 6.20727 28.0791 7.78575C28.0791 8.59633 28.5951 9.19359 29.3476 9.27891C29.8421 9.3429 30.3151 9.10826 30.6591 8.76697C31.3256 8.08438 31.2396 7.27381 30.4226 6.39925C30.8956 5.90864 31.7341 5.63134 32.7016 5.63134C34.2711 5.63134 34.9376 6.54856 34.9376 8.66031V10.2815C34.5721 10.3881 34.2281 10.4948 33.6046 10.6441C32.3361 10.9427 30.5946 11.3267 29.2831 12.0306C28.2081 12.6065 27.6491 13.5237 27.6491 14.7609C27.6491 16.1048 28.5521 17.6619 31.0676 17.6619C32.4866 17.6619 33.7551 17.0007 35.0451 15.5928C35.1526 17.0647 35.7331 17.5979 37.1092 17.5979C37.7757 17.5979 38.2917 17.4486 38.9367 17.15C39.0657 17.086 39.1517 16.894 39.0872 16.7234ZM34.9161 14.7609C34.6151 15.1875 33.6046 16.4247 32.3576 16.4247C30.6591 16.4247 30.3151 15.2729 30.3151 14.2917C30.3151 12.6918 31.5621 11.9453 34.9161 11.1347V14.7609ZM67.2953 17.7259C63.7048 17.7259 61.0173 14.9742 61.0173 11.3267C61.0173 7.76442 63.8338 4.86343 67.2953 4.86343C70.7998 4.86343 73.5518 7.65776 73.5518 11.22C73.5518 15.2515 70.3053 17.7259 67.2953 17.7259ZM67.1663 5.54602C65.6183 5.54602 63.8338 6.20727 63.8338 11.284C63.8338 15.1662 64.9948 17.0433 67.4028 17.0433C69.7033 17.0433 70.7353 15.2729 70.7353 11.284C70.7353 7.42313 69.5743 5.54602 67.1663 5.54602ZM11.9325 5.09807C11.9325 8.06305 11.18 9.6842 7.37453 9.6842H5.35352V0.767905H7.46053C11.4165 0.746574 11.9325 2.94365 11.9325 5.09807ZM5.37502 15.1449V10.4948H7.20253C9.93304 10.4948 11.997 9.94016 13.3731 8.80963C14.7921 7.63643 15.0931 6.16461 15.0931 5.14073C15.0931 0.89589 10.9005 0 7.39603 0H7.41753H0.301C0.150499 0 0 0.127982 0 0.277298V0.29863C0 0.447946 0.0859984 0.575931 0.236499 0.618593C0.881502 0.853232 2.60151 0.53327 2.60151 2.32506V15.1022C2.60151 16.0408 2.17151 16.6807 0.258 16.8727C0.1075 16.894 0 17.0007 0 17.15V17.1926C0 17.342 0.128999 17.4699 0.301 17.4699H7.91203C8.06253 17.4699 8.21303 17.342 8.21303 17.1926V17.15C8.21303 17.0007 8.08403 16.8727 7.93353 16.8727C5.78352 16.7447 5.37502 16.1048 5.37502 15.1449ZM20.8551 4.86343C17.5441 4.86343 14.8566 7.80709 14.8566 11.412C14.8566 15.0596 17.3936 17.7259 20.8551 17.7259C23.7791 17.7259 25.1981 16.0194 26.0151 14.7396C26.1011 14.6116 26.0581 14.441 25.9291 14.3556L25.8861 14.3343C25.7571 14.249 25.5851 14.2703 25.4776 14.3983C24.4026 15.7208 23.4566 16.4887 21.8441 16.4887C19.7801 16.4887 17.5871 15.1022 17.5871 11.22V11.1987C17.5871 11.028 17.5871 10.7934 17.5871 10.5801H25.9936C26.0151 10.5801 26.0366 10.5588 26.0366 10.5374V10.4734C26.1656 8.87362 25.6926 7.44446 24.7466 6.44191C23.8221 5.37537 22.4676 4.86343 20.8551 4.86343ZM17.6516 9.6842C17.9311 7.01784 18.9846 5.56734 20.6616 5.56734C21.5001 5.56734 22.1236 5.80198 22.5536 6.24993C23.1556 6.88986 23.4136 8.04172 23.3061 9.6842H17.6516ZM55.7067 9.83351C53.4062 9.19358 52.5032 8.55366 52.5032 7.55111C52.5032 6.39925 53.4277 5.56734 54.7177 5.56734C56.2227 5.56734 56.8677 6.27126 58.4802 8.89495L58.5017 8.93762C58.5017 8.95895 58.5232 8.95895 58.5232 8.95895H58.7597C58.9102 8.95895 59.0607 8.83096 59.0607 8.68165V4.92742C59.0607 4.90609 59.0392 4.88476 59.0392 4.88476H58.7167C58.6307 4.88476 58.5447 4.92742 58.5017 4.99141L57.9857 5.58867C57.3407 5.24738 56.2872 4.88476 55.2552 4.88476C52.6107 4.88476 50.7617 6.48457 50.7617 8.76697C50.7617 10.9214 52.2237 11.7106 54.7392 12.3932C57.1902 13.0545 58.0502 13.7371 58.0502 14.9956C58.0502 16.4034 56.6527 17.0433 55.6637 17.0433C53.8147 17.0433 53.0407 16.3821 51.2777 13.2678L51.2562 13.2251C51.2562 13.2038 51.2347 13.2038 51.2347 13.2038H50.9982C50.8477 13.2038 50.6972 13.3318 50.6972 13.4811V17.6619C50.6972 17.6833 50.7187 17.7046 50.7402 17.7046H51.0412C51.1272 17.7046 51.1917 17.6833 51.2562 17.6193L52.0517 16.83C52.9977 17.406 54.3952 17.7046 55.3197 17.7046C56.6957 17.7046 57.8137 17.278 58.5877 16.4674C59.2757 15.7422 59.6413 14.7396 59.6413 13.6091C59.6413 11.6466 58.5877 10.6227 55.7067 9.83351ZM41.7747 16.0194C41.7747 16.6594 41.6242 16.8727 40.5707 16.9367C40.4202 16.9367 40.2912 17.0647 40.2912 17.214C40.2912 17.3633 40.4202 17.4913 40.5922 17.4913H45.7952C45.9457 17.4913 46.0747 17.3633 46.0747 17.214C46.0747 17.0647 45.9457 16.9367 45.7952 16.9367C44.5912 16.8727 44.2687 16.6807 44.2687 15.9981V8.53233C45.1287 7.14583 45.7307 6.39925 46.7842 6.18594C46.7412 6.35659 46.6982 6.56989 46.6982 6.74054C46.6982 7.65776 47.3432 8.27636 48.2677 8.27636C49.1707 8.27636 49.8157 7.63643 49.8157 6.74054C49.8157 5.8873 49.2782 4.88476 47.7302 4.88476C46.4617 4.88476 45.2577 5.58867 44.2257 7.29514V5.37537C44.2257 5.18339 44.0537 5.01274 43.8602 5.03407L40.5707 5.1194C40.4202 5.1194 40.2912 5.24738 40.2912 5.3967V5.43936C40.2912 5.58868 40.3987 5.69533 40.5277 5.71666C41.6242 5.86598 41.7747 6.37792 41.7747 6.91119V16.0194ZM77.7873 5.03407C77.8733 5.03407 77.9378 5.05541 77.9808 5.1194C78.0453 5.18339 78.0668 5.24738 78.0668 5.33271V7.46579C78.0668 7.46579 79.1418 4.97008 82.6033 4.97008H82.6248C84.7964 4.97008 86.0219 6.31392 86.0219 8.66031V16.0194C86.0219 16.6594 86.1939 16.8727 87.2474 16.9367C87.3979 16.9367 87.5269 17.0647 87.5269 17.214C87.5269 17.3633 87.3979 17.4913 87.2259 17.4913H82.5389C82.3669 17.4913 82.2378 17.3633 82.2378 17.214C82.2378 17.0647 82.3668 16.9367 82.4958 16.9153C83.3559 16.8514 83.4848 16.6381 83.4848 15.9981V9.36423C83.4848 7.16716 82.8398 6.31392 81.2058 6.31392C80.1093 6.31392 79.2063 7.25248 78.6258 8.04172C78.6258 8.04172 78.3463 8.40435 78.0238 9.0656L78.0668 15.9981C78.0668 16.6381 78.1958 16.8514 79.0343 16.9153C79.1848 16.9367 79.2923 17.0647 79.2923 17.1926C79.2923 17.3633 79.1633 17.4913 78.9913 17.4913H74.3473C74.1968 17.4913 74.0463 17.3633 74.0463 17.214C74.0463 17.0647 74.1753 16.9367 74.3258 16.9367C75.3793 16.8727 75.5513 16.6594 75.5513 16.0194V6.93252C75.5513 6.39925 75.4008 5.88731 74.3043 5.73799C74.1753 5.71666 74.0678 5.58867 74.0678 5.46069V5.41803C74.0678 5.26871 74.1968 5.14073 74.3473 5.14073L77.7873 5.03407Z" fill="#1A202C"/>
<path d="M98.4352 0.999858C97.3365 1.05312 96.4416 1.33722 95.7505 1.85214C95.0594 2.34931 94.51 2.97964 94.1024 3.74314C93.7126 4.50665 93.4379 5.35893 93.2784 6.29999C93.1367 7.2233 93.0658 7.33952 93.0658 8.26283C93.0658 9.11511 93.1632 10.0207 93.3582 10.9795C93.5708 11.9205 93.9164 12.7995 94.3948 13.6162C94.8733 14.4152 95.4935 15.09 96.2555 15.6404C97.0352 16.1731 97.9833 16.4394 99.0997 16.4394C100.269 16.4572 101.279 16.1997 102.13 15.667C102.865 15.2068 103.441 14.5675 103.859 13.7492C103.967 13.537 104.225 13.4394 104.442 13.5363C104.733 13.6527 104.849 13.9878 104.719 14.2724C104.246 15.3101 103.534 16.1212 102.582 16.7058C101.483 17.3805 100.216 17.7178 98.7807 17.7178C97.2567 17.7178 95.9188 17.4604 94.767 16.9455C93.6151 16.4128 92.6493 15.7203 91.8696 14.868C91.0899 14.0157 90.4963 13.048 90.0887 11.9649C89.6988 10.8818 89.5039 9.77208 89.5039 8.6357C89.5039 7.28625 89.7077 6.85043 90.1153 5.71405C90.5228 4.55992 91.1076 3.56559 91.8696 2.73106C92.6316 1.87877 93.562 1.21293 94.6606 0.733518C95.7593 0.254109 96.9998 0.0144043 98.382 0.0144043C99.1085 0.0144043 99.8085 0.0943053 100.482 0.254107C101.155 0.413911 101.802 0.671372 102.422 1.02649C102.936 1.32834 103.308 1.426 103.539 1.31946C103.739 1.2192 103.927 0.968721 104.105 0.568033C104.187 0.38246 104.365 0.254107 104.568 0.254107C104.836 0.254107 105.052 0.472326 105.05 0.740123L105.004 6.56464C105.002 6.80147 104.81 6.99247 104.573 6.99247C104.349 6.99247 104.163 6.82078 104.136 6.59847C104.05 5.90825 103.895 5.24945 103.672 4.62206C103.424 3.87631 103.06 3.22822 102.582 2.67779C102.103 2.12736 101.519 1.70122 100.827 1.39936C100.154 1.07976 99.3566 0.946589 98.4352 0.999858Z" fill="#1A202C"/>
<path d="M115.578 0.102642C116.039 0.102642 116.42 0.262445 116.721 0.582052C117.04 0.883902 117.199 1.26565 117.199 1.72731C117.199 2.18896 117.04 2.57959 116.721 2.8992C116.42 3.2188 116.039 3.37861 115.578 3.37861C115.117 3.37861 114.727 3.2188 114.408 2.8992C114.089 2.57959 113.93 2.18896 113.93 1.72731C113.93 1.26565 114.089 0.883902 114.408 0.582052C114.727 0.262445 115.117 0.102642 115.578 0.102642Z" fill="#1A202C"/>
<path d="M123.296 13.6611C123.668 14.3004 124.365 14.9661 124.843 15.2857C125.426 15.6747 126.07 15.889 126.743 15.7469C127.434 15.6049 127.983 15.1788 128.391 14.4685C128.905 13.5807 129.162 12.3467 129.162 10.7664C129.162 9.31043 128.914 8.15629 128.418 7.30401C128.01 6.61153 127.461 6.21202 126.77 6.10549C126.078 5.99895 125.423 6.17651 124.803 6.63816C124.306 7.02879 123.679 7.92339 123.289 8.65138L123.296 13.6611ZM123.324 19.1345C123.324 19.3653 123.33 19.9442 123.33 20.2638C123.33 20.5419 123.33 20.7361 123.332 20.9207C123.334 21.1105 123.342 21.3031 123.4 21.4838C123.471 21.7043 123.575 21.7681 123.796 21.843C123.836 21.8563 123.876 21.8659 123.917 21.8728C124.091 21.9022 124.179 21.9179 124.284 21.9252C124.401 21.9334 124.508 22.0014 124.553 22.1101C124.632 22.3015 124.491 22.5119 124.284 22.5119H119.721C119.564 22.5119 119.436 22.385 119.435 22.2277C119.434 22.0756 119.553 21.9607 119.705 21.9593C119.741 21.9589 119.79 21.9531 119.896 21.9332C120.197 21.8799 120.718 21.8472 120.785 21.3657C120.812 21.2017 120.807 20.8751 120.807 20.5555C120.825 20.2358 120.807 19.8951 120.807 19.6643V16.805V13.6504V7.71855C120.807 7.20363 120.777 6.48991 120.618 6.2946C120.458 6.09928 120.099 5.78371 119.762 5.76596L119.613 5.76277C119.404 5.7583 119.254 5.56013 119.306 5.35781C119.34 5.22715 119.451 5.13106 119.586 5.11652C119.652 5.10928 119.633 5.11163 119.663 5.11071C120.14 5.09595 119.636 5.11071 120.14 5.09595C120.889 5.07396 120.14 5.09595 121.612 5.05448C123.084 5.01301 121.612 5.05448 122.508 5.02354C123.289 4.99661 122.971 5.00959 123.289 4.99983L123.366 6.70914C124.046 5.95529 124.437 5.6034 124.803 5.39988C125.521 4.99984 125.725 4.98871 126.374 4.88033C126.905 4.79155 127.558 4.77379 128.072 4.88033C128.604 4.96911 129.145 5.13872 129.595 5.48077C130.044 5.82282 130.66 6.47205 130.951 7.06073C131.427 8.02489 131.763 9.03521 131.763 10.793C131.763 12.7462 131.106 14.4936 130.381 15.3741C130.044 15.7825 130.031 15.8221 129.586 16.1956C129.141 16.5692 128.639 16.8212 128.125 16.9455C127.629 17.052 127.115 17.0786 126.583 17.0254C126.052 16.9721 125.49 16.8389 125.029 16.6259C124.361 16.2402 123.903 15.9675 123.324 15.4322V16.6259V19.1345Z" fill="#1A202C"/>
<path d="M138.066 9.62844C135.766 8.98851 134.863 8.34859 134.863 7.34604C134.863 6.19418 135.787 5.36227 137.077 5.36227C138.582 5.36227 139.227 6.06619 140.84 8.68988L140.861 8.73255C140.861 8.75388 140.883 8.75388 140.883 8.75388H141.119C141.27 8.75388 141.42 8.62589 141.42 8.47657V4.72235C141.42 4.70101 141.399 4.67969 141.399 4.67969H141.076C140.99 4.67969 140.904 4.72235 140.861 4.78634L140.345 5.3836C139.7 5.04231 138.647 4.67969 137.615 4.67969C134.97 4.67969 133.121 6.2795 133.121 8.5619C133.121 10.7163 134.583 11.5055 137.099 12.1881C139.55 12.8494 140.41 13.532 140.41 14.7905C140.41 16.1983 139.012 16.8383 138.023 16.8383C136.174 16.8383 135.4 16.177 133.637 13.0627L133.616 13.02C133.616 12.9987 133.594 12.9987 133.594 12.9987H133.358C133.207 12.9987 133.057 13.1267 133.057 13.276V17.4569C133.057 17.4782 133.078 17.4995 133.1 17.4995H133.401C133.487 17.4995 133.551 17.4782 133.616 17.4142L134.411 16.625C135.357 17.2009 136.755 17.4995 137.679 17.4995C139.055 17.4995 140.173 17.0729 140.947 16.2623C141.635 15.5371 142.001 14.5345 142.001 13.404C142.001 11.4416 140.947 10.4177 138.066 9.62844Z" fill="#1A202C"/>
<path d="M117.02 5.11658C116.977 5.05259 116.913 5.03125 116.827 5.03125L113.387 5.1379C113.236 5.1379 113.107 5.26589 113.107 5.41521V5.45787C113.107 5.58585 113.215 5.71384 113.344 5.73517C114.44 5.88449 114.591 6.39643 114.591 6.9297V16.0166C114.591 16.6566 114.419 16.8699 113.365 16.9339C113.215 16.9339 113.086 17.0618 113.086 17.2112C113.086 17.3605 113.236 17.4885 113.387 17.4885H118.031C118.203 17.4885 118.332 17.3605 118.332 17.1898C118.332 17.0618 118.224 16.9339 118.074 16.9125C117.235 16.8485 117.106 16.6352 117.106 15.9953L117.063 9.06278L117.106 5.32989C117.106 5.24456 117.085 5.18057 117.02 5.11658Z" fill="#1A202C"/>
<path d="M110.278 0.223991C110.235 0.160555 110.171 0.139404 110.085 0.139404L106.645 0.245131C106.494 0.245131 106.365 0.372007 106.365 0.520025V0.562311C106.365 0.689183 106.473 0.81606 106.602 0.837205C107.698 0.985222 107.849 1.69273 107.849 2.22136V16.0297C107.849 16.6641 107.677 16.8755 106.623 16.9389C106.473 16.9389 106.344 17.0658 106.344 17.2138C106.344 17.3619 106.494 17.4887 106.645 17.4887H111.289C111.461 17.4887 111.59 17.3619 111.59 17.1927C111.59 17.0658 111.482 16.9389 111.332 16.9178C110.493 16.8544 110.364 16.6429 110.364 16.0086L110.321 9.13631L110.364 0.435445C110.364 0.350863 110.343 0.287427 110.278 0.223991Z" fill="#1A202C"/>
</svg>
