<svg width="49" height="50" viewBox="0 0 49 50" fill="none" xmlns="http://www.w3.org/2000/svg">
<path d="M47.3177 18.0649C48.3621 17.7349 48.9487 16.6168 48.5369 15.6018C46.8826 11.5235 44.1755 7.94235 40.6773 5.23335C36.6549 2.11843 31.7779 0.304835 26.6976 0.0347746C21.6173 -0.235285 16.5755 1.05104 12.2455 3.72197C7.91554 6.3929 4.5035 10.3213 2.46505 14.9825C0.426601 19.6438 -0.141229 24.816 0.837391 29.8085C1.81601 34.801 4.2945 39.376 7.94187 42.9228C11.5892 46.4695 16.2319 48.819 21.2498 49.6576C25.6138 50.3869 30.0809 49.9432 34.1985 48.389C35.2233 48.0022 35.646 46.8125 35.1792 45.8216C34.7124 44.8307 33.533 44.4154 32.5026 44.7868C29.1206 46.0058 25.4711 46.3414 21.9036 45.7452C17.6819 45.0397 13.7758 43.0629 10.7072 40.079C7.63853 37.095 5.55329 33.2458 4.72995 29.0455C3.9066 24.8451 4.38434 20.4936 6.09936 16.5719C7.81437 12.6502 10.685 9.34513 14.328 7.09798C17.971 4.85084 22.2128 3.76861 26.487 3.99582C30.7613 4.22303 34.8645 5.74886 38.2487 8.36956C41.1084 10.5841 43.3397 13.4915 44.7408 16.8022C45.1677 17.8109 46.2732 18.3949 47.3177 18.0649Z" fill="#193DA1"/>
</svg>
