<?xml version="1.0" encoding="UTF-8"?>
<svg width="108px" height="34px" viewBox="0 0 108 34" version="1.1" xmlns="http://www.w3.org/2000/svg" xmlns:xlink="http://www.w3.org/1999/xlink">
    <title>F986B02D-413B-415E-AC6B-088ECBCFBED7</title>
    <g id="Publishers" stroke="none" stroke-width="1" fill="none" fill-rule="evenodd">
        <g id="Search-results---grid-view" transform="translate(-20.000000, -15.000000)" fill="#000000" fill-rule="nonzero">
            <g id="Identity-/-teachers-logo-white-black" transform="translate(20.000000, 15.000000)">
                <g id="boclips" transform="translate(0.500000, 0.500000)">
                    <path d="M39.8132174,17.7416408 C39.8132174,12.7199055 43.0898199,8.73044113 48.1471658,8.73044113 C51.1388841,8.73044113 52.8484064,9.90580557 54.237434,11.6509384 L52.9563236,12.7906923 C51.7086525,11.0816043 50.1415723,10.4052215 48.2539974,10.4052215 C44.2293567,10.4052215 41.7720134,13.6106029 41.7720134,17.7420751 C41.7720134,21.8735473 44.2295739,25.1145393 48.2539974,25.1145393 C50.1415723,25.1145393 51.7086525,24.4023288 52.955238,22.6928065 L54.2363483,23.8325604 C52.8466693,25.6130867 51.1377984,26.7886682 48.1460801,26.7886682 C43.0898199,26.7880168 39.8132174,22.7633762 39.8132174,17.7416408 Z" id="Shape"></path>
                    <path d="M58.3689062,23.0482604 L58.3689062,2.60564811 L60.2208706,2.60564811 L60.2208706,22.7638104 C60.2208706,24.1534894 60.790639,25.1143222 62.0013968,25.1143222 C62.820656,25.1143222 63.5328665,24.723475 63.9245822,24.295063 L64.6367927,25.7199182 C63.9601928,26.3609077 63.1409336,26.7884511 61.7162955,26.7884511 C59.4739181,26.7880168 58.3689062,25.3989892 58.3689062,23.0482604 Z" id="Shape"></path>
                    <path d="M66.9868702,5.02694662 C66.9868702,4.24351509 67.6634701,3.63726762 68.4115083,3.63726762 C69.1949398,3.63726762 69.8361464,4.24264654 69.8361464,5.02694662 C69.8341178,5.8129107 69.1974724,6.44955611 68.4115083,6.45158472 C67.6643387,6.45158472 66.9868702,5.81059529 66.9868702,5.02694662 Z M67.4862861,26.3604734 L67.4862861,9.15841883 L69.3382505,9.15841883 L69.3382505,26.3604734 L67.4862861,26.3604734 Z" id="Shape"></path>
                    <path d="M76.9558627,23.5826354 L76.9558627,32.9136784 L75.1038983,32.9136784 L75.1038983,9.15885311 L76.9558627,9.15885311 L76.9558627,11.8656872 C78.1668377,10.1205544 80.3749073,8.73152682 82.9392993,8.73152682 C87.5337084,8.73152682 90.6322582,12.2217925 90.6322582,17.7427265 C90.6322582,23.2273987 87.5337084,26.7891025 82.9392993,26.7891025 C80.5184351,26.7880168 78.3455417,25.5414313 76.9558627,23.5826354 Z M88.6378517,17.7416408 C88.6378517,13.5754267 86.4664783,10.4052215 82.6196732,10.4052215 C80.2346366,10.4052215 77.9546945,11.8294253 76.9558627,13.466858 L76.9558627,21.9786418 C77.9531745,23.6169431 80.2324652,25.1128026 82.6188046,25.1128026 C86.4664783,25.114105 88.6378517,21.9091579 88.6378517,17.7416408 L88.6378517,17.7416408 Z" id="Shape"></path>
                    <path d="M93.803332,24.0455722 L94.9074754,22.6921551 C96.0116188,24.0818341 98.0416358,25.2209366 100.463369,25.2209366 C103.348255,25.2209366 105.057778,23.7250775 105.057778,21.730671 C105.057778,17.0294304 94.1950477,19.700654 94.1950477,13.5035542 C94.1950477,10.8679411 96.4387279,8.73109254 100.320926,8.73109254 C103.277034,8.73109254 105.23583,9.87084645 106.482416,11.259874 L105.44971,12.5765949 C104.452399,11.2231778 102.600434,10.2966528 100.321144,10.2966528 C97.6503543,10.2966528 96.0472293,11.6500698 96.0472293,13.4308132 C96.0472293,17.740338 106.874349,15.104725 106.874349,21.729151 C106.874349,24.5072062 104.7375,26.786499 100.427975,26.786499 C97.6490515,26.7880168 95.51242,25.9696262 93.803332,24.0455722 Z" id="Shape"></path>
                    <path d="M28.8792666,9.10196312 C23.8025955,9.10196312 19.6869743,13.2173672 19.6869743,18.2940382 C19.6869743,23.3707093 23.8025955,27.4861134 28.8792666,27.4861134 C33.9559376,27.4861134 38.0713417,23.3707093 38.0713417,18.2940382 C38.0713417,13.2173672 33.956589,9.10196312 28.8792666,9.10196312 Z M28.8655869,23.6501651 C25.9225074,23.6501651 23.5363851,21.2640428 23.5363851,18.3207461 C23.5363851,15.3774495 25.9225074,12.9915443 28.8655869,12.9915443 C31.8086664,12.9915443 34.1947887,15.3776666 34.1947887,18.3207461 C34.1947887,21.2638257 31.8106207,23.6510336 28.8662383,23.6510336 L28.8655869,23.6501651 Z" id="Shape"></path>
                    <path d="M30.9453284,17.9815776 C30.8011492,17.8237188 29.012806,16.2553357 28.3939646,15.9804399 C28.108429,15.8536317 27.8832576,15.9747943 27.7770774,16.2796551 C27.739103,16.4060346 27.7127917,16.5356286 27.6984737,16.666811 C27.6459265,17.079372 27.6252984,17.689745 27.6276869,18.2940382 C27.6252984,18.8981143 27.6459265,19.5087045 27.6984737,19.9212655 C27.7127794,20.0523786 27.7390911,20.1819017 27.7770774,20.3082042 C27.8832576,20.6121965 28.108429,20.7344448 28.3939646,20.6076366 C29.012806,20.3327408 30.8011492,18.7643577 30.9453284,18.6064989 C31.0276234,18.516604 31.0929818,18.4171551 31.0873362,18.2940382 C31.0940675,18.1709214 31.0276234,18.0714725 30.9453284,17.9815776 Z" id="Shape"></path>
                    <path d="M9.2105318,9.15385895 C7.30597561,9.15081188 5.44793177,9.74212496 3.89544393,10.8453588 L3.89544393,0.44448014 C3.89472853,0.206852556 3.70227102,0.014395044 3.46464344,0.0136796526 L0.449257162,0.0136796526 C0.211629578,0.014395044 0.0191720656,0.206852556 0.0184566741,0.44448014 L0.0184566741,18.1961093 C0.0184566741,18.2026234 0.0184566741,18.2089204 0.0184566741,18.2154345 C0.0184566741,18.258862 0.0184566741,18.3022895 0.0184566741,18.3468026 C0.0184566741,23.4234737 4.13386073,27.5388777 9.2105318,27.5388777 C14.2872029,27.5388777 18.4026069,23.4234737 18.4026069,18.3468026 C18.4026069,13.2701316 14.2876371,9.15385895 9.2105318,9.15385895 Z M9.19706928,23.7020609 C6.2537726,23.7020609 3.86786748,21.3159386 3.86786748,18.3728591 C3.86786748,18.3630879 3.89544393,17.8263244 3.89544393,17.8263244 C4.16903698,15.1405526 6.43833934,13.0443087 9.19706928,13.0443087 C12.140366,13.0443087 14.5262711,15.430431 14.5262711,18.3737277 C14.5262711,21.3170243 12.140366,23.7029294 9.19706928,23.7029294 L9.19706928,23.7020609 Z" id="Shape"></path>
                    <path d="M9.26959315,9.15277326 C7.28930059,9.15277326 5.40606842,9.72949004 3.88958122,10.8444903 L3.91129495,17.7392523 C4.29931938,14.9842137 6.53583401,13.0443087 9.25613064,13.0434402" id="Shape"></path>
                </g>
            </g>
        </g>
    </g>
</svg>